G04*
G04 #@! TF.GenerationSoftware,Altium Limited,Altium Designer,18.1.9 (240)*
G04*
G04 Layer_Color=255*
%FSLAX25Y25*%
%MOIN*%
G70*
G01*
G75*
%ADD26R,0.04567X0.05787*%
%ADD27R,0.04449X0.07087*%
%ADD75R,0.05906X0.05906*%
%ADD76C,0.05906*%
%ADD77R,0.07874X0.07874*%
%ADD78C,0.07874*%
%ADD79R,0.06299X0.06299*%
%ADD80C,0.06299*%
%ADD81C,0.04724*%
%ADD82R,0.04724X0.04724*%
%ADD83C,0.06000*%
%ADD84O,0.06500X0.06000*%
%ADD85R,0.06500X0.06000*%
%ADD86C,0.05512*%
%ADD87O,0.06000X0.06500*%
%ADD88R,0.06000X0.06500*%
%ADD89C,0.11811*%
%ADD90R,0.05906X0.05906*%
%ADD96R,0.04134X0.12598*%
%ADD97R,0.41142X0.32677*%
D26*
X147455Y110700D02*
D03*
X154345D02*
D03*
D27*
X29132Y94900D02*
D03*
X17400D02*
D03*
D75*
X201200Y33300D02*
D03*
X224400Y241300D02*
D03*
X104700Y298800D02*
D03*
X86500Y159400D02*
D03*
X150200Y33000D02*
D03*
X74400Y71300D02*
D03*
X86500Y108700D02*
D03*
D76*
X211200Y33300D02*
D03*
X221200D02*
D03*
X234400Y241300D02*
D03*
X224400Y231300D02*
D03*
X234400D02*
D03*
X224400Y221300D02*
D03*
X234400D02*
D03*
X224400Y211300D02*
D03*
X234400D02*
D03*
X224400Y201300D02*
D03*
X234400D02*
D03*
X224400Y191300D02*
D03*
X234400D02*
D03*
X224400Y181300D02*
D03*
X234400D02*
D03*
X224400Y171300D02*
D03*
X234400D02*
D03*
X224400Y161300D02*
D03*
X234400D02*
D03*
X224400Y151300D02*
D03*
X234400D02*
D03*
X224400Y141300D02*
D03*
X234400D02*
D03*
X224400Y131300D02*
D03*
X234400D02*
D03*
X224400Y121300D02*
D03*
X234400D02*
D03*
X224400Y111300D02*
D03*
X234400D02*
D03*
X224400Y101300D02*
D03*
X234400D02*
D03*
X224400Y91300D02*
D03*
X234400D02*
D03*
X224400Y81300D02*
D03*
X234400D02*
D03*
X224400Y71300D02*
D03*
X234400D02*
D03*
X104700Y288800D02*
D03*
X96500Y159400D02*
D03*
X86500Y149400D02*
D03*
X96500D02*
D03*
X86500Y139400D02*
D03*
X96500D02*
D03*
X86500Y129400D02*
D03*
X96500D02*
D03*
X160200Y33000D02*
D03*
X170200D02*
D03*
X64400Y261300D02*
D03*
X74400Y251300D02*
D03*
Y261300D02*
D03*
X84400Y251300D02*
D03*
Y261300D02*
D03*
X94400Y251300D02*
D03*
Y261300D02*
D03*
X104400Y251300D02*
D03*
Y261300D02*
D03*
X114400Y251300D02*
D03*
Y261300D02*
D03*
X124400Y251300D02*
D03*
Y261300D02*
D03*
X134400Y251300D02*
D03*
Y261300D02*
D03*
X144400Y251300D02*
D03*
Y261300D02*
D03*
X154400Y251300D02*
D03*
Y261300D02*
D03*
X164400Y251300D02*
D03*
Y261300D02*
D03*
X174400Y251300D02*
D03*
Y261300D02*
D03*
X184400Y251300D02*
D03*
Y261300D02*
D03*
X194400Y251300D02*
D03*
Y261300D02*
D03*
X204400Y251300D02*
D03*
Y261300D02*
D03*
X214400Y251300D02*
D03*
Y261300D02*
D03*
X224400Y251300D02*
D03*
Y261300D02*
D03*
X234400Y251300D02*
D03*
Y261300D02*
D03*
X64400Y241300D02*
D03*
X74400D02*
D03*
X64400Y231300D02*
D03*
X74400D02*
D03*
X64400Y221300D02*
D03*
X74400D02*
D03*
X64400Y211300D02*
D03*
X74400D02*
D03*
X64400Y201300D02*
D03*
X74400D02*
D03*
X64400Y191300D02*
D03*
X74400D02*
D03*
X64400Y181300D02*
D03*
X74400D02*
D03*
X64400Y171300D02*
D03*
X74400D02*
D03*
X64400Y161300D02*
D03*
X74400D02*
D03*
X64400Y151300D02*
D03*
X74400D02*
D03*
X64400Y141300D02*
D03*
X74400D02*
D03*
X64400Y131300D02*
D03*
X74400D02*
D03*
X64400Y121300D02*
D03*
X74400D02*
D03*
X64400Y111300D02*
D03*
X74400D02*
D03*
X64400Y101300D02*
D03*
X74400D02*
D03*
X64400Y91300D02*
D03*
X74400D02*
D03*
X64400Y81300D02*
D03*
X74400D02*
D03*
X64400Y71300D02*
D03*
X96500Y78700D02*
D03*
X86500D02*
D03*
X96500Y88700D02*
D03*
X86500D02*
D03*
X96500Y98700D02*
D03*
X86500D02*
D03*
X96500Y108700D02*
D03*
X88000Y298800D02*
D03*
Y288800D02*
D03*
X78000Y298800D02*
D03*
Y288800D02*
D03*
X68000Y298800D02*
D03*
Y288800D02*
D03*
X58000Y298800D02*
D03*
D77*
X189200Y374009D02*
D03*
X129800D02*
D03*
X8200D02*
D03*
X69300D02*
D03*
D78*
X189200Y415191D02*
D03*
X207115Y432200D02*
D03*
X226800D02*
D03*
X19100Y273815D02*
D03*
Y293500D02*
D03*
X169400Y432100D02*
D03*
X149715D02*
D03*
X109500Y432800D02*
D03*
X89815D02*
D03*
X48385Y433500D02*
D03*
X28700D02*
D03*
X129800Y415191D02*
D03*
X8200D02*
D03*
X224300Y352785D02*
D03*
Y333100D02*
D03*
X69300Y415191D02*
D03*
D79*
X229700Y401100D02*
D03*
X110300D02*
D03*
X48400D02*
D03*
X169500D02*
D03*
D80*
X219700D02*
D03*
X209700D02*
D03*
X90300D02*
D03*
X100300D02*
D03*
X28400D02*
D03*
X38400D02*
D03*
X149500D02*
D03*
X159500D02*
D03*
D81*
X68000Y33500D02*
D03*
Y23500D02*
D03*
X14700D02*
D03*
Y33500D02*
D03*
X41350Y23500D02*
D03*
Y33500D02*
D03*
D82*
X68000Y13500D02*
D03*
X14700D02*
D03*
X41350D02*
D03*
D83*
X32500Y316500D02*
D03*
Y336500D02*
D03*
Y326500D02*
D03*
X10500Y316500D02*
D03*
Y326500D02*
D03*
Y336500D02*
D03*
D84*
X200400Y203300D02*
D03*
Y127510D02*
D03*
Y165405D02*
D03*
D85*
Y193290D02*
D03*
Y117500D02*
D03*
Y155395D02*
D03*
D86*
X169900Y213800D02*
D03*
X129900D02*
D03*
X130000Y161100D02*
D03*
X170000D02*
D03*
X129900Y187450D02*
D03*
X169900D02*
D03*
D87*
X117600Y33600D02*
D03*
D88*
X107590D02*
D03*
D89*
X199400Y326100D02*
D03*
X9700Y439100D02*
D03*
D90*
X64400Y251300D02*
D03*
X58000Y288800D02*
D03*
D96*
X18114Y210705D02*
D03*
X24807D02*
D03*
X31500D02*
D03*
X38193D02*
D03*
X44886D02*
D03*
D97*
X31500Y173500D02*
D03*
M02*
