M48
;Layer_Color=9474304
;FILE_FORMAT=2:5
INCH,LZ
;TYPE=PLATED
T1F00S00C0.01181
T2F00S00C0.01968
T3F00S00C0.02165
T4F00S00C0.02362
T5F00S00C0.02756
T6F00S00C0.03000
T7F00S00C0.03346
T8F00S00C0.03543
T9F00S00C0.03937
T10F00S00C0.04000
T11F00S00C0.04724
;TYPE=NON_PLATED
T12F00S00C0.10630
%
T01
X00334Y00392
X00558Y00616
X00978Y00604
Y00561
X01397Y00736
X01317Y00823
Y00878
X01479Y00876
X0152Y00797
X014Y01111
X01619
X01588Y01332
X01757Y00864
X01745Y02928
X0169145Y02879
X0154Y02978
X01415Y02894
X00749Y03048
X00746Y03096
X00635Y03082
X00517Y02916
X0048Y02942
X0048385Y02727
X0054Y02702
X0038333Y02761
X00995Y02378
X00889Y03233
X00851Y03209
X01329Y03189
X01541Y03261
Y03429
Y03565
X01154Y03689
X00977Y03585
X00601Y03656
X00497Y03579
X0175395Y0368605
T02
X01763Y02707
X01882Y02983
X00088Y0194147
X00049Y01708
T03
X00334Y02723
T04
X0014Y00728
X00118Y01195
X00528Y02623
T05
X00147Y00135
Y00235
Y00335
X004135
Y00235
Y00135
X0068
Y00235
Y00335
X00321Y0173
X00201Y02565
T06
X02151Y02836
X02235Y0279
Y0288567
Y0298133
Y03077
X02341Y03074
Y0297833
Y0288267
Y02787
X02151Y03028
T07
X017Y01611
X01699Y018745
Y02138
X01299
Y018745
X013Y01611
T08
X00644Y00713
Y00813
Y00913
Y01013
Y01113
Y01213
Y01313
Y01413
Y01513
X00744
Y01413
Y01313
Y01213
Y01113
Y01013
Y00913
Y00813
Y00713
X00865Y00787
X00965
Y00887
X00865
Y00987
X00965
Y01087
X00865
Y01294
Y01394
Y01494
X00965
Y01394
Y01294
X01502Y0033
X01602
X01702
X02012Y00333
X02112
X02212
X02244Y00713
Y00813
Y00913
Y01013
Y01113
Y01213
Y01313
Y01413
Y01513
X02344
Y01413
Y01313
Y01213
Y01113
Y01013
Y00913
Y00813
Y00713
Y01613
Y01713
Y01813
Y01913
Y02013
Y02113
Y02213
Y02313
Y02413
X02244
Y02313
Y02213
Y02113
Y02013
Y01913
Y01813
Y01713
Y01613
Y02513
X02144
X02044
X01944
X01844
X01744
X01644
Y02613
X01744
X01844
X01944
X02044
X02144
X02244
X02344
Y02513
X01544
X01444
X01344
X01244
X01144
X01044
X00944
X00844
X00744
X00644
Y02613
X00744
X00844
X00944
X01044
X01144
X01244
X01344
X01444
X01544
X01047Y02888
Y02988
X0088
Y02888
X0078
Y02988
X0068
Y02888
X0058
Y02988
X00644Y02413
X00744
Y02313
X00644
Y02213
X00744
Y02113
X00644
Y02013
X00744
Y01913
X00644
Y01813
X00744
Y01713
X00644
Y01613
X00744
X00865Y01594
X00965
T09
X010759Y00336
X01176
X02004Y01175
Y012751
Y0155395
Y0165405
Y019329
Y02033
X00191Y0273815
Y02935
X00284Y04011
X00384
X00484
X0048385Y04335
X00287
X0089815Y04328
X01095
X01103Y04011
X01003
X00903
X01495
X0149715Y04321
X01694
X01695Y04011
X01595
X02097
X02197
X02297
X02268Y04322
X0207115
X02243Y0352785
Y03331
T10
X00105Y03165
Y03265
Y03365
X00325
Y03265
Y03165
T11
X00082Y0374009
Y0415191
X00693
Y0374009
X01298
Y0415191
X01892
Y0374009
T12
X00097Y04391
X01994Y03261
M30
