G04*
G04 #@! TF.GenerationSoftware,Altium Limited,Altium Designer,18.1.9 (240)*
G04*
G04 Layer_Color=255*
%FSLAX25Y25*%
%MOIN*%
G70*
G01*
G75*
%ADD25R,0.14961X0.05512*%
%ADD26R,0.04567X0.05787*%
%ADD27R,0.04449X0.07087*%
%ADD28R,0.15748X0.05512*%
%ADD29R,0.05787X0.04567*%
%ADD30O,0.08000X0.02400*%
%ADD31R,0.40551X0.41339*%
%ADD32R,0.18110X0.03150*%
G04:AMPARAMS|DCode=33|XSize=23.62mil|YSize=39.37mil|CornerRadius=0mil|HoleSize=0mil|Usage=FLASHONLY|Rotation=0.000|XOffset=0mil|YOffset=0mil|HoleType=Round|Shape=Octagon|*
%AMOCTAGOND33*
4,1,8,-0.00591,0.01968,0.00591,0.01968,0.01181,0.01378,0.01181,-0.01378,0.00591,-0.01968,-0.00591,-0.01968,-0.01181,-0.01378,-0.01181,0.01378,-0.00591,0.01968,0.0*
%
%ADD33OCTAGOND33*%

%ADD34R,0.05906X0.05118*%
%ADD75R,0.05906X0.05906*%
%ADD76C,0.05906*%
%ADD77R,0.07874X0.07874*%
%ADD78C,0.07874*%
%ADD79R,0.06299X0.06299*%
%ADD80C,0.06299*%
%ADD81C,0.04724*%
%ADD82R,0.04724X0.04724*%
%ADD83C,0.06000*%
%ADD84O,0.06500X0.06000*%
%ADD85R,0.06500X0.06000*%
%ADD86C,0.05512*%
%ADD87O,0.06000X0.06500*%
%ADD88R,0.06000X0.06500*%
%ADD89C,0.11811*%
%ADD90R,0.05906X0.05906*%
D25*
X42100Y73100D02*
D03*
X14341D02*
D03*
D26*
X197145Y67700D02*
D03*
X190255D02*
D03*
X114990Y380200D02*
D03*
X108100D02*
D03*
X146745Y281100D02*
D03*
X139855D02*
D03*
X125745Y280500D02*
D03*
X118855D02*
D03*
X207055Y379209D02*
D03*
X213945D02*
D03*
X151555Y380200D02*
D03*
X158445D02*
D03*
X176145Y380300D02*
D03*
X169255D02*
D03*
X90410Y380200D02*
D03*
X97300D02*
D03*
X25055D02*
D03*
X31945D02*
D03*
X138455Y325500D02*
D03*
X145345D02*
D03*
X156405Y67700D02*
D03*
X163295D02*
D03*
X122555D02*
D03*
X129445D02*
D03*
X160755Y299400D02*
D03*
X167645D02*
D03*
X161455Y280500D02*
D03*
X168345D02*
D03*
X45255Y380200D02*
D03*
X52145D02*
D03*
X227055Y378600D02*
D03*
X233945D02*
D03*
D27*
X187468Y53000D02*
D03*
X199200D02*
D03*
X165483D02*
D03*
X153751D02*
D03*
X131766D02*
D03*
X120034D02*
D03*
D28*
X11400Y120100D02*
D03*
X46280D02*
D03*
X44800Y171200D02*
D03*
X9920D02*
D03*
D29*
X181800Y327755D02*
D03*
Y334645D02*
D03*
X49400Y243545D02*
D03*
Y236655D02*
D03*
X175700Y97410D02*
D03*
Y104300D02*
D03*
X38600Y243545D02*
D03*
Y236655D02*
D03*
X16500Y243345D02*
D03*
Y236455D02*
D03*
X27533Y243545D02*
D03*
Y236655D02*
D03*
X120100Y323145D02*
D03*
Y316255D02*
D03*
X121300Y302445D02*
D03*
Y295555D02*
D03*
X66300Y350955D02*
D03*
Y357845D02*
D03*
X113800Y357245D02*
D03*
Y350355D02*
D03*
X184000Y356745D02*
D03*
Y349855D02*
D03*
X139300Y357045D02*
D03*
Y350155D02*
D03*
X82900Y357845D02*
D03*
Y350955D02*
D03*
X32700Y357745D02*
D03*
Y350855D02*
D03*
X164900Y316910D02*
D03*
Y323800D02*
D03*
X127300Y116410D02*
D03*
Y123300D02*
D03*
X127100Y104200D02*
D03*
Y97310D02*
D03*
X49500Y315710D02*
D03*
Y322600D02*
D03*
X64000Y315710D02*
D03*
Y322600D02*
D03*
X98500Y316210D02*
D03*
Y323100D02*
D03*
X79167Y316210D02*
D03*
Y323100D02*
D03*
X169500Y349055D02*
D03*
Y355945D02*
D03*
D30*
X161800Y126100D02*
D03*
Y121100D02*
D03*
Y116100D02*
D03*
Y111100D02*
D03*
Y106100D02*
D03*
Y101100D02*
D03*
Y96100D02*
D03*
X139800D02*
D03*
Y101100D02*
D03*
Y106100D02*
D03*
Y111100D02*
D03*
Y116100D02*
D03*
Y121100D02*
D03*
Y126100D02*
D03*
D31*
X220100Y293300D02*
D03*
D32*
X188100Y308300D02*
D03*
Y303300D02*
D03*
Y298300D02*
D03*
Y293300D02*
D03*
Y288300D02*
D03*
Y283300D02*
D03*
Y278300D02*
D03*
D33*
X193300Y342164D02*
D03*
X203300D02*
D03*
Y364900D02*
D03*
X193300D02*
D03*
X198300D02*
D03*
X142300Y315200D02*
D03*
X137300D02*
D03*
X147300D02*
D03*
Y292464D02*
D03*
X137300D02*
D03*
X154100Y364800D02*
D03*
X149100D02*
D03*
X159100D02*
D03*
Y342064D02*
D03*
X149100D02*
D03*
X98000Y365700D02*
D03*
X93000D02*
D03*
X103000D02*
D03*
Y342964D02*
D03*
X93000D02*
D03*
X47600Y365700D02*
D03*
X42600D02*
D03*
X52600D02*
D03*
Y342964D02*
D03*
X42600D02*
D03*
D34*
X49300Y218300D02*
D03*
Y210820D02*
D03*
X16400Y218300D02*
D03*
Y210820D02*
D03*
X38333D02*
D03*
Y218300D02*
D03*
X27367Y210820D02*
D03*
Y218300D02*
D03*
D75*
X201200Y33300D02*
D03*
X224400Y241300D02*
D03*
X104700Y298800D02*
D03*
X86500Y159400D02*
D03*
X150200Y33000D02*
D03*
X74400Y71300D02*
D03*
X86500Y108700D02*
D03*
D76*
X211200Y33300D02*
D03*
X221200D02*
D03*
X234400Y241300D02*
D03*
X224400Y231300D02*
D03*
X234400D02*
D03*
X224400Y221300D02*
D03*
X234400D02*
D03*
X224400Y211300D02*
D03*
X234400D02*
D03*
X224400Y201300D02*
D03*
X234400D02*
D03*
X224400Y191300D02*
D03*
X234400D02*
D03*
X224400Y181300D02*
D03*
X234400D02*
D03*
X224400Y171300D02*
D03*
X234400D02*
D03*
X224400Y161300D02*
D03*
X234400D02*
D03*
X224400Y151300D02*
D03*
X234400D02*
D03*
X224400Y141300D02*
D03*
X234400D02*
D03*
X224400Y131300D02*
D03*
X234400D02*
D03*
X224400Y121300D02*
D03*
X234400D02*
D03*
X224400Y111300D02*
D03*
X234400D02*
D03*
X224400Y101300D02*
D03*
X234400D02*
D03*
X224400Y91300D02*
D03*
X234400D02*
D03*
X224400Y81300D02*
D03*
X234400D02*
D03*
X224400Y71300D02*
D03*
X234400D02*
D03*
X104700Y288800D02*
D03*
X96500Y159400D02*
D03*
X86500Y149400D02*
D03*
X96500D02*
D03*
X86500Y139400D02*
D03*
X96500D02*
D03*
X86500Y129400D02*
D03*
X96500D02*
D03*
X160200Y33000D02*
D03*
X170200D02*
D03*
X64400Y261300D02*
D03*
X74400Y251300D02*
D03*
Y261300D02*
D03*
X84400Y251300D02*
D03*
Y261300D02*
D03*
X94400Y251300D02*
D03*
Y261300D02*
D03*
X104400Y251300D02*
D03*
Y261300D02*
D03*
X114400Y251300D02*
D03*
Y261300D02*
D03*
X124400Y251300D02*
D03*
Y261300D02*
D03*
X134400Y251300D02*
D03*
Y261300D02*
D03*
X144400Y251300D02*
D03*
Y261300D02*
D03*
X154400Y251300D02*
D03*
Y261300D02*
D03*
X164400Y251300D02*
D03*
Y261300D02*
D03*
X174400Y251300D02*
D03*
Y261300D02*
D03*
X184400Y251300D02*
D03*
Y261300D02*
D03*
X194400Y251300D02*
D03*
Y261300D02*
D03*
X204400Y251300D02*
D03*
Y261300D02*
D03*
X214400Y251300D02*
D03*
Y261300D02*
D03*
X224400Y251300D02*
D03*
Y261300D02*
D03*
X234400Y251300D02*
D03*
Y261300D02*
D03*
X64400Y241300D02*
D03*
X74400D02*
D03*
X64400Y231300D02*
D03*
X74400D02*
D03*
X64400Y221300D02*
D03*
X74400D02*
D03*
X64400Y211300D02*
D03*
X74400D02*
D03*
X64400Y201300D02*
D03*
X74400D02*
D03*
X64400Y191300D02*
D03*
X74400D02*
D03*
X64400Y181300D02*
D03*
X74400D02*
D03*
X64400Y171300D02*
D03*
X74400D02*
D03*
X64400Y161300D02*
D03*
X74400D02*
D03*
X64400Y151300D02*
D03*
X74400D02*
D03*
X64400Y141300D02*
D03*
X74400D02*
D03*
X64400Y131300D02*
D03*
X74400D02*
D03*
X64400Y121300D02*
D03*
X74400D02*
D03*
X64400Y111300D02*
D03*
X74400D02*
D03*
X64400Y101300D02*
D03*
X74400D02*
D03*
X64400Y91300D02*
D03*
X74400D02*
D03*
X64400Y81300D02*
D03*
X74400D02*
D03*
X64400Y71300D02*
D03*
X96500Y78700D02*
D03*
X86500D02*
D03*
X96500Y88700D02*
D03*
X86500D02*
D03*
X96500Y98700D02*
D03*
X86500D02*
D03*
X96500Y108700D02*
D03*
X88000Y298800D02*
D03*
Y288800D02*
D03*
X78000Y298800D02*
D03*
Y288800D02*
D03*
X68000Y298800D02*
D03*
Y288800D02*
D03*
X58000Y298800D02*
D03*
D77*
X189200Y374009D02*
D03*
X129800D02*
D03*
X8200D02*
D03*
X69300D02*
D03*
D78*
X189200Y415191D02*
D03*
X207115Y432200D02*
D03*
X226800D02*
D03*
X19100Y273815D02*
D03*
Y293500D02*
D03*
X169400Y432100D02*
D03*
X149715D02*
D03*
X109500Y432800D02*
D03*
X89815D02*
D03*
X48385Y433500D02*
D03*
X28700D02*
D03*
X129800Y415191D02*
D03*
X8200D02*
D03*
X224300Y352785D02*
D03*
Y333100D02*
D03*
X69300Y415191D02*
D03*
D79*
X229700Y401100D02*
D03*
X110300D02*
D03*
X48400D02*
D03*
X169500D02*
D03*
D80*
X219700D02*
D03*
X209700D02*
D03*
X90300D02*
D03*
X100300D02*
D03*
X28400D02*
D03*
X38400D02*
D03*
X149500D02*
D03*
X159500D02*
D03*
D81*
X68000Y33500D02*
D03*
Y23500D02*
D03*
X14700D02*
D03*
Y33500D02*
D03*
X41350Y23500D02*
D03*
Y33500D02*
D03*
D82*
X68000Y13500D02*
D03*
X14700D02*
D03*
X41350D02*
D03*
D83*
X32500Y316500D02*
D03*
Y336500D02*
D03*
Y326500D02*
D03*
X10500Y316500D02*
D03*
Y326500D02*
D03*
Y336500D02*
D03*
D84*
X200400Y203300D02*
D03*
Y127510D02*
D03*
Y165405D02*
D03*
D85*
Y193290D02*
D03*
Y117500D02*
D03*
Y155395D02*
D03*
D86*
X169900Y213800D02*
D03*
X129900D02*
D03*
X130000Y161100D02*
D03*
X170000D02*
D03*
X129900Y187450D02*
D03*
X169900D02*
D03*
D87*
X117600Y33600D02*
D03*
D88*
X107590D02*
D03*
D89*
X199400Y326100D02*
D03*
X9700Y439100D02*
D03*
D90*
X64400Y251300D02*
D03*
X58000Y288800D02*
D03*
M02*
