G04*
G04 #@! TF.GenerationSoftware,Altium Limited,Altium Designer,18.1.9 (240)*
G04*
G04 Layer_Color=2752767*
%FSLAX25Y25*%
%MOIN*%
G70*
G01*
G75*
%ADD103C,0.00200*%
%ADD104C,0.00267*%
%ADD105C,0.00133*%
D103*
X200400Y32500D02*
Y34100D01*
X202000D01*
Y32500D01*
X200400D01*
X210400D02*
Y34100D01*
X212000D01*
Y32500D01*
X210400D01*
X220400D02*
Y34100D01*
X222000D01*
Y32500D01*
X220400D01*
X223600Y240500D02*
Y242100D01*
X225200D01*
Y240500D01*
X223600D01*
X233600D02*
Y242100D01*
X235200D01*
Y240500D01*
X233600D01*
X223600Y230500D02*
Y232100D01*
X225200D01*
Y230500D01*
X223600D01*
X233600D02*
Y232100D01*
X235200D01*
Y230500D01*
X233600D01*
X223600Y220500D02*
Y222100D01*
X225200D01*
Y220500D01*
X223600D01*
X233600D02*
Y222100D01*
X235200D01*
Y220500D01*
X233600D01*
X223600Y210500D02*
Y212100D01*
X225200D01*
Y210500D01*
X223600D01*
X233600D02*
Y212100D01*
X235200D01*
Y210500D01*
X233600D01*
X223600Y200500D02*
Y202100D01*
X225200D01*
Y200500D01*
X223600D01*
X233600D02*
Y202100D01*
X235200D01*
Y200500D01*
X233600D01*
X223600Y190500D02*
Y192100D01*
X225200D01*
Y190500D01*
X223600D01*
X233600D02*
Y192100D01*
X235200D01*
Y190500D01*
X233600D01*
X223600Y180500D02*
Y182100D01*
X225200D01*
Y180500D01*
X223600D01*
X233600D02*
Y182100D01*
X235200D01*
Y180500D01*
X233600D01*
X223600Y170500D02*
Y172100D01*
X225200D01*
Y170500D01*
X223600D01*
X233600D02*
Y172100D01*
X235200D01*
Y170500D01*
X233600D01*
X223600Y160500D02*
Y162100D01*
X225200D01*
Y160500D01*
X223600D01*
X233600D02*
Y162100D01*
X235200D01*
Y160500D01*
X233600D01*
X223600Y150500D02*
Y152100D01*
X225200D01*
Y150500D01*
X223600D01*
X233600D02*
Y152100D01*
X235200D01*
Y150500D01*
X233600D01*
X223600Y140500D02*
Y142100D01*
X225200D01*
Y140500D01*
X223600D01*
X233600D02*
Y142100D01*
X235200D01*
Y140500D01*
X233600D01*
X223600Y130500D02*
Y132100D01*
X225200D01*
Y130500D01*
X223600D01*
X233600D02*
Y132100D01*
X235200D01*
Y130500D01*
X233600D01*
X223600Y120500D02*
Y122100D01*
X225200D01*
Y120500D01*
X223600D01*
X233600D02*
Y122100D01*
X235200D01*
Y120500D01*
X233600D01*
X223600Y110500D02*
Y112100D01*
X225200D01*
Y110500D01*
X223600D01*
X233600D02*
Y112100D01*
X235200D01*
Y110500D01*
X233600D01*
X223600Y100500D02*
Y102100D01*
X225200D01*
Y100500D01*
X223600D01*
X233600D02*
Y102100D01*
X235200D01*
Y100500D01*
X233600D01*
X223600Y90500D02*
Y92100D01*
X225200D01*
Y90500D01*
X223600D01*
X233600D02*
Y92100D01*
X235200D01*
Y90500D01*
X233600D01*
X223600Y80500D02*
Y82100D01*
X225200D01*
Y80500D01*
X223600D01*
X233600D02*
Y82100D01*
X235200D01*
Y80500D01*
X233600D01*
X223600Y70500D02*
Y72100D01*
X225200D01*
Y70500D01*
X223600D01*
X233600D02*
Y72100D01*
X235200D01*
Y70500D01*
X233600D01*
X103900Y288000D02*
Y289600D01*
X105500D01*
Y288000D01*
X103900D01*
Y298000D02*
Y299600D01*
X105500D01*
Y298000D01*
X103900D01*
X229700Y400300D02*
X228900Y401900D01*
X230500D01*
X229700Y400300D01*
X219700D02*
X218900Y401900D01*
X220500D01*
X219700Y400300D01*
X209700D02*
X208900Y401900D01*
X210500D01*
X209700Y400300D01*
X68000Y32700D02*
X68400Y33100D01*
X68800D01*
X68400Y33500D01*
X68800Y33900D01*
X68400D01*
X68000Y34300D01*
X67600Y33900D01*
X67200D01*
X67600Y33500D01*
X67200Y33100D01*
X67600D01*
X68000Y32700D01*
Y22700D02*
X68400Y23100D01*
X68800D01*
X68400Y23500D01*
X68800Y23900D01*
X68400D01*
X68000Y24300D01*
X67600Y23900D01*
X67200D01*
X67600Y23500D01*
X67200Y23100D01*
X67600D01*
X68000Y22700D01*
Y12700D02*
X68400Y13100D01*
X68800D01*
X68400Y13500D01*
X68800Y13900D01*
X68400D01*
X68000Y14300D01*
X67600Y13900D01*
X67200D01*
X67600Y13500D01*
X67200Y13100D01*
X67600D01*
X68000Y12700D01*
X31700Y315700D02*
X32100Y316500D01*
X31700Y317300D01*
X32500Y316900D01*
X33300Y317300D01*
X32900Y316500D01*
X33300Y315700D01*
X32500Y316100D01*
X31700Y315700D01*
Y335700D02*
X32100Y336500D01*
X31700Y337300D01*
X32500Y336900D01*
X33300Y337300D01*
X32900Y336500D01*
X33300Y335700D01*
X32500Y336100D01*
X31700Y335700D01*
Y325700D02*
X32100Y326500D01*
X31700Y327300D01*
X32500Y326900D01*
X33300Y327300D01*
X32900Y326500D01*
X33300Y325700D01*
X32500Y326100D01*
X31700Y325700D01*
X9700Y315700D02*
X10100Y316500D01*
X9700Y317300D01*
X10500Y316900D01*
X11300Y317300D01*
X10900Y316500D01*
X11300Y315700D01*
X10500Y316100D01*
X9700Y315700D01*
Y325700D02*
X10100Y326500D01*
X9700Y327300D01*
X10500Y326900D01*
X11300Y327300D01*
X10900Y326500D01*
X11300Y325700D01*
X10500Y326100D01*
X9700Y325700D01*
Y335700D02*
X10100Y336500D01*
X9700Y337300D01*
X10500Y336900D01*
X11300Y337300D01*
X10900Y336500D01*
X11300Y335700D01*
X10500Y336100D01*
X9700Y335700D01*
X207115Y431400D02*
X206315Y433000D01*
X207915D01*
X207115Y431400D01*
X226800D02*
X226000Y433000D01*
X227600D01*
X226800Y431400D01*
X200400Y202500D02*
X199600Y204100D01*
X201200D01*
X200400Y202500D01*
Y192490D02*
X199600Y194090D01*
X201200D01*
X200400Y192490D01*
X85700Y158600D02*
Y160200D01*
X87300D01*
Y158600D01*
X85700D01*
X95700D02*
Y160200D01*
X97300D01*
Y158600D01*
X95700D01*
X85700Y148600D02*
Y150200D01*
X87300D01*
Y148600D01*
X85700D01*
X95700D02*
Y150200D01*
X97300D01*
Y148600D01*
X95700D01*
X85700Y138600D02*
Y140200D01*
X87300D01*
Y138600D01*
X85700D01*
X95700D02*
Y140200D01*
X97300D01*
Y138600D01*
X95700D01*
X85700Y128600D02*
Y130200D01*
X87300D01*
Y128600D01*
X85700D01*
X95700D02*
Y130200D01*
X97300D01*
Y128600D01*
X95700D01*
X169500Y213400D02*
Y213000D01*
X170300D01*
Y213400D01*
X170700D01*
Y214200D01*
X170300D01*
Y214600D01*
X169500D01*
Y214200D01*
X169100D01*
Y213400D01*
X169500D01*
X129500D02*
Y213000D01*
X130300D01*
Y213400D01*
X130700D01*
Y214200D01*
X130300D01*
Y214600D01*
X129500D01*
Y214200D01*
X129100D01*
Y213400D01*
X129500D01*
X117600Y32800D02*
X116800Y34400D01*
X118400D01*
X117600Y32800D01*
X107590D02*
X106790Y34400D01*
X108390D01*
X107590Y32800D01*
X149400Y32200D02*
Y33800D01*
X151000D01*
Y32200D01*
X149400D01*
X159400D02*
Y33800D01*
X161000D01*
Y32200D01*
X159400D01*
X169400D02*
Y33800D01*
X171000D01*
Y32200D01*
X169400D01*
X129600Y160700D02*
Y160300D01*
X130400D01*
Y160700D01*
X130800D01*
Y161500D01*
X130400D01*
Y161900D01*
X129600D01*
Y161500D01*
X129200D01*
Y160700D01*
X129600D01*
X169600D02*
Y160300D01*
X170400D01*
Y160700D01*
X170800D01*
Y161500D01*
X170400D01*
Y161900D01*
X169600D01*
Y161500D01*
X169200D01*
Y160700D01*
X169600D01*
X129500Y187050D02*
Y186650D01*
X130300D01*
Y187050D01*
X130700D01*
Y187850D01*
X130300D01*
Y188250D01*
X129500D01*
Y187850D01*
X129100D01*
Y187050D01*
X129500D01*
X169500D02*
Y186650D01*
X170300D01*
Y187050D01*
X170700D01*
Y187850D01*
X170300D01*
Y188250D01*
X169500D01*
Y187850D01*
X169100D01*
Y187050D01*
X169500D01*
X200400Y116700D02*
X199600Y118300D01*
X201200D01*
X200400Y116700D01*
Y126710D02*
X199600Y128310D01*
X201200D01*
X200400Y126710D01*
Y154595D02*
X199600Y156195D01*
X201200D01*
X200400Y154595D01*
Y164605D02*
X199600Y166205D01*
X201200D01*
X200400Y164605D01*
X198600Y325300D02*
X199000D01*
X199400Y325700D01*
X199800Y325300D01*
X200200D01*
Y325700D01*
X199800Y326100D01*
X200200Y326500D01*
Y326900D01*
X199800D01*
X199400Y326500D01*
X199000Y326900D01*
X198600D01*
Y326500D01*
X199000Y326100D01*
X198600Y325700D01*
Y325300D01*
X8900Y438300D02*
X9300D01*
X9700Y438700D01*
X10100Y438300D01*
X10500D01*
Y438700D01*
X10100Y439100D01*
X10500Y439500D01*
Y439900D01*
X10100D01*
X9700Y439500D01*
X9300Y439900D01*
X8900D01*
Y439500D01*
X9300Y439100D01*
X8900Y438700D01*
Y438300D01*
X19100Y273015D02*
X18300Y274615D01*
X19900D01*
X19100Y273015D01*
Y292700D02*
X18300Y294300D01*
X19900D01*
X19100Y292700D01*
X14700Y12700D02*
X15100Y13100D01*
X15500D01*
X15100Y13500D01*
X15500Y13900D01*
X15100D01*
X14700Y14300D01*
X14300Y13900D01*
X13900D01*
X14300Y13500D01*
X13900Y13100D01*
X14300D01*
X14700Y12700D01*
Y22700D02*
X15100Y23100D01*
X15500D01*
X15100Y23500D01*
X15500Y23900D01*
X15100D01*
X14700Y24300D01*
X14300Y23900D01*
X13900D01*
X14300Y23500D01*
X13900Y23100D01*
X14300D01*
X14700Y22700D01*
Y32700D02*
X15100Y33100D01*
X15500D01*
X15100Y33500D01*
X15500Y33900D01*
X15100D01*
X14700Y34300D01*
X14300Y33900D01*
X13900D01*
X14300Y33500D01*
X13900Y33100D01*
X14300D01*
X14700Y32700D01*
X41350Y12700D02*
X41750Y13100D01*
X42150D01*
X41750Y13500D01*
X42150Y13900D01*
X41750D01*
X41350Y14300D01*
X40950Y13900D01*
X40550D01*
X40950Y13500D01*
X40550Y13100D01*
X40950D01*
X41350Y12700D01*
Y22700D02*
X41750Y23100D01*
X42150D01*
X41750Y23500D01*
X42150Y23900D01*
X41750D01*
X41350Y24300D01*
X40950Y23900D01*
X40550D01*
X40950Y23500D01*
X40550Y23100D01*
X40950D01*
X41350Y22700D01*
Y32700D02*
X41750Y33100D01*
X42150D01*
X41750Y33500D01*
X42150Y33900D01*
X41750D01*
X41350Y34300D01*
X40950Y33900D01*
X40550D01*
X40950Y33500D01*
X40550Y33100D01*
X40950D01*
X41350Y32700D01*
X169400Y431300D02*
X168600Y432900D01*
X170200D01*
X169400Y431300D01*
X149715D02*
X148915Y432900D01*
X150515D01*
X149715Y431300D01*
X109500Y432000D02*
X108700Y433600D01*
X110300D01*
X109500Y432000D01*
X89815D02*
X89015Y433600D01*
X90615D01*
X89815Y432000D01*
X48385Y432700D02*
X47585Y434300D01*
X49185D01*
X48385Y432700D01*
X28700D02*
X27900Y434300D01*
X29500D01*
X28700Y432700D01*
X63600Y250500D02*
Y252100D01*
X65200D01*
Y250500D01*
X63600D01*
Y260500D02*
Y262100D01*
X65200D01*
Y260500D01*
X63600D01*
X73600Y250500D02*
Y252100D01*
X75200D01*
Y250500D01*
X73600D01*
Y260500D02*
Y262100D01*
X75200D01*
Y260500D01*
X73600D01*
X83600Y250500D02*
Y252100D01*
X85200D01*
Y250500D01*
X83600D01*
Y260500D02*
Y262100D01*
X85200D01*
Y260500D01*
X83600D01*
X93600Y250500D02*
Y252100D01*
X95200D01*
Y250500D01*
X93600D01*
Y260500D02*
Y262100D01*
X95200D01*
Y260500D01*
X93600D01*
X103600Y250500D02*
Y252100D01*
X105200D01*
Y250500D01*
X103600D01*
Y260500D02*
Y262100D01*
X105200D01*
Y260500D01*
X103600D01*
X113600Y250500D02*
Y252100D01*
X115200D01*
Y250500D01*
X113600D01*
Y260500D02*
Y262100D01*
X115200D01*
Y260500D01*
X113600D01*
X123600Y250500D02*
Y252100D01*
X125200D01*
Y250500D01*
X123600D01*
Y260500D02*
Y262100D01*
X125200D01*
Y260500D01*
X123600D01*
X133600Y250500D02*
Y252100D01*
X135200D01*
Y250500D01*
X133600D01*
Y260500D02*
Y262100D01*
X135200D01*
Y260500D01*
X133600D01*
X143600Y250500D02*
Y252100D01*
X145200D01*
Y250500D01*
X143600D01*
Y260500D02*
Y262100D01*
X145200D01*
Y260500D01*
X143600D01*
X153600Y250500D02*
Y252100D01*
X155200D01*
Y250500D01*
X153600D01*
Y260500D02*
Y262100D01*
X155200D01*
Y260500D01*
X153600D01*
X163600Y250500D02*
Y252100D01*
X165200D01*
Y250500D01*
X163600D01*
Y260500D02*
Y262100D01*
X165200D01*
Y260500D01*
X163600D01*
X173600Y250500D02*
Y252100D01*
X175200D01*
Y250500D01*
X173600D01*
Y260500D02*
Y262100D01*
X175200D01*
Y260500D01*
X173600D01*
X183600Y250500D02*
Y252100D01*
X185200D01*
Y250500D01*
X183600D01*
Y260500D02*
Y262100D01*
X185200D01*
Y260500D01*
X183600D01*
X193600Y250500D02*
Y252100D01*
X195200D01*
Y250500D01*
X193600D01*
Y260500D02*
Y262100D01*
X195200D01*
Y260500D01*
X193600D01*
X203600Y250500D02*
Y252100D01*
X205200D01*
Y250500D01*
X203600D01*
Y260500D02*
Y262100D01*
X205200D01*
Y260500D01*
X203600D01*
X213600Y250500D02*
Y252100D01*
X215200D01*
Y250500D01*
X213600D01*
Y260500D02*
Y262100D01*
X215200D01*
Y260500D01*
X213600D01*
X223600Y250500D02*
Y252100D01*
X225200D01*
Y250500D01*
X223600D01*
Y260500D02*
Y262100D01*
X225200D01*
Y260500D01*
X223600D01*
X233600Y250500D02*
Y252100D01*
X235200D01*
Y250500D01*
X233600D01*
Y260500D02*
Y262100D01*
X235200D01*
Y260500D01*
X233600D01*
X224300Y351985D02*
X223500Y353585D01*
X225100D01*
X224300Y351985D01*
Y332300D02*
X223500Y333900D01*
X225100D01*
X224300Y332300D01*
X63600Y240500D02*
Y242100D01*
X65200D01*
Y240500D01*
X63600D01*
X73600D02*
Y242100D01*
X75200D01*
Y240500D01*
X73600D01*
X63600Y230500D02*
Y232100D01*
X65200D01*
Y230500D01*
X63600D01*
X73600D02*
Y232100D01*
X75200D01*
Y230500D01*
X73600D01*
X63600Y220500D02*
Y222100D01*
X65200D01*
Y220500D01*
X63600D01*
X73600D02*
Y222100D01*
X75200D01*
Y220500D01*
X73600D01*
X63600Y210500D02*
Y212100D01*
X65200D01*
Y210500D01*
X63600D01*
X73600D02*
Y212100D01*
X75200D01*
Y210500D01*
X73600D01*
X63600Y200500D02*
Y202100D01*
X65200D01*
Y200500D01*
X63600D01*
X73600D02*
Y202100D01*
X75200D01*
Y200500D01*
X73600D01*
X63600Y190500D02*
Y192100D01*
X65200D01*
Y190500D01*
X63600D01*
X73600D02*
Y192100D01*
X75200D01*
Y190500D01*
X73600D01*
X63600Y180500D02*
Y182100D01*
X65200D01*
Y180500D01*
X63600D01*
X73600D02*
Y182100D01*
X75200D01*
Y180500D01*
X73600D01*
X63600Y170500D02*
Y172100D01*
X65200D01*
Y170500D01*
X63600D01*
X73600D02*
Y172100D01*
X75200D01*
Y170500D01*
X73600D01*
X63600Y160500D02*
Y162100D01*
X65200D01*
Y160500D01*
X63600D01*
X73600D02*
Y162100D01*
X75200D01*
Y160500D01*
X73600D01*
X63600Y150500D02*
Y152100D01*
X65200D01*
Y150500D01*
X63600D01*
X73600D02*
Y152100D01*
X75200D01*
Y150500D01*
X73600D01*
X63600Y140500D02*
Y142100D01*
X65200D01*
Y140500D01*
X63600D01*
X73600D02*
Y142100D01*
X75200D01*
Y140500D01*
X73600D01*
X63600Y130500D02*
Y132100D01*
X65200D01*
Y130500D01*
X63600D01*
X73600D02*
Y132100D01*
X75200D01*
Y130500D01*
X73600D01*
X63600Y120500D02*
Y122100D01*
X65200D01*
Y120500D01*
X63600D01*
X73600D02*
Y122100D01*
X75200D01*
Y120500D01*
X73600D01*
X63600Y110500D02*
Y112100D01*
X65200D01*
Y110500D01*
X63600D01*
X73600D02*
Y112100D01*
X75200D01*
Y110500D01*
X73600D01*
X63600Y100500D02*
Y102100D01*
X65200D01*
Y100500D01*
X63600D01*
X73600D02*
Y102100D01*
X75200D01*
Y100500D01*
X73600D01*
X63600Y90500D02*
Y92100D01*
X65200D01*
Y90500D01*
X63600D01*
X73600D02*
Y92100D01*
X75200D01*
Y90500D01*
X73600D01*
X63600Y80500D02*
Y82100D01*
X65200D01*
Y80500D01*
X63600D01*
X73600D02*
Y82100D01*
X75200D01*
Y80500D01*
X73600D01*
X63600Y70500D02*
Y72100D01*
X65200D01*
Y70500D01*
X63600D01*
X73600D02*
Y72100D01*
X75200D01*
Y70500D01*
X73600D01*
X90300Y400300D02*
X89500Y401900D01*
X91100D01*
X90300Y400300D01*
X100300D02*
X99500Y401900D01*
X101100D01*
X100300Y400300D01*
X110300D02*
X109500Y401900D01*
X111100D01*
X110300Y400300D01*
X28400D02*
X27600Y401900D01*
X29200D01*
X28400Y400300D01*
X38400D02*
X37600Y401900D01*
X39200D01*
X38400Y400300D01*
X48400D02*
X47600Y401900D01*
X49200D01*
X48400Y400300D01*
X149500D02*
X148700Y401900D01*
X150300D01*
X149500Y400300D01*
X159500D02*
X158700Y401900D01*
X160300D01*
X159500Y400300D01*
X169500D02*
X168700Y401900D01*
X170300D01*
X169500Y400300D01*
X95700Y77900D02*
Y79500D01*
X97300D01*
Y77900D01*
X95700D01*
X85700D02*
Y79500D01*
X87300D01*
Y77900D01*
X85700D01*
X95700Y87900D02*
Y89500D01*
X97300D01*
Y87900D01*
X95700D01*
X85700D02*
Y89500D01*
X87300D01*
Y87900D01*
X85700D01*
X95700Y97900D02*
Y99500D01*
X97300D01*
Y97900D01*
X95700D01*
X85700D02*
Y99500D01*
X87300D01*
Y97900D01*
X85700D01*
X95700Y107900D02*
Y109500D01*
X97300D01*
Y107900D01*
X95700D01*
X85700D02*
Y109500D01*
X87300D01*
Y107900D01*
X85700D01*
X87200Y298000D02*
Y299600D01*
X88800D01*
Y298000D01*
X87200D01*
Y288000D02*
Y289600D01*
X88800D01*
Y288000D01*
X87200D01*
X77200Y298000D02*
Y299600D01*
X78800D01*
Y298000D01*
X77200D01*
Y288000D02*
Y289600D01*
X78800D01*
Y288000D01*
X77200D01*
X67200Y298000D02*
Y299600D01*
X68800D01*
Y298000D01*
X67200D01*
Y288000D02*
Y289600D01*
X68800D01*
Y288000D01*
X67200D01*
X57200Y298000D02*
Y299600D01*
X58800D01*
Y298000D01*
X57200D01*
Y288000D02*
Y289600D01*
X58800D01*
Y288000D01*
X57200D01*
X73800Y309600D02*
X74600Y310400D01*
X75400Y309600D01*
X74600Y308800D01*
X73800Y309600D01*
X139200Y111100D02*
X140000Y111900D01*
X140800Y111100D01*
X140000Y110300D01*
X139200Y111100D01*
X158000Y133200D02*
X158800Y134000D01*
X159600Y133200D01*
X158800Y132400D01*
X158000Y133200D01*
X32600Y39200D02*
X33400Y40000D01*
X34200Y39200D01*
X33400Y38400D01*
X32600Y39200D01*
X55000Y61600D02*
X55800Y62400D01*
X56600Y61600D01*
X55800Y60800D01*
X55000Y61600D01*
X138900Y73600D02*
X139700Y74400D01*
X140500Y73600D01*
X139700Y72800D01*
X138900Y73600D01*
X151200Y79700D02*
X152000Y80500D01*
X152800Y79700D01*
X152000Y78900D01*
X151200Y79700D01*
X147100Y87600D02*
X147900Y88400D01*
X148700Y87600D01*
X147900Y86800D01*
X147100Y87600D01*
X174900Y86400D02*
X175700Y87200D01*
X176500Y86400D01*
X175700Y85600D01*
X174900Y86400D01*
X130900Y82300D02*
X131700Y83100D01*
X132500Y82300D01*
X131700Y81500D01*
X130900Y82300D01*
Y87800D02*
X131700Y88600D01*
X132500Y87800D01*
X131700Y87000D01*
X130900Y87800D01*
X97000Y56100D02*
X97800Y56900D01*
X98600Y56100D01*
X97800Y55300D01*
X97000Y56100D01*
Y60400D02*
X97800Y61200D01*
X98600Y60400D01*
X97800Y59600D01*
X97000Y60400D01*
X161100Y111100D02*
X161900Y111900D01*
X162700Y111100D01*
X161900Y110300D01*
X161100Y111100D01*
X53200Y270200D02*
X54000Y271000D01*
X54800Y270200D01*
X54000Y269400D01*
X53200Y270200D01*
X37533Y276100D02*
X38333Y276900D01*
X39133Y276100D01*
X38333Y275300D01*
X37533Y276100D01*
X47585Y272700D02*
X48385Y273500D01*
X49185Y272700D01*
X48385Y271900D01*
X47585Y272700D01*
X98700Y237800D02*
X99500Y238600D01*
X100300Y237800D01*
X99500Y237000D01*
X98700Y237800D01*
X52000Y261500D02*
Y263100D01*
X53600D01*
Y261500D01*
X52000D01*
X52400Y261900D02*
Y262700D01*
X53200D01*
Y261900D01*
X52400D01*
X47200Y294200D02*
X48000Y295000D01*
X48800Y294200D01*
X48000Y293400D01*
X47200Y294200D01*
X50900Y291600D02*
X51700Y292400D01*
X52500Y291600D01*
X51700Y290800D01*
X50900Y291600D01*
X74100Y304800D02*
X74900Y305600D01*
X75700Y304800D01*
X74900Y304000D01*
X74100Y304800D01*
X20100Y255700D02*
X20500Y256100D01*
X20900D01*
X20500Y256500D01*
X20900Y256900D01*
X20500D01*
X20100Y257300D01*
X19700Y256900D01*
X19300D01*
X19700Y256500D01*
X19300Y256100D01*
X19700D01*
X20100Y255700D01*
X62700Y308200D02*
X63500Y309000D01*
X64300Y308200D01*
X63500Y307400D01*
X62700Y308200D01*
X223500Y297333D02*
X222700Y298933D01*
X224300D01*
X223500Y297333D01*
Y297733D02*
X223100Y298533D01*
X223900D01*
X223500Y297733D01*
Y306900D02*
X222700Y308500D01*
X224300D01*
X223500Y306900D01*
Y307300D02*
X223100Y308100D01*
X223900D01*
X223500Y307300D01*
X215100Y302000D02*
X214300Y303600D01*
X215900D01*
X215100Y302000D01*
Y302400D02*
X214700Y303200D01*
X215500D01*
X215100Y302400D01*
X234100Y297033D02*
X233300Y298633D01*
X234900D01*
X234100Y297033D01*
Y297433D02*
X233700Y298233D01*
X234500D01*
X234100Y297433D01*
Y306600D02*
X233300Y308200D01*
X234900D01*
X234100Y306600D01*
Y307000D02*
X233700Y307800D01*
X234500D01*
X234100Y307000D01*
Y287467D02*
X233300Y289067D01*
X234900D01*
X234100Y287467D01*
Y287867D02*
X233700Y288667D01*
X234500D01*
X234100Y287867D01*
X223500Y287767D02*
X222700Y289367D01*
X224300D01*
X223500Y287767D01*
Y288167D02*
X223100Y288967D01*
X223900D01*
X223500Y288167D01*
X59300Y365600D02*
X60100Y366400D01*
X60900Y365600D01*
X60100Y364800D01*
X59300Y365600D01*
X13200Y72000D02*
Y73600D01*
X14800D01*
Y72000D01*
X13200D01*
X13600Y72400D02*
Y73200D01*
X14400D01*
Y72400D01*
X13600D01*
X11000Y118700D02*
Y120300D01*
X12600D01*
Y118700D01*
X11000D01*
X11400Y119100D02*
Y119900D01*
X12200D01*
Y119100D01*
X11400D01*
X33400Y271500D02*
X33800Y271900D01*
X34200D01*
X33800Y272300D01*
X34200Y272700D01*
X33800D01*
X33400Y273100D01*
X33000Y272700D01*
X32600D01*
X33000Y272300D01*
X32600Y271900D01*
X33000D01*
X33400Y271500D01*
Y271900D02*
X33600Y272100D01*
X33800D01*
X33600Y272300D01*
X33800Y272500D01*
X33600D01*
X33400Y272700D01*
X33200Y272500D01*
X33000D01*
X33200Y272300D01*
X33000Y272100D01*
X33200D01*
X33400Y271900D01*
X84300Y320900D02*
X85100Y321700D01*
X85900Y320900D01*
X85100Y320100D01*
X84300Y320900D01*
X168345Y287900D02*
X169145Y288700D01*
X169945Y287900D01*
X169145Y287100D01*
X168345Y287900D01*
X140700Y289400D02*
X141500Y290200D01*
X142300Y289400D01*
X141500Y288600D01*
X140700Y289400D01*
X48900Y357900D02*
X49700Y358700D01*
X50500Y357900D01*
X49700Y357100D01*
X48900Y357900D01*
X88100Y323300D02*
X88900Y324100D01*
X89700Y323300D01*
X88900Y322500D01*
X88100Y323300D01*
X215100Y282800D02*
X214300Y284400D01*
X215900D01*
X215100Y282800D01*
Y283200D02*
X214700Y284000D01*
X215500D01*
X215100Y283200D01*
X223500Y278200D02*
X222700Y279800D01*
X224300D01*
X223500Y278200D01*
Y278600D02*
X223100Y279400D01*
X223900D01*
X223500Y278600D01*
X234100Y277900D02*
X233300Y279500D01*
X234900D01*
X234100Y277900D01*
Y278300D02*
X233700Y279100D01*
X234500D01*
X234100Y278300D01*
X174595Y368605D02*
X175395Y369405D01*
X176195Y368605D01*
X175395Y367805D01*
X174595Y368605D01*
X153300Y356500D02*
X154100Y357300D01*
X154900Y356500D01*
X154100Y355700D01*
X153300Y356500D01*
X132100Y318900D02*
X132900Y319700D01*
X133700Y318900D01*
X132900Y318100D01*
X132100Y318900D01*
X114600Y368900D02*
X115400Y369700D01*
X116200Y368900D01*
X115400Y368100D01*
X114600Y368900D01*
X96900Y358500D02*
X97700Y359300D01*
X98500Y358500D01*
X97700Y357700D01*
X96900Y358500D01*
X153200Y297800D02*
X154000Y298600D01*
X154800Y297800D01*
X154000Y297000D01*
X153200Y297800D01*
X153300Y326100D02*
X154100Y326900D01*
X154900Y326100D01*
X154100Y325300D01*
X153300Y326100D01*
Y342900D02*
X154100Y343700D01*
X154900Y342900D01*
X154100Y342100D01*
X153300Y342900D01*
X173700Y292800D02*
X174500Y293600D01*
X175300Y292800D01*
X174500Y292000D01*
X173700Y292800D01*
X32100Y172200D02*
X32500Y172600D01*
X32900D01*
X32500Y173000D01*
X32900Y173400D01*
X32500D01*
X32100Y173800D01*
X31700Y173400D01*
X31300D01*
X31700Y173000D01*
X31300Y172600D01*
X31700D01*
X32100Y172200D01*
D104*
X190000Y374009D02*
G03*
X190000Y374009I-800J0D01*
G01*
Y415191D02*
G03*
X190000Y415191I-800J0D01*
G01*
X130600D02*
G03*
X130600Y415191I-800J0D01*
G01*
Y374009D02*
G03*
X130600Y374009I-800J0D01*
G01*
X9000Y415191D02*
G03*
X9000Y415191I-800J0D01*
G01*
Y374009D02*
G03*
X9000Y374009I-800J0D01*
G01*
X70100Y415191D02*
G03*
X70100Y415191I-800J0D01*
G01*
Y374009D02*
G03*
X70100Y374009I-800J0D01*
G01*
X9600Y194147D02*
G03*
X9600Y194147I-800J0D01*
G01*
X5700Y170800D02*
G03*
X5700Y170800I-800J0D01*
G01*
X189000Y298300D02*
G03*
X189000Y298300I-800J0D01*
G01*
X177100Y270700D02*
G03*
X177100Y270700I-800J0D01*
G01*
D105*
X9200Y194147D02*
G03*
X9200Y194147I-400J0D01*
G01*
X5300Y170800D02*
G03*
X5300Y170800I-400J0D01*
G01*
X188600Y298300D02*
G03*
X188600Y298300I-400J0D01*
G01*
X176700Y270700D02*
G03*
X176700Y270700I-400J0D01*
G01*
M02*
