G04*
G04 #@! TF.GenerationSoftware,Altium Limited,Altium Designer,18.1.9 (240)*
G04*
G04 Layer_Color=16711935*
%FSLAX25Y25*%
%MOIN*%
G70*
G01*
G75*
%ADD101C,0.00394*%
%ADD102C,0.00197*%
D101*
X11028Y200272D02*
X51972D01*
X11028Y163264D02*
X51972D01*
X11028D02*
Y200272D01*
X51972Y163264D02*
Y200272D01*
X198637Y394998D02*
X240763D01*
X198637Y389880D02*
Y408383D01*
X240763Y389880D02*
Y408383D01*
X198637D02*
X240763D01*
X198637Y389880D02*
X240763D01*
X79237D02*
X121363D01*
X79237Y408383D02*
X121363D01*
Y389880D02*
Y408383D01*
X79237Y389880D02*
Y408383D01*
Y394998D02*
X121363D01*
X17337Y389880D02*
X59463D01*
X17337Y408383D02*
X59463D01*
Y389880D02*
Y408383D01*
X17337Y389880D02*
Y408383D01*
Y394998D02*
X59463D01*
X138437Y389880D02*
X180563D01*
X138437Y408383D02*
X180563D01*
Y389880D02*
Y408383D01*
X138437Y389880D02*
Y408383D01*
Y394998D02*
X180563D01*
D102*
X187035Y49850D02*
Y56150D01*
Y49850D02*
X199633D01*
Y56150D01*
X187035D02*
X199633D01*
X29565Y91750D02*
Y98050D01*
X16967Y91750D02*
X29565D01*
X16967D02*
Y98050D01*
X29565D01*
X153318Y56150D02*
X165916D01*
Y49850D02*
Y56150D01*
X153318Y49850D02*
X165916D01*
X153318D02*
Y56150D01*
X119601D02*
X132199D01*
Y49850D02*
Y56150D01*
X119601Y49850D02*
X132199D01*
X119601D02*
Y56150D01*
M02*
