G04*
G04 #@! TF.GenerationSoftware,Altium Limited,Altium Designer,18.1.9 (240)*
G04*
G04 Layer_Color=65535*
%FSLAX25Y25*%
%MOIN*%
G70*
G01*
G75*
%ADD10C,0.01000*%
%ADD11C,0.01200*%
%ADD12C,0.00984*%
%ADD13C,0.01800*%
%ADD14C,0.01500*%
%ADD15C,0.00787*%
%ADD16C,0.02000*%
%ADD17C,0.00500*%
%ADD18C,0.01378*%
%ADD19C,0.01968*%
%ADD20C,0.00800*%
%ADD21R,0.12847X0.05510*%
%ADD22R,0.11024X0.03150*%
%ADD23R,0.19069X0.05545*%
%ADD24R,0.06000X0.05200*%
D10*
X12513Y73098D02*
G03*
X12513Y73100I15748J0D01*
G01*
X148300Y128600D02*
G03*
X153300Y128600I2500J0D01*
G01*
X193600Y348664D02*
G03*
X193600Y348664I-566J0D01*
G01*
X53600Y205460D02*
G03*
X53600Y205460I-200J0D01*
G01*
X204736Y442700D02*
G03*
X204736Y442700I-2121J0D01*
G01*
X31721Y298000D02*
G03*
X31721Y298000I-2121J0D01*
G01*
X20700Y205460D02*
G03*
X20700Y205460I-200J0D01*
G01*
X147336Y442600D02*
G03*
X147336Y442600I-2121J0D01*
G01*
X87436Y443300D02*
G03*
X87436Y443300I-2121J0D01*
G01*
X26321Y444000D02*
G03*
X26321Y444000I-2121J0D01*
G01*
X137600Y298964D02*
G03*
X137600Y298964I-566J0D01*
G01*
X149400Y348564D02*
G03*
X149400Y348564I-566J0D01*
G01*
X93300Y349464D02*
G03*
X93300Y349464I-566J0D01*
G01*
X42900D02*
G03*
X42900Y349464I-566J0D01*
G01*
X236921Y357285D02*
G03*
X236921Y357285I-2121J0D01*
G01*
X42633Y205460D02*
G03*
X42633Y205460I-200J0D01*
G01*
X31667D02*
G03*
X31667Y205460I-200J0D01*
G01*
X218000Y39206D02*
X223300D01*
Y42700D01*
X198400Y39206D02*
X203400D01*
X198400D02*
Y42700D01*
X230600Y20000D02*
Y42700D01*
X191700Y20000D02*
Y42700D01*
Y20000D02*
X230600D01*
X191700Y42700D02*
X198400D01*
X223300D02*
X230600D01*
X203400D02*
X218000D01*
Y39206D02*
Y42700D01*
X203400Y39206D02*
Y42700D01*
X186684Y63519D02*
X191338D01*
X196062D02*
X200716D01*
X196062Y71881D02*
X200716D01*
X186684D02*
X191338D01*
X200716Y63519D02*
Y71881D01*
X186684Y63519D02*
Y71881D01*
X185981Y324184D02*
Y338216D01*
X177619Y324184D02*
Y338216D01*
X185981D01*
X177619Y324184D02*
X185981D01*
X32400Y326400D02*
X32500Y326500D01*
X29600Y326400D02*
X32400D01*
X26400Y328100D02*
X29600Y326400D01*
X13500Y326500D02*
X16400Y328100D01*
X10500Y326500D02*
X13500D01*
X15000Y316500D02*
Y322500D01*
X10500Y316500D02*
X15000D01*
X28000D02*
Y322500D01*
Y316500D02*
X32500D01*
X28000Y330500D02*
Y336500D01*
X32500D01*
X10500D02*
X15000D01*
Y329500D02*
Y336500D01*
X16400Y328100D02*
X26400D01*
X5000Y310000D02*
Y343000D01*
X38000D01*
Y310000D02*
Y343000D01*
X5000Y310000D02*
X38000D01*
X145800Y93600D02*
Y128600D01*
Y93600D02*
X155800D01*
Y128600D01*
X153300D02*
X155800D01*
X145800D02*
X148300D01*
X191017Y360164D02*
X205583D01*
X191017Y346987D02*
X205583D01*
X191017D02*
Y360164D01*
X205583Y346987D02*
Y360164D01*
X197272Y417239D02*
Y447161D01*
X236643Y417239D02*
Y447161D01*
X197272D02*
X236643D01*
X197272Y417239D02*
X236643D01*
X193600Y194090D02*
Y202040D01*
X191070Y209920D02*
Y213000D01*
Y202040D02*
Y209920D01*
Y194090D02*
X193600D01*
X191070Y183300D02*
Y194090D01*
Y202040D02*
X193600D01*
X214200Y183300D02*
Y213000D01*
X191070D02*
X214200D01*
X191070Y183300D02*
X214200D01*
X45219Y233084D02*
Y247116D01*
X53581Y233084D02*
Y247116D01*
X45219Y233084D02*
X53581D01*
X45219Y247116D02*
X53581D01*
X179881Y93839D02*
Y107871D01*
X171519Y93839D02*
Y107871D01*
X179881D01*
X171519Y93839D02*
X179881D01*
X108390Y40400D02*
X116340D01*
X124220Y42930D02*
X127300D01*
X116340D02*
X124220D01*
X108390Y40400D02*
Y42930D01*
X97600D02*
X108390D01*
X116340Y40400D02*
Y42930D01*
X97600Y19800D02*
X127300D01*
Y42930D01*
X97600Y19800D02*
Y42930D01*
X34419Y233084D02*
Y247116D01*
X42781Y233084D02*
Y247116D01*
X34419Y233084D02*
X42781D01*
X34419Y247116D02*
X42781D01*
X12319Y232884D02*
Y246916D01*
X20681Y232884D02*
Y246916D01*
X12319Y232884D02*
X20681D01*
X12319Y246916D02*
X20681D01*
X23352Y233084D02*
Y247116D01*
X31714Y233084D02*
Y247116D01*
X23352Y233084D02*
X31714D01*
X23352Y247116D02*
X31714D01*
X167000Y38906D02*
X172300D01*
Y42400D01*
X147400Y38906D02*
X152400D01*
X147400D02*
Y42400D01*
X179600Y19700D02*
Y42400D01*
X140700Y19700D02*
Y42400D01*
Y19700D02*
X179600D01*
X140700Y42400D02*
X147400D01*
X172300D02*
X179600D01*
X152400D02*
X167000D01*
Y38906D02*
Y42400D01*
X152400Y38906D02*
Y42400D01*
X191070Y107510D02*
X214200D01*
X191070Y137210D02*
X214200D01*
Y107510D02*
Y137210D01*
X191070Y126250D02*
X193600D01*
X191070Y107510D02*
Y118300D01*
X193600D01*
X191070Y126250D02*
Y134130D01*
Y137210D01*
X193600Y118300D02*
Y126250D01*
X191070Y145405D02*
X214200D01*
X191070Y175105D02*
X214200D01*
Y145405D02*
Y175105D01*
X191070Y164145D02*
X193600D01*
X191070Y145405D02*
Y156195D01*
X193600D01*
X191070Y164145D02*
Y172025D01*
Y175105D01*
X193600Y156195D02*
Y164145D01*
X104529Y384381D02*
X118561D01*
X104529Y376019D02*
X118561D01*
X104529D02*
Y384381D01*
X118561Y376019D02*
Y384381D01*
X4139Y263972D02*
Y303343D01*
X34061Y263972D02*
Y303343D01*
X4139Y263972D02*
X34061D01*
X4139Y303343D02*
X34061D01*
X136284Y276919D02*
Y285281D01*
X150316Y276919D02*
Y285281D01*
X136284D02*
X150316D01*
X136284Y276919D02*
X150316D01*
X115284Y276319D02*
Y284681D01*
X129316Y276319D02*
Y284681D01*
X115284D02*
X129316D01*
X115284Y276319D02*
X129316D01*
X139872Y417139D02*
X179243D01*
X139872Y447061D02*
X179243D01*
Y417139D02*
Y447061D01*
X139872Y417139D02*
Y447061D01*
X79972Y417839D02*
X119343D01*
X79972Y447761D02*
X119343D01*
Y417839D02*
Y447761D01*
X79972Y417839D02*
Y447761D01*
X18857Y418539D02*
X58228D01*
X18857Y448461D02*
X58228D01*
Y418539D02*
Y448461D01*
X18857Y418539D02*
Y448461D01*
X115919Y312684D02*
Y326716D01*
X124281Y312684D02*
Y326716D01*
X115919Y312684D02*
X124281D01*
X115919Y326716D02*
X124281D01*
X117119Y291984D02*
X125481D01*
X117119Y306016D02*
X125481D01*
X117119Y291984D02*
Y306016D01*
X125481Y291984D02*
Y306016D01*
X149583Y297287D02*
Y310464D01*
X135017Y297287D02*
Y310464D01*
Y297287D02*
X149583D01*
X135017Y310464D02*
X149583D01*
X62119Y361416D02*
X70481D01*
X62119Y347384D02*
X70481D01*
Y361416D01*
X62119Y347384D02*
Y361416D01*
X109619Y346784D02*
X117981D01*
X109619Y360816D02*
X117981D01*
X109619Y346784D02*
Y360816D01*
X117981Y346784D02*
Y360816D01*
X203484Y375028D02*
X217516D01*
X203484Y383391D02*
X217516D01*
Y375028D02*
Y383391D01*
X203484Y375028D02*
Y383391D01*
X188181Y346284D02*
Y350938D01*
Y355662D02*
Y360316D01*
X179819Y355662D02*
Y360316D01*
Y346284D02*
Y350938D01*
Y360316D02*
X188181D01*
X179819Y346284D02*
X188181D01*
X147984Y376019D02*
X162016D01*
X147984Y384381D02*
X162016D01*
Y376019D02*
Y384381D01*
X147984Y376019D02*
Y384381D01*
X161383Y346887D02*
Y360064D01*
X146817Y346887D02*
Y360064D01*
Y346887D02*
X161383D01*
X146817Y360064D02*
X161383D01*
X165684Y384481D02*
X179716D01*
X165684Y376119D02*
X179716D01*
X165684D02*
Y384481D01*
X179716Y376119D02*
Y384481D01*
X143481Y346584D02*
Y351238D01*
Y355962D02*
Y360616D01*
X135119Y355962D02*
Y360616D01*
Y346584D02*
Y351238D01*
Y360616D02*
X143481D01*
X135119Y346584D02*
X143481D01*
X86839Y376019D02*
X100871D01*
X86839Y384381D02*
X100871D01*
Y376019D02*
Y384381D01*
X86839Y376019D02*
Y384381D01*
X105283Y347787D02*
Y360964D01*
X90717Y347787D02*
Y360964D01*
Y347787D02*
X105283D01*
X90717Y360964D02*
X105283D01*
X87081Y347384D02*
Y352038D01*
Y356762D02*
Y361416D01*
X78719Y356762D02*
Y361416D01*
Y347384D02*
Y352038D01*
Y361416D02*
X87081D01*
X78719Y347384D02*
X87081D01*
X21484Y376019D02*
X35516D01*
X21484Y384381D02*
X35516D01*
Y376019D02*
Y384381D01*
X21484Y376019D02*
Y384381D01*
X54883Y347787D02*
Y360964D01*
X40317Y347787D02*
Y360964D01*
Y347787D02*
X54883D01*
X40317Y360964D02*
X54883D01*
X36881Y347284D02*
Y351938D01*
Y356662D02*
Y361316D01*
X28519Y356662D02*
Y361316D01*
Y347284D02*
Y351938D01*
Y361316D02*
X36881D01*
X28519Y347284D02*
X36881D01*
X134884Y321319D02*
Y329681D01*
X148916Y321319D02*
Y329681D01*
X134884D02*
X139538D01*
X144262D02*
X148916D01*
X144262Y321319D02*
X148916D01*
X134884D02*
X139538D01*
X160719Y313339D02*
X169081D01*
X160719Y327371D02*
X169081D01*
X160719Y313339D02*
Y317993D01*
Y322717D02*
Y327371D01*
X169081Y322717D02*
Y327371D01*
Y313339D02*
Y317993D01*
X209339Y362628D02*
X239261D01*
X209339Y323257D02*
X239261D01*
Y362628D01*
X209339Y323257D02*
Y362628D01*
X152834Y63519D02*
Y71881D01*
X166866Y63519D02*
Y71881D01*
X152834D02*
X157488D01*
X162212D02*
X166866D01*
X162212Y63519D02*
X166866D01*
X152834D02*
X157488D01*
X118984D02*
Y71881D01*
X133016Y63519D02*
Y71881D01*
X118984D02*
X123638D01*
X128362D02*
X133016D01*
X128362Y63519D02*
X133016D01*
X118984D02*
X123638D01*
X123119Y126871D02*
X131481D01*
X123119Y112839D02*
X131481D01*
Y126871D01*
X123119Y112839D02*
Y126871D01*
X122919Y93739D02*
X131281D01*
X122919Y107771D02*
X131281D01*
X122919Y93739D02*
Y107771D01*
X131281Y93739D02*
Y107771D01*
X157184Y295219D02*
X171216D01*
X157184Y303581D02*
X171216D01*
Y295219D02*
Y303581D01*
X157184Y295219D02*
Y303581D01*
X157884Y276319D02*
X171916D01*
X157884Y284681D02*
X171916D01*
Y276319D02*
Y284681D01*
X157884Y276319D02*
Y284681D01*
X45319Y326171D02*
X53681D01*
X45319Y312139D02*
X53681D01*
Y326171D01*
X45319Y312139D02*
Y326171D01*
X55716Y376019D02*
Y384381D01*
X41684Y376019D02*
Y384381D01*
Y376019D02*
X55716D01*
X41684Y384381D02*
X55716D01*
X59819Y326171D02*
X68181D01*
X59819Y312139D02*
X68181D01*
Y326171D01*
X59819Y312139D02*
Y326171D01*
X237516Y374419D02*
Y382781D01*
X223484Y374419D02*
Y382781D01*
Y374419D02*
X237516D01*
X223484Y382781D02*
X237516D01*
X94319Y326671D02*
X102681D01*
X94319Y312639D02*
X102681D01*
Y326671D01*
X94319Y312639D02*
Y326671D01*
X74986D02*
X83348D01*
X74986Y312639D02*
X83348D01*
Y326671D01*
X74986Y312639D02*
Y326671D01*
X173681Y345484D02*
Y359516D01*
X165319Y345484D02*
Y359516D01*
X173681D01*
X165319Y345484D02*
X173681D01*
X127700Y221200D02*
Y224349D01*
X129274D01*
X129799Y223824D01*
Y222774D01*
X129274Y222250D01*
X127700D01*
X128750D02*
X129799Y221200D01*
X132948D02*
X130849D01*
X132948Y223299D01*
Y223824D01*
X132423Y224349D01*
X131373D01*
X130849Y223824D01*
X136096Y224349D02*
X133997D01*
Y222774D01*
X135047Y223299D01*
X135572D01*
X136096Y222774D01*
Y221725D01*
X135572Y221200D01*
X134522D01*
X133997Y221725D01*
X127700Y194800D02*
Y197949D01*
X129274D01*
X129799Y197424D01*
Y196374D01*
X129274Y195850D01*
X127700D01*
X128750D02*
X129799Y194800D01*
X132948D02*
X130849D01*
X132948Y196899D01*
Y197424D01*
X132423Y197949D01*
X131373D01*
X130849Y197424D01*
X135572Y194800D02*
Y197949D01*
X133997Y196374D01*
X136096D01*
X127800Y168500D02*
Y171649D01*
X129374D01*
X129899Y171124D01*
Y170074D01*
X129374Y169550D01*
X127800D01*
X128849D02*
X129899Y168500D01*
X130949D02*
X131998D01*
X131473D01*
Y171649D01*
X130949Y171124D01*
X133572Y169025D02*
X134097Y168500D01*
X135147D01*
X135671Y169025D01*
Y171124D01*
X135147Y171649D01*
X134097D01*
X133572Y171124D01*
Y170599D01*
X134097Y170074D01*
X135671D01*
X86900Y173500D02*
Y176649D01*
X88474D01*
X88999Y176124D01*
Y175074D01*
X88474Y174549D01*
X86900D01*
X90049Y173500D02*
X91098D01*
X90573D01*
Y176649D01*
X90049Y176124D01*
X94247Y173500D02*
Y176649D01*
X92672Y175074D01*
X94771D01*
X191600Y216500D02*
Y219649D01*
X193174D01*
X193699Y219124D01*
Y218074D01*
X193174Y217549D01*
X191600D01*
X194749Y216500D02*
X195798D01*
X195273D01*
Y219649D01*
X194749Y219124D01*
X197372Y216500D02*
X198422D01*
X197897D01*
Y219649D01*
X197372Y219124D01*
X189100Y27300D02*
X185951D01*
Y28874D01*
X186476Y29399D01*
X187526D01*
X188050Y28874D01*
Y27300D01*
X189100Y30449D02*
Y31498D01*
Y30973D01*
X185951D01*
X186476Y30449D01*
X189100Y35171D02*
Y33072D01*
X187001Y35171D01*
X186476D01*
X185951Y34647D01*
Y33597D01*
X186476Y33072D01*
X191600Y178600D02*
Y181749D01*
X193174D01*
X193699Y181224D01*
Y180174D01*
X193174Y179649D01*
X191600D01*
X194749Y178600D02*
X195798D01*
X195273D01*
Y181749D01*
X194749Y181224D01*
X197372D02*
X197897Y181749D01*
X198947D01*
X199471Y181224D01*
Y179125D01*
X198947Y178600D01*
X197897D01*
X197372Y179125D01*
Y181224D01*
X191600Y140700D02*
Y143849D01*
X193174D01*
X193699Y143324D01*
Y142274D01*
X193174Y141750D01*
X191600D01*
X194749Y141225D02*
X195273Y140700D01*
X196323D01*
X196848Y141225D01*
Y143324D01*
X196323Y143849D01*
X195273D01*
X194749Y143324D01*
Y142799D01*
X195273Y142274D01*
X196848D01*
X95400Y28800D02*
X92251D01*
Y30374D01*
X92776Y30899D01*
X93826D01*
X94350Y30374D01*
Y28800D01*
X92776Y31949D02*
X92251Y32473D01*
Y33523D01*
X92776Y34048D01*
X93301D01*
X93826Y33523D01*
X94350Y34048D01*
X94875D01*
X95400Y33523D01*
Y32473D01*
X94875Y31949D01*
X94350D01*
X93826Y32473D01*
X93301Y31949D01*
X92776D01*
X93826Y32473D02*
Y33523D01*
D11*
X48496Y120100D02*
G03*
X48496Y120100I-19685J0D01*
G01*
X47016Y171200D02*
G03*
X47016Y171200I-19685J0D01*
G01*
D12*
X238696Y405824D02*
G03*
X238696Y405824I-492J0D01*
G01*
X189592Y312792D02*
G03*
X189592Y312792I-492J0D01*
G01*
X119296Y405824D02*
G03*
X119296Y405824I-492J0D01*
G01*
X57396D02*
G03*
X57396Y405824I-492J0D01*
G01*
X178496D02*
G03*
X178496Y405824I-492J0D01*
G01*
D13*
X15707Y329500D02*
G03*
X15707Y329500I-707J0D01*
G01*
X28707D02*
G03*
X28707Y329500I-707J0D01*
G01*
Y323500D02*
G03*
X28707Y323500I-707J0D01*
G01*
X15707D02*
G03*
X15707Y323500I-707J0D01*
G01*
D14*
X11730Y56571D02*
Y89711D01*
X38111Y56571D02*
X44801Y63261D01*
X38111Y89711D02*
X44801Y83021D01*
Y63261D02*
Y83021D01*
X38111Y56571D02*
X44801Y63261D01*
X11730Y56571D02*
X38111D01*
X11730Y89711D02*
X38111D01*
D15*
X183688Y384167D02*
Y405033D01*
X194712Y384167D02*
Y405033D01*
X183688D02*
X194712D01*
X219400Y66300D02*
X239400D01*
X219400Y246300D02*
X239400D01*
Y66300D02*
Y246300D01*
X219400Y66300D02*
Y246300D01*
X109700Y283800D02*
Y303800D01*
X99700D02*
X109700D01*
X99700Y283800D02*
Y303800D01*
Y283800D02*
X109700D01*
X198637Y391848D02*
X240763D01*
X198637Y389880D02*
X240763D01*
X198637Y408383D02*
X240763D01*
Y389880D02*
Y408383D01*
X198637Y389880D02*
Y408383D01*
X58000Y3500D02*
Y43500D01*
X68000D01*
Y48500D01*
X78000D01*
Y3500D02*
Y48500D01*
X58000Y3500D02*
X78000D01*
X183226Y270950D02*
X240116D01*
X183100Y315300D02*
X239990D01*
X53828Y208654D02*
Y222434D01*
X44772Y208654D02*
Y222434D01*
X53828D01*
Y207487D02*
Y208654D01*
X53300Y206960D02*
X53828Y207487D01*
X45200Y206960D02*
X53300D01*
X44772Y207387D02*
X45200Y206960D01*
X44772Y207387D02*
Y208654D01*
X81500Y124400D02*
X101500D01*
X81500Y164400D02*
X101500D01*
Y124400D02*
Y164400D01*
X81500Y124400D02*
Y164400D01*
X161900Y213800D02*
X165900D01*
X133900D02*
X137900D01*
Y209800D02*
X161900D01*
Y217800D01*
X137900D02*
X161900D01*
X137900Y209800D02*
Y217800D01*
X138000Y157100D02*
Y165100D01*
X162000D01*
Y157100D02*
Y165100D01*
X138000Y157100D02*
X162000D01*
X134000Y161100D02*
X138000D01*
X162000D02*
X166000D01*
X137900Y183450D02*
Y191450D01*
X161900D01*
Y183450D02*
Y191450D01*
X137900Y183450D02*
X161900D01*
X133900Y187450D02*
X137900D01*
X161900D02*
X165900D01*
X4700Y3500D02*
X24700D01*
Y48500D01*
X14700D02*
X24700D01*
X14700Y43500D02*
Y48500D01*
X4700Y43500D02*
X14700D01*
X4700Y3500D02*
Y43500D01*
X31350Y3500D02*
X51350D01*
Y48500D01*
X41350D02*
X51350D01*
X41350Y43500D02*
Y48500D01*
X31350Y43500D02*
X41350D01*
X31350Y3500D02*
Y43500D01*
X20928Y208654D02*
Y222434D01*
X11872Y208654D02*
Y222434D01*
X20928D01*
Y207487D02*
Y208654D01*
X20400Y206960D02*
X20928Y207487D01*
X12300Y206960D02*
X20400D01*
X11872Y207387D02*
X12300Y206960D01*
X11872Y207387D02*
Y208654D01*
X239400Y246300D02*
Y266300D01*
X59400Y246300D02*
Y266300D01*
X239400D01*
X59400Y246300D02*
X239400D01*
X124288Y405033D02*
X135312D01*
Y384167D02*
Y405033D01*
X124288Y384167D02*
Y405033D01*
X2688D02*
X13712D01*
Y384167D02*
Y405033D01*
X2688Y384167D02*
Y405033D01*
X79400Y66300D02*
Y246300D01*
X59400Y66300D02*
Y246300D01*
Y66300D02*
X79400D01*
X59400Y246300D02*
X79400D01*
X63788Y405033D02*
X74812D01*
Y384167D02*
Y405033D01*
X63788Y384167D02*
Y405033D01*
X79237Y389880D02*
Y408383D01*
X121363Y389880D02*
Y408383D01*
X79237D02*
X121363D01*
X79237Y389880D02*
X121363D01*
X79237Y391848D02*
X121363D01*
X17337Y389880D02*
Y408383D01*
X59463Y389880D02*
Y408383D01*
X17337D02*
X59463D01*
X17337Y389880D02*
X59463D01*
X17337Y391848D02*
X59463D01*
X138437Y389880D02*
Y408383D01*
X180563Y389880D02*
Y408383D01*
X138437D02*
X180563D01*
X138437Y389880D02*
X180563D01*
X138437Y391848D02*
X180563D01*
X81500Y73700D02*
Y113700D01*
X101500Y73700D02*
Y113700D01*
X81500D02*
X101500D01*
X81500Y73700D02*
X101500D01*
X53000Y283800D02*
X93000D01*
X53000Y303800D02*
X93000D01*
X53000Y283800D02*
Y303800D01*
X93000Y283800D02*
Y303800D01*
X33806Y207387D02*
Y208654D01*
Y207387D02*
X34233Y206960D01*
X42333D01*
X42861Y207487D01*
Y208654D01*
X33806Y222434D02*
X42861D01*
X33806Y208654D02*
Y222434D01*
X42861Y208654D02*
Y222434D01*
X22839Y207387D02*
Y208654D01*
Y207387D02*
X23267Y206960D01*
X31367D01*
X31894Y207487D01*
Y208654D01*
X22839Y222434D02*
X31894D01*
X22839Y208654D02*
Y222434D01*
X31894Y208654D02*
Y222434D01*
D16*
X49274Y99623D02*
Y140572D01*
X8339Y133114D02*
X15809Y140585D01*
X8339Y107094D02*
X15809Y99623D01*
X49274D01*
X15822Y140572D02*
X49274D01*
X8339Y107094D02*
Y133114D01*
X6858Y158194D02*
Y184214D01*
X14342Y191672D02*
X47794D01*
X14329Y150723D02*
X47794D01*
X6858Y158194D02*
X14329Y150723D01*
X6858Y184214D02*
X14329Y191685D01*
X47794Y150723D02*
Y191672D01*
D17*
X108400Y123200D02*
X106401D01*
X105401Y124200D01*
X106401Y125199D01*
X108400D01*
X106901D01*
Y123200D01*
X105401Y128198D02*
Y126199D01*
X106901D01*
X106401Y127199D01*
Y127699D01*
X106901Y128198D01*
X107900D01*
X108400Y127699D01*
Y126699D01*
X107900Y126199D01*
X108400Y135196D02*
X106401D01*
X105401Y136196D01*
X106401Y137196D01*
X108400D01*
X106901D01*
Y135196D01*
X105401Y140194D02*
X105901Y139195D01*
X106901Y138195D01*
X107900D01*
X108400Y138695D01*
Y139695D01*
X107900Y140194D01*
X107400D01*
X106901Y139695D01*
Y138195D01*
X108400Y147192D02*
X106401D01*
X105401Y148192D01*
X106401Y149192D01*
X108400D01*
X106901D01*
Y147192D01*
X105401Y150191D02*
Y152191D01*
X105901D01*
X107900Y150191D01*
X108400D01*
Y159188D02*
X106401D01*
X105401Y160188D01*
X106401Y161188D01*
X108400D01*
X106901D01*
Y159188D01*
X105901Y162187D02*
X105401Y162687D01*
Y163687D01*
X105901Y164187D01*
X106401D01*
X106901Y163687D01*
X107400Y164187D01*
X107900D01*
X108400Y163687D01*
Y162687D01*
X107900Y162187D01*
X107400D01*
X106901Y162687D01*
X106401Y162187D01*
X105901D01*
X106901Y162687D02*
Y163687D01*
X37100Y297200D02*
Y296200D01*
Y296700D01*
X40099D01*
X39599Y297200D01*
X37100Y292702D02*
Y294701D01*
X39099Y292702D01*
X39599D01*
X40099Y293201D01*
Y294201D01*
X39599Y294701D01*
X40099Y291702D02*
X38100D01*
X37100Y290702D01*
X38100Y289702D01*
X40099D01*
X39599Y280705D02*
X40099Y281205D01*
Y282205D01*
X39599Y282705D01*
X37600D01*
X37100Y282205D01*
Y281205D01*
X37600Y280705D01*
X38600D01*
Y281705D01*
X37100Y279706D02*
X40099D01*
X37100Y277706D01*
X40099D01*
Y276707D02*
X37100D01*
Y275207D01*
X37600Y274707D01*
X39599D01*
X40099Y275207D01*
Y276707D01*
X208500Y44800D02*
Y46799D01*
X209500Y47799D01*
X210499Y46799D01*
Y44800D01*
Y46299D01*
X208500D01*
X212999Y44800D02*
Y47799D01*
X211499Y46299D01*
X213498D01*
X222496Y47299D02*
X221996Y47799D01*
X220996D01*
X220496Y47299D01*
Y45300D01*
X220996Y44800D01*
X221996D01*
X222496Y45300D01*
Y46299D01*
X221496D01*
X223495Y44800D02*
Y46799D01*
X224995D01*
X225495Y46299D01*
Y44800D01*
X228493Y47799D02*
Y44800D01*
X226994D01*
X226494Y45300D01*
Y46299D01*
X226994Y46799D01*
X228493D01*
X143400Y46999D02*
X144400D01*
X143900D01*
Y44000D01*
X143400D01*
X144400D01*
X145899D02*
Y46999D01*
X147898Y44000D01*
Y46999D01*
X148898Y44000D02*
X149898D01*
X149398D01*
Y46999D01*
X148898Y46499D01*
X157396Y46999D02*
X158395D01*
X157895D01*
Y44000D01*
X157396D01*
X158395D01*
X159895D02*
Y46999D01*
X161894Y44000D01*
Y46999D01*
X164893Y44000D02*
X162894D01*
X164893Y45999D01*
Y46499D01*
X164393Y46999D01*
X163393D01*
X162894Y46499D01*
X171891Y46999D02*
X172890D01*
X172391D01*
Y44000D01*
X171891D01*
X172890D01*
X174390D02*
Y46999D01*
X176389Y44000D01*
Y46999D01*
X177389Y46499D02*
X177889Y46999D01*
X178888D01*
X179388Y46499D01*
Y45999D01*
X178888Y45500D01*
X178389D01*
X178888D01*
X179388Y45000D01*
Y44500D01*
X178888Y44000D01*
X177889D01*
X177389Y44500D01*
X185500Y115300D02*
X182876D01*
X181564Y116612D01*
X182876Y117924D01*
X185500D01*
X183532D01*
Y115300D01*
X181564Y121860D02*
Y119236D01*
X183532D01*
X182876Y120548D01*
Y121204D01*
X183532Y121860D01*
X184844D01*
X185500Y121204D01*
Y119892D01*
X184844Y119236D01*
X186500Y150800D02*
X183876D01*
X182564Y152112D01*
X183876Y153424D01*
X186500D01*
X184532D01*
Y150800D01*
X182564Y157360D02*
X183220Y156048D01*
X184532Y154736D01*
X185844D01*
X186500Y155392D01*
Y156704D01*
X185844Y157360D01*
X185188D01*
X184532Y156704D01*
Y154736D01*
X184100Y190100D02*
X181476D01*
X180164Y191412D01*
X181476Y192724D01*
X184100D01*
X182132D01*
Y190100D01*
X180164Y194036D02*
Y196660D01*
X180820D01*
X183444Y194036D01*
X184100D01*
X106400Y72900D02*
X104401D01*
X103401Y73900D01*
X104401Y74899D01*
X106400D01*
X104901D01*
Y72900D01*
X106400Y75899D02*
Y76899D01*
Y76399D01*
X103401D01*
X103901Y75899D01*
X106400Y84396D02*
X104401D01*
X103401Y85396D01*
X104401Y86396D01*
X106400D01*
X104901D01*
Y84396D01*
X106400Y89395D02*
Y87395D01*
X104401Y89395D01*
X103901D01*
X103401Y88895D01*
Y87895D01*
X103901Y87395D01*
X106400Y96392D02*
X104401D01*
X103401Y97392D01*
X104401Y98392D01*
X106400D01*
X104901D01*
Y96392D01*
X103901Y99391D02*
X103401Y99891D01*
Y100891D01*
X103901Y101391D01*
X104401D01*
X104901Y100891D01*
Y100391D01*
Y100891D01*
X105400Y101391D01*
X105900D01*
X106400Y100891D01*
Y99891D01*
X105900Y99391D01*
X106400Y108388D02*
X104401D01*
X103401Y109388D01*
X104401Y110388D01*
X106400D01*
X104901D01*
Y108388D01*
X106400Y112887D02*
X103401D01*
X104901Y111388D01*
Y113387D01*
X129799Y17599D02*
X129299Y18099D01*
X128300D01*
X127800Y17599D01*
Y15600D01*
X128300Y15100D01*
X129299D01*
X129799Y15600D01*
Y16600D01*
X128800D01*
X130799Y15100D02*
Y17099D01*
X132299D01*
X132798Y16600D01*
Y15100D01*
X135797Y18099D02*
Y15100D01*
X134298D01*
X133798Y15600D01*
Y16600D01*
X134298Y17099D01*
X135797D01*
X89600Y14900D02*
X90600D01*
X90100D01*
Y17899D01*
X89600Y17399D01*
X94099Y14900D02*
X92099D01*
X94099Y16899D01*
Y17399D01*
X93599Y17899D01*
X92599D01*
X92099Y17399D01*
X95098Y17899D02*
Y15900D01*
X96098Y14900D01*
X97098Y15900D01*
Y17899D01*
X54499Y259300D02*
X52400D01*
X54499Y261399D01*
Y261924D01*
X53974Y262449D01*
X52925D01*
X52400Y261924D01*
X54400Y249300D02*
X55449D01*
X54925D01*
Y252449D01*
X54400Y251924D01*
X94500Y116601D02*
Y118700D01*
X96599Y116601D01*
X97124D01*
X97649Y117126D01*
Y118175D01*
X97124Y118700D01*
X84500Y116700D02*
Y115650D01*
Y116175D01*
X87649D01*
X87124Y116700D01*
X87649Y72700D02*
Y70601D01*
X87124D01*
X85025Y72700D01*
X84500D01*
X97124D02*
X97649Y72175D01*
Y71126D01*
X97124Y70601D01*
X96599D01*
X96074Y71126D01*
X95549Y70601D01*
X95025D01*
X94500Y71126D01*
Y72175D01*
X95025Y72700D01*
X95549D01*
X96074Y72175D01*
X96599Y72700D01*
X97124D01*
X96074Y72175D02*
Y71126D01*
X50099Y296800D02*
X48000D01*
X50099Y298899D01*
Y299424D01*
X49574Y299949D01*
X48525D01*
X48000Y299424D01*
X50000Y286800D02*
X51050D01*
X50525D01*
Y289949D01*
X50000Y289424D01*
X94000Y289949D02*
X96099D01*
Y289424D01*
X94000Y287325D01*
Y286800D01*
Y299424D02*
X94525Y299949D01*
X95574D01*
X96099Y299424D01*
Y298899D01*
X95574Y298374D01*
X96099Y297849D01*
Y297325D01*
X95574Y296800D01*
X94525D01*
X94000Y297325D01*
Y297849D01*
X94525Y298374D01*
X94000Y298899D01*
Y299424D01*
X94525Y298374D02*
X95574D01*
X48476Y251699D02*
X47951Y251174D01*
Y250125D01*
X48476Y249600D01*
X50575D01*
X51100Y250125D01*
Y251174D01*
X50575Y251699D01*
X51100Y252749D02*
X47951D01*
Y254323D01*
X48476Y254848D01*
X49526D01*
X50050Y254323D01*
Y252749D01*
Y253798D02*
X51100Y254848D01*
Y255897D02*
Y256947D01*
Y256422D01*
X47951D01*
X48476Y255897D01*
X51100Y260620D02*
Y258521D01*
X49001Y260620D01*
X48476D01*
X47951Y260095D01*
Y259046D01*
X48476Y258521D01*
X238151Y427600D02*
X240250D01*
X241300Y428650D01*
X240250Y429699D01*
X238151D01*
X239201Y431273D02*
Y432323D01*
X239726Y432848D01*
X241300D01*
Y431273D01*
X240775Y430749D01*
X240250Y431273D01*
Y432848D01*
X241300Y433897D02*
Y434947D01*
Y434422D01*
X238151D01*
Y433897D01*
X239201Y436521D02*
X241300Y437570D01*
X239201Y438620D01*
X241300Y441244D02*
Y440194D01*
X240775Y439670D01*
X239726D01*
X239201Y440194D01*
Y441244D01*
X239726Y441769D01*
X240250D01*
Y439670D01*
X241300Y444392D02*
X238151D01*
X239726Y442818D01*
Y444917D01*
X182251Y427100D02*
X184351D01*
X185400Y428150D01*
X184351Y429199D01*
X182251D01*
X183301Y430773D02*
Y431823D01*
X183826Y432348D01*
X185400D01*
Y430773D01*
X184875Y430249D01*
X184351Y430773D01*
Y432348D01*
X185400Y433397D02*
Y434447D01*
Y433922D01*
X182251D01*
Y433397D01*
X183301Y436021D02*
X185400Y437071D01*
X183301Y438120D01*
X185400Y440744D02*
Y439694D01*
X184875Y439170D01*
X183826D01*
X183301Y439694D01*
Y440744D01*
X183826Y441269D01*
X184351D01*
Y439170D01*
X182776Y442318D02*
X182251Y442843D01*
Y443892D01*
X182776Y444417D01*
X183301D01*
X183826Y443892D01*
Y443368D01*
Y443892D01*
X184351Y444417D01*
X184875D01*
X185400Y443892D01*
Y442843D01*
X184875Y442318D01*
X121451Y427500D02*
X123550D01*
X124600Y428549D01*
X123550Y429599D01*
X121451D01*
X122501Y431173D02*
Y432223D01*
X123026Y432748D01*
X124600D01*
Y431173D01*
X124075Y430649D01*
X123550Y431173D01*
Y432748D01*
X124600Y433797D02*
Y434847D01*
Y434322D01*
X121451D01*
Y433797D01*
X122501Y436421D02*
X124600Y437470D01*
X122501Y438520D01*
X124600Y441144D02*
Y440094D01*
X124075Y439570D01*
X123026D01*
X122501Y440094D01*
Y441144D01*
X123026Y441669D01*
X123550D01*
Y439570D01*
X124600Y444817D02*
Y442718D01*
X122501Y444817D01*
X121976D01*
X121451Y444292D01*
Y443243D01*
X121976Y442718D01*
X60551Y428700D02*
X62651D01*
X63700Y429749D01*
X62651Y430799D01*
X60551D01*
X61601Y432373D02*
Y433423D01*
X62126Y433948D01*
X63700D01*
Y432373D01*
X63175Y431849D01*
X62651Y432373D01*
Y433948D01*
X63700Y434997D02*
Y436047D01*
Y435522D01*
X60551D01*
Y434997D01*
X61601Y437621D02*
X63700Y438670D01*
X61601Y439720D01*
X63700Y442344D02*
Y441294D01*
X63175Y440770D01*
X62126D01*
X61601Y441294D01*
Y442344D01*
X62126Y442869D01*
X62651D01*
Y440770D01*
X63700Y443918D02*
Y444968D01*
Y444443D01*
X60551D01*
X61076Y443918D01*
X44900Y228449D02*
Y226349D01*
X45950Y225300D01*
X46999Y226349D01*
Y228449D01*
X49623Y225300D02*
Y228449D01*
X48049Y226874D01*
X50148D01*
X33900Y228449D02*
Y226349D01*
X34949Y225300D01*
X35999Y226349D01*
Y228449D01*
X37049Y227924D02*
X37573Y228449D01*
X38623D01*
X39148Y227924D01*
Y227399D01*
X38623Y226874D01*
X38098D01*
X38623D01*
X39148Y226349D01*
Y225825D01*
X38623Y225300D01*
X37573D01*
X37049Y225825D01*
X22900Y228449D02*
Y226349D01*
X23949Y225300D01*
X24999Y226349D01*
Y228449D01*
X28148Y225300D02*
X26049D01*
X28148Y227399D01*
Y227924D01*
X27623Y228449D01*
X26573D01*
X26049Y227924D01*
X12000Y228449D02*
Y226349D01*
X13049Y225300D01*
X14099Y226349D01*
Y228449D01*
X15149Y225300D02*
X16198D01*
X15673D01*
Y228449D01*
X15149Y227924D01*
X181500Y367749D02*
Y365125D01*
X182025Y364600D01*
X183074D01*
X183599Y365125D01*
Y367749D01*
X184649Y364600D02*
X185698D01*
X185173D01*
Y367749D01*
X184649Y367224D01*
X187272D02*
X187797Y367749D01*
X188847D01*
X189372Y367224D01*
Y365125D01*
X188847Y364600D01*
X187797D01*
X187272Y365125D01*
Y367224D01*
X139400Y366749D02*
Y364125D01*
X139925Y363600D01*
X140974D01*
X141499Y364125D01*
Y366749D01*
X142549Y366224D02*
X143073Y366749D01*
X144123D01*
X144648Y366224D01*
Y365699D01*
X144123Y365174D01*
X144648Y364650D01*
Y364125D01*
X144123Y363600D01*
X143073D01*
X142549Y364125D01*
Y364650D01*
X143073Y365174D01*
X142549Y365699D01*
Y366224D01*
X143073Y365174D02*
X144123D01*
X84700Y370149D02*
Y367525D01*
X85225Y367000D01*
X86274D01*
X86799Y367525D01*
Y370149D01*
X87849D02*
X89948D01*
Y369624D01*
X87849Y367525D01*
Y367000D01*
X32700Y369049D02*
Y366425D01*
X33225Y365900D01*
X34274D01*
X34799Y366425D01*
Y369049D01*
X37948D02*
X36898Y368524D01*
X35849Y367474D01*
Y366425D01*
X36373Y365900D01*
X37423D01*
X37948Y366425D01*
Y366950D01*
X37423Y367474D01*
X35849D01*
X180700Y320349D02*
Y317725D01*
X181225Y317200D01*
X182274D01*
X182799Y317725D01*
Y320349D01*
X185423Y317200D02*
Y320349D01*
X183849Y318774D01*
X185948D01*
X129651Y300964D02*
X132275D01*
X132800Y301489D01*
Y302538D01*
X132275Y303063D01*
X129651D01*
X130176Y304112D02*
X129651Y304637D01*
Y305687D01*
X130176Y306211D01*
X130701D01*
X131226Y305687D01*
Y305162D01*
Y305687D01*
X131751Y306211D01*
X132275D01*
X132800Y305687D01*
Y304637D01*
X132275Y304112D01*
X141400Y134149D02*
Y131525D01*
X141925Y131000D01*
X142974D01*
X143499Y131525D01*
Y134149D01*
X144549Y131000D02*
X145598D01*
X145073D01*
Y134149D01*
X144549Y133624D01*
X7099Y348624D02*
X6574Y349149D01*
X5525D01*
X5000Y348624D01*
Y348099D01*
X5525Y347574D01*
X6574D01*
X7099Y347049D01*
Y346525D01*
X6574Y346000D01*
X5525D01*
X5000Y346525D01*
X8149Y346000D02*
X9198D01*
X8673D01*
Y349149D01*
X8149Y348624D01*
X69000Y50500D02*
Y53649D01*
X70574D01*
X71099Y53124D01*
Y52074D01*
X70574Y51550D01*
X69000D01*
X70050D02*
X71099Y50500D01*
X72149D02*
Y53649D01*
X73723D01*
X74248Y53124D01*
Y52074D01*
X73723Y51550D01*
X72149D01*
X75297Y53124D02*
X75822Y53649D01*
X76872D01*
X77396Y53124D01*
Y52599D01*
X76872Y52074D01*
X76347D01*
X76872D01*
X77396Y51550D01*
Y51025D01*
X76872Y50500D01*
X75822D01*
X75297Y51025D01*
X41250Y50300D02*
Y53449D01*
X42824D01*
X43349Y52924D01*
Y51874D01*
X42824Y51350D01*
X41250D01*
X42300D02*
X43349Y50300D01*
X44399D02*
Y53449D01*
X45973D01*
X46498Y52924D01*
Y51874D01*
X45973Y51350D01*
X44399D01*
X49646Y50300D02*
X47547D01*
X49646Y52399D01*
Y52924D01*
X49121Y53449D01*
X48072D01*
X47547Y52924D01*
X15600Y51500D02*
Y54649D01*
X17174D01*
X17699Y54124D01*
Y53074D01*
X17174Y52549D01*
X15600D01*
X16649D02*
X17699Y51500D01*
X18749D02*
Y54649D01*
X20323D01*
X20848Y54124D01*
Y53074D01*
X20323Y52549D01*
X18749D01*
X21897Y51500D02*
X22947D01*
X22422D01*
Y54649D01*
X21897Y54124D01*
X200945Y374710D02*
X197796D01*
Y376284D01*
X198321Y376809D01*
X199371D01*
X199896Y376284D01*
Y374710D01*
Y375759D02*
X200945Y376809D01*
Y379957D02*
Y377858D01*
X198846Y379957D01*
X198321D01*
X197796Y379432D01*
Y378383D01*
X198321Y377858D01*
Y381007D02*
X197796Y381531D01*
Y382581D01*
X198321Y383106D01*
X198846D01*
X199371Y382581D01*
Y382056D01*
Y382581D01*
X199896Y383106D01*
X200420D01*
X200945Y382581D01*
Y381531D01*
X200420Y381007D01*
X222900Y386400D02*
Y389549D01*
X224474D01*
X224999Y389024D01*
Y387974D01*
X224474Y387450D01*
X222900D01*
X223950D02*
X224999Y386400D01*
X228148D02*
X226049D01*
X228148Y388499D01*
Y389024D01*
X227623Y389549D01*
X226573D01*
X226049Y389024D01*
X231296Y386400D02*
X229197D01*
X231296Y388499D01*
Y389024D01*
X230771Y389549D01*
X229722D01*
X229197Y389024D01*
X174600Y330400D02*
X171451D01*
Y331974D01*
X171976Y332499D01*
X173026D01*
X173550Y331974D01*
Y330400D01*
Y331450D02*
X174600Y332499D01*
Y335648D02*
Y333549D01*
X172501Y335648D01*
X171976D01*
X171451Y335123D01*
Y334073D01*
X171976Y333549D01*
X174600Y336697D02*
Y337747D01*
Y337222D01*
X171451D01*
X171976Y336697D01*
X93700Y330200D02*
Y333349D01*
X95274D01*
X95799Y332824D01*
Y331774D01*
X95274Y331249D01*
X93700D01*
X94749D02*
X95799Y330200D01*
X98948D02*
X96849D01*
X98948Y332299D01*
Y332824D01*
X98423Y333349D01*
X97373D01*
X96849Y332824D01*
X99997D02*
X100522Y333349D01*
X101572D01*
X102096Y332824D01*
Y330725D01*
X101572Y330200D01*
X100522D01*
X99997Y330725D01*
Y332824D01*
X144500Y376200D02*
X141351D01*
Y377774D01*
X141876Y378299D01*
X142926D01*
X143450Y377774D01*
Y376200D01*
Y377250D02*
X144500Y378299D01*
Y379349D02*
Y380398D01*
Y379873D01*
X141351D01*
X141876Y379349D01*
Y381972D02*
X141351Y382497D01*
Y383547D01*
X141876Y384071D01*
X142401D01*
X142926Y383547D01*
X143450Y384071D01*
X143975D01*
X144500Y383547D01*
Y382497D01*
X143975Y381972D01*
X143450D01*
X142926Y382497D01*
X142401Y381972D01*
X141876D01*
X142926Y382497D02*
Y383547D01*
X163200Y370200D02*
Y373349D01*
X164774D01*
X165299Y372824D01*
Y371774D01*
X164774Y371250D01*
X163200D01*
X164250D02*
X165299Y370200D01*
X166349D02*
X167398D01*
X166873D01*
Y373349D01*
X166349Y372824D01*
X168972Y373349D02*
X171072D01*
Y372824D01*
X168972Y370725D01*
Y370200D01*
X164700Y363100D02*
Y366249D01*
X166274D01*
X166799Y365724D01*
Y364674D01*
X166274Y364149D01*
X164700D01*
X165750D02*
X166799Y363100D01*
X167849D02*
X168898D01*
X168373D01*
Y366249D01*
X167849Y365724D01*
X172572Y366249D02*
X171522Y365724D01*
X170472Y364674D01*
Y363625D01*
X170997Y363100D01*
X172047D01*
X172572Y363625D01*
Y364149D01*
X172047Y364674D01*
X170472D01*
X74400Y330200D02*
Y333349D01*
X75974D01*
X76499Y332824D01*
Y331774D01*
X75974Y331249D01*
X74400D01*
X75450D02*
X76499Y330200D01*
X77549D02*
X78598D01*
X78073D01*
Y333349D01*
X77549Y332824D01*
X82271Y333349D02*
X80172D01*
Y331774D01*
X81222Y332299D01*
X81747D01*
X82271Y331774D01*
Y330725D01*
X81747Y330200D01*
X80697D01*
X80172Y330725D01*
X84355Y377200D02*
X81206D01*
Y378774D01*
X81731Y379299D01*
X82781D01*
X83306Y378774D01*
Y377200D01*
Y378250D02*
X84355Y379299D01*
Y380349D02*
Y381398D01*
Y380873D01*
X81206D01*
X81731Y380349D01*
X84355Y384547D02*
X81206D01*
X82781Y382972D01*
Y385071D01*
X104000Y370500D02*
Y373649D01*
X105574D01*
X106099Y373124D01*
Y372074D01*
X105574Y371550D01*
X104000D01*
X105050D02*
X106099Y370500D01*
X107149D02*
X108198D01*
X107673D01*
Y373649D01*
X107149Y373124D01*
X109772D02*
X110297Y373649D01*
X111347D01*
X111872Y373124D01*
Y372599D01*
X111347Y372074D01*
X110822D01*
X111347D01*
X111872Y371550D01*
Y371025D01*
X111347Y370500D01*
X110297D01*
X109772Y371025D01*
X109700Y363000D02*
Y366149D01*
X111274D01*
X111799Y365624D01*
Y364574D01*
X111274Y364050D01*
X109700D01*
X110749D02*
X111799Y363000D01*
X112849D02*
X113898D01*
X113373D01*
Y366149D01*
X112849Y365624D01*
X117571Y363000D02*
X115472D01*
X117571Y365099D01*
Y365624D01*
X117047Y366149D01*
X115997D01*
X115472Y365624D01*
X59200Y329700D02*
Y332849D01*
X60774D01*
X61299Y332324D01*
Y331274D01*
X60774Y330750D01*
X59200D01*
X60250D02*
X61299Y329700D01*
X62349D02*
X63398D01*
X62873D01*
Y332849D01*
X62349Y332324D01*
X64972Y329700D02*
X66022D01*
X65497D01*
Y332849D01*
X64972Y332324D01*
X19000Y376110D02*
X15851D01*
Y377684D01*
X16376Y378208D01*
X17426D01*
X17951Y377684D01*
Y376110D01*
Y377159D02*
X19000Y378208D01*
Y379258D02*
Y380308D01*
Y379783D01*
X15851D01*
X16376Y379258D01*
Y381882D02*
X15851Y382407D01*
Y383456D01*
X16376Y383981D01*
X18475D01*
X19000Y383456D01*
Y382407D01*
X18475Y381882D01*
X16376D01*
X41100Y388000D02*
Y391149D01*
X42674D01*
X43199Y390624D01*
Y389574D01*
X42674Y389050D01*
X41100D01*
X42149D02*
X43199Y388000D01*
X44249Y388525D02*
X44773Y388000D01*
X45823D01*
X46348Y388525D01*
Y390624D01*
X45823Y391149D01*
X44773D01*
X44249Y390624D01*
Y390099D01*
X44773Y389574D01*
X46348D01*
X60500Y350100D02*
X57351D01*
Y351674D01*
X57876Y352199D01*
X58926D01*
X59451Y351674D01*
Y350100D01*
Y351150D02*
X60500Y352199D01*
X57876Y353249D02*
X57351Y353773D01*
Y354823D01*
X57876Y355348D01*
X58401D01*
X58926Y354823D01*
X59451Y355348D01*
X59975D01*
X60500Y354823D01*
Y353773D01*
X59975Y353249D01*
X59451D01*
X58926Y353773D01*
X58401Y353249D01*
X57876D01*
X58926Y353773D02*
Y354823D01*
X44700Y329700D02*
Y332849D01*
X46274D01*
X46799Y332324D01*
Y331274D01*
X46274Y330750D01*
X44700D01*
X45750D02*
X46799Y329700D01*
X47849Y332849D02*
X49948D01*
Y332324D01*
X47849Y330225D01*
Y329700D01*
X156600Y307200D02*
Y310349D01*
X158174D01*
X158699Y309824D01*
Y308774D01*
X158174Y308249D01*
X156600D01*
X157650D02*
X158699Y307200D01*
X161848Y310349D02*
X160798Y309824D01*
X159749Y308774D01*
Y307725D01*
X160273Y307200D01*
X161323D01*
X161848Y307725D01*
Y308249D01*
X161323Y308774D01*
X159749D01*
X157300Y288300D02*
Y291449D01*
X158874D01*
X159399Y290924D01*
Y289874D01*
X158874Y289350D01*
X157300D01*
X158350D02*
X159399Y288300D01*
X162548Y291449D02*
X160449D01*
Y289874D01*
X161498Y290399D01*
X162023D01*
X162548Y289874D01*
Y288825D01*
X162023Y288300D01*
X160973D01*
X160449Y288825D01*
X109300Y303400D02*
Y306549D01*
X110874D01*
X111399Y306024D01*
Y304974D01*
X110874Y304450D01*
X109300D01*
X110350D02*
X111399Y303400D01*
X114023D02*
Y306549D01*
X112449Y304974D01*
X114548D01*
X108600Y317755D02*
Y320904D01*
X110174D01*
X110699Y320379D01*
Y319329D01*
X110174Y318805D01*
X108600D01*
X109650D02*
X110699Y317755D01*
X111749Y320379D02*
X112273Y320904D01*
X113323D01*
X113848Y320379D01*
Y319854D01*
X113323Y319329D01*
X112798D01*
X113323D01*
X113848Y318805D01*
Y318280D01*
X113323Y317755D01*
X112273D01*
X111749Y318280D01*
X113900Y286600D02*
Y289749D01*
X115474D01*
X115999Y289224D01*
Y288174D01*
X115474Y287649D01*
X113900D01*
X114950D02*
X115999Y286600D01*
X119148D02*
X117049D01*
X119148Y288699D01*
Y289224D01*
X118623Y289749D01*
X117573D01*
X117049Y289224D01*
X132100Y286900D02*
Y290049D01*
X133674D01*
X134199Y289524D01*
Y288474D01*
X133674Y287949D01*
X132100D01*
X133150D02*
X134199Y286900D01*
X135249D02*
X136298D01*
X135773D01*
Y290049D01*
X135249Y289524D01*
X200799Y411825D02*
Y413924D01*
X200274Y414449D01*
X199225D01*
X198700Y413924D01*
Y411825D01*
X199225Y411300D01*
X200274D01*
X199750Y412350D02*
X200799Y411300D01*
X200274D02*
X200799Y411825D01*
X203423Y411300D02*
Y414449D01*
X201849Y412874D01*
X203948D01*
X140599Y411825D02*
Y413924D01*
X140074Y414449D01*
X139025D01*
X138500Y413924D01*
Y411825D01*
X139025Y411300D01*
X140074D01*
X139550Y412350D02*
X140599Y411300D01*
X140074D02*
X140599Y411825D01*
X141649Y413924D02*
X142173Y414449D01*
X143223D01*
X143748Y413924D01*
Y413399D01*
X143223Y412874D01*
X142698D01*
X143223D01*
X143748Y412350D01*
Y411825D01*
X143223Y411300D01*
X142173D01*
X141649Y411825D01*
X81399D02*
Y413924D01*
X80874Y414449D01*
X79825D01*
X79300Y413924D01*
Y411825D01*
X79825Y411300D01*
X80874D01*
X80349Y412350D02*
X81399Y411300D01*
X80874D02*
X81399Y411825D01*
X84548Y411300D02*
X82449D01*
X84548Y413399D01*
Y413924D01*
X84023Y414449D01*
X82973D01*
X82449Y413924D01*
X19499Y411825D02*
Y413924D01*
X18974Y414449D01*
X17925D01*
X17400Y413924D01*
Y411825D01*
X17925Y411300D01*
X18974D01*
X18450Y412350D02*
X19499Y411300D01*
X18974D02*
X19499Y411825D01*
X20549Y411300D02*
X21598D01*
X21073D01*
Y414449D01*
X20549Y413924D01*
X10400Y305400D02*
Y308549D01*
X11974D01*
X12499Y308024D01*
Y306974D01*
X11974Y306450D01*
X10400D01*
X15123Y308549D02*
X14073D01*
X13549Y308024D01*
Y305925D01*
X14073Y305400D01*
X15123D01*
X15648Y305925D01*
Y308024D01*
X15123Y308549D01*
X16697D02*
Y305400D01*
X17747Y306450D01*
X18796Y305400D01*
Y308549D01*
X21945D02*
X19846D01*
Y305400D01*
X21945D01*
X19846Y306974D02*
X20895D01*
X22994Y305400D02*
Y308549D01*
X24569D01*
X25093Y308024D01*
Y306974D01*
X24569Y306450D01*
X22994D01*
X24044D02*
X25093Y305400D01*
X26143D02*
X27193D01*
X26668D01*
Y308549D01*
X26143Y308024D01*
X99800Y306700D02*
Y309849D01*
X101374D01*
X101899Y309324D01*
Y308274D01*
X101374Y307750D01*
X99800D01*
X102949Y309849D02*
X105048D01*
Y309324D01*
X102949Y307225D01*
Y306700D01*
X48000D02*
Y309849D01*
X49574D01*
X50099Y309324D01*
Y308274D01*
X49574Y307750D01*
X48000D01*
X53248Y309849D02*
X52198Y309324D01*
X51149Y308274D01*
Y307225D01*
X51673Y306700D01*
X52723D01*
X53248Y307225D01*
Y307750D01*
X52723Y308274D01*
X51149D01*
X136900Y28300D02*
X133751D01*
Y29874D01*
X134276Y30399D01*
X135326D01*
X135851Y29874D01*
Y28300D01*
X133751Y33548D02*
Y31449D01*
X135326D01*
X134801Y32498D01*
Y33023D01*
X135326Y33548D01*
X136375D01*
X136900Y33023D01*
Y31973D01*
X136375Y31449D01*
X211300Y235800D02*
Y238949D01*
X212874D01*
X213399Y238424D01*
Y237374D01*
X212874Y236849D01*
X211300D01*
X216023Y235800D02*
Y238949D01*
X214449Y237374D01*
X216548D01*
X141300Y270100D02*
Y273249D01*
X142874D01*
X143399Y272724D01*
Y271674D01*
X142874Y271149D01*
X141300D01*
X144449Y272724D02*
X144973Y273249D01*
X146023D01*
X146548Y272724D01*
Y272199D01*
X146023Y271674D01*
X145498D01*
X146023D01*
X146548Y271149D01*
Y270625D01*
X146023Y270100D01*
X144973D01*
X144449Y270625D01*
X87200Y65000D02*
Y68149D01*
X88774D01*
X89299Y67624D01*
Y66574D01*
X88774Y66049D01*
X87200D01*
X92448Y65000D02*
X90349D01*
X92448Y67099D01*
Y67624D01*
X91923Y68149D01*
X90873D01*
X90349Y67624D01*
X19000Y146300D02*
Y149449D01*
X20574D01*
X21099Y148924D01*
Y147874D01*
X20574Y147350D01*
X19000D01*
X22149Y146300D02*
X23198D01*
X22673D01*
Y149449D01*
X22149Y148924D01*
X209300Y365600D02*
Y368749D01*
X210349Y367699D01*
X211399Y368749D01*
Y365600D01*
X212973D02*
X214023D01*
X214548Y366125D01*
Y367174D01*
X214023Y367699D01*
X212973D01*
X212449Y367174D01*
Y366125D01*
X212973Y365600D01*
X216122Y368224D02*
Y367699D01*
X215597D01*
X216647D01*
X216122D01*
Y366125D01*
X216647Y365600D01*
X218746D02*
X219795D01*
X220320Y366125D01*
Y367174D01*
X219795Y367699D01*
X218746D01*
X218221Y367174D01*
Y366125D01*
X218746Y365600D01*
X221370Y367699D02*
Y365600D01*
Y366650D01*
X221894Y367174D01*
X222419Y367699D01*
X222944D01*
X224518Y365600D02*
X225568D01*
X225043D01*
Y368749D01*
X224518Y368224D01*
X3600Y147249D02*
Y144100D01*
X5699D01*
X6749D02*
X7798D01*
X7273D01*
Y147249D01*
X6749Y146724D01*
X183800Y425149D02*
Y422000D01*
X185374D01*
X185899Y422525D01*
Y424624D01*
X185374Y425149D01*
X183800D01*
X186949Y422000D02*
X187998D01*
X187473D01*
Y425149D01*
X186949Y424624D01*
X189572D02*
X190097Y425149D01*
X191147D01*
X191672Y424624D01*
Y424099D01*
X191147Y423574D01*
X190622D01*
X191147D01*
X191672Y423049D01*
Y422525D01*
X191147Y422000D01*
X190097D01*
X189572Y422525D01*
X124400Y425149D02*
Y422000D01*
X125974D01*
X126499Y422525D01*
Y424624D01*
X125974Y425149D01*
X124400D01*
X127549Y422000D02*
X128598D01*
X128073D01*
Y425149D01*
X127549Y424624D01*
X132272Y422000D02*
X130172D01*
X132272Y424099D01*
Y424624D01*
X131747Y425149D01*
X130697D01*
X130172Y424624D01*
X63900Y425149D02*
Y422000D01*
X65474D01*
X65999Y422525D01*
Y424624D01*
X65474Y425149D01*
X63900D01*
X67049Y422000D02*
X68098D01*
X67573D01*
Y425149D01*
X67049Y424624D01*
X69672Y422000D02*
X70722D01*
X70197D01*
Y425149D01*
X69672Y424624D01*
X2800Y425149D02*
Y422000D01*
X4374D01*
X4899Y422525D01*
Y424624D01*
X4374Y425149D01*
X2800D01*
X5949Y422000D02*
X6998D01*
X6473D01*
Y425149D01*
X5949Y424624D01*
X8572D02*
X9097Y425149D01*
X10147D01*
X10672Y424624D01*
Y422525D01*
X10147Y422000D01*
X9097D01*
X8572Y422525D01*
Y424624D01*
X204719Y50371D02*
X207868D01*
Y51946D01*
X207343Y52470D01*
X205244D01*
X204719Y51946D01*
Y50371D01*
X205244Y53520D02*
X204719Y54045D01*
Y55094D01*
X205244Y55619D01*
X205768D01*
X206293Y55094D01*
Y54570D01*
Y55094D01*
X206818Y55619D01*
X207343D01*
X207868Y55094D01*
Y54045D01*
X207343Y53520D01*
X171602Y49886D02*
X174751D01*
Y51460D01*
X174226Y51985D01*
X172127D01*
X171602Y51460D01*
Y49886D01*
X174751Y55133D02*
Y53034D01*
X172652Y55133D01*
X172127D01*
X171602Y54609D01*
Y53559D01*
X172127Y53034D01*
X138285Y51300D02*
X141434D01*
Y52874D01*
X140909Y53399D01*
X138810D01*
X138285Y52874D01*
Y51300D01*
X141434Y54449D02*
Y55498D01*
Y54973D01*
X138285D01*
X138810Y54449D01*
X36476Y252099D02*
X35951Y251574D01*
Y250525D01*
X36476Y250000D01*
X38575D01*
X39100Y250525D01*
Y251574D01*
X38575Y252099D01*
X39100Y253149D02*
X35951D01*
Y254723D01*
X36476Y255248D01*
X37526D01*
X38050Y254723D01*
Y253149D01*
Y254198D02*
X39100Y255248D01*
Y256297D02*
Y257347D01*
Y256822D01*
X35951D01*
X36476Y256297D01*
X39100Y258921D02*
Y259970D01*
Y259446D01*
X35951D01*
X36476Y258921D01*
X25876Y251599D02*
X25351Y251074D01*
Y250025D01*
X25876Y249500D01*
X27975D01*
X28500Y250025D01*
Y251074D01*
X27975Y251599D01*
X28500Y252649D02*
X25351D01*
Y254223D01*
X25876Y254748D01*
X26926D01*
X27450Y254223D01*
Y252649D01*
Y253698D02*
X28500Y254748D01*
Y255797D02*
Y256847D01*
Y256322D01*
X25351D01*
X25876Y255797D01*
Y258421D02*
X25351Y258946D01*
Y259995D01*
X25876Y260520D01*
X27975D01*
X28500Y259995D01*
Y258946D01*
X27975Y258421D01*
X25876D01*
X14876Y251599D02*
X14351Y251074D01*
Y250025D01*
X14876Y249500D01*
X16975D01*
X17500Y250025D01*
Y251074D01*
X16975Y251599D01*
X17500Y252649D02*
X14351D01*
Y254223D01*
X14876Y254748D01*
X15926D01*
X16451Y254223D01*
Y252649D01*
Y253698D02*
X17500Y254748D01*
X16975Y255797D02*
X17500Y256322D01*
Y257371D01*
X16975Y257896D01*
X14876D01*
X14351Y257371D01*
Y256322D01*
X14876Y255797D01*
X15401D01*
X15926Y256322D01*
Y257896D01*
X185624Y103256D02*
X186149Y103781D01*
Y104830D01*
X185624Y105355D01*
X183525D01*
X183000Y104830D01*
Y103781D01*
X183525Y103256D01*
X183000Y102206D02*
X186149D01*
Y100632D01*
X185624Y100107D01*
X184574D01*
X184049Y100632D01*
Y102206D01*
Y101157D02*
X183000Y100107D01*
X185624Y99058D02*
X186149Y98533D01*
Y97483D01*
X185624Y96959D01*
X185099D01*
X184574Y97483D01*
Y98008D01*
Y97483D01*
X184049Y96959D01*
X183525D01*
X183000Y97483D01*
Y98533D01*
X183525Y99058D01*
X118024Y101456D02*
X118549Y101981D01*
Y103030D01*
X118024Y103555D01*
X115925D01*
X115400Y103030D01*
Y101981D01*
X115925Y101456D01*
X115400Y100406D02*
X118549D01*
Y98832D01*
X118024Y98307D01*
X116974D01*
X116449Y98832D01*
Y100406D01*
Y99357D02*
X115400Y98307D01*
Y95159D02*
Y97258D01*
X117499Y95159D01*
X118024D01*
X118549Y95683D01*
Y96733D01*
X118024Y97258D01*
X124599Y133024D02*
X124074Y133549D01*
X123025D01*
X122500Y133024D01*
Y130925D01*
X123025Y130400D01*
X124074D01*
X124599Y130925D01*
X125649Y130400D02*
Y133549D01*
X127223D01*
X127748Y133024D01*
Y131974D01*
X127223Y131449D01*
X125649D01*
X126698D02*
X127748Y130400D01*
X128797D02*
X129847D01*
X129322D01*
Y133549D01*
X128797Y133024D01*
X188199Y78124D02*
X187674Y78649D01*
X186625D01*
X186100Y78124D01*
Y76025D01*
X186625Y75500D01*
X187674D01*
X188199Y76025D01*
X191348Y78124D02*
X190823Y78649D01*
X189773D01*
X189249Y78124D01*
Y76025D01*
X189773Y75500D01*
X190823D01*
X191348Y76025D01*
X192397Y78124D02*
X192922Y78649D01*
X193972D01*
X194496Y78124D01*
Y77599D01*
X193972Y77074D01*
X193447D01*
X193972D01*
X194496Y76550D01*
Y76025D01*
X193972Y75500D01*
X192922D01*
X192397Y76025D01*
X154399Y78124D02*
X153874Y78649D01*
X152825D01*
X152300Y78124D01*
Y76025D01*
X152825Y75500D01*
X153874D01*
X154399Y76025D01*
X157548Y78124D02*
X157023Y78649D01*
X155973D01*
X155449Y78124D01*
Y76025D01*
X155973Y75500D01*
X157023D01*
X157548Y76025D01*
X160696Y75500D02*
X158597D01*
X160696Y77599D01*
Y78124D01*
X160171Y78649D01*
X159122D01*
X158597Y78124D01*
X120499D02*
X119974Y78649D01*
X118925D01*
X118400Y78124D01*
Y76025D01*
X118925Y75500D01*
X119974D01*
X120499Y76025D01*
X123648Y78124D02*
X123123Y78649D01*
X122073D01*
X121549Y78124D01*
Y76025D01*
X122073Y75500D01*
X123123D01*
X123648Y76025D01*
X124697Y75500D02*
X125747D01*
X125222D01*
Y78649D01*
X124697Y78124D01*
X175876Y351399D02*
X175351Y350874D01*
Y349825D01*
X175876Y349300D01*
X177975D01*
X178500Y349825D01*
Y350874D01*
X177975Y351399D01*
X178500Y352449D02*
Y353498D01*
Y352973D01*
X175351D01*
X175876Y352449D01*
X178500Y357172D02*
Y355072D01*
X176401Y357172D01*
X175876D01*
X175351Y356647D01*
Y355597D01*
X175876Y355072D01*
X129876Y353799D02*
X129351Y353274D01*
Y352225D01*
X129876Y351700D01*
X131975D01*
X132500Y352225D01*
Y353274D01*
X131975Y353799D01*
Y354849D02*
X132500Y355373D01*
Y356423D01*
X131975Y356948D01*
X129876D01*
X129351Y356423D01*
Y355373D01*
X129876Y354849D01*
X130401D01*
X130926Y355373D01*
Y356948D01*
X73776Y353599D02*
X73251Y353074D01*
Y352025D01*
X73776Y351500D01*
X75875D01*
X76400Y352025D01*
Y353074D01*
X75875Y353599D01*
X73776Y354649D02*
X73251Y355173D01*
Y356223D01*
X73776Y356748D01*
X74301D01*
X74826Y356223D01*
X75350Y356748D01*
X75875D01*
X76400Y356223D01*
Y355173D01*
X75875Y354649D01*
X75350D01*
X74826Y355173D01*
X74301Y354649D01*
X73776D01*
X74826Y355173D02*
Y356223D01*
X22976Y353799D02*
X22451Y353274D01*
Y352225D01*
X22976Y351700D01*
X25075D01*
X25600Y352225D01*
Y353274D01*
X25075Y353799D01*
X22451Y354849D02*
Y356948D01*
X22976D01*
X25075Y354849D01*
X25600D01*
X9099Y95624D02*
X8574Y96149D01*
X7525D01*
X7000Y95624D01*
Y93525D01*
X7525Y93000D01*
X8574D01*
X9099Y93525D01*
X12248Y96149D02*
X11198Y95624D01*
X10149Y94574D01*
Y93525D01*
X10673Y93000D01*
X11723D01*
X12248Y93525D01*
Y94050D01*
X11723Y94574D01*
X10149D01*
X4199Y197824D02*
X3674Y198349D01*
X2625D01*
X2100Y197824D01*
Y195725D01*
X2625Y195200D01*
X3674D01*
X4199Y195725D01*
X7348Y198349D02*
X5249D01*
Y196774D01*
X6298Y197299D01*
X6823D01*
X7348Y196774D01*
Y195725D01*
X6823Y195200D01*
X5773D01*
X5249Y195725D01*
X136399Y335924D02*
X135874Y336449D01*
X134825D01*
X134300Y335924D01*
Y333825D01*
X134825Y333300D01*
X135874D01*
X136399Y333825D01*
X139023Y333300D02*
Y336449D01*
X137449Y334874D01*
X139548D01*
X162199Y333524D02*
X161674Y334049D01*
X160625D01*
X160100Y333524D01*
Y331425D01*
X160625Y330900D01*
X161674D01*
X162199Y331425D01*
X163249Y333524D02*
X163773Y334049D01*
X164823D01*
X165348Y333524D01*
Y332999D01*
X164823Y332474D01*
X164298D01*
X164823D01*
X165348Y331949D01*
Y331425D01*
X164823Y330900D01*
X163773D01*
X163249Y331425D01*
D18*
X39579Y82619D02*
X37480D01*
X38529Y81569D02*
Y83668D01*
D19*
X14472Y108131D02*
X16571D01*
X15522Y109180D02*
Y107081D01*
X12992Y159231D02*
X15091D01*
X14042Y160281D02*
Y158182D01*
D20*
X97124Y123400D02*
X97649Y122875D01*
Y121826D01*
X97124Y121301D01*
X96599D01*
X96074Y121826D01*
X95549Y121301D01*
X95025D01*
X94500Y121826D01*
Y122875D01*
X95025Y123400D01*
X95549D01*
X96074Y122875D01*
X96599Y123400D01*
X97124D01*
X96074Y122875D02*
Y121826D01*
X87649Y123400D02*
Y121301D01*
X87124D01*
X85025Y123400D01*
X84500D01*
Y167400D02*
Y166350D01*
Y166875D01*
X87649D01*
X87124Y167400D01*
X94500Y167301D02*
Y169400D01*
X96599Y167301D01*
X97124D01*
X97649Y167826D01*
Y168875D01*
X97124Y169400D01*
D21*
X28237Y73099D02*
D03*
D22*
X189199Y385349D02*
D03*
X129799Y385348D02*
D03*
X8199Y385348D02*
D03*
X69299Y385348D02*
D03*
D23*
X28831Y120112D02*
D03*
X27350Y171212D02*
D03*
D24*
X21500Y330700D02*
D03*
M02*
