G04*
G04 #@! TF.GenerationSoftware,Altium Limited,Altium Designer,18.1.9 (240)*
G04*
G04 Layer_Color=32768*
%FSLAX25Y25*%
%MOIN*%
G70*
G01*
G75*
%ADD101C,0.00394*%
D101*
X9846Y217988D02*
X53154D01*
X9846Y156177D02*
X53154D01*
X9846D02*
Y217988D01*
X53154Y156177D02*
Y217988D01*
X31500Y185114D02*
Y189051D01*
X29531Y187083D02*
X33468D01*
X191732Y67700D02*
X195669D01*
X193700Y65732D02*
Y69669D01*
X185826Y62582D02*
Y72818D01*
X201574D01*
Y62582D02*
Y72818D01*
X185826Y62582D02*
X201574D01*
X183098Y47488D02*
Y58512D01*
X203570Y47488D02*
Y58512D01*
X183098Y47488D02*
X203570D01*
X183098Y58512D02*
X203570D01*
X193334Y51032D02*
Y54969D01*
X191365Y53000D02*
X195302D01*
X217732Y401100D02*
X221669D01*
X219700Y399132D02*
Y403069D01*
X181800Y329232D02*
Y333169D01*
X179831Y331200D02*
X183768D01*
X176682Y323326D02*
X186918D01*
X176682D02*
Y339074D01*
X186918D01*
Y323326D02*
Y339074D01*
X49400Y238131D02*
Y242068D01*
X47432Y240100D02*
X51369D01*
X44282Y247974D02*
X54518D01*
Y232226D02*
Y247974D01*
X44282Y232226D02*
X54518D01*
X44282D02*
Y247974D01*
X175700Y98887D02*
Y102824D01*
X173731Y100855D02*
X177668D01*
X170582Y92981D02*
X180818D01*
X170582D02*
Y108729D01*
X180818D01*
Y92981D02*
Y108729D01*
X33502Y89388D02*
Y100412D01*
X13030Y89388D02*
Y100412D01*
Y89388D02*
X33502D01*
X13030Y100412D02*
X33502D01*
X23266Y92932D02*
Y96869D01*
X21298Y94900D02*
X25235D01*
X38600Y238131D02*
Y242068D01*
X36632Y240100D02*
X40569D01*
X33482Y247974D02*
X43718D01*
Y232226D02*
Y247974D01*
X33482Y232226D02*
X43718D01*
X33482D02*
Y247974D01*
X16500Y237931D02*
Y241868D01*
X14532Y239900D02*
X18469D01*
X11382Y247774D02*
X21618D01*
Y232026D02*
Y247774D01*
X11382Y232026D02*
X21618D01*
X11382D02*
Y247774D01*
X27533Y238131D02*
Y242068D01*
X25565Y240100D02*
X29502D01*
X22415Y247974D02*
X32651D01*
Y232226D02*
Y247974D01*
X22415Y232226D02*
X32651D01*
X22415D02*
Y247974D01*
X109576Y380200D02*
X113513D01*
X111545Y378231D02*
Y382168D01*
X119419Y375082D02*
Y385318D01*
X103671Y375082D02*
X119419D01*
X103671D02*
Y385318D01*
X119419D01*
X143026Y115818D02*
X158774D01*
Y105582D02*
Y115818D01*
X143026Y105582D02*
X158774D01*
X143026D02*
Y115818D01*
X150900Y108731D02*
Y112668D01*
X148932Y110700D02*
X152869D01*
X135426Y275982D02*
X151174D01*
Y286218D01*
X135426D02*
X151174D01*
X135426Y275982D02*
Y286218D01*
X143300Y279132D02*
Y283069D01*
X141332Y281100D02*
X145269D01*
X114426Y275382D02*
X130174D01*
Y285618D01*
X114426D02*
X130174D01*
X114426Y275382D02*
Y285618D01*
X122300Y278532D02*
Y282469D01*
X120332Y280500D02*
X124269D01*
X157649Y53000D02*
X161585D01*
X159617Y51032D02*
Y54969D01*
X149381Y58512D02*
X169853D01*
X149381Y47488D02*
X169853D01*
Y58512D01*
X149381Y47488D02*
Y58512D01*
X120100Y317731D02*
Y321668D01*
X118132Y319700D02*
X122069D01*
X114982Y327574D02*
X125218D01*
Y311826D02*
Y327574D01*
X114982Y311826D02*
X125218D01*
X114982D02*
Y327574D01*
X126418Y291126D02*
Y306874D01*
X116182D02*
X126418D01*
X116182Y291126D02*
Y306874D01*
Y291126D02*
X126418D01*
X119331Y299000D02*
X123268D01*
X121300Y297032D02*
Y300969D01*
X61182Y346526D02*
Y362274D01*
Y346526D02*
X71418D01*
Y362274D01*
X61182D02*
X71418D01*
X64332Y354400D02*
X68269D01*
X66300Y352431D02*
Y356368D01*
X118918Y345926D02*
Y361674D01*
X108682D02*
X118918D01*
X108682Y345926D02*
Y361674D01*
Y345926D02*
X118918D01*
X111831Y353800D02*
X115768D01*
X113800Y351832D02*
Y355769D01*
X208532Y379209D02*
X212469D01*
X210500Y377241D02*
Y381178D01*
X202626Y374091D02*
Y384328D01*
X218374D01*
Y374091D02*
Y384328D01*
X202626Y374091D02*
X218374D01*
X184000Y351332D02*
Y355269D01*
X182031Y353300D02*
X185968D01*
X178882Y345426D02*
X189118D01*
X178882D02*
Y361174D01*
X189118D01*
Y345426D02*
Y361174D01*
X153032Y380200D02*
X156969D01*
X155000Y378232D02*
Y382169D01*
X147126Y375082D02*
Y385318D01*
X162874D01*
Y375082D02*
Y385318D01*
X147126Y375082D02*
X162874D01*
X170731Y380300D02*
X174668D01*
X172700Y378331D02*
Y382268D01*
X180574Y375182D02*
Y385418D01*
X164826Y375182D02*
X180574D01*
X164826D02*
Y385418D01*
X180574D01*
X139300Y351632D02*
Y355569D01*
X137331Y353600D02*
X141268D01*
X134182Y345726D02*
X144418D01*
X134182D02*
Y361474D01*
X144418D01*
Y345726D02*
Y361474D01*
X91887Y380200D02*
X95824D01*
X93855Y378232D02*
Y382169D01*
X85981Y375082D02*
Y385318D01*
X101729D01*
Y375082D02*
Y385318D01*
X85981Y375082D02*
X101729D01*
X82900Y352432D02*
Y356369D01*
X80931Y354400D02*
X84868D01*
X77782Y346526D02*
X88018D01*
X77782D02*
Y362274D01*
X88018D01*
Y346526D02*
Y362274D01*
X26532Y380200D02*
X30469D01*
X28500Y378232D02*
Y382169D01*
X20626Y375082D02*
Y385318D01*
X36374D01*
Y375082D02*
Y385318D01*
X20626Y375082D02*
X36374D01*
X32700Y352332D02*
Y356269D01*
X30731Y354300D02*
X34668D01*
X27582Y346426D02*
X37818D01*
X27582D02*
Y362174D01*
X37818D01*
Y346426D02*
Y362174D01*
X123932Y53000D02*
X127869D01*
X125900Y51032D02*
Y54969D01*
X115664Y58512D02*
X136136D01*
X115664Y47488D02*
X136136D01*
Y58512D01*
X115664Y47488D02*
Y58512D01*
X134026Y320382D02*
X149774D01*
Y330618D01*
X134026D02*
X149774D01*
X134026Y320382D02*
Y330618D01*
X141900Y323532D02*
Y327469D01*
X139932Y325500D02*
X143869D01*
X170018Y312481D02*
Y328229D01*
X159782D02*
X170018D01*
X159782Y312481D02*
Y328229D01*
Y312481D02*
X170018D01*
X162931Y320355D02*
X166868D01*
X164900Y318387D02*
Y322324D01*
X151976Y62582D02*
X167724D01*
Y72818D01*
X151976D02*
X167724D01*
X151976Y62582D02*
Y72818D01*
X159850Y65732D02*
Y69669D01*
X157882Y67700D02*
X161819D01*
X118126Y62582D02*
X133874D01*
Y72818D01*
X118126D02*
X133874D01*
X118126Y62582D02*
Y72818D01*
X126000Y65732D02*
Y69669D01*
X124032Y67700D02*
X127969D01*
X122182Y111981D02*
Y127729D01*
Y111981D02*
X132418D01*
Y127729D01*
X122182D02*
X132418D01*
X125332Y119855D02*
X129269D01*
X127300Y117887D02*
Y121824D01*
X132218Y92881D02*
Y108629D01*
X121982D02*
X132218D01*
X121982Y92881D02*
Y108629D01*
Y92881D02*
X132218D01*
X125131Y100755D02*
X129068D01*
X127100Y98787D02*
Y102724D01*
X100300Y399132D02*
Y403069D01*
X98332Y401100D02*
X102269D01*
X38400Y399132D02*
Y403069D01*
X36432Y401100D02*
X40369D01*
X159500Y399132D02*
Y403069D01*
X157532Y401100D02*
X161469D01*
X162232Y299400D02*
X166169D01*
X164200Y297432D02*
Y301369D01*
X156326Y294282D02*
Y304518D01*
X172074D01*
Y294282D02*
Y304518D01*
X156326Y294282D02*
X172074D01*
X162932Y280500D02*
X166869D01*
X164900Y278532D02*
Y282469D01*
X157026Y275382D02*
Y285618D01*
X172774D01*
Y275382D02*
Y285618D01*
X157026Y275382D02*
X172774D01*
X44382Y311281D02*
Y327029D01*
Y311281D02*
X54618D01*
Y327029D01*
X44382D02*
X54618D01*
X47532Y319155D02*
X51469D01*
X49500Y317187D02*
Y321124D01*
X40826Y385318D02*
X56574D01*
X40826Y375082D02*
Y385318D01*
Y375082D02*
X56574D01*
Y385318D01*
X48700Y378231D02*
Y382168D01*
X46731Y380200D02*
X50668D01*
X58882Y311281D02*
Y327029D01*
Y311281D02*
X69118D01*
Y327029D01*
X58882D02*
X69118D01*
X62032Y319155D02*
X65969D01*
X64000Y317187D02*
Y321124D01*
X222626Y383718D02*
X238374D01*
X222626Y373482D02*
Y383718D01*
Y373482D02*
X238374D01*
Y383718D01*
X230500Y376631D02*
Y380568D01*
X228531Y378600D02*
X232468D01*
X93382Y311781D02*
Y327529D01*
Y311781D02*
X103618D01*
Y327529D01*
X93382D02*
X103618D01*
X96532Y319655D02*
X100469D01*
X98500Y317687D02*
Y321624D01*
X74048Y311781D02*
Y327529D01*
Y311781D02*
X84285D01*
Y327529D01*
X74048D02*
X84285D01*
X77198Y319655D02*
X81135D01*
X79167Y317687D02*
Y321624D01*
X169500Y350532D02*
Y354469D01*
X167531Y352500D02*
X171468D01*
X164382Y344626D02*
X174618D01*
X164382D02*
Y360374D01*
X174618D01*
Y344626D02*
Y360374D01*
M02*
