G04*
G04 #@! TF.GenerationSoftware,Altium Limited,Altium Designer,18.1.9 (240)*
G04*
G04 Layer_Physical_Order=2*
G04 Layer_Color=16711680*
%FSLAX25Y25*%
%MOIN*%
G70*
G01*
G75*
%ADD10C,0.01000*%
%ADD19C,0.01968*%
%ADD26R,0.04567X0.05787*%
%ADD27R,0.04449X0.07087*%
%ADD65C,0.09000*%
%ADD66C,0.01575*%
%ADD67C,0.03150*%
%ADD68C,0.10000*%
%ADD69C,0.05000*%
%ADD70C,0.02362*%
%ADD72C,0.06000*%
%ADD73C,0.04000*%
%ADD74C,0.07500*%
%ADD75R,0.05906X0.05906*%
%ADD76C,0.05906*%
%ADD77R,0.07874X0.07874*%
%ADD78C,0.07874*%
%ADD79R,0.06299X0.06299*%
%ADD80C,0.06299*%
%ADD81C,0.04724*%
%ADD82R,0.04724X0.04724*%
%ADD83C,0.06000*%
%ADD84O,0.06500X0.06000*%
%ADD85R,0.06500X0.06000*%
%ADD86C,0.05512*%
%ADD87O,0.06000X0.06500*%
%ADD88R,0.06000X0.06500*%
%ADD89C,0.11811*%
%ADD90R,0.05906X0.05906*%
%ADD91C,0.01968*%
%ADD92C,0.03150*%
%ADD93C,0.03937*%
%ADD94C,0.05000*%
%ADD95C,0.02756*%
%ADD96R,0.04134X0.12598*%
%ADD97R,0.41142X0.32677*%
%ADD98C,0.03000*%
G36*
X207321Y394478D02*
X204232Y391055D01*
X203955Y390547D01*
X203672Y389557D01*
X203616Y388510D01*
X203785Y387407D01*
X204181Y386247D01*
X204803Y385031D01*
X205652Y383758D01*
X206727Y382429D01*
X208028Y381043D01*
X195300Y386700D01*
X191767Y388163D01*
Y383162D01*
X191565Y383264D01*
X191176Y383356D01*
X190598Y383436D01*
X188881Y383566D01*
X181300Y383700D01*
Y389700D01*
X191767Y390238D01*
Y390156D01*
X192576Y390379D01*
X193618Y390761D01*
X194625Y391227D01*
X195355Y391642D01*
X195297Y391700D01*
X195512Y391770D01*
X195852Y391981D01*
X196317Y392332D01*
X197623Y393455D01*
X203078Y398721D01*
X207321Y394478D01*
D02*
G37*
G36*
X12185Y377759D02*
X12365Y377601D01*
X12665Y377463D01*
X13085Y377342D01*
X13625Y377241D01*
X14059Y377186D01*
X14619Y377144D01*
X22200Y377009D01*
Y371009D01*
X12576Y370515D01*
X12365Y370417D01*
X12185Y370260D01*
X12125Y370084D01*
Y370492D01*
X11733Y370472D01*
Y377547D01*
X11935Y377445D01*
X12125Y377400D01*
Y377934D01*
X12185Y377759D01*
D02*
G37*
G36*
X73285D02*
X73465Y377601D01*
X73765Y377463D01*
X74185Y377342D01*
X74725Y377241D01*
X75385Y377157D01*
X77065Y377046D01*
X79225Y377009D01*
Y371009D01*
X78085Y371000D01*
X74725Y370778D01*
X74185Y370676D01*
X73765Y370556D01*
X73465Y370417D01*
X73285Y370260D01*
X73225Y370084D01*
Y371810D01*
X73223Y371804D01*
X73213Y371709D01*
Y373709D01*
X73223Y373614D01*
X73225Y373609D01*
Y377934D01*
X73285Y377759D01*
D02*
G37*
G36*
X65375Y373609D02*
X65377Y373614D01*
X65387Y373709D01*
Y371709D01*
X65377Y371804D01*
X65375Y371810D01*
Y370084D01*
X65315Y370260D01*
X65135Y370417D01*
X64835Y370556D01*
X64415Y370676D01*
X63875Y370778D01*
X63215Y370861D01*
X61535Y370972D01*
X59375Y371009D01*
Y377009D01*
X60515Y377019D01*
X63875Y377241D01*
X64415Y377342D01*
X64835Y377463D01*
X65135Y377601D01*
X65315Y377759D01*
X65375Y377934D01*
Y373609D01*
D02*
G37*
G36*
X125875Y373785D02*
X125906Y373794D01*
X126482Y374005D01*
X126987Y374248D01*
X127419Y374524D01*
X127780Y374832D01*
Y370587D01*
X127419Y370895D01*
X126987Y371171D01*
X126482Y371414D01*
X125906Y371625D01*
X125875Y371634D01*
Y370084D01*
X125815Y370260D01*
X125635Y370417D01*
X125335Y370556D01*
X124915Y370676D01*
X124375Y370778D01*
X123715Y370861D01*
X122035Y370972D01*
X119875Y371009D01*
Y377009D01*
X121015Y377019D01*
X124375Y377241D01*
X124915Y377342D01*
X125335Y377463D01*
X125635Y377601D01*
X125815Y377759D01*
X125875Y377934D01*
Y373785D01*
D02*
G37*
G36*
X185275Y370084D02*
X185215Y370260D01*
X185035Y370417D01*
X184735Y370556D01*
X184315Y370676D01*
X183775Y370778D01*
X183115Y370861D01*
X181435Y370972D01*
X179275Y371009D01*
Y377009D01*
X180415Y377019D01*
X183775Y377241D01*
X184315Y377342D01*
X184735Y377463D01*
X185035Y377601D01*
X185215Y377759D01*
X185275Y377934D01*
Y370084D01*
D02*
G37*
G36*
X133785Y377759D02*
X133965Y377601D01*
X134265Y377463D01*
X134685Y377342D01*
X135225Y377241D01*
X135885Y377157D01*
X137565Y377046D01*
X139725Y377009D01*
Y371009D01*
X138585Y371000D01*
X135225Y370778D01*
X134685Y370676D01*
X134265Y370556D01*
X133965Y370417D01*
X133785Y370260D01*
X133725Y370084D01*
Y377934D01*
X133785Y377759D01*
D02*
G37*
G36*
X199371Y374103D02*
Y352000D01*
X199487Y350824D01*
X199830Y349693D01*
X200387Y348651D01*
X201137Y347737D01*
X215774Y333100D01*
X206427Y323753D01*
X205985Y324018D01*
X206206Y324746D01*
X206339Y326100D01*
X206206Y327454D01*
X205811Y328755D01*
X205170Y329955D01*
X204307Y331007D01*
X203255Y331870D01*
X202055Y332511D01*
X200754Y332906D01*
X199400Y333039D01*
X198046Y332906D01*
X196745Y332511D01*
X195545Y331870D01*
X194493Y331007D01*
X193631Y329955D01*
X192989Y328755D01*
X192594Y327454D01*
X192461Y326100D01*
X192594Y324746D01*
X192989Y323445D01*
X193631Y322245D01*
X194493Y321193D01*
X195545Y320331D01*
X196745Y319689D01*
X198046Y319294D01*
X199400Y319161D01*
X200754Y319294D01*
X201482Y319515D01*
X201747Y319073D01*
X199537Y316863D01*
X198787Y315950D01*
X198230Y314907D01*
X197887Y313776D01*
X197771Y312600D01*
Y264178D01*
X197298Y264017D01*
X197219Y264119D01*
X196393Y264753D01*
X195432Y265151D01*
X194900Y265221D01*
Y261300D01*
X194400D01*
Y260800D01*
X190479D01*
X190549Y260268D01*
X190947Y259307D01*
X191581Y258481D01*
X191916Y258224D01*
X191957Y257685D01*
X191620Y257329D01*
X186449D01*
X186349Y257829D01*
X186393Y257847D01*
X187219Y258481D01*
X187853Y259307D01*
X188251Y260268D01*
X188387Y261300D01*
X188251Y262332D01*
X187853Y263293D01*
X187219Y264119D01*
X186393Y264753D01*
X185432Y265151D01*
X184400Y265287D01*
X183368Y265151D01*
X182407Y264753D01*
X181581Y264119D01*
X180947Y263293D01*
X180549Y262332D01*
X180413Y261300D01*
X180549Y260268D01*
X180947Y259307D01*
X181581Y258481D01*
X182407Y257847D01*
X182451Y257829D01*
X182351Y257329D01*
X176449D01*
X176349Y257829D01*
X176393Y257847D01*
X177219Y258481D01*
X177853Y259307D01*
X178251Y260268D01*
X178387Y261300D01*
X178251Y262332D01*
X177853Y263293D01*
X177219Y264119D01*
X177017Y264274D01*
X177154Y264755D01*
X177476Y264787D01*
X178607Y265130D01*
X179649Y265687D01*
X180563Y266437D01*
X181313Y267351D01*
X181870Y268393D01*
X182213Y269524D01*
X182329Y270700D01*
X182213Y271876D01*
X181870Y273007D01*
X181313Y274049D01*
X180563Y274963D01*
X179649Y275713D01*
X178607Y276270D01*
X177476Y276613D01*
X176300Y276729D01*
X157406D01*
X156318Y276761D01*
X156288Y276756D01*
X156258Y276761D01*
X156029Y276754D01*
X155529Y277219D01*
X155529Y277221D01*
Y296517D01*
X155869Y297026D01*
X156023Y297800D01*
X155869Y298574D01*
X155431Y299231D01*
X154774Y299669D01*
X154174Y299788D01*
X152929Y301033D01*
Y307100D01*
X152813Y307685D01*
X152481Y308181D01*
X140681Y319981D01*
X140185Y320313D01*
X139600Y320429D01*
X134183D01*
X133674Y320769D01*
X132900Y320923D01*
X132126Y320769D01*
X131469Y320331D01*
X131031Y319674D01*
X130877Y318900D01*
X131031Y318126D01*
X131469Y317469D01*
X132126Y317031D01*
X132900Y316877D01*
X133674Y317031D01*
X134183Y317371D01*
X138967D01*
X149871Y306467D01*
Y300400D01*
X149987Y299815D01*
X150319Y299319D01*
X152012Y297625D01*
X152131Y297026D01*
X152471Y296517D01*
Y276729D01*
X78897D01*
X73763Y281863D01*
X72850Y282613D01*
X71807Y283170D01*
X70676Y283513D01*
X69500Y283629D01*
X55997D01*
X55241Y284385D01*
X55432Y284847D01*
X61953D01*
Y292753D01*
X62445Y292771D01*
X65950D01*
X66050Y292271D01*
X66007Y292253D01*
X65181Y291619D01*
X64547Y290793D01*
X64149Y289832D01*
X64013Y288800D01*
X64149Y287768D01*
X64547Y286807D01*
X65181Y285981D01*
X66007Y285347D01*
X66968Y284949D01*
X68000Y284813D01*
X69032Y284949D01*
X69993Y285347D01*
X70819Y285981D01*
X71453Y286807D01*
X71851Y287768D01*
X71987Y288800D01*
X71851Y289832D01*
X71453Y290793D01*
X70819Y291619D01*
X69993Y292253D01*
X69950Y292271D01*
X70050Y292771D01*
X73500D01*
X74085Y292887D01*
X74581Y293219D01*
X75826Y294463D01*
X75901Y294512D01*
X76022Y294572D01*
X76183Y294633D01*
X76384Y294689D01*
X76625Y294739D01*
X76893Y294778D01*
X77585Y294825D01*
X77893Y294827D01*
X78000Y294813D01*
X79032Y294949D01*
X79993Y295347D01*
X80819Y295981D01*
X81453Y296807D01*
X81851Y297768D01*
X81987Y298800D01*
X81851Y299832D01*
X81453Y300793D01*
X80819Y301619D01*
X80734Y301685D01*
X80517Y301905D01*
X80061Y302427D01*
X79899Y302643D01*
X79764Y302849D01*
X79662Y303032D01*
X79591Y303189D01*
X79548Y303316D01*
X79529Y303404D01*
Y305066D01*
X86181Y311719D01*
X86513Y312215D01*
X86629Y312800D01*
Y319617D01*
X86969Y320126D01*
X87123Y320900D01*
X86969Y321674D01*
X86531Y322331D01*
X85874Y322769D01*
X85100Y322923D01*
X84326Y322769D01*
X83669Y322331D01*
X83231Y321674D01*
X83077Y320900D01*
X83231Y320126D01*
X83571Y319617D01*
Y313434D01*
X76919Y306781D01*
X76739Y306513D01*
X76684Y306475D01*
X76169Y306371D01*
X76099Y306386D01*
X75674Y306669D01*
X75073Y306789D01*
X74878Y307253D01*
X74876Y307299D01*
X75292Y307715D01*
X75374Y307731D01*
X76031Y308169D01*
X76469Y308826D01*
X76623Y309600D01*
X76469Y310374D01*
X76031Y311031D01*
X75374Y311469D01*
X74600Y311623D01*
X73826Y311469D01*
X73169Y311031D01*
X72731Y310374D01*
X72715Y310292D01*
X72445Y310022D01*
X64344D01*
X64274Y310069D01*
X63500Y310223D01*
X62726Y310069D01*
X62069Y309631D01*
X61631Y308974D01*
X61477Y308200D01*
X61631Y307426D01*
X62029Y306829D01*
X61961Y306572D01*
X61828Y306329D01*
X52300D01*
X51715Y306213D01*
X51219Y305881D01*
X46969Y301631D01*
X46637Y301135D01*
X46521Y300550D01*
Y295557D01*
X46131Y294974D01*
X46003Y294331D01*
X45526Y294101D01*
X41863Y297763D01*
X40949Y298513D01*
X39907Y299070D01*
X38776Y299413D01*
X37600Y299529D01*
X28029D01*
Y315985D01*
X28529Y316017D01*
X28603Y315456D01*
X29006Y314483D01*
X29647Y313647D01*
X30483Y313006D01*
X31456Y312603D01*
X32500Y312466D01*
X33544Y312603D01*
X34517Y313006D01*
X35353Y313647D01*
X35994Y314483D01*
X36397Y315456D01*
X36535Y316500D01*
X36397Y317544D01*
X35994Y318517D01*
X35353Y319353D01*
X34517Y319994D01*
X33544Y320397D01*
X32500Y320534D01*
X31456Y320397D01*
X30483Y319994D01*
X29647Y319353D01*
X29006Y318517D01*
X28603Y317544D01*
X28529Y316983D01*
X28029Y317016D01*
Y325985D01*
X28529Y326017D01*
X28603Y325456D01*
X29006Y324483D01*
X29647Y323647D01*
X30483Y323006D01*
X31456Y322603D01*
X32500Y322465D01*
X33544Y322603D01*
X34517Y323006D01*
X35353Y323647D01*
X35994Y324483D01*
X36361Y325368D01*
X40362Y329370D01*
X139338D01*
X172904Y295804D01*
X173635Y295243D01*
X173768Y295187D01*
X173726Y294669D01*
X173069Y294231D01*
X172631Y293574D01*
X172512Y292974D01*
X169408Y289871D01*
X169145Y289923D01*
X168371Y289769D01*
X167714Y289331D01*
X167276Y288674D01*
X167122Y287900D01*
X167276Y287126D01*
X167714Y286469D01*
X168371Y286031D01*
X169145Y285877D01*
X169919Y286031D01*
X170576Y286469D01*
X171014Y287126D01*
X171018Y287146D01*
X171090Y287228D01*
X174674Y290812D01*
X175274Y290931D01*
X175931Y291369D01*
X176369Y292026D01*
X176523Y292800D01*
X176369Y293574D01*
X175931Y294231D01*
X175872Y294270D01*
X176023Y294770D01*
X188200D01*
X189114Y294890D01*
X189965Y295243D01*
X190696Y295804D01*
X191257Y296535D01*
X191610Y297386D01*
X191730Y298300D01*
X191610Y299214D01*
X191257Y300065D01*
X190696Y300796D01*
X189965Y301357D01*
X189114Y301710D01*
X188200Y301830D01*
X176862D01*
X154923Y323770D01*
X155051Y324349D01*
X155531Y324669D01*
X155969Y325326D01*
X156024Y325600D01*
X154100D01*
Y326600D01*
X156024D01*
X155969Y326874D01*
X155629Y327383D01*
Y341617D01*
X155969Y342126D01*
X156024Y342400D01*
X152176D01*
X152231Y342126D01*
X152571Y341617D01*
Y327383D01*
X152349Y327051D01*
X151770Y326923D01*
X143296Y335396D01*
X142565Y335957D01*
X141714Y336310D01*
X140800Y336430D01*
X38900D01*
X37986Y336310D01*
X37135Y335957D01*
X36949Y335814D01*
X36480Y336085D01*
X36535Y336500D01*
X36397Y337544D01*
X35994Y338517D01*
X35353Y339353D01*
X34517Y339994D01*
X33544Y340397D01*
X32500Y340534D01*
X31456Y340397D01*
X30483Y339994D01*
X29647Y339353D01*
X29006Y338517D01*
X28603Y337544D01*
X28529Y336983D01*
X28029Y337016D01*
Y341600D01*
X27913Y342776D01*
X27570Y343907D01*
X27013Y344950D01*
X26263Y345863D01*
X26192Y345934D01*
X25771Y346417D01*
X25322Y347085D01*
X24916Y347867D01*
X24556Y348764D01*
X24245Y349778D01*
X23987Y350908D01*
X23786Y352142D01*
X23549Y355000D01*
X23529Y356060D01*
Y367367D01*
X26138Y369975D01*
X60238D01*
X61493Y369953D01*
X63117Y369846D01*
X63717Y369771D01*
X64180Y369683D01*
X64363Y369631D01*
Y369072D01*
X65289D01*
X65310Y369067D01*
X65343Y369071D01*
X65375Y369065D01*
X65413Y369072D01*
X73187D01*
X73225Y369065D01*
X73257Y369071D01*
X73290Y369067D01*
X73311Y369072D01*
X74237D01*
Y369631D01*
X74420Y369683D01*
X74853Y369765D01*
X78033Y369975D01*
X113176D01*
X113491Y369475D01*
X113412Y369075D01*
X104367Y360029D01*
X98983D01*
X98474Y360369D01*
X97700Y360523D01*
X96926Y360369D01*
X96269Y359931D01*
X95831Y359274D01*
X95677Y358500D01*
X95831Y357726D01*
X96269Y357069D01*
X96926Y356631D01*
X97700Y356477D01*
X98474Y356631D01*
X98983Y356971D01*
X105000D01*
X105585Y357087D01*
X106081Y357419D01*
X115575Y366912D01*
X116174Y367031D01*
X116831Y367469D01*
X117269Y368126D01*
X117423Y368900D01*
X117309Y369475D01*
X117624Y369975D01*
X120738D01*
X121993Y369953D01*
X123617Y369846D01*
X124217Y369771D01*
X124680Y369683D01*
X124863Y369631D01*
Y369072D01*
X125789D01*
X125810Y369067D01*
X125843Y369071D01*
X125875Y369065D01*
X125913Y369072D01*
X128228D01*
X128856Y368812D01*
X129900Y368675D01*
X130944Y368812D01*
X131572Y369072D01*
X133687D01*
X133725Y369065D01*
X133757Y369071D01*
X133790Y369067D01*
X133811Y369072D01*
X134737D01*
Y369631D01*
X134920Y369683D01*
X135354Y369765D01*
X138533Y369975D01*
X173394D01*
X173630Y369534D01*
X173526Y369379D01*
X173407Y368779D01*
X162657Y358029D01*
X155383D01*
X154874Y358369D01*
X154100Y358523D01*
X153326Y358369D01*
X152669Y357931D01*
X152231Y357274D01*
X152077Y356500D01*
X152231Y355726D01*
X152669Y355069D01*
X153326Y354631D01*
X154100Y354477D01*
X154874Y354631D01*
X155383Y354971D01*
X163291D01*
X163876Y355087D01*
X164372Y355419D01*
X175570Y366616D01*
X176170Y366736D01*
X176826Y367174D01*
X177264Y367831D01*
X177418Y368605D01*
X177264Y369379D01*
X177161Y369534D01*
X177397Y369975D01*
X180138D01*
X181393Y369953D01*
X183018Y369846D01*
X183617Y369771D01*
X184080Y369683D01*
X184263Y369631D01*
Y369072D01*
X185189D01*
X185210Y369067D01*
X185243Y369071D01*
X185275Y369065D01*
X185313Y369072D01*
X194137D01*
Y378629D01*
X194637Y378837D01*
X199371Y374103D01*
D02*
G37*
G36*
X115390Y367916D02*
X115336Y367912D01*
X115279Y367901D01*
X115220Y367882D01*
X115159Y367855D01*
X115094Y367821D01*
X115028Y367778D01*
X114959Y367728D01*
X114887Y367669D01*
X114736Y367529D01*
X114029Y368236D01*
X114103Y368313D01*
X114228Y368459D01*
X114278Y368528D01*
X114321Y368594D01*
X114355Y368659D01*
X114382Y368720D01*
X114401Y368779D01*
X114412Y368836D01*
X114416Y368890D01*
X115390Y367916D01*
D02*
G37*
G36*
X175386Y367621D02*
X175331Y367617D01*
X175275Y367606D01*
X175216Y367587D01*
X175154Y367560D01*
X175090Y367525D01*
X175023Y367483D01*
X174954Y367432D01*
X174882Y367374D01*
X174732Y367234D01*
X174025Y367941D01*
X174099Y368018D01*
X174223Y368163D01*
X174273Y368233D01*
X174316Y368299D01*
X174351Y368363D01*
X174378Y368425D01*
X174397Y368484D01*
X174408Y368541D01*
X174411Y368595D01*
X175386Y367621D01*
D02*
G37*
G36*
X98444Y359153D02*
X98492Y359121D01*
X98547Y359093D01*
X98610Y359068D01*
X98679Y359047D01*
X98757Y359030D01*
X98841Y359017D01*
X98933Y359008D01*
X99138Y359000D01*
Y358000D01*
X99032Y357998D01*
X98841Y357983D01*
X98757Y357970D01*
X98679Y357953D01*
X98610Y357932D01*
X98547Y357907D01*
X98492Y357879D01*
X98444Y357847D01*
X98403Y357811D01*
Y359189D01*
X98444Y359153D01*
D02*
G37*
G36*
X154844Y357153D02*
X154892Y357121D01*
X154947Y357093D01*
X155009Y357068D01*
X155079Y357047D01*
X155157Y357030D01*
X155241Y357017D01*
X155333Y357008D01*
X155538Y357000D01*
Y356000D01*
X155432Y355998D01*
X155241Y355983D01*
X155157Y355970D01*
X155079Y355953D01*
X155009Y355932D01*
X154947Y355907D01*
X154892Y355879D01*
X154844Y355847D01*
X154803Y355811D01*
Y357189D01*
X154844Y357153D01*
D02*
G37*
G36*
X21313Y369476D02*
X20919Y369081D01*
X20587Y368585D01*
X20471Y368000D01*
Y356341D01*
X20361Y353503D01*
X20280Y352751D01*
X19756Y352555D01*
X17678Y354475D01*
X15996Y356130D01*
X14229Y357897D01*
Y369579D01*
X21110Y369932D01*
X21313Y369476D01*
D02*
G37*
G36*
X22530Y354948D02*
X22773Y352017D01*
X22986Y350712D01*
X23259Y349515D01*
X23594Y348424D01*
X23989Y347441D01*
X24444Y346564D01*
X24961Y345795D01*
X25538Y345133D01*
X22088D01*
X22500Y341600D01*
X22000D01*
X20173Y345133D01*
X18462D01*
X19039Y345795D01*
X19487Y346461D01*
X14429Y356242D01*
X16974Y353736D01*
X19732Y351189D01*
X20369Y350662D01*
X20864Y350297D01*
X20913Y350269D01*
X21014Y350712D01*
X21227Y352017D01*
X21378Y353429D01*
X21500Y356575D01*
X22500D01*
X22530Y354948D01*
D02*
G37*
G36*
X154753Y342156D02*
X154721Y342108D01*
X154693Y342053D01*
X154668Y341990D01*
X154647Y341921D01*
X154630Y341843D01*
X154617Y341759D01*
X154608Y341667D01*
X154600Y341462D01*
X153600D01*
X153598Y341568D01*
X153583Y341759D01*
X153570Y341843D01*
X153553Y341921D01*
X153532Y341990D01*
X153507Y342053D01*
X153479Y342108D01*
X153447Y342156D01*
X153411Y342197D01*
X154789D01*
X154753Y342156D01*
D02*
G37*
G36*
X154602Y327432D02*
X154617Y327241D01*
X154630Y327157D01*
X154647Y327079D01*
X154668Y327010D01*
X154693Y326947D01*
X154721Y326892D01*
X154753Y326844D01*
X154789Y326803D01*
X153411D01*
X153447Y326844D01*
X153479Y326892D01*
X153507Y326947D01*
X153532Y327010D01*
X153553Y327079D01*
X153570Y327157D01*
X153583Y327241D01*
X153592Y327333D01*
X153600Y327538D01*
X154600D01*
X154602Y327432D01*
D02*
G37*
G36*
X24961Y337405D02*
X24444Y336636D01*
X23989Y335759D01*
X23594Y334776D01*
X23259Y333685D01*
X22986Y332488D01*
X22773Y331183D01*
X22622Y329771D01*
X22500Y326625D01*
X21500D01*
X21470Y328252D01*
X21227Y331183D01*
X21014Y332488D01*
X20741Y333685D01*
X20406Y334776D01*
X20011Y335759D01*
X19556Y336636D01*
X19039Y337405D01*
X18462Y338067D01*
X25538D01*
X24961Y337405D01*
D02*
G37*
G36*
X85753Y320156D02*
X85721Y320108D01*
X85693Y320053D01*
X85668Y319990D01*
X85647Y319921D01*
X85630Y319843D01*
X85617Y319759D01*
X85608Y319667D01*
X85600Y319462D01*
X84600D01*
X84598Y319568D01*
X84583Y319759D01*
X84570Y319843D01*
X84553Y319921D01*
X84532Y319990D01*
X84507Y320053D01*
X84479Y320108D01*
X84447Y320156D01*
X84411Y320197D01*
X85789D01*
X85753Y320156D01*
D02*
G37*
G36*
X133644Y319553D02*
X133692Y319521D01*
X133747Y319493D01*
X133809Y319468D01*
X133879Y319447D01*
X133957Y319430D01*
X134041Y319417D01*
X134133Y319408D01*
X134338Y319400D01*
Y318400D01*
X134232Y318398D01*
X134041Y318383D01*
X133957Y318370D01*
X133879Y318353D01*
X133809Y318332D01*
X133747Y318307D01*
X133692Y318279D01*
X133644Y318247D01*
X133603Y318211D01*
Y319589D01*
X133644Y319553D01*
D02*
G37*
G36*
X74197Y304111D02*
X74156Y304147D01*
X74108Y304179D01*
X74053Y304207D01*
X73990Y304232D01*
X73921Y304253D01*
X73843Y304270D01*
X73759Y304283D01*
X73667Y304292D01*
X73462Y304300D01*
Y305300D01*
X73568Y305302D01*
X73759Y305317D01*
X73843Y305330D01*
X73921Y305347D01*
X73990Y305368D01*
X74053Y305393D01*
X74108Y305421D01*
X74156Y305453D01*
X74197Y305489D01*
Y304111D01*
D02*
G37*
G36*
X78516Y303269D02*
X78563Y303047D01*
X78641Y302815D01*
X78751Y302572D01*
X78892Y302320D01*
X79064Y302058D01*
X79268Y301785D01*
X79769Y301211D01*
X80067Y300909D01*
X75933D01*
X76231Y301211D01*
X76732Y301785D01*
X76936Y302058D01*
X77108Y302320D01*
X77249Y302572D01*
X77359Y302815D01*
X77437Y303047D01*
X77484Y303269D01*
X77500Y303482D01*
X78500D01*
X78516Y303269D01*
D02*
G37*
G36*
X22530Y309749D02*
X22773Y306817D01*
X22986Y305512D01*
X23259Y304314D01*
X23594Y303224D01*
X23989Y302240D01*
X24444Y301364D01*
X24961Y300595D01*
X25538Y299933D01*
X18462D01*
X19039Y300595D01*
X19556Y301364D01*
X20011Y302240D01*
X20406Y303224D01*
X20741Y304314D01*
X21014Y305512D01*
X21227Y306817D01*
X21378Y308229D01*
X21500Y311375D01*
X22500D01*
X22530Y309749D01*
D02*
G37*
G36*
X153413Y299097D02*
X153559Y298972D01*
X153628Y298922D01*
X153694Y298880D01*
X153759Y298845D01*
X153820Y298818D01*
X153879Y298799D01*
X153936Y298788D01*
X153990Y298784D01*
X153016Y297810D01*
X153012Y297864D01*
X153001Y297921D01*
X152982Y297980D01*
X152955Y298041D01*
X152920Y298106D01*
X152878Y298172D01*
X152828Y298241D01*
X152769Y298313D01*
X152629Y298464D01*
X153337Y299171D01*
X153413Y299097D01*
D02*
G37*
G36*
X154653Y297056D02*
X154621Y297008D01*
X154593Y296953D01*
X154568Y296890D01*
X154547Y296821D01*
X154530Y296743D01*
X154517Y296659D01*
X154508Y296567D01*
X154500Y296362D01*
X153500D01*
X153498Y296468D01*
X153483Y296659D01*
X153470Y296743D01*
X153453Y296821D01*
X153432Y296890D01*
X153407Y296953D01*
X153379Y297008D01*
X153347Y297056D01*
X153311Y297097D01*
X154689D01*
X154653Y297056D01*
D02*
G37*
G36*
X67877Y302771D02*
X66968Y302651D01*
X66007Y302253D01*
X65181Y301619D01*
X64547Y300793D01*
X64149Y299832D01*
X64013Y298800D01*
X64149Y297768D01*
X64547Y296807D01*
X64913Y296329D01*
X64667Y295829D01*
X61333D01*
X61087Y296329D01*
X61453Y296807D01*
X61851Y297768D01*
X61987Y298800D01*
X61851Y299832D01*
X61453Y300793D01*
X60819Y301619D01*
X59993Y302253D01*
X59032Y302651D01*
X58123Y302771D01*
X58156Y303271D01*
X67844D01*
X67877Y302771D01*
D02*
G37*
G36*
X77970Y295847D02*
X77546Y295844D01*
X76785Y295793D01*
X76449Y295744D01*
X76142Y295680D01*
X75863Y295602D01*
X75615Y295508D01*
X75395Y295399D01*
X75204Y295275D01*
X75043Y295136D01*
X74336Y295843D01*
X74475Y296004D01*
X74599Y296195D01*
X74708Y296414D01*
X74802Y296663D01*
X74880Y296942D01*
X74944Y297249D01*
X74993Y297586D01*
X75044Y298346D01*
X75047Y298770D01*
X77970Y295847D01*
D02*
G37*
G36*
X48550Y295607D02*
X48552Y295500D01*
X48566Y295309D01*
X48578Y295224D01*
X48594Y295146D01*
X48613Y295076D01*
X48635Y295013D01*
X48661Y294957D01*
X48691Y294908D01*
X48724Y294867D01*
X47348Y294937D01*
X47386Y294976D01*
X47420Y295023D01*
X47451Y295078D01*
X47477Y295140D01*
X47499Y295209D01*
X47518Y295285D01*
X47532Y295369D01*
X47542Y295461D01*
X47550Y295666D01*
X48550Y295607D01*
D02*
G37*
G36*
X57877Y302771D02*
X56968Y302651D01*
X56007Y302253D01*
X55181Y301619D01*
X54547Y300793D01*
X54149Y299832D01*
X54013Y298800D01*
X54149Y297768D01*
X54547Y296807D01*
X54981Y296241D01*
X54924Y295917D01*
X54811Y295661D01*
X54392Y295381D01*
X52477Y293467D01*
X52474Y293469D01*
X51700Y293623D01*
X50926Y293469D01*
X50269Y293031D01*
X49831Y292374D01*
X49677Y291600D01*
X49831Y290826D01*
X50269Y290169D01*
X50926Y289731D01*
X51700Y289577D01*
X52474Y289731D01*
X53071Y290130D01*
X53359Y290187D01*
X53547Y290313D01*
X54047Y290046D01*
Y286232D01*
X53585Y286041D01*
X47901Y291726D01*
X48131Y292203D01*
X48774Y292331D01*
X49431Y292769D01*
X49869Y293426D01*
X50023Y294200D01*
X49869Y294974D01*
X49582Y295404D01*
X49580Y295418D01*
X49579Y295426D01*
Y299917D01*
X52934Y303271D01*
X57844D01*
X57877Y302771D01*
D02*
G37*
G36*
X174490Y291816D02*
X174436Y291812D01*
X174379Y291801D01*
X174320Y291782D01*
X174259Y291755D01*
X174194Y291721D01*
X174128Y291678D01*
X174059Y291628D01*
X173987Y291569D01*
X173837Y291429D01*
X173129Y292137D01*
X173203Y292213D01*
X173328Y292359D01*
X173378Y292428D01*
X173421Y292494D01*
X173455Y292559D01*
X173482Y292620D01*
X173501Y292679D01*
X173512Y292736D01*
X173516Y292790D01*
X174490Y291816D01*
D02*
G37*
G36*
X170527Y288120D02*
X170449Y288041D01*
X170136Y287688D01*
X170110Y287649D01*
X170090Y287615D01*
X170078Y287588D01*
X169476Y288827D01*
X169528Y288814D01*
X169583Y288810D01*
X169641Y288816D01*
X169701Y288832D01*
X169764Y288857D01*
X169830Y288892D01*
X169898Y288936D01*
X169970Y288991D01*
X170044Y289055D01*
X170121Y289128D01*
X170527Y288120D01*
D02*
G37*
G36*
X15130Y293142D02*
X15150Y293244D01*
X15163Y293461D01*
X19061Y289563D01*
X18844Y289550D01*
X18742Y289529D01*
X19732Y288540D01*
X19098Y288431D01*
X18462Y288265D01*
X17824Y288042D01*
X17185Y287762D01*
X16544Y287425D01*
X15901Y287031D01*
X15257Y286580D01*
X14611Y286072D01*
X13314Y284886D01*
X10486Y287714D01*
X11107Y288364D01*
X12180Y289657D01*
X12631Y290301D01*
X13025Y290944D01*
X13362Y291585D01*
X13642Y292224D01*
X13865Y292862D01*
X14031Y293498D01*
X14140Y294132D01*
X15130Y293142D01*
D02*
G37*
G36*
X157982Y275692D02*
X152708Y270418D01*
X152668Y271326D01*
X152727Y273322D01*
X152806Y273745D01*
X152915Y274047D01*
X153053Y274229D01*
X153221Y274289D01*
X153419Y274228D01*
X153647Y274046D01*
X154353Y274753D01*
X154172Y274981D01*
X154111Y275179D01*
X154171Y275347D01*
X154352Y275485D01*
X154655Y275594D01*
X155078Y275673D01*
X155622Y275722D01*
X156288Y275742D01*
X157982Y275692D01*
D02*
G37*
G36*
X50129Y272486D02*
X49554Y271647D01*
X49476Y271721D01*
X49334Y271838D01*
X49269Y271881D01*
X49209Y271913D01*
X49154Y271934D01*
X49102Y271944D01*
X49055Y271944D01*
X49013Y271933D01*
X48975Y271912D01*
X49231Y273203D01*
X50129Y272486D01*
D02*
G37*
G36*
X47546Y275027D02*
X47423Y274444D01*
X46954Y274131D01*
X46516Y273474D01*
X46362Y272700D01*
X46516Y271926D01*
X46830Y271455D01*
X46442Y271136D01*
X39906Y277673D01*
X39184Y278155D01*
X38333Y278324D01*
X37482Y278155D01*
X36761Y277673D01*
X36279Y276951D01*
X36110Y276100D01*
X36279Y275249D01*
X36537Y274863D01*
X36149Y274544D01*
X35896Y274796D01*
X35165Y275357D01*
X34314Y275710D01*
X33400Y275830D01*
X32486Y275710D01*
X31635Y275357D01*
X30904Y274796D01*
X30343Y274065D01*
X29990Y273214D01*
X29870Y272300D01*
X29990Y271386D01*
X30162Y270972D01*
X29738Y270688D01*
X25855Y274572D01*
X25813Y274991D01*
X25470Y276122D01*
X24913Y277165D01*
X24163Y278078D01*
X23249Y278828D01*
X22207Y279385D01*
X21076Y279728D01*
X19900Y279844D01*
X18724Y279728D01*
X17593Y279385D01*
X16551Y278828D01*
X15637Y278078D01*
X15397Y277785D01*
X14926Y277954D01*
Y284978D01*
X15271Y285294D01*
X15865Y285761D01*
X16461Y286178D01*
X17048Y286538D01*
X17627Y286842D01*
X18198Y287092D01*
X18759Y287289D01*
X19313Y287434D01*
X19531Y287471D01*
X35103D01*
X47546Y275027D01*
D02*
G37*
G36*
X53588Y269306D02*
X53564Y269314D01*
X53531Y269322D01*
X53487Y269328D01*
X53372Y269339D01*
X53126Y269348D01*
X52913Y269350D01*
X52437Y270350D01*
X52543Y270352D01*
X52729Y270372D01*
X52809Y270389D01*
X52879Y270411D01*
X52941Y270438D01*
X52994Y270470D01*
X53038Y270506D01*
X53072Y270548D01*
X53098Y270594D01*
X53588Y269306D01*
D02*
G37*
G36*
X68923Y269650D02*
X68810Y269435D01*
X68643Y269224D01*
X56290D01*
X55928Y269724D01*
X56023Y270200D01*
X55869Y270974D01*
X55765Y271130D01*
X56001Y271571D01*
X67003D01*
X68923Y269650D01*
D02*
G37*
G36*
X72283Y265100D02*
X72500Y264920D01*
X72722Y264761D01*
X72947Y264624D01*
X73175Y264509D01*
X73407Y264415D01*
X73642Y264342D01*
X73882Y264291D01*
X74124Y264261D01*
X74370Y264253D01*
X71447Y261330D01*
X71439Y261576D01*
X71409Y261819D01*
X71358Y262058D01*
X71285Y262293D01*
X71191Y262525D01*
X71076Y262754D01*
X70939Y262978D01*
X70780Y263199D01*
X70600Y263417D01*
X70398Y263631D01*
X72069Y265301D01*
X72283Y265100D01*
D02*
G37*
G36*
X222291Y259233D02*
X222076Y259439D01*
X221854Y259623D01*
X221625Y259785D01*
X221390Y259926D01*
X221149Y260045D01*
X220901Y260142D01*
X220647Y260218D01*
X220386Y260272D01*
X220118Y260305D01*
X219845Y260316D01*
Y262284D01*
X220118Y262295D01*
X220386Y262328D01*
X220647Y262382D01*
X220901Y262457D01*
X221149Y262555D01*
X221390Y262674D01*
X221625Y262815D01*
X221854Y262977D01*
X222076Y263161D01*
X222291Y263367D01*
Y259233D01*
D02*
G37*
G36*
X216724Y263161D02*
X216946Y262977D01*
X217175Y262815D01*
X217410Y262674D01*
X217651Y262555D01*
X217899Y262457D01*
X218153Y262382D01*
X218414Y262328D01*
X218682Y262295D01*
X218955Y262284D01*
Y260316D01*
X218682Y260305D01*
X218414Y260272D01*
X218153Y260218D01*
X217899Y260142D01*
X217651Y260045D01*
X217410Y259926D01*
X217175Y259785D01*
X216946Y259623D01*
X216724Y259439D01*
X216509Y259233D01*
Y263367D01*
X216724Y263161D01*
D02*
G37*
G36*
X102291Y259233D02*
X102111Y259401D01*
X101919Y259552D01*
X101713Y259685D01*
X101496Y259800D01*
X101265Y259897D01*
X101022Y259977D01*
X100766Y260039D01*
X100497Y260084D01*
X100216Y260110D01*
X99922Y260119D01*
Y262481D01*
X100216Y262490D01*
X100497Y262516D01*
X100766Y262561D01*
X101022Y262623D01*
X101265Y262703D01*
X101496Y262800D01*
X101713Y262915D01*
X101919Y263048D01*
X102111Y263199D01*
X102291Y263367D01*
Y259233D01*
D02*
G37*
G36*
X96689Y263199D02*
X96881Y263048D01*
X97087Y262915D01*
X97304Y262800D01*
X97535Y262703D01*
X97778Y262623D01*
X98034Y262561D01*
X98303Y262516D01*
X98584Y262490D01*
X98878Y262481D01*
Y260119D01*
X98584Y260110D01*
X98303Y260084D01*
X98034Y260039D01*
X97778Y259977D01*
X97535Y259897D01*
X97304Y259800D01*
X97087Y259685D01*
X96881Y259552D01*
X96689Y259401D01*
X96509Y259233D01*
Y263367D01*
X96689Y263199D01*
D02*
G37*
G36*
X92291Y259233D02*
X92111Y259401D01*
X91919Y259552D01*
X91713Y259685D01*
X91496Y259800D01*
X91265Y259897D01*
X91022Y259977D01*
X90766Y260039D01*
X90497Y260084D01*
X90216Y260110D01*
X89922Y260119D01*
Y262481D01*
X90216Y262490D01*
X90497Y262516D01*
X90766Y262561D01*
X91022Y262623D01*
X91265Y262703D01*
X91496Y262800D01*
X91713Y262915D01*
X91919Y263048D01*
X92111Y263199D01*
X92291Y263367D01*
Y259233D01*
D02*
G37*
G36*
X86689Y263199D02*
X86881Y263048D01*
X87087Y262915D01*
X87305Y262800D01*
X87535Y262703D01*
X87778Y262623D01*
X88034Y262561D01*
X88303Y262516D01*
X88584Y262490D01*
X88878Y262481D01*
Y260119D01*
X88584Y260110D01*
X88303Y260084D01*
X88034Y260039D01*
X87778Y259977D01*
X87535Y259897D01*
X87305Y259800D01*
X87087Y259685D01*
X86881Y259552D01*
X86689Y259401D01*
X86509Y259233D01*
Y263367D01*
X86689Y263199D01*
D02*
G37*
G36*
X82291Y259233D02*
X82111Y259401D01*
X81919Y259552D01*
X81713Y259685D01*
X81495Y259800D01*
X81265Y259897D01*
X81022Y259977D01*
X80766Y260039D01*
X80497Y260084D01*
X80216Y260110D01*
X79922Y260119D01*
Y262481D01*
X80216Y262490D01*
X80497Y262516D01*
X80766Y262561D01*
X81022Y262623D01*
X81265Y262703D01*
X81495Y262800D01*
X81713Y262915D01*
X81919Y263048D01*
X82111Y263199D01*
X82291Y263367D01*
Y259233D01*
D02*
G37*
G36*
X76689Y263199D02*
X76881Y263048D01*
X77087Y262915D01*
X77305Y262800D01*
X77535Y262703D01*
X77778Y262623D01*
X78034Y262561D01*
X78303Y262516D01*
X78584Y262490D01*
X78878Y262481D01*
Y260119D01*
X78584Y260110D01*
X78303Y260084D01*
X78034Y260039D01*
X77778Y259977D01*
X77535Y259897D01*
X77305Y259800D01*
X77087Y259685D01*
X76881Y259552D01*
X76689Y259401D01*
X76509Y259233D01*
Y263367D01*
X76689Y263199D01*
D02*
G37*
G36*
X241971Y1529D02*
X1529D01*
Y55092D01*
X2029Y55261D01*
X2260Y54960D01*
X13160Y44060D01*
X13787Y43580D01*
X14517Y43277D01*
X15300Y43174D01*
X15300Y43174D01*
X83447D01*
X95160Y31460D01*
X95787Y30979D01*
X96517Y30677D01*
X97300Y30574D01*
X100768D01*
X101972Y30533D01*
X102506Y30478D01*
X102953Y30403D01*
X103296Y30316D01*
X103525Y30230D01*
X103590Y30192D01*
Y29350D01*
X104564D01*
X104602Y29342D01*
X104640Y29350D01*
X107704D01*
X107739Y29342D01*
X107780Y29350D01*
X108510D01*
X108550Y29327D01*
X108793Y29158D01*
X109359Y28680D01*
X116469Y21569D01*
X117126Y21131D01*
X117900Y20977D01*
X130200D01*
X130974Y21131D01*
X131631Y21569D01*
X145531Y35469D01*
X145747Y35794D01*
X146247Y35642D01*
Y29047D01*
X154153D01*
Y36953D01*
X151045D01*
Y77396D01*
X151545Y77767D01*
X152000Y77677D01*
X152301Y77737D01*
X158671Y71367D01*
Y37604D01*
X158652Y37516D01*
X158609Y37389D01*
X158538Y37232D01*
X158436Y37049D01*
X158301Y36843D01*
X158139Y36627D01*
X157683Y36105D01*
X157466Y35885D01*
X157381Y35819D01*
X156747Y34993D01*
X156349Y34032D01*
X156213Y33000D01*
X156349Y31968D01*
X156747Y31007D01*
X157381Y30181D01*
X158207Y29547D01*
X159168Y29149D01*
X160200Y29013D01*
X161232Y29149D01*
X162193Y29547D01*
X163019Y30181D01*
X163653Y31007D01*
X164051Y31968D01*
X164187Y33000D01*
X164051Y34032D01*
X163653Y34993D01*
X163019Y35819D01*
X162934Y35885D01*
X162717Y36105D01*
X162261Y36627D01*
X162099Y36843D01*
X161964Y37049D01*
X161862Y37232D01*
X161791Y37389D01*
X161748Y37516D01*
X161729Y37604D01*
Y72000D01*
X161613Y72585D01*
X161281Y73081D01*
X153830Y80533D01*
X153431Y81131D01*
X152774Y81569D01*
X152000Y81723D01*
X151545Y81633D01*
X151045Y82004D01*
Y85984D01*
X150929Y86569D01*
X150597Y87066D01*
X149888Y87774D01*
X149769Y88374D01*
X149331Y89031D01*
X148674Y89469D01*
X147900Y89623D01*
X147126Y89469D01*
X146623Y89133D01*
X146123Y89344D01*
Y106493D01*
X146325Y106672D01*
X146498Y106806D01*
X150739D01*
Y106806D01*
X151061D01*
Y106806D01*
X153845D01*
Y110700D01*
Y114594D01*
X151061D01*
Y114594D01*
X150739D01*
Y114594D01*
X144172D01*
Y113216D01*
X144158Y113210D01*
X144010Y113171D01*
X143800Y113136D01*
X143655Y113123D01*
X140000D01*
X139226Y112969D01*
X138569Y112531D01*
X138131Y111874D01*
X137977Y111100D01*
X138131Y110326D01*
X138569Y109669D01*
X139226Y109231D01*
X140000Y109077D01*
X142289D01*
X142537Y108577D01*
X142231Y108119D01*
X142077Y107345D01*
Y74384D01*
X141577Y74335D01*
X141569Y74374D01*
X141131Y75031D01*
X141129Y75031D01*
Y85700D01*
X141013Y86285D01*
X140681Y86781D01*
X136097Y91366D01*
X135601Y91697D01*
X135016Y91814D01*
X119984D01*
X119399Y91697D01*
X118903Y91366D01*
X107766Y80229D01*
X101104D01*
X101016Y80248D01*
X100889Y80291D01*
X100732Y80362D01*
X100549Y80464D01*
X100343Y80599D01*
X100127Y80761D01*
X99604Y81217D01*
X99385Y81434D01*
X99319Y81519D01*
X98493Y82153D01*
X97532Y82551D01*
X96500Y82687D01*
X95468Y82551D01*
X94507Y82153D01*
X93681Y81519D01*
X93603Y81418D01*
X93129Y81578D01*
Y83166D01*
X94326Y84363D01*
X94401Y84412D01*
X94522Y84472D01*
X94683Y84532D01*
X94884Y84589D01*
X95125Y84639D01*
X95393Y84678D01*
X96085Y84725D01*
X96393Y84727D01*
X96500Y84713D01*
X97532Y84849D01*
X98493Y85247D01*
X99319Y85881D01*
X99953Y86707D01*
X100351Y87668D01*
X100487Y88700D01*
X100351Y89732D01*
X99953Y90693D01*
X99319Y91519D01*
X98493Y92153D01*
X97532Y92551D01*
X96500Y92687D01*
X95468Y92551D01*
X94507Y92153D01*
X93681Y91519D01*
X93047Y90693D01*
X92649Y89732D01*
X92513Y88700D01*
X92527Y88593D01*
X92525Y88285D01*
X92478Y87593D01*
X92439Y87325D01*
X92390Y87084D01*
X92333Y86883D01*
X92272Y86722D01*
X92212Y86601D01*
X92163Y86526D01*
X90519Y84881D01*
X90187Y84385D01*
X90071Y83800D01*
Y81361D01*
X89571Y81191D01*
X89319Y81519D01*
X88493Y82153D01*
X87532Y82551D01*
X86500Y82687D01*
X85468Y82551D01*
X84507Y82153D01*
X83681Y81519D01*
X83047Y80693D01*
X82823Y80152D01*
X82323Y80252D01*
Y87148D01*
X82823Y87248D01*
X83047Y86707D01*
X83681Y85881D01*
X84507Y85247D01*
X85468Y84849D01*
X86500Y84713D01*
X87532Y84849D01*
X88493Y85247D01*
X89319Y85881D01*
X89953Y86707D01*
X90351Y87668D01*
X90487Y88700D01*
X90351Y89732D01*
X89953Y90693D01*
X89319Y91519D01*
X88493Y92153D01*
X87532Y92551D01*
X86500Y92687D01*
X85468Y92551D01*
X84507Y92153D01*
X83681Y91519D01*
X83047Y90693D01*
X82823Y90152D01*
X82323Y90252D01*
Y97148D01*
X82823Y97248D01*
X83047Y96707D01*
X83681Y95881D01*
X84507Y95247D01*
X85468Y94849D01*
X86500Y94713D01*
X87532Y94849D01*
X88493Y95247D01*
X89319Y95881D01*
X89953Y96707D01*
X90351Y97668D01*
X90487Y98700D01*
X90351Y99732D01*
X89953Y100693D01*
X89319Y101519D01*
X88493Y102153D01*
X87532Y102551D01*
X86500Y102687D01*
X85468Y102551D01*
X84507Y102153D01*
X83681Y101519D01*
X83047Y100693D01*
X82823Y100152D01*
X82323Y100252D01*
Y104340D01*
X82547Y104747D01*
X82823Y104747D01*
X90453D01*
Y112653D01*
X82823D01*
X82547Y112653D01*
X82323Y113060D01*
Y127848D01*
X82823Y127948D01*
X83047Y127407D01*
X83681Y126581D01*
X84507Y125947D01*
X85468Y125549D01*
X86500Y125413D01*
X87532Y125549D01*
X88493Y125947D01*
X89319Y126581D01*
X89953Y127407D01*
X90351Y128368D01*
X90487Y129400D01*
X90351Y130432D01*
X89953Y131393D01*
X89319Y132219D01*
X88493Y132853D01*
X87532Y133251D01*
X86500Y133387D01*
X85468Y133251D01*
X84507Y132853D01*
X83681Y132219D01*
X83047Y131393D01*
X82823Y130852D01*
X82323Y130952D01*
Y137848D01*
X82823Y137948D01*
X83047Y137407D01*
X83681Y136581D01*
X84507Y135947D01*
X85468Y135549D01*
X86500Y135413D01*
X87532Y135549D01*
X88493Y135947D01*
X89319Y136581D01*
X89953Y137407D01*
X90351Y138368D01*
X90487Y139400D01*
X90351Y140432D01*
X89953Y141393D01*
X89319Y142219D01*
X88493Y142853D01*
X87532Y143251D01*
X86500Y143387D01*
X85468Y143251D01*
X84507Y142853D01*
X83681Y142219D01*
X83047Y141393D01*
X82823Y140852D01*
X82323Y140952D01*
Y147848D01*
X82823Y147948D01*
X83047Y147407D01*
X83681Y146581D01*
X84507Y145947D01*
X85468Y145549D01*
X86500Y145413D01*
X87532Y145549D01*
X88493Y145947D01*
X89319Y146581D01*
X89953Y147407D01*
X90351Y148368D01*
X90487Y149400D01*
X90351Y150432D01*
X89953Y151393D01*
X89319Y152219D01*
X88493Y152853D01*
X87532Y153251D01*
X86500Y153387D01*
X85468Y153251D01*
X84507Y152853D01*
X83681Y152219D01*
X83047Y151393D01*
X82823Y150852D01*
X82323Y150952D01*
Y155040D01*
X82547Y155447D01*
X82823Y155447D01*
X90453D01*
Y163353D01*
X82823D01*
X82547Y163353D01*
X82323Y163760D01*
Y165400D01*
X82169Y166174D01*
X81731Y166831D01*
X78853Y169709D01*
X78794Y169783D01*
X78695Y169934D01*
X78610Y170091D01*
X78538Y170257D01*
X78478Y170432D01*
X78432Y170618D01*
X78398Y170818D01*
X78378Y171032D01*
X78374Y171203D01*
X78387Y171300D01*
X78251Y172332D01*
X77853Y173293D01*
X77219Y174119D01*
X77141Y174179D01*
X77023Y174302D01*
X76886Y174468D01*
X76769Y174633D01*
X76670Y174798D01*
X76588Y174964D01*
X76522Y175131D01*
X76471Y175303D01*
X76435Y175480D01*
X76423Y175574D01*
Y177026D01*
X76435Y177120D01*
X76471Y177297D01*
X76522Y177469D01*
X76588Y177636D01*
X76670Y177802D01*
X76769Y177967D01*
X76886Y178132D01*
X77023Y178298D01*
X77141Y178421D01*
X77219Y178481D01*
X77853Y179307D01*
X78251Y180268D01*
X78387Y181300D01*
X78251Y182332D01*
X77853Y183293D01*
X77219Y184119D01*
X77141Y184179D01*
X77023Y184302D01*
X76886Y184468D01*
X76769Y184633D01*
X76670Y184798D01*
X76588Y184964D01*
X76522Y185132D01*
X76471Y185303D01*
X76435Y185480D01*
X76423Y185574D01*
Y187026D01*
X76435Y187120D01*
X76471Y187297D01*
X76522Y187469D01*
X76588Y187636D01*
X76670Y187802D01*
X76769Y187967D01*
X76886Y188132D01*
X77023Y188298D01*
X77141Y188421D01*
X77219Y188481D01*
X77853Y189307D01*
X78251Y190268D01*
X78387Y191300D01*
X78251Y192332D01*
X77853Y193293D01*
X77219Y194119D01*
X77141Y194179D01*
X77023Y194302D01*
X76886Y194468D01*
X76769Y194633D01*
X76670Y194798D01*
X76588Y194964D01*
X76522Y195132D01*
X76471Y195303D01*
X76435Y195480D01*
X76423Y195574D01*
Y197026D01*
X76435Y197120D01*
X76471Y197297D01*
X76522Y197468D01*
X76588Y197636D01*
X76670Y197802D01*
X76769Y197967D01*
X76886Y198132D01*
X77023Y198298D01*
X77141Y198421D01*
X77219Y198481D01*
X77853Y199307D01*
X78251Y200268D01*
X78387Y201300D01*
X78251Y202332D01*
X77853Y203293D01*
X77219Y204119D01*
X77141Y204179D01*
X77023Y204302D01*
X76886Y204468D01*
X76769Y204633D01*
X76670Y204798D01*
X76588Y204964D01*
X76522Y205132D01*
X76471Y205303D01*
X76435Y205480D01*
X76423Y205574D01*
Y207026D01*
X76435Y207120D01*
X76471Y207297D01*
X76522Y207469D01*
X76588Y207636D01*
X76670Y207802D01*
X76769Y207967D01*
X76886Y208132D01*
X77023Y208298D01*
X77141Y208421D01*
X77219Y208481D01*
X77853Y209307D01*
X78251Y210268D01*
X78387Y211300D01*
X78251Y212332D01*
X77853Y213293D01*
X77219Y214119D01*
X77141Y214179D01*
X77023Y214302D01*
X76886Y214468D01*
X76769Y214633D01*
X76670Y214798D01*
X76588Y214964D01*
X76522Y215131D01*
X76471Y215303D01*
X76435Y215480D01*
X76423Y215574D01*
Y217026D01*
X76435Y217120D01*
X76471Y217297D01*
X76522Y217469D01*
X76588Y217636D01*
X76670Y217802D01*
X76769Y217967D01*
X76886Y218132D01*
X77023Y218298D01*
X77141Y218421D01*
X77219Y218481D01*
X77853Y219307D01*
X78251Y220268D01*
X78387Y221300D01*
X78251Y222332D01*
X77853Y223293D01*
X77219Y224119D01*
X77118Y224197D01*
X77278Y224671D01*
X87900D01*
X88485Y224787D01*
X88981Y225119D01*
X99674Y235812D01*
X100274Y235931D01*
X100931Y236369D01*
X101369Y237026D01*
X101523Y237800D01*
X101369Y238574D01*
X100931Y239231D01*
X100274Y239669D01*
X99500Y239823D01*
X98726Y239669D01*
X98069Y239231D01*
X97631Y238574D01*
X97512Y237975D01*
X87266Y227729D01*
X77061D01*
X76891Y228229D01*
X77219Y228481D01*
X77853Y229307D01*
X78251Y230268D01*
X78387Y231300D01*
X78251Y232332D01*
X77853Y233293D01*
X77219Y234119D01*
X76393Y234753D01*
X75432Y235151D01*
X74400Y235287D01*
X73368Y235151D01*
X72407Y234753D01*
X71581Y234119D01*
X70947Y233293D01*
X70549Y232332D01*
X70413Y231300D01*
X70549Y230268D01*
X70947Y229307D01*
X71581Y228481D01*
X71909Y228229D01*
X71739Y227729D01*
X67100D01*
X67048Y227719D01*
X66836Y228187D01*
X67219Y228481D01*
X67853Y229307D01*
X68251Y230268D01*
X68387Y231300D01*
X68251Y232332D01*
X67853Y233293D01*
X67219Y234119D01*
X66393Y234753D01*
X65432Y235151D01*
X64400Y235287D01*
X63368Y235151D01*
X62407Y234753D01*
X61581Y234119D01*
X60947Y233293D01*
X60549Y232332D01*
X60413Y231300D01*
X60549Y230268D01*
X60947Y229307D01*
X61581Y228481D01*
X62407Y227847D01*
X63368Y227449D01*
X64400Y227313D01*
X65432Y227449D01*
X65512Y227482D01*
X65796Y227058D01*
X65033Y226296D01*
X62520Y224800D01*
X62407Y224753D01*
X61581Y224119D01*
X60947Y223293D01*
X60549Y222332D01*
X60413Y221300D01*
X60549Y220268D01*
X60947Y219307D01*
X61581Y218481D01*
X62407Y217847D01*
X63368Y217449D01*
X64400Y217313D01*
X65432Y217449D01*
X66393Y217847D01*
X67219Y218481D01*
X67853Y219307D01*
X68251Y220268D01*
X68387Y221300D01*
X68251Y222332D01*
X67853Y223293D01*
X67773Y223397D01*
X67628Y223646D01*
X67536Y223838D01*
X67479Y224000D01*
X67449Y224128D01*
X67440Y224223D01*
X67445Y224292D01*
X67457Y224344D01*
X67478Y224394D01*
X67514Y224451D01*
X67734Y224671D01*
X71522D01*
X71683Y224197D01*
X71581Y224119D01*
X70947Y223293D01*
X70549Y222332D01*
X70413Y221300D01*
X70549Y220268D01*
X70947Y219307D01*
X71581Y218481D01*
X71659Y218421D01*
X71777Y218298D01*
X71914Y218132D01*
X72031Y217967D01*
X72130Y217802D01*
X72212Y217636D01*
X72278Y217469D01*
X72329Y217297D01*
X72365Y217120D01*
X72377Y217026D01*
Y215574D01*
X72365Y215480D01*
X72329Y215303D01*
X72278Y215131D01*
X72212Y214964D01*
X72130Y214798D01*
X72031Y214633D01*
X71914Y214468D01*
X71777Y214302D01*
X71659Y214179D01*
X71581Y214119D01*
X70947Y213293D01*
X70549Y212332D01*
X70413Y211300D01*
X70549Y210268D01*
X70947Y209307D01*
X71581Y208481D01*
X71659Y208421D01*
X71777Y208298D01*
X71914Y208132D01*
X72031Y207967D01*
X72130Y207802D01*
X72212Y207636D01*
X72278Y207469D01*
X72329Y207297D01*
X72365Y207120D01*
X72377Y207026D01*
Y205574D01*
X72365Y205480D01*
X72329Y205303D01*
X72278Y205132D01*
X72212Y204964D01*
X72130Y204798D01*
X72031Y204633D01*
X71914Y204468D01*
X71777Y204302D01*
X71659Y204179D01*
X71581Y204119D01*
X70947Y203293D01*
X70549Y202332D01*
X70413Y201300D01*
X70549Y200268D01*
X70947Y199307D01*
X71581Y198481D01*
X71659Y198421D01*
X71777Y198298D01*
X71914Y198132D01*
X72031Y197967D01*
X72130Y197802D01*
X72212Y197636D01*
X72278Y197468D01*
X72329Y197297D01*
X72365Y197120D01*
X72377Y197026D01*
Y195574D01*
X72365Y195480D01*
X72329Y195303D01*
X72278Y195132D01*
X72212Y194964D01*
X72130Y194798D01*
X72031Y194633D01*
X71914Y194468D01*
X71777Y194302D01*
X71659Y194179D01*
X71581Y194119D01*
X70947Y193293D01*
X70549Y192332D01*
X70413Y191300D01*
X70549Y190268D01*
X70947Y189307D01*
X71581Y188481D01*
X71659Y188421D01*
X71777Y188298D01*
X71914Y188132D01*
X72031Y187967D01*
X72130Y187802D01*
X72212Y187636D01*
X72278Y187469D01*
X72329Y187297D01*
X72365Y187120D01*
X72377Y187026D01*
Y185574D01*
X72365Y185480D01*
X72329Y185303D01*
X72278Y185132D01*
X72212Y184964D01*
X72130Y184798D01*
X72031Y184633D01*
X71914Y184468D01*
X71777Y184302D01*
X71659Y184179D01*
X71581Y184119D01*
X70947Y183293D01*
X70549Y182332D01*
X70413Y181300D01*
X70549Y180268D01*
X70947Y179307D01*
X71581Y178481D01*
X71659Y178421D01*
X71777Y178298D01*
X71914Y178132D01*
X72031Y177967D01*
X72130Y177802D01*
X72212Y177636D01*
X72278Y177469D01*
X72329Y177297D01*
X72365Y177120D01*
X72377Y177026D01*
Y175574D01*
X72365Y175480D01*
X72329Y175303D01*
X72278Y175131D01*
X72212Y174964D01*
X72130Y174798D01*
X72031Y174633D01*
X71914Y174468D01*
X71777Y174302D01*
X71659Y174179D01*
X71581Y174119D01*
X70947Y173293D01*
X70549Y172332D01*
X70413Y171300D01*
X70549Y170268D01*
X70947Y169307D01*
X71581Y168481D01*
X72407Y167847D01*
X73368Y167449D01*
X74400Y167313D01*
X74497Y167326D01*
X74668Y167322D01*
X74882Y167302D01*
X75081Y167268D01*
X75268Y167221D01*
X75443Y167162D01*
X75609Y167090D01*
X75766Y167005D01*
X75917Y166906D01*
X75991Y166847D01*
X78277Y164562D01*
Y163523D01*
X78195Y163478D01*
X77777Y163392D01*
X77219Y164119D01*
X76393Y164753D01*
X75432Y165151D01*
X74400Y165287D01*
X73368Y165151D01*
X72407Y164753D01*
X71581Y164119D01*
X70947Y163293D01*
X70549Y162332D01*
X70413Y161300D01*
X70549Y160268D01*
X70947Y159307D01*
X71581Y158481D01*
X72407Y157847D01*
X73368Y157449D01*
X74400Y157313D01*
X75432Y157449D01*
X76393Y157847D01*
X77219Y158481D01*
X77777Y159208D01*
X78195Y159122D01*
X78277Y159077D01*
Y153523D01*
X78195Y153478D01*
X77777Y153392D01*
X77219Y154119D01*
X76393Y154753D01*
X75432Y155151D01*
X74400Y155287D01*
X73368Y155151D01*
X72407Y154753D01*
X71581Y154119D01*
X70947Y153293D01*
X70549Y152332D01*
X70413Y151300D01*
X70549Y150268D01*
X70947Y149307D01*
X71581Y148481D01*
X72407Y147847D01*
X73368Y147449D01*
X74400Y147313D01*
X75432Y147449D01*
X76393Y147847D01*
X77219Y148481D01*
X77777Y149208D01*
X78195Y149122D01*
X78277Y149077D01*
Y143523D01*
X78195Y143478D01*
X77777Y143392D01*
X77219Y144119D01*
X76393Y144753D01*
X75432Y145151D01*
X74400Y145287D01*
X73368Y145151D01*
X72407Y144753D01*
X71581Y144119D01*
X70947Y143293D01*
X70549Y142332D01*
X70413Y141300D01*
X70549Y140268D01*
X70947Y139307D01*
X71581Y138481D01*
X72407Y137847D01*
X73368Y137449D01*
X74400Y137313D01*
X75432Y137449D01*
X76393Y137847D01*
X77219Y138481D01*
X77777Y139208D01*
X78195Y139122D01*
X78277Y139077D01*
Y133523D01*
X78195Y133478D01*
X77777Y133392D01*
X77219Y134119D01*
X76393Y134753D01*
X75432Y135151D01*
X74400Y135287D01*
X73368Y135151D01*
X72407Y134753D01*
X71581Y134119D01*
X70947Y133293D01*
X70549Y132332D01*
X70413Y131300D01*
X70549Y130268D01*
X70947Y129307D01*
X71581Y128481D01*
X72407Y127847D01*
X73368Y127449D01*
X74400Y127313D01*
X75432Y127449D01*
X76393Y127847D01*
X77219Y128481D01*
X77777Y129208D01*
X78195Y129122D01*
X78277Y129077D01*
Y123523D01*
X78195Y123478D01*
X77777Y123392D01*
X77219Y124119D01*
X76393Y124753D01*
X75432Y125151D01*
X74400Y125287D01*
X73368Y125151D01*
X72407Y124753D01*
X71581Y124119D01*
X70947Y123293D01*
X70549Y122332D01*
X70413Y121300D01*
X70549Y120268D01*
X70947Y119307D01*
X71581Y118481D01*
X72407Y117847D01*
X73368Y117449D01*
X74400Y117313D01*
X75432Y117449D01*
X76393Y117847D01*
X77219Y118481D01*
X77777Y119208D01*
X78195Y119122D01*
X78277Y119077D01*
Y113523D01*
X78195Y113478D01*
X77777Y113392D01*
X77219Y114119D01*
X76393Y114753D01*
X75432Y115151D01*
X74400Y115287D01*
X73368Y115151D01*
X72407Y114753D01*
X71581Y114119D01*
X70947Y113293D01*
X70549Y112332D01*
X70413Y111300D01*
X70549Y110268D01*
X70947Y109307D01*
X71581Y108481D01*
X72407Y107847D01*
X73368Y107449D01*
X74400Y107313D01*
X75432Y107449D01*
X76393Y107847D01*
X77219Y108481D01*
X77777Y109208D01*
X78195Y109122D01*
X78277Y109077D01*
Y103523D01*
X78195Y103478D01*
X77777Y103392D01*
X77219Y104119D01*
X76393Y104753D01*
X75432Y105151D01*
X74400Y105287D01*
X73368Y105151D01*
X72407Y104753D01*
X71581Y104119D01*
X70947Y103293D01*
X70549Y102332D01*
X70413Y101300D01*
X70549Y100268D01*
X70947Y99307D01*
X71581Y98481D01*
X72407Y97847D01*
X73368Y97449D01*
X74400Y97313D01*
X75432Y97449D01*
X76393Y97847D01*
X77219Y98481D01*
X77777Y99208D01*
X78195Y99122D01*
X78277Y99077D01*
Y93523D01*
X78195Y93478D01*
X77777Y93392D01*
X77219Y94119D01*
X76393Y94753D01*
X75432Y95151D01*
X74400Y95287D01*
X73368Y95151D01*
X72407Y94753D01*
X71581Y94119D01*
X70947Y93293D01*
X70549Y92332D01*
X70413Y91300D01*
X70549Y90268D01*
X70947Y89307D01*
X71581Y88481D01*
X72407Y87847D01*
X73368Y87449D01*
X74400Y87313D01*
X75432Y87449D01*
X76393Y87847D01*
X77219Y88481D01*
X77777Y89208D01*
X78195Y89122D01*
X78277Y89077D01*
Y83523D01*
X78195Y83478D01*
X77777Y83392D01*
X77219Y84119D01*
X76393Y84753D01*
X75432Y85151D01*
X74400Y85287D01*
X73368Y85151D01*
X72407Y84753D01*
X71581Y84119D01*
X70947Y83293D01*
X70549Y82332D01*
X70413Y81300D01*
X70549Y80268D01*
X70947Y79307D01*
X71581Y78481D01*
X72407Y77847D01*
X73368Y77449D01*
X74400Y77313D01*
X75432Y77449D01*
X76393Y77847D01*
X77219Y78481D01*
X77777Y79208D01*
X78195Y79122D01*
X78277Y79077D01*
Y78138D01*
X76151Y76012D01*
X75801Y75687D01*
X75510Y75454D01*
X75256Y75277D01*
X75214Y75253D01*
X70447D01*
Y73416D01*
X70433Y73410D01*
X70285Y73371D01*
X70076Y73336D01*
X69930Y73323D01*
X68674D01*
X68580Y73335D01*
X68403Y73371D01*
X68231Y73422D01*
X68064Y73488D01*
X67898Y73570D01*
X67733Y73669D01*
X67568Y73786D01*
X67402Y73923D01*
X67279Y74041D01*
X67219Y74119D01*
X66393Y74753D01*
X65432Y75151D01*
X64400Y75287D01*
X63368Y75151D01*
X62407Y74753D01*
X61581Y74119D01*
X60947Y73293D01*
X60549Y72332D01*
X60413Y71300D01*
X60549Y70268D01*
X60947Y69307D01*
X61581Y68481D01*
X62407Y67847D01*
X63368Y67449D01*
X64400Y67313D01*
X65432Y67449D01*
X66393Y67847D01*
X67219Y68481D01*
X67279Y68559D01*
X67402Y68677D01*
X67568Y68814D01*
X67733Y68931D01*
X67898Y69030D01*
X68064Y69112D01*
X68231Y69178D01*
X68403Y69229D01*
X68580Y69265D01*
X68674Y69277D01*
X69930D01*
X70076Y69264D01*
X70285Y69229D01*
X70433Y69190D01*
X70447Y69184D01*
Y67347D01*
X78353D01*
Y72331D01*
X78525Y72577D01*
X79012Y73151D01*
X81731Y75869D01*
X82169Y76526D01*
X82303Y77197D01*
X82612Y77285D01*
X82812Y77274D01*
X83047Y76707D01*
X83681Y75881D01*
X84507Y75247D01*
X85468Y74849D01*
X86500Y74713D01*
X87532Y74849D01*
X88493Y75247D01*
X89319Y75881D01*
X89571Y76209D01*
X90071Y76039D01*
Y69933D01*
X83267Y63129D01*
X57083D01*
X56574Y63469D01*
X55800Y63623D01*
X55026Y63469D01*
X54369Y63031D01*
X53931Y62374D01*
X53777Y61600D01*
X53931Y60826D01*
X54369Y60169D01*
X55026Y59731D01*
X55800Y59577D01*
X56574Y59731D01*
X57083Y60071D01*
X83900D01*
X84485Y60187D01*
X84981Y60519D01*
X92681Y68219D01*
X93013Y68715D01*
X93129Y69300D01*
Y75822D01*
X93603Y75982D01*
X93681Y75881D01*
X94507Y75247D01*
X95468Y74849D01*
X96500Y74713D01*
X97532Y74849D01*
X98493Y75247D01*
X99319Y75881D01*
X99385Y75966D01*
X99605Y76183D01*
X100127Y76639D01*
X100343Y76801D01*
X100549Y76936D01*
X100732Y77038D01*
X100889Y77109D01*
X101016Y77152D01*
X101104Y77171D01*
X108400D01*
X108985Y77287D01*
X109481Y77619D01*
X120618Y88755D01*
X123339D01*
X123530Y88293D01*
X97625Y62388D01*
X97026Y62269D01*
X96369Y61831D01*
X95931Y61174D01*
X95777Y60400D01*
X95931Y59626D01*
X96369Y58969D01*
X97026Y58531D01*
X97156Y58505D01*
Y57995D01*
X97026Y57969D01*
X96369Y57531D01*
X95931Y56874D01*
X95830Y56369D01*
X95288Y56205D01*
X93796Y57696D01*
X93065Y58257D01*
X92214Y58610D01*
X91300Y58730D01*
X33062D01*
X25116Y66677D01*
X21513Y70418D01*
X20562Y71516D01*
X33055Y84010D01*
X33055Y84010D01*
X33937Y85159D01*
X34491Y86497D01*
X34680Y87932D01*
X34680Y87932D01*
Y92602D01*
X36023Y93945D01*
X36904Y95094D01*
X37458Y96432D01*
X37648Y97868D01*
Y149220D01*
X37663Y149828D01*
X37792Y151289D01*
X38003Y152553D01*
X38288Y153615D01*
X38638Y154471D01*
X39037Y155125D01*
X39471Y155593D01*
X39940Y155906D01*
X40471Y156094D01*
X41112Y156161D01*
X53071D01*
Y173000D01*
X31500D01*
X9929D01*
Y156161D01*
X23088D01*
X23729Y156094D01*
X24260Y155906D01*
X24729Y155593D01*
X25163Y155125D01*
X25562Y154471D01*
X25912Y153615D01*
X26197Y152553D01*
X26408Y151289D01*
X26537Y149828D01*
X26553Y149220D01*
Y100165D01*
X25210Y98823D01*
X24328Y97674D01*
X23774Y96336D01*
X23585Y94900D01*
Y90230D01*
X10077Y76723D01*
X9196Y75574D01*
X8642Y74236D01*
X8452Y72800D01*
X8642Y71364D01*
X9196Y70026D01*
X10077Y68877D01*
X11226Y67996D01*
X12564Y67442D01*
X13898Y67266D01*
X14010Y67206D01*
X19292Y62515D01*
X29104Y52704D01*
X29835Y52143D01*
X30686Y51790D01*
X31600Y51670D01*
X89838D01*
X102304Y39204D01*
X103035Y38643D01*
X103742Y38350D01*
X103642Y37850D01*
X103590D01*
Y37008D01*
X103525Y36970D01*
X103296Y36884D01*
X102953Y36797D01*
X102519Y36724D01*
X101314Y36631D01*
X100981Y36626D01*
X98553D01*
X86840Y48340D01*
X86213Y48820D01*
X85483Y49123D01*
X84700Y49226D01*
X16553D01*
X7426Y58353D01*
Y169164D01*
X7520Y169287D01*
X7823Y170017D01*
X7926Y170800D01*
X7823Y171583D01*
X7520Y172313D01*
X7148Y172799D01*
Y191598D01*
X7648Y191838D01*
X8128Y191639D01*
X8800Y191550D01*
X9472Y191639D01*
X10098Y191898D01*
X10636Y192311D01*
X11049Y192849D01*
X11309Y193475D01*
X11397Y194147D01*
Y197724D01*
X11776Y198103D01*
X23000D01*
X23672Y198191D01*
X24298Y198451D01*
X24836Y198864D01*
X26643Y200671D01*
X27056Y201208D01*
X27316Y201835D01*
X27404Y202507D01*
Y202632D01*
X27414Y203151D01*
X27433Y203406D01*
X27874D01*
Y218004D01*
X21740D01*
Y203935D01*
X21461Y203772D01*
X21181Y203935D01*
Y216954D01*
X21189Y216992D01*
X21187Y216999D01*
X21189Y217006D01*
X21181Y217551D01*
Y218004D01*
X21175D01*
X21140Y220540D01*
Y224786D01*
X21140Y224786D01*
X21037Y225569D01*
X20735Y226299D01*
X20254Y226925D01*
X20254Y226925D01*
X14926Y232253D01*
Y267861D01*
X15397Y268029D01*
X15637Y267737D01*
X36337Y247037D01*
X37251Y246287D01*
X38293Y245730D01*
X39424Y245387D01*
X40600Y245271D01*
X62351D01*
X62451Y244771D01*
X62407Y244753D01*
X61581Y244119D01*
X60947Y243293D01*
X60549Y242332D01*
X60413Y241300D01*
X60549Y240268D01*
X60947Y239307D01*
X61581Y238481D01*
X62407Y237847D01*
X63368Y237449D01*
X64400Y237313D01*
X65432Y237449D01*
X66393Y237847D01*
X67219Y238481D01*
X67853Y239307D01*
X68251Y240268D01*
X68387Y241300D01*
X68251Y242332D01*
X67853Y243293D01*
X67219Y244119D01*
X66393Y244753D01*
X66349Y244771D01*
X66449Y245271D01*
X72351D01*
X72451Y244771D01*
X72407Y244753D01*
X71581Y244119D01*
X70947Y243293D01*
X70549Y242332D01*
X70413Y241300D01*
X70549Y240268D01*
X70947Y239307D01*
X71581Y238481D01*
X72407Y237847D01*
X73368Y237449D01*
X74400Y237313D01*
X75432Y237449D01*
X76393Y237847D01*
X77219Y238481D01*
X77853Y239307D01*
X78251Y240268D01*
X78387Y241300D01*
X78251Y242332D01*
X77853Y243293D01*
X77219Y244119D01*
X76393Y244753D01*
X76349Y244771D01*
X76449Y245271D01*
X144467D01*
X144986Y245228D01*
X145655Y245071D01*
X146403Y244798D01*
X147227Y244401D01*
X148120Y243878D01*
X149080Y243227D01*
X150093Y242454D01*
X152331Y240500D01*
X152605Y240234D01*
X167877Y224962D01*
Y217734D01*
X167869Y217663D01*
X167837Y217497D01*
X167794Y217340D01*
X167738Y217190D01*
X167670Y217045D01*
X167590Y216905D01*
X167495Y216767D01*
X167384Y216631D01*
X167289Y216530D01*
X167221Y216479D01*
X166619Y215694D01*
X166241Y214780D01*
X166177Y214300D01*
X173623D01*
X173559Y214780D01*
X173181Y215694D01*
X172579Y216479D01*
X172511Y216530D01*
X172416Y216631D01*
X172305Y216767D01*
X172210Y216905D01*
X172130Y217045D01*
X172062Y217190D01*
X172006Y217340D01*
X171963Y217497D01*
X171931Y217663D01*
X171923Y217734D01*
Y225800D01*
X171769Y226574D01*
X171331Y227231D01*
X155466Y243095D01*
X155200Y243370D01*
X153937Y244816D01*
X154143Y245271D01*
X194400D01*
X195576Y245387D01*
X196707Y245730D01*
X197749Y246287D01*
X198663Y247037D01*
X200584Y248958D01*
X201248Y248915D01*
X201581Y248481D01*
X202407Y247847D01*
X203368Y247449D01*
X203900Y247379D01*
Y251300D01*
X204900D01*
Y247379D01*
X205432Y247449D01*
X206393Y247847D01*
X207219Y248481D01*
X207279Y248559D01*
X207402Y248677D01*
X207568Y248814D01*
X207733Y248931D01*
X207898Y249030D01*
X208064Y249112D01*
X208231Y249178D01*
X208403Y249229D01*
X208580Y249265D01*
X208674Y249277D01*
X210126D01*
X210220Y249265D01*
X210397Y249229D01*
X210568Y249178D01*
X210736Y249112D01*
X210902Y249030D01*
X211067Y248931D01*
X211232Y248814D01*
X211398Y248677D01*
X211521Y248559D01*
X211581Y248481D01*
X212407Y247847D01*
X213368Y247449D01*
X213900Y247379D01*
Y251300D01*
X214900D01*
Y247379D01*
X215432Y247449D01*
X216393Y247847D01*
X217219Y248481D01*
X217279Y248559D01*
X217402Y248677D01*
X217568Y248814D01*
X217733Y248931D01*
X217898Y249030D01*
X218064Y249112D01*
X218232Y249178D01*
X218403Y249229D01*
X218580Y249265D01*
X218674Y249277D01*
X220126D01*
X220220Y249265D01*
X220397Y249229D01*
X220568Y249178D01*
X220736Y249112D01*
X220902Y249030D01*
X221067Y248931D01*
X221232Y248814D01*
X221398Y248677D01*
X221521Y248559D01*
X221581Y248481D01*
X222407Y247847D01*
X223368Y247449D01*
X223900Y247379D01*
Y251300D01*
Y255221D01*
X223368Y255151D01*
X222407Y254753D01*
X221581Y254119D01*
X221521Y254041D01*
X221398Y253923D01*
X221232Y253786D01*
X221067Y253669D01*
X220902Y253570D01*
X220736Y253488D01*
X220568Y253422D01*
X220397Y253371D01*
X220220Y253335D01*
X220126Y253323D01*
X218674D01*
X218580Y253335D01*
X218403Y253371D01*
X218232Y253422D01*
X218064Y253488D01*
X217898Y253570D01*
X217733Y253669D01*
X217568Y253786D01*
X217402Y253923D01*
X217279Y254041D01*
X217219Y254119D01*
X217141Y254179D01*
X217023Y254302D01*
X216886Y254468D01*
X216769Y254633D01*
X216670Y254798D01*
X216588Y254964D01*
X216522Y255132D01*
X216471Y255303D01*
X216435Y255480D01*
X216423Y255574D01*
Y257026D01*
X216435Y257120D01*
X216471Y257297D01*
X216522Y257469D01*
X216588Y257636D01*
X216670Y257802D01*
X216769Y257967D01*
X216886Y258132D01*
X217023Y258298D01*
X217141Y258421D01*
X217219Y258481D01*
X217279Y258559D01*
X217402Y258677D01*
X217568Y258814D01*
X217733Y258931D01*
X217898Y259030D01*
X218064Y259112D01*
X218232Y259178D01*
X218403Y259229D01*
X218580Y259265D01*
X218674Y259277D01*
X220126D01*
X220220Y259265D01*
X220397Y259229D01*
X220568Y259178D01*
X220736Y259112D01*
X220902Y259030D01*
X221067Y258931D01*
X221232Y258814D01*
X221398Y258677D01*
X221521Y258559D01*
X221581Y258481D01*
X222407Y257847D01*
X223368Y257449D01*
X223900Y257379D01*
Y261300D01*
Y265221D01*
X223368Y265151D01*
X222407Y264753D01*
X221581Y264119D01*
X221521Y264041D01*
X221398Y263923D01*
X221232Y263786D01*
X221067Y263669D01*
X220902Y263570D01*
X220736Y263488D01*
X220568Y263422D01*
X220397Y263371D01*
X220220Y263335D01*
X220126Y263323D01*
X218674D01*
X218580Y263335D01*
X218403Y263371D01*
X218232Y263422D01*
X218064Y263488D01*
X217898Y263570D01*
X217733Y263669D01*
X217568Y263786D01*
X217402Y263923D01*
X217279Y264041D01*
X217219Y264119D01*
X216393Y264753D01*
X215432Y265151D01*
X214900Y265221D01*
Y261300D01*
X213900D01*
Y265221D01*
X213368Y265151D01*
X212407Y264753D01*
X211581Y264119D01*
X210947Y263293D01*
X210740Y262792D01*
X210209Y262819D01*
X209970Y263607D01*
X209829Y263871D01*
Y310103D01*
X228563Y328837D01*
X229313Y329750D01*
X229870Y330793D01*
X230213Y331924D01*
X230329Y333100D01*
X230213Y334276D01*
X229870Y335407D01*
X229313Y336450D01*
X228563Y337363D01*
X211429Y354497D01*
Y376600D01*
X211313Y377776D01*
X210970Y378907D01*
X210413Y379949D01*
X209663Y380863D01*
X208556Y381971D01*
X207496Y383100D01*
X206474Y384363D01*
X205684Y385548D01*
X205122Y386647D01*
X204779Y387651D01*
X204639Y388561D01*
X204684Y389387D01*
X204904Y390158D01*
X205070Y390461D01*
X207866Y393560D01*
X211773Y397467D01*
X211793Y397475D01*
X212660Y398141D01*
X213325Y399007D01*
X213743Y400017D01*
X213820Y400600D01*
X209700D01*
Y401100D01*
X209200D01*
Y405220D01*
X208617Y405143D01*
X207607Y404725D01*
X206740Y404060D01*
X206075Y403193D01*
X206067Y403173D01*
X201758Y398864D01*
X196936Y394209D01*
X195677Y393126D01*
X195275Y392823D01*
X195090Y392708D01*
X194124Y392613D01*
X192993Y392270D01*
X191951Y391713D01*
X191372Y391238D01*
X181564Y390735D01*
X157071D01*
X154435Y393371D01*
Y400200D01*
X154297Y401244D01*
X153894Y402217D01*
X153253Y403053D01*
X153253Y403053D01*
X153133Y403173D01*
X153125Y403193D01*
X152460Y404060D01*
X151593Y404725D01*
X150583Y405143D01*
X150000Y405220D01*
Y401100D01*
X149000D01*
Y405220D01*
X148417Y405143D01*
X147407Y404725D01*
X146540Y404060D01*
X145875Y403193D01*
X145867Y403173D01*
X134029Y391335D01*
X99971D01*
X94335Y396971D01*
Y399997D01*
X94343Y400017D01*
X94420Y400600D01*
X90300D01*
Y401100D01*
X89800D01*
Y405220D01*
X89217Y405143D01*
X88207Y404725D01*
X87340Y404060D01*
X86675Y403193D01*
X86667Y403173D01*
X74929Y391435D01*
X36671D01*
X32434Y395671D01*
Y399997D01*
X32443Y400017D01*
X32520Y400600D01*
X28400D01*
X24280D01*
X24357Y400017D01*
X24365Y399997D01*
Y394000D01*
X24365Y394000D01*
X24503Y392956D01*
X24906Y391983D01*
X25547Y391147D01*
X32147Y384547D01*
X32983Y383906D01*
X33956Y383503D01*
X35000Y383366D01*
X35000Y383366D01*
X76600D01*
X76600Y383366D01*
X77644Y383503D01*
X78617Y383906D01*
X79453Y384547D01*
X87066Y392160D01*
X87753Y392141D01*
X95447Y384447D01*
X96283Y383806D01*
X97256Y383403D01*
X98300Y383265D01*
X98300Y383265D01*
X135700D01*
X135700Y383265D01*
X136744Y383403D01*
X137717Y383806D01*
X138553Y384447D01*
X145870Y391764D01*
X146054Y391740D01*
X146383Y391570D01*
X146503Y390656D01*
X146906Y389683D01*
X147547Y388847D01*
X152547Y383847D01*
X152547Y383847D01*
X153383Y383206D01*
X154356Y382803D01*
X155400Y382665D01*
X155400Y382665D01*
X182133D01*
X188834Y382547D01*
X190490Y382422D01*
X190988Y382352D01*
X191162Y382312D01*
X194027Y379446D01*
X193820Y378946D01*
X185313D01*
X185275Y378954D01*
X185243Y378948D01*
X185210Y378952D01*
X185189Y378946D01*
X184263D01*
Y378388D01*
X184080Y378336D01*
X183647Y378254D01*
X180467Y378044D01*
X138862D01*
X137607Y378065D01*
X135983Y378173D01*
X135383Y378248D01*
X134920Y378336D01*
X134737Y378388D01*
Y378946D01*
X133811D01*
X133790Y378952D01*
X133757Y378948D01*
X133725Y378954D01*
X133687Y378946D01*
X125913D01*
X125875Y378954D01*
X125843Y378948D01*
X125810Y378952D01*
X125789Y378946D01*
X124863D01*
Y378388D01*
X124680Y378336D01*
X124247Y378254D01*
X121067Y378044D01*
X78362D01*
X77107Y378065D01*
X75482Y378173D01*
X74883Y378248D01*
X74420Y378336D01*
X74237Y378388D01*
Y378946D01*
X73311D01*
X73290Y378952D01*
X73257Y378948D01*
X73225Y378954D01*
X73187Y378946D01*
X65413D01*
X65375Y378954D01*
X65343Y378948D01*
X65310Y378952D01*
X65289Y378946D01*
X64363D01*
Y378388D01*
X64180Y378336D01*
X63747Y378254D01*
X60567Y378044D01*
X21367D01*
X14666Y378163D01*
X14161Y378201D01*
X13783Y378248D01*
X13320Y378336D01*
X13137Y378388D01*
Y378946D01*
X12211D01*
X12190Y378952D01*
X12157Y378948D01*
X12125Y378954D01*
X12087Y378946D01*
X11642D01*
X11550Y379022D01*
X10507Y379579D01*
X9376Y379923D01*
X8200Y380038D01*
X7024Y379923D01*
X5893Y379579D01*
X4851Y379022D01*
X4758Y378946D01*
X3263D01*
Y377451D01*
X3187Y377359D01*
X2630Y376317D01*
X2287Y375186D01*
X2171Y374009D01*
Y355400D01*
X2287Y354224D01*
X2630Y353093D01*
X3187Y352050D01*
X3937Y351137D01*
X15971Y339103D01*
Y298897D01*
X14837Y297763D01*
X14087Y296849D01*
X13530Y295807D01*
X13187Y294676D01*
X13155Y294357D01*
X13135Y294305D01*
X13034Y293713D01*
X12889Y293159D01*
X12692Y292598D01*
X12442Y292027D01*
X12138Y291448D01*
X11778Y290861D01*
X11369Y290276D01*
X10346Y289042D01*
X9958Y288637D01*
X9760Y288440D01*
X9279Y287813D01*
X8977Y287083D01*
X8874Y286300D01*
Y231000D01*
X8977Y230217D01*
X9279Y229487D01*
X9760Y228860D01*
X15088Y223532D01*
Y219158D01*
X15086Y218444D01*
X15077Y218004D01*
X15047D01*
Y217030D01*
X15040Y216992D01*
X15047Y216954D01*
Y214717D01*
X15030Y214552D01*
X14992Y214445D01*
X14929Y214351D01*
X14812Y214242D01*
X14607Y214118D01*
X14301Y213993D01*
X13889Y213882D01*
X13375Y213797D01*
X12763Y213743D01*
X12286Y213731D01*
X7705D01*
X6922Y213628D01*
X6192Y213325D01*
X5565Y212844D01*
X5565Y212844D01*
X2029Y209309D01*
X1724Y209349D01*
X1529Y209415D01*
Y451971D01*
X241971D01*
Y1529D01*
D02*
G37*
G36*
X216261Y258976D02*
X216077Y258754D01*
X215915Y258525D01*
X215774Y258290D01*
X215655Y258049D01*
X215558Y257801D01*
X215482Y257547D01*
X215428Y257286D01*
X215395Y257018D01*
X215384Y256745D01*
X213416D01*
X213405Y257018D01*
X213372Y257286D01*
X213318Y257547D01*
X213243Y257801D01*
X213145Y258049D01*
X213026Y258290D01*
X212885Y258525D01*
X212723Y258754D01*
X212539Y258976D01*
X212333Y259191D01*
X216467D01*
X216261Y258976D01*
D02*
G37*
G36*
X206261D02*
X206077Y258754D01*
X205915Y258525D01*
X205774Y258290D01*
X205768Y258278D01*
X208384D01*
X207814Y257503D01*
X206464Y255360D01*
X206134Y254707D01*
X205883Y254128D01*
X205915Y254075D01*
X206077Y253846D01*
X206261Y253624D01*
X206467Y253409D01*
X205632D01*
X205504Y252931D01*
X205414Y252400D01*
X205384Y251900D01*
X204400D01*
X203704Y251204D01*
X203685Y251181D01*
X203569Y251172D01*
X203353Y251179D01*
X202116Y251286D01*
X199089Y251638D01*
X201125Y253674D01*
X201054Y253787D01*
X200890Y254001D01*
X200701Y254207D01*
X202308Y255384D01*
X202338Y255356D01*
X202336Y255360D01*
X201496Y256758D01*
X200986Y257503D01*
X200416Y258278D01*
X203032D01*
X203026Y258290D01*
X202885Y258525D01*
X202723Y258754D01*
X202539Y258976D01*
X202333Y259191D01*
X206467D01*
X206261Y258976D01*
D02*
G37*
G36*
X61786Y264276D02*
X61581Y264119D01*
X60947Y263293D01*
X60549Y262332D01*
X60479Y261800D01*
X64400D01*
Y261300D01*
X66900D01*
X66915Y260321D01*
X67134Y257764D01*
X67265Y257037D01*
X67426Y256374D01*
X67616Y255773D01*
X67836Y255236D01*
X68084Y254761D01*
X68362Y254350D01*
X67227D01*
X67257Y254291D01*
X67341Y254241D01*
X61459D01*
X61543Y254291D01*
X61573Y254350D01*
X60438D01*
X60716Y254761D01*
X60964Y255236D01*
X61184Y255773D01*
X61374Y256374D01*
X61535Y257037D01*
X61666Y257764D01*
X61841Y259406D01*
X61885Y260321D01*
X61892Y260800D01*
X60479D01*
X60549Y260268D01*
X60830Y259591D01*
X60825Y259484D01*
X60656Y257909D01*
X60551Y257329D01*
X43097D01*
X41788Y258638D01*
X42072Y259062D01*
X42486Y258890D01*
X43400Y258770D01*
X43400Y258770D01*
X52800D01*
X53714Y258890D01*
X54565Y259243D01*
X55296Y259804D01*
X55857Y260535D01*
X56210Y261386D01*
X56330Y262300D01*
X56210Y263214D01*
X55857Y264065D01*
X55656Y264328D01*
X55877Y264776D01*
X61616D01*
X61786Y264276D01*
D02*
G37*
G36*
X215395Y255582D02*
X215428Y255314D01*
X215482Y255053D01*
X215558Y254799D01*
X215655Y254551D01*
X215774Y254310D01*
X215915Y254075D01*
X216077Y253846D01*
X216261Y253624D01*
X216467Y253409D01*
X212333D01*
X212539Y253624D01*
X212723Y253846D01*
X212885Y254075D01*
X213026Y254310D01*
X213145Y254551D01*
X213243Y254799D01*
X213318Y255053D01*
X213372Y255314D01*
X213405Y255582D01*
X213416Y255855D01*
X215384D01*
X215395Y255582D01*
D02*
G37*
G36*
X149463Y250554D02*
X149650Y249753D01*
X149962Y248900D01*
X150398Y247993D01*
X150960Y247035D01*
X151645Y246025D01*
X152455Y244962D01*
X154449Y242679D01*
X155633Y241459D01*
X154242Y240067D01*
X153021Y241251D01*
X150738Y243245D01*
X149675Y244055D01*
X148665Y244741D01*
X147706Y245302D01*
X146800Y245738D01*
X145947Y246050D01*
X145146Y246237D01*
X144397Y246300D01*
X146087Y247990D01*
X146056Y248007D01*
X145811Y248114D01*
X145556Y248200D01*
X145291Y248267D01*
X145015Y248314D01*
X144727Y248341D01*
X144430Y248347D01*
X147353Y251271D01*
X147360Y250973D01*
X147386Y250686D01*
X147433Y250409D01*
X147500Y250144D01*
X147586Y249888D01*
X147693Y249644D01*
X147710Y249613D01*
X149400Y251303D01*
X149463Y250554D01*
D02*
G37*
G36*
X222291Y249233D02*
X222076Y249439D01*
X221854Y249623D01*
X221625Y249785D01*
X221390Y249926D01*
X221149Y250045D01*
X220901Y250143D01*
X220647Y250218D01*
X220386Y250272D01*
X220118Y250305D01*
X219845Y250316D01*
Y252284D01*
X220118Y252295D01*
X220386Y252328D01*
X220647Y252382D01*
X220901Y252457D01*
X221149Y252555D01*
X221390Y252674D01*
X221625Y252815D01*
X221854Y252977D01*
X222076Y253161D01*
X222291Y253367D01*
Y249233D01*
D02*
G37*
G36*
X216724Y253161D02*
X216946Y252977D01*
X217175Y252815D01*
X217410Y252674D01*
X217651Y252555D01*
X217899Y252457D01*
X218153Y252382D01*
X218414Y252328D01*
X218682Y252295D01*
X218955Y252284D01*
Y250316D01*
X218682Y250305D01*
X218414Y250272D01*
X218153Y250218D01*
X217899Y250143D01*
X217651Y250045D01*
X217410Y249926D01*
X217175Y249785D01*
X216946Y249623D01*
X216724Y249439D01*
X216509Y249233D01*
Y253367D01*
X216724Y253161D01*
D02*
G37*
G36*
X212291Y249233D02*
X212076Y249439D01*
X211854Y249623D01*
X211625Y249785D01*
X211390Y249926D01*
X211149Y250045D01*
X210901Y250143D01*
X210647Y250218D01*
X210386Y250272D01*
X210118Y250305D01*
X209844Y250316D01*
Y252284D01*
X210118Y252295D01*
X210386Y252328D01*
X210647Y252382D01*
X210901Y252457D01*
X211149Y252555D01*
X211390Y252674D01*
X211625Y252815D01*
X211854Y252977D01*
X212076Y253161D01*
X212291Y253367D01*
Y249233D01*
D02*
G37*
G36*
X206724Y253161D02*
X206946Y252977D01*
X207175Y252815D01*
X207410Y252674D01*
X207651Y252555D01*
X207899Y252457D01*
X208153Y252382D01*
X208414Y252328D01*
X208682Y252295D01*
X208956Y252284D01*
Y250316D01*
X208682Y250305D01*
X208414Y250272D01*
X208153Y250218D01*
X207899Y250143D01*
X207651Y250045D01*
X207410Y249926D01*
X207175Y249785D01*
X206946Y249623D01*
X206724Y249439D01*
X206509Y249233D01*
Y253367D01*
X206724Y253161D01*
D02*
G37*
G36*
X99490Y236816D02*
X99436Y236812D01*
X99379Y236801D01*
X99320Y236782D01*
X99259Y236755D01*
X99194Y236720D01*
X99128Y236678D01*
X99059Y236628D01*
X98987Y236569D01*
X98836Y236429D01*
X98129Y237137D01*
X98203Y237213D01*
X98328Y237359D01*
X98378Y237428D01*
X98421Y237494D01*
X98455Y237559D01*
X98482Y237620D01*
X98501Y237679D01*
X98512Y237736D01*
X98516Y237790D01*
X99490Y236816D01*
D02*
G37*
G36*
X66856Y225249D02*
X66695Y225064D01*
X66571Y224868D01*
X66483Y224660D01*
X66432Y224440D01*
X66418Y224209D01*
X66440Y223967D01*
X66499Y223712D01*
X66594Y223447D01*
X66726Y223169D01*
X66894Y222881D01*
X63015Y223908D01*
X65698Y225505D01*
X66856Y225249D01*
D02*
G37*
G36*
X20169Y216992D02*
X16059D01*
X16070Y217032D01*
X16079Y217152D01*
X16105Y218432D01*
X16114Y220992D01*
X20114D01*
X20169Y216992D01*
D02*
G37*
G36*
X76261Y218976D02*
X76077Y218754D01*
X75915Y218525D01*
X75774Y218290D01*
X75655Y218049D01*
X75558Y217801D01*
X75482Y217547D01*
X75428Y217286D01*
X75395Y217018D01*
X75384Y216744D01*
X73416D01*
X73405Y217018D01*
X73372Y217286D01*
X73318Y217547D01*
X73242Y217801D01*
X73145Y218049D01*
X73026Y218290D01*
X72885Y218525D01*
X72723Y218754D01*
X72539Y218976D01*
X72333Y219191D01*
X76467D01*
X76261Y218976D01*
D02*
G37*
G36*
X170894Y217765D02*
X170922Y217511D01*
X170969Y217264D01*
X171035Y217026D01*
X171121Y216796D01*
X171224Y216574D01*
X171347Y216360D01*
X171489Y216155D01*
X171650Y215957D01*
X171829Y215768D01*
X167971D01*
X168150Y215957D01*
X168311Y216155D01*
X168453Y216360D01*
X168576Y216574D01*
X168679Y216796D01*
X168765Y217026D01*
X168831Y217264D01*
X168878Y217511D01*
X168906Y217765D01*
X168916Y218028D01*
X170884D01*
X170894Y217765D01*
D02*
G37*
G36*
X75395Y215582D02*
X75428Y215314D01*
X75482Y215053D01*
X75558Y214799D01*
X75655Y214551D01*
X75774Y214310D01*
X75915Y214075D01*
X76077Y213846D01*
X76261Y213624D01*
X76467Y213409D01*
X72333D01*
X72539Y213624D01*
X72723Y213846D01*
X72885Y214075D01*
X73026Y214310D01*
X73145Y214551D01*
X73242Y214799D01*
X73318Y215053D01*
X73372Y215314D01*
X73405Y215582D01*
X73416Y215856D01*
X75384D01*
X75395Y215582D01*
D02*
G37*
G36*
X76261Y208976D02*
X76077Y208754D01*
X75915Y208525D01*
X75774Y208290D01*
X75655Y208049D01*
X75558Y207801D01*
X75482Y207547D01*
X75428Y207286D01*
X75395Y207018D01*
X75384Y206745D01*
X73416D01*
X73405Y207018D01*
X73372Y207286D01*
X73318Y207547D01*
X73242Y207801D01*
X73145Y208049D01*
X73026Y208290D01*
X72885Y208525D01*
X72723Y208754D01*
X72539Y208976D01*
X72333Y209191D01*
X76467D01*
X76261Y208976D01*
D02*
G37*
G36*
X16071Y206705D02*
X16031Y207085D01*
X15911Y207425D01*
X15710Y207725D01*
X15429Y207985D01*
X15068Y208205D01*
X14627Y208385D01*
X14105Y208525D01*
X13504Y208625D01*
X12822Y208685D01*
X12059Y208705D01*
Y212705D01*
X12822Y212725D01*
X13504Y212785D01*
X14105Y212885D01*
X14627Y213025D01*
X15068Y213205D01*
X15429Y213425D01*
X15710Y213685D01*
X15911Y213985D01*
X16031Y214325D01*
X16071Y214705D01*
Y206705D01*
D02*
G37*
G36*
X75395Y205582D02*
X75428Y205314D01*
X75482Y205053D01*
X75558Y204799D01*
X75655Y204551D01*
X75774Y204310D01*
X75915Y204075D01*
X76077Y203846D01*
X76261Y203624D01*
X76467Y203409D01*
X72333D01*
X72539Y203624D01*
X72723Y203846D01*
X72885Y204075D01*
X73026Y204310D01*
X73145Y204551D01*
X73242Y204799D01*
X73318Y205053D01*
X73372Y205314D01*
X73405Y205582D01*
X73416Y205855D01*
X75384D01*
X75395Y205582D01*
D02*
G37*
G36*
X26654Y204410D02*
X26597Y204353D01*
X26546Y204257D01*
X26503Y204122D01*
X26466Y203949D01*
X26436Y203737D01*
X26395Y203199D01*
X26382Y202507D01*
X23232D01*
X23229Y202872D01*
X23148Y203949D01*
X23111Y204122D01*
X23068Y204257D01*
X23017Y204353D01*
X22960Y204410D01*
X22896Y204430D01*
X26718D01*
X26654Y204410D01*
D02*
G37*
G36*
X12763Y207666D02*
X13375Y207613D01*
X13889Y207527D01*
X14301Y207417D01*
X14607Y207292D01*
X14812Y207167D01*
X14929Y207058D01*
X14992Y206964D01*
X15030Y206858D01*
X15047Y206693D01*
Y203406D01*
X14592Y203297D01*
X10700D01*
X10028Y203208D01*
X9402Y202949D01*
X8864Y202536D01*
X7610Y201283D01*
X7148Y201474D01*
Y205869D01*
X8958Y207679D01*
X12286D01*
X12763Y207666D01*
D02*
G37*
G36*
X76261Y198976D02*
X76077Y198754D01*
X75915Y198525D01*
X75774Y198290D01*
X75655Y198049D01*
X75558Y197801D01*
X75482Y197547D01*
X75428Y197286D01*
X75395Y197018D01*
X75384Y196745D01*
X73416D01*
X73405Y197018D01*
X73372Y197286D01*
X73318Y197547D01*
X73242Y197801D01*
X73145Y198049D01*
X73026Y198290D01*
X72885Y198525D01*
X72723Y198754D01*
X72539Y198976D01*
X72333Y199191D01*
X76467D01*
X76261Y198976D01*
D02*
G37*
G36*
X75395Y195582D02*
X75428Y195314D01*
X75482Y195053D01*
X75558Y194799D01*
X75655Y194551D01*
X75774Y194310D01*
X75915Y194075D01*
X76077Y193846D01*
X76261Y193624D01*
X76467Y193409D01*
X72333D01*
X72539Y193624D01*
X72723Y193846D01*
X72885Y194075D01*
X73026Y194310D01*
X73145Y194551D01*
X73242Y194799D01*
X73318Y195053D01*
X73372Y195314D01*
X73405Y195582D01*
X73416Y195855D01*
X75384D01*
X75395Y195582D01*
D02*
G37*
G36*
X76261Y188976D02*
X76077Y188754D01*
X75915Y188525D01*
X75774Y188290D01*
X75655Y188049D01*
X75558Y187801D01*
X75482Y187547D01*
X75428Y187286D01*
X75395Y187018D01*
X75384Y186744D01*
X73416D01*
X73405Y187018D01*
X73372Y187286D01*
X73318Y187547D01*
X73242Y187801D01*
X73145Y188049D01*
X73026Y188290D01*
X72885Y188525D01*
X72723Y188754D01*
X72539Y188976D01*
X72333Y189191D01*
X76467D01*
X76261Y188976D01*
D02*
G37*
G36*
X75395Y185582D02*
X75428Y185314D01*
X75482Y185053D01*
X75558Y184799D01*
X75655Y184551D01*
X75774Y184310D01*
X75915Y184075D01*
X76077Y183846D01*
X76261Y183624D01*
X76467Y183409D01*
X72333D01*
X72539Y183624D01*
X72723Y183846D01*
X72885Y184075D01*
X73026Y184310D01*
X73145Y184551D01*
X73242Y184799D01*
X73318Y185053D01*
X73372Y185314D01*
X73405Y185582D01*
X73416Y185855D01*
X75384D01*
X75395Y185582D01*
D02*
G37*
G36*
X76261Y178976D02*
X76077Y178754D01*
X75915Y178525D01*
X75774Y178290D01*
X75655Y178049D01*
X75558Y177801D01*
X75482Y177547D01*
X75428Y177286D01*
X75395Y177018D01*
X75384Y176744D01*
X73416D01*
X73405Y177018D01*
X73372Y177286D01*
X73318Y177547D01*
X73242Y177801D01*
X73145Y178049D01*
X73026Y178290D01*
X72885Y178525D01*
X72723Y178754D01*
X72539Y178976D01*
X72333Y179191D01*
X76467D01*
X76261Y178976D01*
D02*
G37*
G36*
X75395Y175582D02*
X75428Y175314D01*
X75482Y175053D01*
X75558Y174799D01*
X75655Y174551D01*
X75774Y174310D01*
X75915Y174075D01*
X76077Y173846D01*
X76261Y173624D01*
X76467Y173409D01*
X72333D01*
X72539Y173624D01*
X72723Y173846D01*
X72885Y174075D01*
X73026Y174310D01*
X73145Y174551D01*
X73242Y174799D01*
X73318Y175053D01*
X73372Y175314D01*
X73405Y175582D01*
X73416Y175856D01*
X75384D01*
X75395Y175582D01*
D02*
G37*
G36*
X77359Y170973D02*
X77386Y170686D01*
X77433Y170409D01*
X77500Y170143D01*
X77586Y169888D01*
X77693Y169644D01*
X77819Y169411D01*
X77965Y169188D01*
X78131Y168976D01*
X78317Y168775D01*
X76925Y167383D01*
X76724Y167569D01*
X76512Y167735D01*
X76289Y167881D01*
X76056Y168007D01*
X75811Y168114D01*
X75556Y168200D01*
X75291Y168267D01*
X75015Y168314D01*
X74727Y168341D01*
X74430Y168347D01*
X77353Y171271D01*
X77359Y170973D01*
D02*
G37*
G36*
X40245Y157095D02*
X39480Y156825D01*
X38805Y156374D01*
X38220Y155744D01*
X37725Y154932D01*
X37320Y153941D01*
X37005Y152769D01*
X36780Y151418D01*
X36645Y149886D01*
X36600Y148173D01*
X27600D01*
X27555Y149886D01*
X27420Y151418D01*
X27195Y152769D01*
X26880Y153941D01*
X26475Y154932D01*
X25980Y155744D01*
X25395Y156374D01*
X24720Y156825D01*
X23955Y157095D01*
X23100Y157185D01*
X41100D01*
X40245Y157095D01*
D02*
G37*
G36*
X145196Y110237D02*
X145227Y110353D01*
X145231Y110486D01*
X145196Y110596D01*
X146741Y107830D01*
X146672Y107907D01*
X146576Y107940D01*
X146451Y107930D01*
X146298Y107876D01*
X146118Y107780D01*
X145909Y107640D01*
X145673Y107457D01*
X145116Y106962D01*
X144796Y106649D01*
X143792Y108429D01*
X144108Y108752D01*
X144822Y109581D01*
X144921Y109723D01*
X144879Y109761D01*
X144701Y109870D01*
X144483Y109958D01*
X144225Y110027D01*
X143928Y110076D01*
X143591Y110106D01*
X143215Y110116D01*
Y112084D01*
X143591Y112094D01*
X143928Y112124D01*
X144225Y112173D01*
X144483Y112242D01*
X144701Y112330D01*
X144879Y112439D01*
X145018Y112566D01*
X145116Y112714D01*
X145176Y112882D01*
X145196Y113068D01*
Y110237D01*
D02*
G37*
G36*
X130997Y87111D02*
X130956Y87147D01*
X130908Y87179D01*
X130853Y87207D01*
X130790Y87232D01*
X130721Y87253D01*
X130643Y87270D01*
X130559Y87283D01*
X130467Y87292D01*
X130262Y87300D01*
Y88300D01*
X130368Y88302D01*
X130559Y88317D01*
X130643Y88330D01*
X130721Y88347D01*
X130790Y88368D01*
X130853Y88393D01*
X130908Y88421D01*
X130956Y88453D01*
X130997Y88489D01*
Y87111D01*
D02*
G37*
G36*
X148888Y87536D02*
X148899Y87479D01*
X148918Y87420D01*
X148945Y87359D01*
X148979Y87294D01*
X149022Y87228D01*
X149072Y87159D01*
X149131Y87087D01*
X149271Y86936D01*
X148564Y86229D01*
X148487Y86303D01*
X148341Y86428D01*
X148272Y86478D01*
X148206Y86520D01*
X148141Y86555D01*
X148080Y86582D01*
X148021Y86601D01*
X147964Y86612D01*
X147910Y86616D01*
X148884Y87590D01*
X148888Y87536D01*
D02*
G37*
G36*
X138071Y85066D02*
Y74785D01*
X138065Y74732D01*
X138063Y74723D01*
X138062Y74721D01*
X137831Y74374D01*
X137677Y73600D01*
X137831Y72826D01*
X138269Y72169D01*
X138926Y71731D01*
X139700Y71577D01*
X140474Y71731D01*
X141131Y72169D01*
X141569Y72826D01*
X141577Y72865D01*
X142077Y72816D01*
Y37738D01*
X129362Y25023D01*
X118738D01*
X112348Y31413D01*
X112015Y31771D01*
X111781Y32064D01*
X111603Y32320D01*
X111590Y32342D01*
Y33056D01*
X111598Y33091D01*
X111590Y33132D01*
Y35154D01*
X112052Y35345D01*
X113297Y34100D01*
X117600D01*
X121602D01*
X121497Y34894D01*
X121094Y35867D01*
X120764Y36298D01*
X120657Y36555D01*
X120096Y37286D01*
X113186Y44196D01*
X112455Y44757D01*
X111603Y45110D01*
X110690Y45230D01*
X106262D01*
X97905Y53588D01*
X98069Y54130D01*
X98574Y54231D01*
X99231Y54669D01*
X99669Y55326D01*
X99762Y55792D01*
X99765Y55797D01*
X99779Y55816D01*
X99783Y55820D01*
X124733Y80771D01*
X130417D01*
X130926Y80431D01*
X131700Y80277D01*
X132474Y80431D01*
X133131Y80869D01*
X133569Y81526D01*
X133723Y82300D01*
X133569Y83074D01*
X133131Y83731D01*
X132474Y84169D01*
X131700Y84323D01*
X130926Y84169D01*
X130417Y83829D01*
X124100D01*
X124099Y83829D01*
X123853Y84290D01*
X125833Y86271D01*
X130417D01*
X130926Y85931D01*
X131700Y85777D01*
X132474Y85931D01*
X133131Y86369D01*
X133569Y87026D01*
X133723Y87800D01*
X133633Y88255D01*
X133926Y88650D01*
X134461Y88677D01*
X138071Y85066D01*
D02*
G37*
G36*
X96470Y85747D02*
X96046Y85744D01*
X95285Y85693D01*
X94949Y85644D01*
X94642Y85580D01*
X94363Y85502D01*
X94115Y85408D01*
X93895Y85299D01*
X93704Y85175D01*
X93543Y85036D01*
X92836Y85743D01*
X92975Y85904D01*
X93099Y86095D01*
X93208Y86314D01*
X93302Y86563D01*
X93380Y86842D01*
X93444Y87149D01*
X93493Y87485D01*
X93544Y88246D01*
X93547Y88670D01*
X96470Y85747D01*
D02*
G37*
G36*
X130997Y81611D02*
X130956Y81647D01*
X130908Y81679D01*
X130853Y81707D01*
X130790Y81732D01*
X130721Y81753D01*
X130643Y81770D01*
X130559Y81783D01*
X130467Y81792D01*
X130262Y81800D01*
Y82800D01*
X130368Y82802D01*
X130559Y82817D01*
X130643Y82830D01*
X130721Y82847D01*
X130790Y82868D01*
X130853Y82893D01*
X130908Y82921D01*
X130956Y82953D01*
X130997Y82989D01*
Y81611D01*
D02*
G37*
G36*
X152933Y80022D02*
X152951Y79994D01*
X152977Y79959D01*
X153051Y79871D01*
X153289Y79618D01*
X153368Y79539D01*
X153002Y78491D01*
X152925Y78564D01*
X152780Y78682D01*
X152712Y78726D01*
X152646Y78760D01*
X152584Y78785D01*
X152524Y78800D01*
X152467Y78805D01*
X152414Y78800D01*
X152363Y78785D01*
X152922Y80044D01*
X152933Y80022D01*
D02*
G37*
G36*
X98911Y80469D02*
X99485Y79968D01*
X99758Y79764D01*
X100020Y79592D01*
X100272Y79451D01*
X100515Y79341D01*
X100747Y79263D01*
X100969Y79216D01*
X101182Y79200D01*
Y78200D01*
X100969Y78184D01*
X100747Y78137D01*
X100515Y78059D01*
X100272Y77949D01*
X100020Y77808D01*
X99758Y77636D01*
X99485Y77432D01*
X98911Y76931D01*
X98609Y76633D01*
Y80767D01*
X98911Y80469D01*
D02*
G37*
G36*
X140102Y74984D02*
X140119Y74794D01*
X140134Y74711D01*
X140154Y74635D01*
X140177Y74567D01*
X140205Y74506D01*
X140237Y74453D01*
X140273Y74407D01*
X140314Y74369D01*
X138943Y74229D01*
X138973Y74271D01*
X139000Y74319D01*
X139023Y74375D01*
X139043Y74438D01*
X139061Y74509D01*
X139075Y74587D01*
X139094Y74764D01*
X139098Y74864D01*
X139100Y74971D01*
X140100Y75090D01*
X140102Y74984D01*
D02*
G37*
G36*
X78733Y74341D02*
X78337Y73931D01*
X77716Y73200D01*
X77491Y72878D01*
X77322Y72585D01*
X77210Y72321D01*
X77155Y72087D01*
X77156Y71881D01*
X77214Y71704D01*
X77329Y71557D01*
X74457Y74229D01*
X74613Y74123D01*
X74797Y74072D01*
X75008Y74076D01*
X75245Y74134D01*
X75510Y74247D01*
X75802Y74415D01*
X76121Y74637D01*
X76467Y74914D01*
X77241Y75633D01*
X78733Y74341D01*
D02*
G37*
G36*
X71471Y69332D02*
X71451Y69519D01*
X71392Y69686D01*
X71293Y69833D01*
X71154Y69961D01*
X70976Y70070D01*
X70758Y70158D01*
X70501Y70227D01*
X70204Y70276D01*
X69867Y70306D01*
X69491Y70316D01*
Y72284D01*
X69867Y72294D01*
X70204Y72324D01*
X70501Y72373D01*
X70758Y72442D01*
X70976Y72530D01*
X71154Y72639D01*
X71293Y72767D01*
X71392Y72914D01*
X71451Y73081D01*
X71471Y73269D01*
Y69332D01*
D02*
G37*
G36*
X66724Y73161D02*
X66946Y72977D01*
X67175Y72815D01*
X67410Y72674D01*
X67651Y72555D01*
X67899Y72457D01*
X68153Y72382D01*
X68414Y72328D01*
X68682Y72295D01*
X68955Y72284D01*
Y70316D01*
X68682Y70305D01*
X68414Y70272D01*
X68153Y70218D01*
X67899Y70143D01*
X67651Y70045D01*
X67410Y69926D01*
X67175Y69785D01*
X66946Y69623D01*
X66724Y69439D01*
X66509Y69233D01*
Y73367D01*
X66724Y73161D01*
D02*
G37*
G36*
X18563Y72556D02*
X18751Y72203D01*
X19065Y71744D01*
X19505Y71179D01*
X20760Y69730D01*
X24778Y65558D01*
X21242Y62023D01*
X20040Y63215D01*
X14597Y68049D01*
X14244Y68237D01*
X13997Y68300D01*
X18500Y72803D01*
X18563Y72556D01*
D02*
G37*
G36*
X56544Y62253D02*
X56592Y62221D01*
X56647Y62193D01*
X56709Y62168D01*
X56779Y62147D01*
X56857Y62130D01*
X56941Y62117D01*
X57033Y62108D01*
X57238Y62100D01*
Y61100D01*
X57132Y61098D01*
X56941Y61083D01*
X56857Y61070D01*
X56779Y61053D01*
X56709Y61032D01*
X56647Y61007D01*
X56592Y60979D01*
X56544Y60947D01*
X56503Y60911D01*
Y62289D01*
X56544Y62253D01*
D02*
G37*
G36*
X99171Y61063D02*
X99097Y60987D01*
X98972Y60841D01*
X98922Y60772D01*
X98879Y60706D01*
X98845Y60641D01*
X98818Y60580D01*
X98799Y60521D01*
X98788Y60464D01*
X98784Y60410D01*
X97810Y61384D01*
X97864Y61388D01*
X97921Y61399D01*
X97980Y61418D01*
X98041Y61445D01*
X98106Y61480D01*
X98172Y61522D01*
X98241Y61572D01*
X98313Y61631D01*
X98463Y61771D01*
X99171Y61063D01*
D02*
G37*
G36*
X99188Y56681D02*
X99114Y56604D01*
X98988Y56459D01*
X98936Y56391D01*
X98892Y56326D01*
X98855Y56263D01*
X98825Y56203D01*
X98804Y56145D01*
X98789Y56091D01*
X98782Y56039D01*
X97881Y57081D01*
X97936Y57081D01*
X97994Y57089D01*
X98054Y57105D01*
X98116Y57129D01*
X98181Y57161D01*
X98248Y57202D01*
X98318Y57251D01*
X98390Y57308D01*
X98540Y57447D01*
X99188Y56681D01*
D02*
G37*
G36*
X147126Y85731D02*
X147725Y85612D01*
X147986Y85351D01*
Y36953D01*
X146247D01*
X146123Y37401D01*
Y85856D01*
X146623Y86067D01*
X147126Y85731D01*
D02*
G37*
G36*
X150021Y36748D02*
X150036Y36576D01*
X150061Y36425D01*
X150096Y36293D01*
X150141Y36182D01*
X150196Y36091D01*
X150261Y36020D01*
X150336Y35969D01*
X150421Y35939D01*
X150516Y35929D01*
X148516D01*
X148611Y35939D01*
X148696Y35969D01*
X148771Y36020D01*
X148836Y36091D01*
X148891Y36182D01*
X148936Y36293D01*
X148971Y36425D01*
X148996Y36576D01*
X149011Y36748D01*
X149016Y36941D01*
X150016D01*
X150021Y36748D01*
D02*
G37*
G36*
X160716Y37469D02*
X160763Y37247D01*
X160841Y37015D01*
X160951Y36772D01*
X161092Y36520D01*
X161264Y36258D01*
X161468Y35985D01*
X161969Y35411D01*
X162267Y35109D01*
X158133D01*
X158431Y35411D01*
X158932Y35985D01*
X159136Y36258D01*
X159308Y36520D01*
X159449Y36772D01*
X159559Y37015D01*
X159637Y37247D01*
X159684Y37469D01*
X159700Y37682D01*
X160700D01*
X160716Y37469D01*
D02*
G37*
G36*
X104602Y30362D02*
X104562Y30597D01*
X104442Y30808D01*
X104242Y30993D01*
X103962Y31154D01*
X103602Y31291D01*
X103162Y31402D01*
X102642Y31489D01*
X102042Y31550D01*
X100602Y31600D01*
Y35600D01*
X101362Y35612D01*
X102642Y35711D01*
X103162Y35798D01*
X103602Y35910D01*
X103962Y36046D01*
X104242Y36207D01*
X104442Y36392D01*
X104562Y36603D01*
X104602Y36838D01*
Y30362D01*
D02*
G37*
G36*
X110465Y32955D02*
X110408Y32775D01*
X110407Y32567D01*
X110462Y32331D01*
X110573Y32067D01*
X110740Y31774D01*
X110963Y31454D01*
X111243Y31105D01*
X111970Y30322D01*
X110538Y28970D01*
X110136Y29358D01*
X109415Y29968D01*
X109095Y30190D01*
X108803Y30357D01*
X108538Y30469D01*
X108301Y30525D01*
X108091Y30526D01*
X107909Y30472D01*
X107754Y30362D01*
X110578Y33106D01*
X110465Y32955D01*
D02*
G37*
%LPC*%
G36*
X60100Y367623D02*
X59326Y367469D01*
X58669Y367031D01*
X58231Y366374D01*
X58077Y365600D01*
X58231Y364826D01*
X58571Y364317D01*
Y361533D01*
X56467Y359429D01*
X50983D01*
X50474Y359769D01*
X49700Y359923D01*
X48926Y359769D01*
X48269Y359331D01*
X47831Y358674D01*
X47677Y357900D01*
X47831Y357126D01*
X48269Y356469D01*
X48926Y356031D01*
X49700Y355877D01*
X50474Y356031D01*
X50983Y356371D01*
X57100D01*
X57685Y356487D01*
X58181Y356819D01*
X61181Y359819D01*
X61513Y360315D01*
X61629Y360900D01*
Y364317D01*
X61969Y364826D01*
X62123Y365600D01*
X61969Y366374D01*
X61531Y367031D01*
X60874Y367469D01*
X60100Y367623D01*
D02*
G37*
G36*
X154600Y344824D02*
Y343400D01*
X156024D01*
X155969Y343674D01*
X155531Y344331D01*
X154874Y344769D01*
X154600Y344824D01*
D02*
G37*
G36*
X153600D02*
X153326Y344769D01*
X152669Y344331D01*
X152231Y343674D01*
X152176Y343400D01*
X153600D01*
Y344824D01*
D02*
G37*
G36*
X108653Y302753D02*
X100747D01*
Y294847D01*
X108653D01*
Y302753D01*
D02*
G37*
G36*
X88900Y325323D02*
X88126Y325169D01*
X87469Y324731D01*
X87031Y324074D01*
X87009Y323966D01*
X86956Y323885D01*
X86956Y323885D01*
X86956Y323885D01*
X86903Y323619D01*
X86839Y323300D01*
X86839Y323300D01*
X86839Y323300D01*
X86894Y323025D01*
X86956Y322715D01*
X86956Y322715D01*
X86956Y322715D01*
X87009Y322635D01*
X87031Y322526D01*
X87469Y321869D01*
X87755Y321679D01*
Y303325D01*
X87739Y303255D01*
X87713Y303190D01*
X87673Y303123D01*
X87610Y303047D01*
X87515Y302959D01*
X87383Y302864D01*
X87208Y302763D01*
X86990Y302662D01*
X86698Y302552D01*
X86633Y302512D01*
X86007Y302253D01*
X85181Y301619D01*
X84547Y300793D01*
X84149Y299832D01*
X84013Y298800D01*
X84149Y297768D01*
X84547Y296807D01*
X85181Y295981D01*
X86007Y295347D01*
X86968Y294949D01*
X88000Y294813D01*
X89032Y294949D01*
X89993Y295347D01*
X90819Y295981D01*
X91453Y296807D01*
X91851Y297768D01*
X91987Y298800D01*
X91851Y299832D01*
X91731Y300123D01*
X91720Y300192D01*
X91719Y300194D01*
X91719Y300195D01*
X91103Y301897D01*
X90856Y302703D01*
X90822Y302848D01*
X90814Y302893D01*
Y322384D01*
X90777Y322567D01*
X90923Y323300D01*
X90769Y324074D01*
X90331Y324731D01*
X89674Y325169D01*
X88900Y325323D01*
D02*
G37*
G36*
X104700Y292787D02*
X103668Y292651D01*
X102707Y292253D01*
X101881Y291619D01*
X101247Y290793D01*
X100849Y289832D01*
X100713Y288800D01*
X100849Y287768D01*
X101247Y286807D01*
X101881Y285981D01*
X102707Y285347D01*
X103668Y284949D01*
X104700Y284813D01*
X105732Y284949D01*
X106693Y285347D01*
X107519Y285981D01*
X107990Y286594D01*
X108029Y286633D01*
X108100Y286738D01*
X108153Y286807D01*
X108162Y286830D01*
X108231Y286931D01*
X108414Y287171D01*
X108589Y287372D01*
X108753Y287535D01*
X108904Y287661D01*
X109038Y287753D01*
X109156Y287815D01*
X109256Y287852D01*
X109338Y287871D01*
X140217D01*
X140726Y287531D01*
X141500Y287377D01*
X142274Y287531D01*
X142931Y287969D01*
X143369Y288626D01*
X143523Y289400D01*
X143369Y290174D01*
X142931Y290831D01*
X142274Y291269D01*
X141500Y291423D01*
X140726Y291269D01*
X140217Y290929D01*
X109149D01*
X109069Y290945D01*
X108921Y290989D01*
X108731Y291060D01*
X108529Y291150D01*
X107268Y291866D01*
X106904Y292105D01*
X106866Y292120D01*
X106693Y292253D01*
X105732Y292651D01*
X104700Y292787D01*
D02*
G37*
G36*
X88000D02*
X86968Y292651D01*
X86007Y292253D01*
X85181Y291619D01*
X84547Y290793D01*
X84149Y289832D01*
X84013Y288800D01*
X84149Y287768D01*
X84547Y286807D01*
X85181Y285981D01*
X86007Y285347D01*
X86968Y284949D01*
X88000Y284813D01*
X89032Y284949D01*
X89993Y285347D01*
X90819Y285981D01*
X91453Y286807D01*
X91851Y287768D01*
X91987Y288800D01*
X91851Y289832D01*
X91453Y290793D01*
X90819Y291619D01*
X89993Y292253D01*
X89032Y292651D01*
X88000Y292787D01*
D02*
G37*
G36*
X78000D02*
X76968Y292651D01*
X76007Y292253D01*
X75181Y291619D01*
X74547Y290793D01*
X74149Y289832D01*
X74013Y288800D01*
X74149Y287768D01*
X74547Y286807D01*
X75181Y285981D01*
X76007Y285347D01*
X76968Y284949D01*
X78000Y284813D01*
X79032Y284949D01*
X79993Y285347D01*
X80819Y285981D01*
X81453Y286807D01*
X81851Y287768D01*
X81987Y288800D01*
X81851Y289832D01*
X81453Y290793D01*
X80819Y291619D01*
X79993Y292253D01*
X79032Y292651D01*
X78000Y292787D01*
D02*
G37*
G36*
X193900Y265221D02*
X193368Y265151D01*
X192407Y264753D01*
X191581Y264119D01*
X190947Y263293D01*
X190549Y262332D01*
X190479Y261800D01*
X193900D01*
Y265221D01*
D02*
G37*
%LPD*%
G36*
X60753Y364856D02*
X60721Y364808D01*
X60693Y364753D01*
X60668Y364690D01*
X60647Y364621D01*
X60630Y364543D01*
X60617Y364459D01*
X60608Y364367D01*
X60600Y364162D01*
X59600D01*
X59598Y364268D01*
X59583Y364459D01*
X59570Y364543D01*
X59553Y364621D01*
X59532Y364690D01*
X59507Y364753D01*
X59479Y364808D01*
X59447Y364856D01*
X59411Y364897D01*
X60789D01*
X60753Y364856D01*
D02*
G37*
G36*
X50444Y358553D02*
X50492Y358521D01*
X50547Y358493D01*
X50609Y358468D01*
X50679Y358447D01*
X50757Y358430D01*
X50841Y358417D01*
X50933Y358408D01*
X51138Y358400D01*
Y357400D01*
X51032Y357398D01*
X50841Y357383D01*
X50757Y357370D01*
X50679Y357353D01*
X50609Y357332D01*
X50547Y357307D01*
X50492Y357279D01*
X50444Y357247D01*
X50403Y357211D01*
Y358589D01*
X50444Y358553D01*
D02*
G37*
G36*
X89784Y302924D02*
X89794Y302803D01*
X89823Y302640D01*
X89872Y302435D01*
X90136Y301574D01*
X90760Y299848D01*
X87056Y301598D01*
X87384Y301721D01*
X87678Y301857D01*
X87937Y302007D01*
X88162Y302169D01*
X88352Y302344D01*
X88508Y302533D01*
X88629Y302735D01*
X88715Y302950D01*
X88767Y303177D01*
X88784Y303418D01*
X89784Y302924D01*
D02*
G37*
G36*
X140797Y288711D02*
X140756Y288747D01*
X140708Y288779D01*
X140653Y288807D01*
X140591Y288832D01*
X140521Y288853D01*
X140443Y288870D01*
X140359Y288883D01*
X140267Y288892D01*
X140062Y288900D01*
Y289900D01*
X140168Y289902D01*
X140359Y289917D01*
X140443Y289930D01*
X140521Y289947D01*
X140591Y289968D01*
X140653Y289993D01*
X140708Y290021D01*
X140756Y290053D01*
X140797Y290089D01*
Y288711D01*
D02*
G37*
G36*
X106736Y290995D02*
X108070Y290238D01*
X108345Y290116D01*
X108597Y290022D01*
X108825Y289954D01*
X109030Y289914D01*
X109212Y289900D01*
X109423Y288900D01*
X109193Y288883D01*
X108965Y288832D01*
X108739Y288747D01*
X108513Y288629D01*
X108288Y288476D01*
X108065Y288290D01*
X107843Y288069D01*
X107623Y287815D01*
X107403Y287527D01*
X107185Y287205D01*
X106345Y291252D01*
X106736Y290995D01*
D02*
G37*
%LPC*%
G36*
X9700Y446039D02*
X8346Y445906D01*
X7045Y445511D01*
X5845Y444870D01*
X4793Y444007D01*
X3931Y442955D01*
X3289Y441755D01*
X2894Y440454D01*
X2761Y439100D01*
X2894Y437746D01*
X3289Y436445D01*
X3931Y435245D01*
X4793Y434193D01*
X5845Y433330D01*
X7045Y432689D01*
X8346Y432294D01*
X9700Y432161D01*
X11054Y432294D01*
X12355Y432689D01*
X13555Y433330D01*
X14607Y434193D01*
X15470Y435245D01*
X16111Y436445D01*
X16506Y437746D01*
X16639Y439100D01*
X16506Y440454D01*
X16111Y441755D01*
X15470Y442955D01*
X14607Y444007D01*
X13555Y444870D01*
X12355Y445511D01*
X11054Y445906D01*
X9700Y446039D01*
D02*
G37*
G36*
X48385Y438480D02*
X47096Y438310D01*
X45895Y437813D01*
X44864Y437021D01*
X44072Y435990D01*
X43575Y434789D01*
X43405Y433500D01*
X43575Y432211D01*
X44072Y431010D01*
X44864Y429979D01*
X45895Y429187D01*
X47096Y428690D01*
X48385Y428520D01*
X49674Y428690D01*
X50875Y429187D01*
X51906Y429979D01*
X52697Y431010D01*
X53195Y432211D01*
X53365Y433500D01*
X53195Y434789D01*
X52697Y435990D01*
X51906Y437021D01*
X50875Y437813D01*
X49674Y438310D01*
X48385Y438480D01*
D02*
G37*
G36*
X28700D02*
X27411Y438310D01*
X26210Y437813D01*
X25179Y437021D01*
X24387Y435990D01*
X23890Y434789D01*
X23720Y433500D01*
X23890Y432211D01*
X24387Y431010D01*
X25179Y429979D01*
X26210Y429187D01*
X27411Y428690D01*
X28700Y428520D01*
X29989Y428690D01*
X31190Y429187D01*
X32221Y429979D01*
X33013Y431010D01*
X33510Y432211D01*
X33680Y433500D01*
X33510Y434789D01*
X33013Y435990D01*
X32221Y437021D01*
X31190Y437813D01*
X29989Y438310D01*
X28700Y438480D01*
D02*
G37*
G36*
X109500Y437780D02*
X108211Y437610D01*
X107010Y437113D01*
X105979Y436321D01*
X105187Y435290D01*
X104690Y434089D01*
X104520Y432800D01*
X104690Y431511D01*
X105187Y430310D01*
X105979Y429279D01*
X107010Y428487D01*
X108211Y427990D01*
X109500Y427820D01*
X110789Y427990D01*
X111990Y428487D01*
X113021Y429279D01*
X113812Y430310D01*
X114310Y431511D01*
X114480Y432800D01*
X114310Y434089D01*
X113812Y435290D01*
X113021Y436321D01*
X111990Y437113D01*
X110789Y437610D01*
X109500Y437780D01*
D02*
G37*
G36*
X89815D02*
X88526Y437610D01*
X87325Y437113D01*
X86294Y436321D01*
X85502Y435290D01*
X85005Y434089D01*
X84835Y432800D01*
X85005Y431511D01*
X85502Y430310D01*
X86294Y429279D01*
X87325Y428487D01*
X88526Y427990D01*
X89815Y427820D01*
X91104Y427990D01*
X92305Y428487D01*
X93336Y429279D01*
X94128Y430310D01*
X94625Y431511D01*
X94795Y432800D01*
X94625Y434089D01*
X94128Y435290D01*
X93336Y436321D01*
X92305Y437113D01*
X91104Y437610D01*
X89815Y437780D01*
D02*
G37*
G36*
X226800Y437180D02*
X225511Y437010D01*
X224310Y436513D01*
X223279Y435721D01*
X222487Y434690D01*
X221990Y433489D01*
X221820Y432200D01*
X221990Y430911D01*
X222487Y429710D01*
X223279Y428679D01*
X224310Y427887D01*
X225511Y427390D01*
X226800Y427220D01*
X228089Y427390D01*
X229290Y427887D01*
X230321Y428679D01*
X231113Y429710D01*
X231610Y430911D01*
X231780Y432200D01*
X231610Y433489D01*
X231113Y434690D01*
X230321Y435721D01*
X229290Y436513D01*
X228089Y437010D01*
X226800Y437180D01*
D02*
G37*
G36*
X207115D02*
X205826Y437010D01*
X204625Y436513D01*
X203594Y435721D01*
X202802Y434690D01*
X202305Y433489D01*
X202135Y432200D01*
X202305Y430911D01*
X202802Y429710D01*
X203594Y428679D01*
X204625Y427887D01*
X205826Y427390D01*
X207115Y427220D01*
X208404Y427390D01*
X209605Y427887D01*
X210636Y428679D01*
X211427Y429710D01*
X211925Y430911D01*
X212095Y432200D01*
X211925Y433489D01*
X211427Y434690D01*
X210636Y435721D01*
X209605Y436513D01*
X208404Y437010D01*
X207115Y437180D01*
D02*
G37*
G36*
X169400Y437080D02*
X168111Y436910D01*
X166910Y436412D01*
X165879Y435621D01*
X165087Y434590D01*
X164590Y433389D01*
X164420Y432100D01*
X164590Y430811D01*
X165087Y429610D01*
X165879Y428579D01*
X166910Y427787D01*
X168111Y427290D01*
X169400Y427120D01*
X170689Y427290D01*
X171890Y427787D01*
X172921Y428579D01*
X173713Y429610D01*
X174210Y430811D01*
X174380Y432100D01*
X174210Y433389D01*
X173713Y434590D01*
X172921Y435621D01*
X171890Y436412D01*
X170689Y436910D01*
X169400Y437080D01*
D02*
G37*
G36*
X149715D02*
X148426Y436910D01*
X147225Y436412D01*
X146194Y435621D01*
X145403Y434590D01*
X144905Y433389D01*
X144735Y432100D01*
X144905Y430811D01*
X145403Y429610D01*
X146194Y428579D01*
X147225Y427787D01*
X148426Y427290D01*
X149715Y427120D01*
X151004Y427290D01*
X152205Y427787D01*
X153236Y428579D01*
X154027Y429610D01*
X154525Y430811D01*
X154695Y432100D01*
X154525Y433389D01*
X154027Y434590D01*
X153236Y435621D01*
X152205Y436412D01*
X151004Y436910D01*
X149715Y437080D01*
D02*
G37*
G36*
X28900Y405220D02*
Y401600D01*
X32520D01*
X32443Y402183D01*
X32025Y403193D01*
X31359Y404060D01*
X30493Y404725D01*
X29483Y405143D01*
X28900Y405220D01*
D02*
G37*
G36*
X210200D02*
Y401600D01*
X213820D01*
X213743Y402183D01*
X213325Y403193D01*
X212660Y404060D01*
X211793Y404725D01*
X210783Y405143D01*
X210200Y405220D01*
D02*
G37*
G36*
X90800D02*
Y401600D01*
X94420D01*
X94343Y402183D01*
X93925Y403193D01*
X93260Y404060D01*
X92393Y404725D01*
X91383Y405143D01*
X90800Y405220D01*
D02*
G37*
G36*
X27900D02*
X27317Y405143D01*
X26307Y404725D01*
X25440Y404060D01*
X24775Y403193D01*
X24357Y402183D01*
X24280Y401600D01*
X27900D01*
Y405220D01*
D02*
G37*
G36*
X233850Y405250D02*
X225550D01*
Y396950D01*
X233850D01*
Y405250D01*
D02*
G37*
G36*
X173650D02*
X165350D01*
Y396950D01*
X173650D01*
Y405250D01*
D02*
G37*
G36*
X114450D02*
X106150D01*
Y396950D01*
X114450D01*
Y405250D01*
D02*
G37*
G36*
X52550D02*
X44250D01*
Y396950D01*
X52550D01*
Y405250D01*
D02*
G37*
G36*
X189200Y420170D02*
X187911Y420001D01*
X186710Y419503D01*
X185679Y418712D01*
X184888Y417680D01*
X184390Y416479D01*
X184220Y415191D01*
X184390Y413902D01*
X184888Y412701D01*
X185679Y411669D01*
X186710Y410878D01*
X187911Y410381D01*
X189200Y410211D01*
X190489Y410381D01*
X191690Y410878D01*
X192052Y411156D01*
X210838D01*
X215966Y406029D01*
Y402927D01*
X215657Y402183D01*
X215515Y401100D01*
X215657Y400017D01*
X216075Y399007D01*
X216740Y398141D01*
X217607Y397475D01*
X218617Y397057D01*
X219700Y396915D01*
X220783Y397057D01*
X221793Y397475D01*
X222659Y398141D01*
X223325Y399007D01*
X223464Y399344D01*
X223494Y399383D01*
X223897Y400356D01*
X224035Y401400D01*
Y407700D01*
X224035Y407700D01*
X223897Y408744D01*
X223494Y409717D01*
X222853Y410553D01*
X215362Y418043D01*
X214527Y418685D01*
X213554Y419088D01*
X212509Y419225D01*
X212509Y419225D01*
X192052D01*
X191690Y419503D01*
X190489Y420001D01*
X189200Y420170D01*
D02*
G37*
G36*
X129800D02*
X128511Y420001D01*
X127310Y419503D01*
X126279Y418712D01*
X125487Y417680D01*
X124990Y416479D01*
X124820Y415191D01*
X124990Y413902D01*
X125487Y412701D01*
X126279Y411669D01*
X127310Y410878D01*
X128511Y410381D01*
X129800Y410211D01*
X131089Y410381D01*
X132290Y410878D01*
X132652Y411156D01*
X149438D01*
X155866Y404729D01*
Y403169D01*
X155457Y402183D01*
X155315Y401100D01*
X155457Y400017D01*
X155875Y399007D01*
X156541Y398141D01*
X157407Y397475D01*
X158417Y397057D01*
X159500Y396915D01*
X160583Y397057D01*
X161593Y397475D01*
X162460Y398141D01*
X163125Y399007D01*
X163237Y399278D01*
X163394Y399483D01*
X163797Y400456D01*
X163935Y401500D01*
X163935Y401500D01*
Y406400D01*
X163935Y406400D01*
X163797Y407444D01*
X163394Y408417D01*
X162753Y409253D01*
X162753Y409253D01*
X153962Y418043D01*
X153127Y418685D01*
X152154Y419088D01*
X151109Y419225D01*
X151109Y419225D01*
X132652D01*
X132290Y419503D01*
X131089Y420001D01*
X129800Y420170D01*
D02*
G37*
G36*
X69300D02*
X68011Y420001D01*
X66810Y419503D01*
X65779Y418712D01*
X64987Y417680D01*
X64490Y416479D01*
X64320Y415191D01*
X64490Y413902D01*
X64987Y412701D01*
X65779Y411669D01*
X66810Y410878D01*
X68011Y410381D01*
X69300Y410211D01*
X70589Y410381D01*
X71790Y410878D01*
X72152Y411156D01*
X90938D01*
X96266Y405829D01*
Y402203D01*
X96257Y402183D01*
X96115Y401100D01*
X96257Y400017D01*
X96675Y399007D01*
X97341Y398141D01*
X98207Y397475D01*
X99217Y397057D01*
X100300Y396915D01*
X101383Y397057D01*
X102393Y397475D01*
X103260Y398141D01*
X103925Y399007D01*
X104343Y400017D01*
X104485Y401100D01*
X104343Y402183D01*
X104334Y402203D01*
Y407500D01*
X104197Y408544D01*
X103794Y409517D01*
X103153Y410353D01*
X95462Y418043D01*
X94627Y418685D01*
X93654Y419088D01*
X92609Y419225D01*
X92609Y419225D01*
X72152D01*
X71790Y419503D01*
X70589Y420001D01*
X69300Y420170D01*
D02*
G37*
G36*
X8200D02*
X6911Y420001D01*
X5710Y419503D01*
X4679Y418712D01*
X3887Y417680D01*
X3390Y416479D01*
X3220Y415191D01*
X3390Y413902D01*
X3887Y412701D01*
X4679Y411669D01*
X5710Y410878D01*
X6911Y410381D01*
X8200Y410211D01*
X9489Y410381D01*
X9535Y410400D01*
X29925D01*
X33609Y406715D01*
Y401100D01*
X33772Y399860D01*
X34251Y398705D01*
X35012Y397712D01*
X36004Y396951D01*
X37160Y396472D01*
X38400Y396309D01*
X39640Y396472D01*
X40795Y396951D01*
X41788Y397712D01*
X42549Y398705D01*
X43028Y399860D01*
X43191Y401100D01*
Y407840D01*
X43291Y408600D01*
X43128Y409840D01*
X42649Y410995D01*
X41888Y411988D01*
X35297Y418578D01*
X34305Y419340D01*
X33149Y419818D01*
X31909Y419982D01*
X9535D01*
X9489Y420001D01*
X8200Y420170D01*
D02*
G37*
G36*
X224300Y357765D02*
X223011Y357595D01*
X221810Y357098D01*
X220779Y356306D01*
X219988Y355275D01*
X219490Y354074D01*
X219320Y352785D01*
X219490Y351496D01*
X219988Y350295D01*
X220779Y349264D01*
X221810Y348472D01*
X223011Y347975D01*
X224300Y347805D01*
X225589Y347975D01*
X226790Y348472D01*
X227821Y349264D01*
X228612Y350295D01*
X229110Y351496D01*
X229280Y352785D01*
X229110Y354074D01*
X228612Y355275D01*
X227821Y356306D01*
X226790Y357098D01*
X225589Y357595D01*
X224300Y357765D01*
D02*
G37*
G36*
X10500Y340534D02*
X9456Y340397D01*
X8483Y339994D01*
X7647Y339353D01*
X7006Y338517D01*
X6603Y337544D01*
X6465Y336500D01*
X6603Y335456D01*
X7006Y334483D01*
X7647Y333647D01*
X8483Y333006D01*
X9456Y332603D01*
X10500Y332466D01*
X11544Y332603D01*
X12517Y333006D01*
X13353Y333647D01*
X13994Y334483D01*
X14397Y335456D01*
X14535Y336500D01*
X14397Y337544D01*
X13994Y338517D01*
X13353Y339353D01*
X12517Y339994D01*
X11544Y340397D01*
X10500Y340534D01*
D02*
G37*
G36*
Y330535D02*
X9456Y330397D01*
X8483Y329994D01*
X7647Y329353D01*
X7006Y328517D01*
X6603Y327544D01*
X6465Y326500D01*
X6603Y325456D01*
X7006Y324483D01*
X7647Y323647D01*
X8483Y323006D01*
X9456Y322603D01*
X10500Y322465D01*
X11544Y322603D01*
X12517Y323006D01*
X13353Y323647D01*
X13994Y324483D01*
X14397Y325456D01*
X14535Y326500D01*
X14397Y327544D01*
X13994Y328517D01*
X13353Y329353D01*
X12517Y329994D01*
X11544Y330397D01*
X10500Y330535D01*
D02*
G37*
G36*
Y320534D02*
X9456Y320397D01*
X8483Y319994D01*
X7647Y319353D01*
X7006Y318517D01*
X6603Y317544D01*
X6465Y316500D01*
X6603Y315456D01*
X7006Y314483D01*
X7647Y313647D01*
X8483Y313006D01*
X9456Y312603D01*
X10500Y312466D01*
X11544Y312603D01*
X12517Y313006D01*
X13353Y313647D01*
X13994Y314483D01*
X14397Y315456D01*
X14535Y316500D01*
X14397Y317544D01*
X13994Y318517D01*
X13353Y319353D01*
X12517Y319994D01*
X11544Y320397D01*
X10500Y320534D01*
D02*
G37*
G36*
X223500Y311230D02*
X222586Y311110D01*
X221735Y310757D01*
X221004Y310196D01*
X220443Y309465D01*
X220090Y308614D01*
X219970Y307700D01*
X220090Y306786D01*
X220443Y305935D01*
X221004Y305204D01*
X221735Y304643D01*
X222586Y304290D01*
X223500Y304170D01*
X224414Y304290D01*
X225265Y304643D01*
X225996Y305204D01*
X226557Y305935D01*
X226910Y306786D01*
X227030Y307700D01*
X226910Y308614D01*
X226557Y309465D01*
X225996Y310196D01*
X225265Y310757D01*
X224414Y311110D01*
X223500Y311230D01*
D02*
G37*
G36*
X234100Y310930D02*
X233186Y310810D01*
X232335Y310457D01*
X231604Y309896D01*
X231043Y309165D01*
X230690Y308314D01*
X230570Y307400D01*
X230690Y306486D01*
X231043Y305635D01*
X231604Y304904D01*
X232335Y304343D01*
X233186Y303990D01*
X234100Y303870D01*
X235014Y303990D01*
X235865Y304343D01*
X236596Y304904D01*
X237157Y305635D01*
X237510Y306486D01*
X237630Y307400D01*
X237510Y308314D01*
X237157Y309165D01*
X236596Y309896D01*
X235865Y310457D01*
X235014Y310810D01*
X234100Y310930D01*
D02*
G37*
G36*
X215100Y306330D02*
X214186Y306210D01*
X213335Y305857D01*
X212604Y305296D01*
X212043Y304565D01*
X211690Y303714D01*
X211570Y302800D01*
X211690Y301886D01*
X212043Y301035D01*
X212604Y300304D01*
X213335Y299743D01*
X214186Y299390D01*
X215100Y299270D01*
X216014Y299390D01*
X216865Y299743D01*
X217596Y300304D01*
X218157Y301035D01*
X218510Y301886D01*
X218630Y302800D01*
X218510Y303714D01*
X218157Y304565D01*
X217596Y305296D01*
X216865Y305857D01*
X216014Y306210D01*
X215100Y306330D01*
D02*
G37*
G36*
X223500Y301664D02*
X222586Y301543D01*
X221735Y301191D01*
X221004Y300630D01*
X220443Y299899D01*
X220090Y299047D01*
X219970Y298133D01*
X220090Y297220D01*
X220443Y296368D01*
X221004Y295637D01*
X221735Y295076D01*
X222586Y294724D01*
X223500Y294603D01*
X224414Y294724D01*
X225265Y295076D01*
X225996Y295637D01*
X226557Y296368D01*
X226910Y297220D01*
X227030Y298133D01*
X226910Y299047D01*
X226557Y299899D01*
X225996Y300630D01*
X225265Y301191D01*
X224414Y301543D01*
X223500Y301664D01*
D02*
G37*
G36*
X234100Y301364D02*
X233186Y301243D01*
X232335Y300891D01*
X231604Y300330D01*
X231043Y299599D01*
X230690Y298747D01*
X230570Y297833D01*
X230690Y296920D01*
X231043Y296068D01*
X231604Y295337D01*
X232335Y294776D01*
X233186Y294424D01*
X234100Y294303D01*
X235014Y294424D01*
X235865Y294776D01*
X236596Y295337D01*
X237157Y296068D01*
X237510Y296920D01*
X237630Y297833D01*
X237510Y298747D01*
X237157Y299599D01*
X236596Y300330D01*
X235865Y300891D01*
X235014Y301243D01*
X234100Y301364D01*
D02*
G37*
G36*
X223500Y292097D02*
X222586Y291976D01*
X221735Y291624D01*
X221004Y291063D01*
X220443Y290332D01*
X220090Y289480D01*
X219970Y288567D01*
X220090Y287653D01*
X220443Y286802D01*
X221004Y286070D01*
X221735Y285509D01*
X222586Y285157D01*
X223500Y285036D01*
X224414Y285157D01*
X225265Y285509D01*
X225996Y286070D01*
X226557Y286802D01*
X226910Y287653D01*
X227030Y288567D01*
X226910Y289480D01*
X226557Y290332D01*
X225996Y291063D01*
X225265Y291624D01*
X224414Y291976D01*
X223500Y292097D01*
D02*
G37*
G36*
X234100Y291797D02*
X233186Y291676D01*
X232335Y291324D01*
X231604Y290763D01*
X231043Y290032D01*
X230690Y289180D01*
X230570Y288267D01*
X230690Y287353D01*
X231043Y286502D01*
X231604Y285770D01*
X232335Y285209D01*
X233186Y284857D01*
X234100Y284736D01*
X235014Y284857D01*
X235865Y285209D01*
X236596Y285770D01*
X237157Y286502D01*
X237510Y287353D01*
X237630Y288267D01*
X237510Y289180D01*
X237157Y290032D01*
X236596Y290763D01*
X235865Y291324D01*
X235014Y291676D01*
X234100Y291797D01*
D02*
G37*
G36*
X215100Y287130D02*
X214186Y287010D01*
X213335Y286657D01*
X212604Y286096D01*
X212043Y285365D01*
X211690Y284514D01*
X211570Y283600D01*
X211690Y282686D01*
X212043Y281835D01*
X212604Y281104D01*
X213335Y280543D01*
X214186Y280190D01*
X215100Y280070D01*
X216014Y280190D01*
X216865Y280543D01*
X217596Y281104D01*
X218157Y281835D01*
X218510Y282686D01*
X218630Y283600D01*
X218510Y284514D01*
X218157Y285365D01*
X217596Y286096D01*
X216865Y286657D01*
X216014Y287010D01*
X215100Y287130D01*
D02*
G37*
G36*
X223500Y282530D02*
X222586Y282410D01*
X221735Y282057D01*
X221004Y281496D01*
X220443Y280765D01*
X220090Y279914D01*
X219970Y279000D01*
X220090Y278086D01*
X220443Y277235D01*
X221004Y276504D01*
X221735Y275943D01*
X222586Y275590D01*
X223500Y275470D01*
X224414Y275590D01*
X225265Y275943D01*
X225996Y276504D01*
X226557Y277235D01*
X226910Y278086D01*
X227030Y279000D01*
X226910Y279914D01*
X226557Y280765D01*
X225996Y281496D01*
X225265Y282057D01*
X224414Y282410D01*
X223500Y282530D01*
D02*
G37*
G36*
X234100Y282230D02*
X233186Y282110D01*
X232335Y281757D01*
X231604Y281196D01*
X231043Y280465D01*
X230690Y279614D01*
X230570Y278700D01*
X230690Y277786D01*
X231043Y276935D01*
X231604Y276204D01*
X232335Y275643D01*
X233186Y275290D01*
X234100Y275170D01*
X235014Y275290D01*
X235865Y275643D01*
X236596Y276204D01*
X237157Y276935D01*
X237510Y277786D01*
X237630Y278700D01*
X237510Y279614D01*
X237157Y280465D01*
X236596Y281196D01*
X235865Y281757D01*
X235014Y282110D01*
X234100Y282230D01*
D02*
G37*
G36*
X233900Y265221D02*
X233368Y265151D01*
X232407Y264753D01*
X231581Y264119D01*
X231521Y264041D01*
X231398Y263923D01*
X231232Y263786D01*
X231067Y263669D01*
X230902Y263570D01*
X230736Y263488D01*
X230569Y263422D01*
X230397Y263371D01*
X230220Y263335D01*
X230126Y263323D01*
X228674D01*
X228580Y263335D01*
X228403Y263371D01*
X228232Y263422D01*
X228064Y263488D01*
X227898Y263570D01*
X227733Y263669D01*
X227568Y263786D01*
X227402Y263923D01*
X227279Y264041D01*
X227219Y264119D01*
X226393Y264753D01*
X225432Y265151D01*
X224900Y265221D01*
Y261300D01*
Y257379D01*
X225432Y257449D01*
X226393Y257847D01*
X227219Y258481D01*
X227279Y258559D01*
X227402Y258677D01*
X227568Y258814D01*
X227733Y258931D01*
X227898Y259030D01*
X228064Y259112D01*
X228232Y259178D01*
X228403Y259229D01*
X228580Y259265D01*
X228674Y259277D01*
X230126D01*
X230220Y259265D01*
X230397Y259229D01*
X230569Y259178D01*
X230736Y259112D01*
X230902Y259030D01*
X231067Y258931D01*
X231232Y258814D01*
X231398Y258677D01*
X231521Y258559D01*
X231581Y258481D01*
X232407Y257847D01*
X233368Y257449D01*
X233900Y257379D01*
Y261300D01*
Y265221D01*
D02*
G37*
G36*
X234900D02*
Y261800D01*
X238321D01*
X238251Y262332D01*
X237853Y263293D01*
X237219Y264119D01*
X236393Y264753D01*
X235432Y265151D01*
X234900Y265221D01*
D02*
G37*
G36*
X238321Y260800D02*
X234900D01*
Y257379D01*
X235432Y257449D01*
X236393Y257847D01*
X237219Y258481D01*
X237853Y259307D01*
X238251Y260268D01*
X238321Y260800D01*
D02*
G37*
G36*
X233900Y255221D02*
X233368Y255151D01*
X232407Y254753D01*
X231581Y254119D01*
X231521Y254041D01*
X231398Y253923D01*
X231232Y253786D01*
X231067Y253669D01*
X230902Y253570D01*
X230736Y253488D01*
X230569Y253422D01*
X230397Y253371D01*
X230220Y253335D01*
X230126Y253323D01*
X228674D01*
X228580Y253335D01*
X228403Y253371D01*
X228232Y253422D01*
X228064Y253488D01*
X227898Y253570D01*
X227733Y253669D01*
X227568Y253786D01*
X227402Y253923D01*
X227279Y254041D01*
X227219Y254119D01*
X226393Y254753D01*
X225432Y255151D01*
X224900Y255221D01*
Y251300D01*
Y247379D01*
X225432Y247449D01*
X226393Y247847D01*
X227219Y248481D01*
X227279Y248559D01*
X227402Y248677D01*
X227568Y248814D01*
X227733Y248931D01*
X227898Y249030D01*
X228064Y249112D01*
X228232Y249178D01*
X228403Y249229D01*
X228580Y249265D01*
X228674Y249277D01*
X230126D01*
X230220Y249265D01*
X230397Y249229D01*
X230569Y249178D01*
X230736Y249112D01*
X230902Y249030D01*
X231067Y248931D01*
X231232Y248814D01*
X231398Y248677D01*
X231521Y248559D01*
X231581Y248481D01*
X232407Y247847D01*
X233368Y247449D01*
X233900Y247379D01*
Y251300D01*
Y255221D01*
D02*
G37*
G36*
X234900D02*
Y251800D01*
X238321D01*
X238251Y252332D01*
X237853Y253293D01*
X237219Y254119D01*
X236393Y254753D01*
X235432Y255151D01*
X234900Y255221D01*
D02*
G37*
G36*
X238321Y250800D02*
X234900D01*
Y247379D01*
X235432Y247449D01*
X236393Y247847D01*
X237219Y248481D01*
X237853Y249307D01*
X238251Y250268D01*
X238321Y250800D01*
D02*
G37*
G36*
X228353Y245253D02*
X220447D01*
Y237347D01*
X228353D01*
Y245253D01*
D02*
G37*
G36*
X234400Y245287D02*
X233368Y245151D01*
X232407Y244753D01*
X231581Y244119D01*
X230947Y243293D01*
X230549Y242332D01*
X230413Y241300D01*
X230549Y240268D01*
X230947Y239307D01*
X231581Y238481D01*
X232407Y237847D01*
X233368Y237449D01*
X234400Y237313D01*
X235432Y237449D01*
X236393Y237847D01*
X237219Y238481D01*
X237853Y239307D01*
X238251Y240268D01*
X238387Y241300D01*
X238251Y242332D01*
X237853Y243293D01*
X237219Y244119D01*
X236393Y244753D01*
X235432Y245151D01*
X234400Y245287D01*
D02*
G37*
G36*
Y235287D02*
X233368Y235151D01*
X232407Y234753D01*
X231581Y234119D01*
X230947Y233293D01*
X230549Y232332D01*
X230413Y231300D01*
X230549Y230268D01*
X230947Y229307D01*
X231581Y228481D01*
X232407Y227847D01*
X233368Y227449D01*
X234400Y227313D01*
X235432Y227449D01*
X236393Y227847D01*
X237219Y228481D01*
X237853Y229307D01*
X238251Y230268D01*
X238387Y231300D01*
X238251Y232332D01*
X237853Y233293D01*
X237219Y234119D01*
X236393Y234753D01*
X235432Y235151D01*
X234400Y235287D01*
D02*
G37*
G36*
X224400D02*
X223368Y235151D01*
X222407Y234753D01*
X221581Y234119D01*
X220947Y233293D01*
X220549Y232332D01*
X220413Y231300D01*
X220549Y230268D01*
X220947Y229307D01*
X221581Y228481D01*
X222407Y227847D01*
X223368Y227449D01*
X224400Y227313D01*
X225432Y227449D01*
X226393Y227847D01*
X227219Y228481D01*
X227853Y229307D01*
X228251Y230268D01*
X228387Y231300D01*
X228251Y232332D01*
X227853Y233293D01*
X227219Y234119D01*
X226393Y234753D01*
X225432Y235151D01*
X224400Y235287D01*
D02*
G37*
G36*
X234400Y225287D02*
X233368Y225151D01*
X232407Y224753D01*
X231581Y224119D01*
X230947Y223293D01*
X230549Y222332D01*
X230413Y221300D01*
X230549Y220268D01*
X230947Y219307D01*
X231581Y218481D01*
X232407Y217847D01*
X233368Y217449D01*
X234400Y217313D01*
X235432Y217449D01*
X236393Y217847D01*
X237219Y218481D01*
X237853Y219307D01*
X238251Y220268D01*
X238387Y221300D01*
X238251Y222332D01*
X237853Y223293D01*
X237219Y224119D01*
X236393Y224753D01*
X235432Y225151D01*
X234400Y225287D01*
D02*
G37*
G36*
X224400D02*
X223368Y225151D01*
X222407Y224753D01*
X221581Y224119D01*
X220947Y223293D01*
X220549Y222332D01*
X220413Y221300D01*
X220549Y220268D01*
X220947Y219307D01*
X221581Y218481D01*
X222407Y217847D01*
X223368Y217449D01*
X224400Y217313D01*
X225432Y217449D01*
X226393Y217847D01*
X227219Y218481D01*
X227853Y219307D01*
X228251Y220268D01*
X228387Y221300D01*
X228251Y222332D01*
X227853Y223293D01*
X227219Y224119D01*
X226393Y224753D01*
X225432Y225151D01*
X224400Y225287D01*
D02*
G37*
G36*
X129900Y217588D02*
X128919Y217459D01*
X128006Y217081D01*
X127221Y216479D01*
X127170Y216412D01*
X126712Y215979D01*
X126500Y215804D01*
X126296Y215654D01*
X126111Y215534D01*
X125946Y215444D01*
X125806Y215382D01*
X125690Y215345D01*
X125615Y215329D01*
X125203D01*
X124700Y215429D01*
X124115Y215313D01*
X123619Y214981D01*
X117819Y209181D01*
X117487Y208685D01*
X117371Y208100D01*
Y172433D01*
X98674Y153737D01*
X98599Y153688D01*
X98478Y153628D01*
X98317Y153568D01*
X98116Y153510D01*
X97875Y153461D01*
X97607Y153422D01*
X96915Y153375D01*
X96607Y153373D01*
X96500Y153387D01*
X95468Y153251D01*
X94507Y152853D01*
X93681Y152219D01*
X93047Y151393D01*
X92649Y150432D01*
X92513Y149400D01*
X92649Y148368D01*
X93047Y147407D01*
X93681Y146581D01*
X94507Y145947D01*
X95468Y145549D01*
X96500Y145413D01*
X97532Y145549D01*
X98493Y145947D01*
X99319Y146581D01*
X99953Y147407D01*
X100351Y148368D01*
X100487Y149400D01*
X100473Y149507D01*
X100475Y149815D01*
X100522Y150507D01*
X100561Y150775D01*
X100610Y151016D01*
X100668Y151217D01*
X100728Y151378D01*
X100788Y151499D01*
X100837Y151574D01*
X119981Y170719D01*
X120313Y171215D01*
X120429Y171800D01*
Y207467D01*
X125233Y212271D01*
X125615D01*
X125690Y212255D01*
X125806Y212218D01*
X125947Y212156D01*
X126111Y212066D01*
X126296Y211946D01*
X126490Y211803D01*
X126964Y211393D01*
X127164Y211196D01*
X127221Y211121D01*
X128006Y210519D01*
X128919Y210141D01*
X129900Y210012D01*
X130880Y210141D01*
X131794Y210519D01*
X132579Y211121D01*
X133181Y211906D01*
X133559Y212820D01*
X133688Y213800D01*
X133559Y214780D01*
X133181Y215694D01*
X132579Y216479D01*
X131794Y217081D01*
X130880Y217459D01*
X129900Y217588D01*
D02*
G37*
G36*
X45386Y218004D02*
Y211205D01*
X47953D01*
Y218004D01*
X45386D01*
D02*
G37*
G36*
X31000D02*
X28433D01*
Y211205D01*
X31000D01*
Y218004D01*
D02*
G37*
G36*
X234400Y215287D02*
X233368Y215151D01*
X232407Y214753D01*
X231581Y214119D01*
X230947Y213293D01*
X230549Y212332D01*
X230413Y211300D01*
X230549Y210268D01*
X230947Y209307D01*
X231581Y208481D01*
X232407Y207847D01*
X233368Y207449D01*
X234400Y207313D01*
X235432Y207449D01*
X236393Y207847D01*
X237219Y208481D01*
X237853Y209307D01*
X238251Y210268D01*
X238387Y211300D01*
X238251Y212332D01*
X237853Y213293D01*
X237219Y214119D01*
X236393Y214753D01*
X235432Y215151D01*
X234400Y215287D01*
D02*
G37*
G36*
X224400D02*
X223368Y215151D01*
X222407Y214753D01*
X221581Y214119D01*
X220947Y213293D01*
X220549Y212332D01*
X220413Y211300D01*
X220549Y210268D01*
X220947Y209307D01*
X221581Y208481D01*
X222407Y207847D01*
X223368Y207449D01*
X224400Y207313D01*
X225432Y207449D01*
X226393Y207847D01*
X227219Y208481D01*
X227853Y209307D01*
X228251Y210268D01*
X228387Y211300D01*
X228251Y212332D01*
X227853Y213293D01*
X227219Y214119D01*
X226393Y214753D01*
X225432Y215151D01*
X224400Y215287D01*
D02*
G37*
G36*
X64400D02*
X63368Y215151D01*
X62407Y214753D01*
X61581Y214119D01*
X60947Y213293D01*
X60549Y212332D01*
X60413Y211300D01*
X60549Y210268D01*
X60947Y209307D01*
X61581Y208481D01*
X62407Y207847D01*
X63368Y207449D01*
X64400Y207313D01*
X65432Y207449D01*
X66393Y207847D01*
X67219Y208481D01*
X67853Y209307D01*
X68251Y210268D01*
X68387Y211300D01*
X68251Y212332D01*
X67853Y213293D01*
X67219Y214119D01*
X66393Y214753D01*
X65432Y215151D01*
X64400Y215287D01*
D02*
G37*
G36*
X200650Y207334D02*
X200150D01*
X199106Y207197D01*
X198133Y206794D01*
X197297Y206153D01*
X196656Y205317D01*
X196253Y204344D01*
X196116Y203300D01*
X196253Y202256D01*
X196656Y201283D01*
X197297Y200447D01*
X198133Y199806D01*
X199106Y199403D01*
X200150Y199266D01*
X200650D01*
X201694Y199403D01*
X202667Y199806D01*
X203503Y200447D01*
X204144Y201283D01*
X204547Y202256D01*
X204684Y203300D01*
X204547Y204344D01*
X204144Y205317D01*
X203503Y206153D01*
X202667Y206794D01*
X201694Y207197D01*
X200650Y207334D01*
D02*
G37*
G36*
X234400Y205287D02*
X233368Y205151D01*
X232407Y204753D01*
X231581Y204119D01*
X230947Y203293D01*
X230549Y202332D01*
X230413Y201300D01*
X230549Y200268D01*
X230947Y199307D01*
X231581Y198481D01*
X232407Y197847D01*
X233368Y197449D01*
X234400Y197313D01*
X235432Y197449D01*
X236393Y197847D01*
X237219Y198481D01*
X237853Y199307D01*
X238251Y200268D01*
X238387Y201300D01*
X238251Y202332D01*
X237853Y203293D01*
X237219Y204119D01*
X236393Y204753D01*
X235432Y205151D01*
X234400Y205287D01*
D02*
G37*
G36*
X224400D02*
X223368Y205151D01*
X222407Y204753D01*
X221581Y204119D01*
X220947Y203293D01*
X220549Y202332D01*
X220413Y201300D01*
X220549Y200268D01*
X220947Y199307D01*
X221581Y198481D01*
X222407Y197847D01*
X223368Y197449D01*
X224400Y197313D01*
X225432Y197449D01*
X226393Y197847D01*
X227219Y198481D01*
X227853Y199307D01*
X228251Y200268D01*
X228387Y201300D01*
X228251Y202332D01*
X227853Y203293D01*
X227219Y204119D01*
X226393Y204753D01*
X225432Y205151D01*
X224400Y205287D01*
D02*
G37*
G36*
X64400D02*
X63368Y205151D01*
X62407Y204753D01*
X61581Y204119D01*
X60947Y203293D01*
X60549Y202332D01*
X60413Y201300D01*
X60549Y200268D01*
X60947Y199307D01*
X61581Y198481D01*
X62407Y197847D01*
X63368Y197449D01*
X64400Y197313D01*
X65432Y197449D01*
X66393Y197847D01*
X67219Y198481D01*
X67853Y199307D01*
X68251Y200268D01*
X68387Y201300D01*
X68251Y202332D01*
X67853Y203293D01*
X67219Y204119D01*
X66393Y204753D01*
X65432Y205151D01*
X64400Y205287D01*
D02*
G37*
G36*
X204650Y197290D02*
X196150D01*
Y189290D01*
X204650D01*
Y197290D01*
D02*
G37*
G36*
X173623Y213300D02*
X166177D01*
X166241Y212820D01*
X166619Y211906D01*
X167221Y211121D01*
X167289Y211069D01*
X167384Y210969D01*
X167495Y210833D01*
X167590Y210695D01*
X167670Y210555D01*
X167738Y210410D01*
X167794Y210260D01*
X167837Y210103D01*
X167869Y209937D01*
X167877Y209866D01*
Y191384D01*
X167869Y191313D01*
X167837Y191147D01*
X167794Y190990D01*
X167738Y190840D01*
X167670Y190695D01*
X167590Y190555D01*
X167495Y190417D01*
X167384Y190281D01*
X167289Y190180D01*
X167221Y190129D01*
X166619Y189344D01*
X166241Y188431D01*
X166177Y187950D01*
X173623D01*
X173559Y188431D01*
X173181Y189344D01*
X172579Y190129D01*
X172511Y190181D01*
X172416Y190281D01*
X172305Y190417D01*
X172210Y190555D01*
X172130Y190695D01*
X172062Y190840D01*
X172006Y190990D01*
X171963Y191147D01*
X171931Y191313D01*
X171923Y191384D01*
Y209866D01*
X171931Y209937D01*
X171963Y210103D01*
X172006Y210260D01*
X172062Y210410D01*
X172130Y210555D01*
X172210Y210695D01*
X172305Y210833D01*
X172416Y210969D01*
X172511Y211069D01*
X172579Y211121D01*
X173181Y211906D01*
X173559Y212820D01*
X173623Y213300D01*
D02*
G37*
G36*
X234400Y195287D02*
X233368Y195151D01*
X232407Y194753D01*
X231581Y194119D01*
X230947Y193293D01*
X230549Y192332D01*
X230413Y191300D01*
X230549Y190268D01*
X230947Y189307D01*
X231581Y188481D01*
X232407Y187847D01*
X233368Y187449D01*
X234400Y187313D01*
X235432Y187449D01*
X236393Y187847D01*
X237219Y188481D01*
X237853Y189307D01*
X238251Y190268D01*
X238387Y191300D01*
X238251Y192332D01*
X237853Y193293D01*
X237219Y194119D01*
X236393Y194753D01*
X235432Y195151D01*
X234400Y195287D01*
D02*
G37*
G36*
X224400D02*
X223368Y195151D01*
X222407Y194753D01*
X221581Y194119D01*
X220947Y193293D01*
X220549Y192332D01*
X220413Y191300D01*
X220549Y190268D01*
X220947Y189307D01*
X221581Y188481D01*
X222407Y187847D01*
X223368Y187449D01*
X224400Y187313D01*
X225432Y187449D01*
X226393Y187847D01*
X227219Y188481D01*
X227853Y189307D01*
X228251Y190268D01*
X228387Y191300D01*
X228251Y192332D01*
X227853Y193293D01*
X227219Y194119D01*
X226393Y194753D01*
X225432Y195151D01*
X224400Y195287D01*
D02*
G37*
G36*
X64400D02*
X63368Y195151D01*
X62407Y194753D01*
X61581Y194119D01*
X60947Y193293D01*
X60549Y192332D01*
X60413Y191300D01*
X60549Y190268D01*
X60947Y189307D01*
X61581Y188481D01*
X62407Y187847D01*
X63368Y187449D01*
X64400Y187313D01*
X65432Y187449D01*
X66393Y187847D01*
X67219Y188481D01*
X67853Y189307D01*
X68251Y190268D01*
X68387Y191300D01*
X68251Y192332D01*
X67853Y193293D01*
X67219Y194119D01*
X66393Y194753D01*
X65432Y195151D01*
X64400Y195287D01*
D02*
G37*
G36*
X234400Y185287D02*
X233368Y185151D01*
X232407Y184753D01*
X231581Y184119D01*
X230947Y183293D01*
X230549Y182332D01*
X230413Y181300D01*
X230549Y180268D01*
X230947Y179307D01*
X231581Y178481D01*
X232407Y177847D01*
X233368Y177449D01*
X234400Y177313D01*
X235432Y177449D01*
X236393Y177847D01*
X237219Y178481D01*
X237853Y179307D01*
X238251Y180268D01*
X238387Y181300D01*
X238251Y182332D01*
X237853Y183293D01*
X237219Y184119D01*
X236393Y184753D01*
X235432Y185151D01*
X234400Y185287D01*
D02*
G37*
G36*
X224400D02*
X223368Y185151D01*
X222407Y184753D01*
X221581Y184119D01*
X220947Y183293D01*
X220549Y182332D01*
X220413Y181300D01*
X220549Y180268D01*
X220947Y179307D01*
X221581Y178481D01*
X222407Y177847D01*
X223368Y177449D01*
X224400Y177313D01*
X225432Y177449D01*
X226393Y177847D01*
X227219Y178481D01*
X227853Y179307D01*
X228251Y180268D01*
X228387Y181300D01*
X228251Y182332D01*
X227853Y183293D01*
X227219Y184119D01*
X226393Y184753D01*
X225432Y185151D01*
X224400Y185287D01*
D02*
G37*
G36*
X64400D02*
X63368Y185151D01*
X62407Y184753D01*
X61581Y184119D01*
X60947Y183293D01*
X60549Y182332D01*
X60413Y181300D01*
X60549Y180268D01*
X60947Y179307D01*
X61581Y178481D01*
X62407Y177847D01*
X63368Y177449D01*
X64400Y177313D01*
X65432Y177449D01*
X66393Y177847D01*
X67219Y178481D01*
X67853Y179307D01*
X68251Y180268D01*
X68387Y181300D01*
X68251Y182332D01*
X67853Y183293D01*
X67219Y184119D01*
X66393Y184753D01*
X65432Y185151D01*
X64400Y185287D01*
D02*
G37*
G36*
X20100Y260030D02*
X19186Y259910D01*
X18335Y259557D01*
X17604Y258996D01*
X17043Y258265D01*
X16690Y257414D01*
X16570Y256500D01*
X16690Y255586D01*
X17043Y254735D01*
X17604Y254004D01*
X19716Y251892D01*
Y239754D01*
X19836Y238841D01*
X20189Y237989D01*
X20750Y237258D01*
X34663Y223345D01*
Y218464D01*
X34567Y218004D01*
X32000D01*
Y210705D01*
X31500D01*
Y210205D01*
X28433D01*
Y203406D01*
X28474D01*
Y202700D01*
X28577Y201917D01*
X28879Y201187D01*
X29360Y200560D01*
X31560Y198360D01*
X32187Y197880D01*
X32917Y197577D01*
X33700Y197474D01*
X41356D01*
Y194437D01*
X41342Y193935D01*
X41274Y193156D01*
X41163Y192493D01*
X41018Y191953D01*
X40848Y191538D01*
X40669Y191245D01*
X40495Y191058D01*
X40326Y190946D01*
X40135Y190878D01*
X39779Y190841D01*
X39773Y190839D01*
X32000D01*
Y174000D01*
X53071D01*
Y190839D01*
X49999D01*
X49992Y190841D01*
X49637Y190878D01*
X49445Y190946D01*
X49276Y191058D01*
X49103Y191245D01*
X48924Y191538D01*
X48754Y191954D01*
X48608Y192493D01*
X48498Y193156D01*
X48429Y193935D01*
X48416Y194437D01*
Y203114D01*
X48296Y204028D01*
X47953Y204856D01*
Y210205D01*
X44886D01*
Y210705D01*
X44386D01*
Y218004D01*
X41819D01*
X41723Y218464D01*
Y224807D01*
X41603Y225721D01*
X41250Y226572D01*
X40689Y227303D01*
X26776Y241216D01*
Y253354D01*
X26656Y254268D01*
X26303Y255119D01*
X25742Y255850D01*
X22596Y258996D01*
X21865Y259557D01*
X21014Y259910D01*
X20100Y260030D01*
D02*
G37*
G36*
X31000Y190839D02*
X9929D01*
Y174000D01*
X31000D01*
Y190839D01*
D02*
G37*
G36*
X234400Y175287D02*
X233368Y175151D01*
X232407Y174753D01*
X231581Y174119D01*
X230947Y173293D01*
X230549Y172332D01*
X230413Y171300D01*
X230549Y170268D01*
X230947Y169307D01*
X231581Y168481D01*
X232407Y167847D01*
X233368Y167449D01*
X234400Y167313D01*
X235432Y167449D01*
X236393Y167847D01*
X237219Y168481D01*
X237853Y169307D01*
X238251Y170268D01*
X238387Y171300D01*
X238251Y172332D01*
X237853Y173293D01*
X237219Y174119D01*
X236393Y174753D01*
X235432Y175151D01*
X234400Y175287D01*
D02*
G37*
G36*
X224400D02*
X223368Y175151D01*
X222407Y174753D01*
X221581Y174119D01*
X220947Y173293D01*
X220549Y172332D01*
X220413Y171300D01*
X220549Y170268D01*
X220947Y169307D01*
X221581Y168481D01*
X222407Y167847D01*
X223368Y167449D01*
X224400Y167313D01*
X225432Y167449D01*
X226393Y167847D01*
X227219Y168481D01*
X227853Y169307D01*
X228251Y170268D01*
X228387Y171300D01*
X228251Y172332D01*
X227853Y173293D01*
X227219Y174119D01*
X226393Y174753D01*
X225432Y175151D01*
X224400Y175287D01*
D02*
G37*
G36*
X64400D02*
X63368Y175151D01*
X62407Y174753D01*
X61581Y174119D01*
X60947Y173293D01*
X60549Y172332D01*
X60413Y171300D01*
X60549Y170268D01*
X60947Y169307D01*
X61581Y168481D01*
X62407Y167847D01*
X63368Y167449D01*
X64400Y167313D01*
X65432Y167449D01*
X66393Y167847D01*
X67219Y168481D01*
X67853Y169307D01*
X68251Y170268D01*
X68387Y171300D01*
X68251Y172332D01*
X67853Y173293D01*
X67219Y174119D01*
X66393Y174753D01*
X65432Y175151D01*
X64400Y175287D01*
D02*
G37*
G36*
X173623Y186950D02*
X166177D01*
X166241Y186469D01*
X166619Y185556D01*
X167221Y184771D01*
X167325Y184692D01*
X167328Y184686D01*
X167484Y184533D01*
X167595Y184405D01*
X167690Y184275D01*
X167770Y184142D01*
X167837Y184005D01*
X167893Y183861D01*
X167937Y183709D01*
X167969Y183547D01*
X167977Y183475D01*
Y165033D01*
X167969Y164963D01*
X167937Y164797D01*
X167894Y164640D01*
X167838Y164490D01*
X167770Y164345D01*
X167690Y164205D01*
X167595Y164067D01*
X167484Y163931D01*
X167389Y163830D01*
X167321Y163779D01*
X166719Y162994D01*
X166341Y162081D01*
X166278Y161600D01*
X173723D01*
X173659Y162081D01*
X173281Y162994D01*
X172679Y163779D01*
X172611Y163830D01*
X172516Y163931D01*
X172405Y164067D01*
X172310Y164205D01*
X172230Y164345D01*
X172162Y164490D01*
X172107Y164640D01*
X172063Y164797D01*
X172031Y164963D01*
X172023Y165033D01*
Y183563D01*
X172030Y183631D01*
X172062Y183801D01*
X172105Y183964D01*
X172161Y184120D01*
X172228Y184271D01*
X172309Y184419D01*
X172404Y184565D01*
X172513Y184709D01*
X172548Y184748D01*
X172579Y184771D01*
X172643Y184856D01*
X172663Y184878D01*
X172671Y184892D01*
X173181Y185556D01*
X173559Y186469D01*
X173623Y186950D01*
D02*
G37*
G36*
X200650Y169439D02*
X200150D01*
X199106Y169302D01*
X198133Y168899D01*
X197297Y168258D01*
X196656Y167422D01*
X196253Y166449D01*
X196116Y165405D01*
X196253Y164361D01*
X196656Y163388D01*
X197297Y162552D01*
X198133Y161911D01*
X199106Y161508D01*
X200150Y161371D01*
X200650D01*
X201694Y161508D01*
X202667Y161911D01*
X203503Y162552D01*
X204144Y163388D01*
X204547Y164361D01*
X204684Y165405D01*
X204547Y166449D01*
X204144Y167422D01*
X203503Y168258D01*
X202667Y168899D01*
X201694Y169302D01*
X200650Y169439D01*
D02*
G37*
G36*
X234400Y165287D02*
X233368Y165151D01*
X232407Y164753D01*
X231581Y164119D01*
X230947Y163293D01*
X230549Y162332D01*
X230413Y161300D01*
X230549Y160268D01*
X230947Y159307D01*
X231581Y158481D01*
X232407Y157847D01*
X233368Y157449D01*
X234400Y157313D01*
X235432Y157449D01*
X236393Y157847D01*
X237219Y158481D01*
X237853Y159307D01*
X238251Y160268D01*
X238387Y161300D01*
X238251Y162332D01*
X237853Y163293D01*
X237219Y164119D01*
X236393Y164753D01*
X235432Y165151D01*
X234400Y165287D01*
D02*
G37*
G36*
X224400D02*
X223368Y165151D01*
X222407Y164753D01*
X221581Y164119D01*
X220947Y163293D01*
X220549Y162332D01*
X220413Y161300D01*
X220549Y160268D01*
X220947Y159307D01*
X221581Y158481D01*
X222407Y157847D01*
X223368Y157449D01*
X224400Y157313D01*
X225432Y157449D01*
X226393Y157847D01*
X227219Y158481D01*
X227853Y159307D01*
X228251Y160268D01*
X228387Y161300D01*
X228251Y162332D01*
X227853Y163293D01*
X227219Y164119D01*
X226393Y164753D01*
X225432Y165151D01*
X224400Y165287D01*
D02*
G37*
G36*
X64400D02*
X63368Y165151D01*
X62407Y164753D01*
X61581Y164119D01*
X60947Y163293D01*
X60549Y162332D01*
X60413Y161300D01*
X60549Y160268D01*
X60947Y159307D01*
X61581Y158481D01*
X62407Y157847D01*
X63368Y157449D01*
X64400Y157313D01*
X65432Y157449D01*
X66393Y157847D01*
X67219Y158481D01*
X67853Y159307D01*
X68251Y160268D01*
X68387Y161300D01*
X68251Y162332D01*
X67853Y163293D01*
X67219Y164119D01*
X66393Y164753D01*
X65432Y165151D01*
X64400Y165287D01*
D02*
G37*
G36*
X130000Y164888D02*
X129019Y164759D01*
X128106Y164381D01*
X127321Y163779D01*
X126719Y162994D01*
X126629Y162775D01*
X126597Y162735D01*
X126596Y162732D01*
X126594Y162729D01*
X125880Y161284D01*
X125502Y160616D01*
X125426Y160499D01*
X125399Y160461D01*
X98674Y133737D01*
X98599Y133688D01*
X98478Y133628D01*
X98317Y133568D01*
X98116Y133510D01*
X97875Y133461D01*
X97607Y133422D01*
X96915Y133375D01*
X96607Y133373D01*
X96500Y133387D01*
X95468Y133251D01*
X94507Y132853D01*
X93681Y132219D01*
X93047Y131393D01*
X92649Y130432D01*
X92513Y129400D01*
X92649Y128368D01*
X93047Y127407D01*
X93681Y126581D01*
X94507Y125947D01*
X95468Y125549D01*
X96500Y125413D01*
X97532Y125549D01*
X98493Y125947D01*
X99319Y126581D01*
X99953Y127407D01*
X100351Y128368D01*
X100487Y129400D01*
X100473Y129507D01*
X100475Y129815D01*
X100522Y130507D01*
X100561Y130775D01*
X100610Y131016D01*
X100668Y131217D01*
X100728Y131378D01*
X100788Y131499D01*
X100837Y131574D01*
X127207Y157944D01*
X127255Y157975D01*
X127306Y157997D01*
X127361Y158011D01*
X127434Y158019D01*
X127532Y158015D01*
X127660Y157993D01*
X127819Y157947D01*
X128008Y157873D01*
X128084Y157836D01*
X128106Y157819D01*
X128188Y157785D01*
X128255Y157752D01*
X128288Y157744D01*
X129019Y157441D01*
X130000Y157312D01*
X130981Y157441D01*
X131894Y157819D01*
X132679Y158421D01*
X133281Y159206D01*
X133659Y160119D01*
X133788Y161100D01*
X133659Y162081D01*
X133281Y162994D01*
X132679Y163779D01*
X131894Y164381D01*
X130981Y164759D01*
X130000Y164888D01*
D02*
G37*
G36*
X96500Y163387D02*
X95468Y163251D01*
X94507Y162853D01*
X93681Y162219D01*
X93047Y161393D01*
X92649Y160432D01*
X92513Y159400D01*
X92649Y158368D01*
X93047Y157407D01*
X93681Y156581D01*
X94507Y155947D01*
X95468Y155549D01*
X96500Y155413D01*
X97532Y155549D01*
X98493Y155947D01*
X99319Y156581D01*
X99953Y157407D01*
X100351Y158368D01*
X100487Y159400D01*
X100351Y160432D01*
X99953Y161393D01*
X99319Y162219D01*
X98493Y162853D01*
X97532Y163251D01*
X96500Y163387D01*
D02*
G37*
G36*
X204650Y159395D02*
X196150D01*
Y151395D01*
X204650D01*
Y159395D01*
D02*
G37*
G36*
X234400Y155287D02*
X233368Y155151D01*
X232407Y154753D01*
X231581Y154119D01*
X230947Y153293D01*
X230549Y152332D01*
X230413Y151300D01*
X230549Y150268D01*
X230947Y149307D01*
X231581Y148481D01*
X232407Y147847D01*
X233368Y147449D01*
X234400Y147313D01*
X235432Y147449D01*
X236393Y147847D01*
X237219Y148481D01*
X237853Y149307D01*
X238251Y150268D01*
X238387Y151300D01*
X238251Y152332D01*
X237853Y153293D01*
X237219Y154119D01*
X236393Y154753D01*
X235432Y155151D01*
X234400Y155287D01*
D02*
G37*
G36*
X224400D02*
X223368Y155151D01*
X222407Y154753D01*
X221581Y154119D01*
X220947Y153293D01*
X220549Y152332D01*
X220413Y151300D01*
X220549Y150268D01*
X220947Y149307D01*
X221581Y148481D01*
X222407Y147847D01*
X223368Y147449D01*
X224400Y147313D01*
X225432Y147449D01*
X226393Y147847D01*
X227219Y148481D01*
X227853Y149307D01*
X228251Y150268D01*
X228387Y151300D01*
X228251Y152332D01*
X227853Y153293D01*
X227219Y154119D01*
X226393Y154753D01*
X225432Y155151D01*
X224400Y155287D01*
D02*
G37*
G36*
X64400D02*
X63368Y155151D01*
X62407Y154753D01*
X61581Y154119D01*
X60947Y153293D01*
X60549Y152332D01*
X60413Y151300D01*
X60549Y150268D01*
X60947Y149307D01*
X61581Y148481D01*
X62407Y147847D01*
X63368Y147449D01*
X64400Y147313D01*
X65432Y147449D01*
X66393Y147847D01*
X67219Y148481D01*
X67853Y149307D01*
X68251Y150268D01*
X68387Y151300D01*
X68251Y152332D01*
X67853Y153293D01*
X67219Y154119D01*
X66393Y154753D01*
X65432Y155151D01*
X64400Y155287D01*
D02*
G37*
G36*
X129900Y191238D02*
X128919Y191109D01*
X128006Y190731D01*
X127221Y190129D01*
X126619Y189344D01*
X126241Y188431D01*
X126112Y187450D01*
X126241Y186469D01*
X126619Y185556D01*
X127221Y184771D01*
X127288Y184720D01*
X127721Y184262D01*
X127896Y184050D01*
X128046Y183846D01*
X128166Y183661D01*
X128256Y183496D01*
X128318Y183356D01*
X128355Y183240D01*
X128371Y183165D01*
Y173433D01*
X98674Y143737D01*
X98599Y143688D01*
X98478Y143628D01*
X98317Y143568D01*
X98116Y143510D01*
X97875Y143461D01*
X97607Y143422D01*
X96915Y143375D01*
X96607Y143373D01*
X96500Y143387D01*
X95468Y143251D01*
X94507Y142853D01*
X93681Y142219D01*
X93047Y141393D01*
X92649Y140432D01*
X92513Y139400D01*
X92649Y138368D01*
X93047Y137407D01*
X93681Y136581D01*
X94507Y135947D01*
X95468Y135549D01*
X96500Y135413D01*
X97532Y135549D01*
X98493Y135947D01*
X99319Y136581D01*
X99953Y137407D01*
X100351Y138368D01*
X100487Y139400D01*
X100473Y139507D01*
X100475Y139815D01*
X100522Y140507D01*
X100561Y140775D01*
X100610Y141016D01*
X100668Y141217D01*
X100728Y141378D01*
X100788Y141499D01*
X100837Y141574D01*
X130981Y171719D01*
X131313Y172215D01*
X131429Y172800D01*
Y183165D01*
X131445Y183240D01*
X131482Y183356D01*
X131544Y183497D01*
X131634Y183661D01*
X131754Y183846D01*
X131897Y184040D01*
X132307Y184514D01*
X132504Y184714D01*
X132579Y184771D01*
X133181Y185556D01*
X133559Y186469D01*
X133688Y187450D01*
X133559Y188431D01*
X133181Y189344D01*
X132579Y190129D01*
X131794Y190731D01*
X130880Y191109D01*
X129900Y191238D01*
D02*
G37*
G36*
X234400Y145287D02*
X233368Y145151D01*
X232407Y144753D01*
X231581Y144119D01*
X230947Y143293D01*
X230549Y142332D01*
X230413Y141300D01*
X230549Y140268D01*
X230947Y139307D01*
X231581Y138481D01*
X232407Y137847D01*
X233368Y137449D01*
X234400Y137313D01*
X235432Y137449D01*
X236393Y137847D01*
X237219Y138481D01*
X237853Y139307D01*
X238251Y140268D01*
X238387Y141300D01*
X238251Y142332D01*
X237853Y143293D01*
X237219Y144119D01*
X236393Y144753D01*
X235432Y145151D01*
X234400Y145287D01*
D02*
G37*
G36*
X224400D02*
X223368Y145151D01*
X222407Y144753D01*
X221581Y144119D01*
X220947Y143293D01*
X220549Y142332D01*
X220413Y141300D01*
X220549Y140268D01*
X220947Y139307D01*
X221581Y138481D01*
X222407Y137847D01*
X223368Y137449D01*
X224400Y137313D01*
X225432Y137449D01*
X226393Y137847D01*
X227219Y138481D01*
X227853Y139307D01*
X228251Y140268D01*
X228387Y141300D01*
X228251Y142332D01*
X227853Y143293D01*
X227219Y144119D01*
X226393Y144753D01*
X225432Y145151D01*
X224400Y145287D01*
D02*
G37*
G36*
X64400D02*
X63368Y145151D01*
X62407Y144753D01*
X61581Y144119D01*
X60947Y143293D01*
X60549Y142332D01*
X60413Y141300D01*
X60549Y140268D01*
X60947Y139307D01*
X61581Y138481D01*
X62407Y137847D01*
X63368Y137449D01*
X64400Y137313D01*
X65432Y137449D01*
X66393Y137847D01*
X67219Y138481D01*
X67853Y139307D01*
X68251Y140268D01*
X68387Y141300D01*
X68251Y142332D01*
X67853Y143293D01*
X67219Y144119D01*
X66393Y144753D01*
X65432Y145151D01*
X64400Y145287D01*
D02*
G37*
G36*
X158800Y135223D02*
X158026Y135069D01*
X157517Y134729D01*
X136300D01*
X135715Y134613D01*
X135219Y134281D01*
X101166Y100229D01*
X101104D01*
X101016Y100248D01*
X100889Y100291D01*
X100732Y100362D01*
X100549Y100464D01*
X100343Y100599D01*
X100127Y100761D01*
X99604Y101217D01*
X99385Y101434D01*
X99319Y101519D01*
X98493Y102153D01*
X97532Y102551D01*
X96500Y102687D01*
X95468Y102551D01*
X94507Y102153D01*
X93681Y101519D01*
X93047Y100693D01*
X92649Y99732D01*
X92513Y98700D01*
X92649Y97668D01*
X93047Y96707D01*
X93681Y95881D01*
X94507Y95247D01*
X95468Y94849D01*
X96500Y94713D01*
X97532Y94849D01*
X98493Y95247D01*
X99319Y95881D01*
X99385Y95966D01*
X99605Y96183D01*
X100127Y96639D01*
X100343Y96801D01*
X100549Y96936D01*
X100732Y97038D01*
X100889Y97109D01*
X101016Y97152D01*
X101104Y97171D01*
X101800D01*
X102385Y97287D01*
X102881Y97619D01*
X136934Y131671D01*
X157517D01*
X158026Y131331D01*
X158800Y131177D01*
X159574Y131331D01*
X160231Y131769D01*
X160669Y132426D01*
X160823Y133200D01*
X160669Y133974D01*
X160231Y134631D01*
X159574Y135069D01*
X158800Y135223D01*
D02*
G37*
G36*
X234400Y135287D02*
X233368Y135151D01*
X232407Y134753D01*
X231581Y134119D01*
X230947Y133293D01*
X230549Y132332D01*
X230413Y131300D01*
X230549Y130268D01*
X230947Y129307D01*
X231581Y128481D01*
X232407Y127847D01*
X233368Y127449D01*
X234400Y127313D01*
X235432Y127449D01*
X236393Y127847D01*
X237219Y128481D01*
X237853Y129307D01*
X238251Y130268D01*
X238387Y131300D01*
X238251Y132332D01*
X237853Y133293D01*
X237219Y134119D01*
X236393Y134753D01*
X235432Y135151D01*
X234400Y135287D01*
D02*
G37*
G36*
X224400D02*
X223368Y135151D01*
X222407Y134753D01*
X221581Y134119D01*
X220947Y133293D01*
X220549Y132332D01*
X220413Y131300D01*
X220549Y130268D01*
X220947Y129307D01*
X221581Y128481D01*
X222407Y127847D01*
X223368Y127449D01*
X224400Y127313D01*
X225432Y127449D01*
X226393Y127847D01*
X227219Y128481D01*
X227853Y129307D01*
X228251Y130268D01*
X228387Y131300D01*
X228251Y132332D01*
X227853Y133293D01*
X227219Y134119D01*
X226393Y134753D01*
X225432Y135151D01*
X224400Y135287D01*
D02*
G37*
G36*
X64400D02*
X63368Y135151D01*
X62407Y134753D01*
X61581Y134119D01*
X60947Y133293D01*
X60549Y132332D01*
X60413Y131300D01*
X60549Y130268D01*
X60947Y129307D01*
X61581Y128481D01*
X62407Y127847D01*
X63368Y127449D01*
X64400Y127313D01*
X65432Y127449D01*
X66393Y127847D01*
X67219Y128481D01*
X67853Y129307D01*
X68251Y130268D01*
X68387Y131300D01*
X68251Y132332D01*
X67853Y133293D01*
X67219Y134119D01*
X66393Y134753D01*
X65432Y135151D01*
X64400Y135287D01*
D02*
G37*
G36*
X200650Y131545D02*
X200150D01*
X199106Y131407D01*
X198133Y131004D01*
X197297Y130363D01*
X196656Y129527D01*
X196253Y128554D01*
X196116Y127510D01*
X196253Y126466D01*
X196656Y125493D01*
X197297Y124657D01*
X198133Y124016D01*
X199106Y123613D01*
X200150Y123476D01*
X200650D01*
X201694Y123613D01*
X202667Y124016D01*
X203503Y124657D01*
X204144Y125493D01*
X204547Y126466D01*
X204684Y127510D01*
X204547Y128554D01*
X204144Y129527D01*
X203503Y130363D01*
X202667Y131004D01*
X201694Y131407D01*
X200650Y131545D01*
D02*
G37*
G36*
X234400Y125287D02*
X233368Y125151D01*
X232407Y124753D01*
X231581Y124119D01*
X230947Y123293D01*
X230549Y122332D01*
X230413Y121300D01*
X230549Y120268D01*
X230947Y119307D01*
X231581Y118481D01*
X232407Y117847D01*
X233368Y117449D01*
X234400Y117313D01*
X235432Y117449D01*
X236393Y117847D01*
X237219Y118481D01*
X237853Y119307D01*
X238251Y120268D01*
X238387Y121300D01*
X238251Y122332D01*
X237853Y123293D01*
X237219Y124119D01*
X236393Y124753D01*
X235432Y125151D01*
X234400Y125287D01*
D02*
G37*
G36*
X224400D02*
X223368Y125151D01*
X222407Y124753D01*
X221581Y124119D01*
X220947Y123293D01*
X220549Y122332D01*
X220413Y121300D01*
X220549Y120268D01*
X220947Y119307D01*
X221581Y118481D01*
X222407Y117847D01*
X223368Y117449D01*
X224400Y117313D01*
X225432Y117449D01*
X226393Y117847D01*
X227219Y118481D01*
X227853Y119307D01*
X228251Y120268D01*
X228387Y121300D01*
X228251Y122332D01*
X227853Y123293D01*
X227219Y124119D01*
X226393Y124753D01*
X225432Y125151D01*
X224400Y125287D01*
D02*
G37*
G36*
X64400D02*
X63368Y125151D01*
X62407Y124753D01*
X61581Y124119D01*
X60947Y123293D01*
X60549Y122332D01*
X60413Y121300D01*
X60549Y120268D01*
X60947Y119307D01*
X61581Y118481D01*
X62407Y117847D01*
X63368Y117449D01*
X64400Y117313D01*
X65432Y117449D01*
X66393Y117847D01*
X67219Y118481D01*
X67853Y119307D01*
X68251Y120268D01*
X68387Y121300D01*
X68251Y122332D01*
X67853Y123293D01*
X67219Y124119D01*
X66393Y124753D01*
X65432Y125151D01*
X64400Y125287D01*
D02*
G37*
G36*
X204650Y121500D02*
X196150D01*
Y113500D01*
X204650D01*
Y121500D01*
D02*
G37*
G36*
X173723Y160600D02*
X166278D01*
X166341Y160119D01*
X166719Y159206D01*
X167321Y158421D01*
X167389Y158370D01*
X167484Y158269D01*
X167595Y158133D01*
X167690Y157995D01*
X167770Y157855D01*
X167838Y157710D01*
X167894Y157560D01*
X167937Y157403D01*
X167969Y157237D01*
X167977Y157167D01*
Y120038D01*
X160662Y112723D01*
X158145D01*
X158000Y112736D01*
X157790Y112771D01*
X157642Y112810D01*
X157628Y112816D01*
Y114594D01*
X154845D01*
Y110700D01*
Y106806D01*
X157628D01*
Y108584D01*
X157642Y108590D01*
X157790Y108629D01*
X158000Y108664D01*
X158145Y108677D01*
X161500D01*
X162274Y108831D01*
X162642Y109077D01*
X180262D01*
X216377Y72962D01*
Y36100D01*
X216531Y35326D01*
X216969Y34669D01*
X217344Y34295D01*
X217279Y33800D01*
X220700D01*
Y37321D01*
X220423Y37564D01*
Y69265D01*
X220923Y69365D01*
X220947Y69307D01*
X221581Y68481D01*
X222407Y67847D01*
X223368Y67449D01*
X224400Y67313D01*
X225432Y67449D01*
X226393Y67847D01*
X227219Y68481D01*
X227853Y69307D01*
X228251Y70268D01*
X228387Y71300D01*
X228251Y72332D01*
X227853Y73293D01*
X227219Y74119D01*
X226393Y74753D01*
X225432Y75151D01*
X224400Y75287D01*
X223368Y75151D01*
X222407Y74753D01*
X221581Y74119D01*
X220947Y73293D01*
X220923Y73235D01*
X220423Y73335D01*
Y73800D01*
X220269Y74574D01*
X219831Y75231D01*
X182531Y112531D01*
X181874Y112969D01*
X181100Y113123D01*
X167438D01*
X167246Y113585D01*
X171431Y117769D01*
X171869Y118426D01*
X172023Y119200D01*
Y157167D01*
X172031Y157237D01*
X172063Y157403D01*
X172107Y157560D01*
X172162Y157710D01*
X172230Y157855D01*
X172310Y157995D01*
X172405Y158133D01*
X172516Y158269D01*
X172611Y158370D01*
X172679Y158421D01*
X173281Y159206D01*
X173659Y160119D01*
X173723Y160600D01*
D02*
G37*
G36*
X234400Y115287D02*
X233368Y115151D01*
X232407Y114753D01*
X231581Y114119D01*
X230947Y113293D01*
X230549Y112332D01*
X230413Y111300D01*
X230549Y110268D01*
X230947Y109307D01*
X231581Y108481D01*
X232407Y107847D01*
X233368Y107449D01*
X234400Y107313D01*
X235432Y107449D01*
X236393Y107847D01*
X237219Y108481D01*
X237853Y109307D01*
X238251Y110268D01*
X238387Y111300D01*
X238251Y112332D01*
X237853Y113293D01*
X237219Y114119D01*
X236393Y114753D01*
X235432Y115151D01*
X234400Y115287D01*
D02*
G37*
G36*
X224400D02*
X223368Y115151D01*
X222407Y114753D01*
X221581Y114119D01*
X220947Y113293D01*
X220549Y112332D01*
X220413Y111300D01*
X220549Y110268D01*
X220947Y109307D01*
X221581Y108481D01*
X222407Y107847D01*
X223368Y107449D01*
X224400Y107313D01*
X225432Y107449D01*
X226393Y107847D01*
X227219Y108481D01*
X227853Y109307D01*
X228251Y110268D01*
X228387Y111300D01*
X228251Y112332D01*
X227853Y113293D01*
X227219Y114119D01*
X226393Y114753D01*
X225432Y115151D01*
X224400Y115287D01*
D02*
G37*
G36*
X64400D02*
X63368Y115151D01*
X62407Y114753D01*
X61581Y114119D01*
X60947Y113293D01*
X60549Y112332D01*
X60413Y111300D01*
X60549Y110268D01*
X60947Y109307D01*
X61581Y108481D01*
X62407Y107847D01*
X63368Y107449D01*
X64400Y107313D01*
X65432Y107449D01*
X66393Y107847D01*
X67219Y108481D01*
X67853Y109307D01*
X68251Y110268D01*
X68387Y111300D01*
X68251Y112332D01*
X67853Y113293D01*
X67219Y114119D01*
X66393Y114753D01*
X65432Y115151D01*
X64400Y115287D01*
D02*
G37*
G36*
X96500Y112687D02*
X95468Y112551D01*
X94507Y112153D01*
X93681Y111519D01*
X93047Y110693D01*
X92649Y109732D01*
X92513Y108700D01*
X92649Y107668D01*
X93047Y106707D01*
X93681Y105881D01*
X94507Y105247D01*
X95468Y104849D01*
X96500Y104713D01*
X97532Y104849D01*
X98493Y105247D01*
X99319Y105881D01*
X99953Y106707D01*
X100351Y107668D01*
X100487Y108700D01*
X100351Y109732D01*
X99953Y110693D01*
X99319Y111519D01*
X98493Y112153D01*
X97532Y112551D01*
X96500Y112687D01*
D02*
G37*
G36*
X234400Y105287D02*
X233368Y105151D01*
X232407Y104753D01*
X231581Y104119D01*
X230947Y103293D01*
X230549Y102332D01*
X230413Y101300D01*
X230549Y100268D01*
X230947Y99307D01*
X231581Y98481D01*
X232407Y97847D01*
X233368Y97449D01*
X234400Y97313D01*
X235432Y97449D01*
X236393Y97847D01*
X237219Y98481D01*
X237853Y99307D01*
X238251Y100268D01*
X238387Y101300D01*
X238251Y102332D01*
X237853Y103293D01*
X237219Y104119D01*
X236393Y104753D01*
X235432Y105151D01*
X234400Y105287D01*
D02*
G37*
G36*
X224400D02*
X223368Y105151D01*
X222407Y104753D01*
X221581Y104119D01*
X220947Y103293D01*
X220549Y102332D01*
X220413Y101300D01*
X220549Y100268D01*
X220947Y99307D01*
X221581Y98481D01*
X222407Y97847D01*
X223368Y97449D01*
X224400Y97313D01*
X225432Y97449D01*
X226393Y97847D01*
X227219Y98481D01*
X227853Y99307D01*
X228251Y100268D01*
X228387Y101300D01*
X228251Y102332D01*
X227853Y103293D01*
X227219Y104119D01*
X226393Y104753D01*
X225432Y105151D01*
X224400Y105287D01*
D02*
G37*
G36*
X64400D02*
X63368Y105151D01*
X62407Y104753D01*
X61581Y104119D01*
X60947Y103293D01*
X60549Y102332D01*
X60413Y101300D01*
X60549Y100268D01*
X60947Y99307D01*
X61581Y98481D01*
X62407Y97847D01*
X63368Y97449D01*
X64400Y97313D01*
X65432Y97449D01*
X66393Y97847D01*
X67219Y98481D01*
X67853Y99307D01*
X68251Y100268D01*
X68387Y101300D01*
X68251Y102332D01*
X67853Y103293D01*
X67219Y104119D01*
X66393Y104753D01*
X65432Y105151D01*
X64400Y105287D01*
D02*
G37*
G36*
X11800Y122097D02*
X11128Y122009D01*
X10502Y121749D01*
X9964Y121336D01*
X9551Y120799D01*
X9291Y120172D01*
X9203Y119500D01*
Y100500D01*
X9291Y99828D01*
X9551Y99202D01*
X9964Y98664D01*
X12327Y96300D01*
X12776Y95834D01*
X13232Y95315D01*
X13608Y94839D01*
X13902Y94410D01*
X14115Y94034D01*
X14176Y93895D01*
Y90357D01*
X20624D01*
Y99443D01*
X16829D01*
X16441Y99718D01*
X15262Y100728D01*
X14702Y101270D01*
X14397Y101576D01*
Y119500D01*
X14309Y120172D01*
X14049Y120799D01*
X13636Y121336D01*
X13099Y121749D01*
X12472Y122009D01*
X11800Y122097D01*
D02*
G37*
G36*
X234400Y95287D02*
X233368Y95151D01*
X232407Y94753D01*
X231581Y94119D01*
X230947Y93293D01*
X230549Y92332D01*
X230413Y91300D01*
X230549Y90268D01*
X230947Y89307D01*
X231581Y88481D01*
X232407Y87847D01*
X233368Y87449D01*
X234400Y87313D01*
X235432Y87449D01*
X236393Y87847D01*
X237219Y88481D01*
X237853Y89307D01*
X238251Y90268D01*
X238387Y91300D01*
X238251Y92332D01*
X237853Y93293D01*
X237219Y94119D01*
X236393Y94753D01*
X235432Y95151D01*
X234400Y95287D01*
D02*
G37*
G36*
X224400D02*
X223368Y95151D01*
X222407Y94753D01*
X221581Y94119D01*
X220947Y93293D01*
X220549Y92332D01*
X220413Y91300D01*
X220549Y90268D01*
X220947Y89307D01*
X221581Y88481D01*
X222407Y87847D01*
X223368Y87449D01*
X224400Y87313D01*
X225432Y87449D01*
X226393Y87847D01*
X227219Y88481D01*
X227853Y89307D01*
X228251Y90268D01*
X228387Y91300D01*
X228251Y92332D01*
X227853Y93293D01*
X227219Y94119D01*
X226393Y94753D01*
X225432Y95151D01*
X224400Y95287D01*
D02*
G37*
G36*
X64400D02*
X63368Y95151D01*
X62407Y94753D01*
X61581Y94119D01*
X60947Y93293D01*
X60549Y92332D01*
X60413Y91300D01*
X60549Y90268D01*
X60947Y89307D01*
X61581Y88481D01*
X62407Y87847D01*
X63368Y87449D01*
X64400Y87313D01*
X65432Y87449D01*
X66393Y87847D01*
X67219Y88481D01*
X67853Y89307D01*
X68251Y90268D01*
X68387Y91300D01*
X68251Y92332D01*
X67853Y93293D01*
X67219Y94119D01*
X66393Y94753D01*
X65432Y95151D01*
X64400Y95287D01*
D02*
G37*
G36*
X234400Y85287D02*
X233368Y85151D01*
X232407Y84753D01*
X231581Y84119D01*
X230947Y83293D01*
X230549Y82332D01*
X230413Y81300D01*
X230549Y80268D01*
X230947Y79307D01*
X231581Y78481D01*
X232407Y77847D01*
X233368Y77449D01*
X234400Y77313D01*
X235432Y77449D01*
X236393Y77847D01*
X237219Y78481D01*
X237853Y79307D01*
X238251Y80268D01*
X238387Y81300D01*
X238251Y82332D01*
X237853Y83293D01*
X237219Y84119D01*
X236393Y84753D01*
X235432Y85151D01*
X234400Y85287D01*
D02*
G37*
G36*
X224400D02*
X223368Y85151D01*
X222407Y84753D01*
X221581Y84119D01*
X220947Y83293D01*
X220549Y82332D01*
X220413Y81300D01*
X220549Y80268D01*
X220947Y79307D01*
X221581Y78481D01*
X222407Y77847D01*
X223368Y77449D01*
X224400Y77313D01*
X225432Y77449D01*
X226393Y77847D01*
X227219Y78481D01*
X227853Y79307D01*
X228251Y80268D01*
X228387Y81300D01*
X228251Y82332D01*
X227853Y83293D01*
X227219Y84119D01*
X226393Y84753D01*
X225432Y85151D01*
X224400Y85287D01*
D02*
G37*
G36*
X64400D02*
X63368Y85151D01*
X62407Y84753D01*
X61581Y84119D01*
X60947Y83293D01*
X60549Y82332D01*
X60413Y81300D01*
X60549Y80268D01*
X60947Y79307D01*
X61581Y78481D01*
X62407Y77847D01*
X63368Y77449D01*
X64400Y77313D01*
X65432Y77449D01*
X66393Y77847D01*
X67219Y78481D01*
X67853Y79307D01*
X68251Y80268D01*
X68387Y81300D01*
X68251Y82332D01*
X67853Y83293D01*
X67219Y84119D01*
X66393Y84753D01*
X65432Y85151D01*
X64400Y85287D01*
D02*
G37*
G36*
X234400Y75287D02*
X233368Y75151D01*
X232407Y74753D01*
X231581Y74119D01*
X230947Y73293D01*
X230549Y72332D01*
X230413Y71300D01*
X230549Y70268D01*
X230947Y69307D01*
X231581Y68481D01*
X232407Y67847D01*
X233368Y67449D01*
X234400Y67313D01*
X235432Y67449D01*
X236393Y67847D01*
X237219Y68481D01*
X237853Y69307D01*
X238251Y70268D01*
X238387Y71300D01*
X238251Y72332D01*
X237853Y73293D01*
X237219Y74119D01*
X236393Y74753D01*
X235432Y75151D01*
X234400Y75287D01*
D02*
G37*
G36*
X221700Y37221D02*
Y33800D01*
X225121D01*
X225051Y34332D01*
X224653Y35293D01*
X224019Y36119D01*
X223193Y36753D01*
X222232Y37151D01*
X221700Y37221D01*
D02*
G37*
G36*
X68000Y36891D02*
X67122Y36776D01*
X66304Y36437D01*
X65602Y35898D01*
X65063Y35196D01*
X64724Y34378D01*
X64609Y33500D01*
X64724Y32622D01*
X65063Y31804D01*
X65602Y31102D01*
X66304Y30563D01*
X67122Y30224D01*
X68000Y30109D01*
X68878Y30224D01*
X69696Y30563D01*
X70398Y31102D01*
X70937Y31804D01*
X71276Y32622D01*
X71391Y33500D01*
X71276Y34378D01*
X70937Y35196D01*
X70398Y35898D01*
X69696Y36437D01*
X68878Y36776D01*
X68000Y36891D01*
D02*
G37*
G36*
X41350D02*
X40472Y36776D01*
X39654Y36437D01*
X38952Y35898D01*
X38413Y35196D01*
X38074Y34378D01*
X37959Y33500D01*
X38074Y32622D01*
X38413Y31804D01*
X38952Y31102D01*
X39654Y30563D01*
X40472Y30224D01*
X41350Y30109D01*
X42228Y30224D01*
X43046Y30563D01*
X43748Y31102D01*
X44287Y31804D01*
X44626Y32622D01*
X44741Y33500D01*
X44626Y34378D01*
X44287Y35196D01*
X43748Y35898D01*
X43046Y36437D01*
X42228Y36776D01*
X41350Y36891D01*
D02*
G37*
G36*
X14700D02*
X13822Y36776D01*
X13004Y36437D01*
X12302Y35898D01*
X11763Y35196D01*
X11424Y34378D01*
X11309Y33500D01*
X11424Y32622D01*
X11763Y31804D01*
X12302Y31102D01*
X13004Y30563D01*
X13822Y30224D01*
X14700Y30109D01*
X15578Y30224D01*
X16396Y30563D01*
X17098Y31102D01*
X17637Y31804D01*
X17976Y32622D01*
X18091Y33500D01*
X17976Y34378D01*
X17637Y35196D01*
X17098Y35898D01*
X16396Y36437D01*
X15578Y36776D01*
X14700Y36891D01*
D02*
G37*
G36*
X225121Y32800D02*
X221700D01*
Y29379D01*
X222232Y29449D01*
X223193Y29847D01*
X224019Y30481D01*
X224653Y31307D01*
X225051Y32268D01*
X225121Y32800D01*
D02*
G37*
G36*
X220700D02*
X217279D01*
X217349Y32268D01*
X217747Y31307D01*
X218381Y30481D01*
X219207Y29847D01*
X220168Y29449D01*
X220700Y29379D01*
Y32800D01*
D02*
G37*
G36*
X205153Y37253D02*
X197247D01*
Y29347D01*
X205153D01*
Y37253D01*
D02*
G37*
G36*
X211200Y37287D02*
X210168Y37151D01*
X209207Y36753D01*
X208381Y36119D01*
X207747Y35293D01*
X207349Y34332D01*
X207213Y33300D01*
X207349Y32268D01*
X207747Y31307D01*
X208381Y30481D01*
X209207Y29847D01*
X210168Y29449D01*
X211200Y29313D01*
X212232Y29449D01*
X213193Y29847D01*
X214019Y30481D01*
X214653Y31307D01*
X215051Y32268D01*
X215187Y33300D01*
X215051Y34332D01*
X214653Y35293D01*
X214019Y36119D01*
X213193Y36753D01*
X212232Y37151D01*
X211200Y37287D01*
D02*
G37*
G36*
X175700Y88423D02*
X174926Y88269D01*
X174269Y87831D01*
X173831Y87174D01*
X173712Y86575D01*
X169119Y81981D01*
X168787Y81485D01*
X168671Y80900D01*
Y37604D01*
X168652Y37516D01*
X168609Y37389D01*
X168538Y37232D01*
X168436Y37049D01*
X168301Y36843D01*
X168139Y36627D01*
X167683Y36105D01*
X167466Y35885D01*
X167381Y35819D01*
X166747Y34993D01*
X166349Y34032D01*
X166213Y33000D01*
X166349Y31968D01*
X166747Y31007D01*
X167381Y30181D01*
X168207Y29547D01*
X169168Y29149D01*
X170200Y29013D01*
X171232Y29149D01*
X172193Y29547D01*
X173019Y30181D01*
X173653Y31007D01*
X174051Y31968D01*
X174187Y33000D01*
X174051Y34032D01*
X173653Y34993D01*
X173019Y35819D01*
X172934Y35885D01*
X172717Y36105D01*
X172261Y36627D01*
X172099Y36843D01*
X171964Y37049D01*
X171862Y37232D01*
X171791Y37389D01*
X171748Y37516D01*
X171729Y37604D01*
Y80266D01*
X175874Y84412D01*
X176474Y84531D01*
X177131Y84969D01*
X177569Y85626D01*
X177723Y86400D01*
X177569Y87174D01*
X177131Y87831D01*
X176474Y88269D01*
X175700Y88423D01*
D02*
G37*
G36*
X68000Y26891D02*
X67122Y26776D01*
X66304Y26437D01*
X65602Y25898D01*
X65063Y25196D01*
X64724Y24378D01*
X64609Y23500D01*
X64724Y22622D01*
X65063Y21804D01*
X65602Y21102D01*
X66304Y20563D01*
X67122Y20224D01*
X68000Y20109D01*
X68878Y20224D01*
X69696Y20563D01*
X70398Y21102D01*
X70937Y21804D01*
X71276Y22622D01*
X71391Y23500D01*
X71276Y24378D01*
X70937Y25196D01*
X70398Y25898D01*
X69696Y26437D01*
X68878Y26776D01*
X68000Y26891D01*
D02*
G37*
G36*
X33400Y41223D02*
X32626Y41069D01*
X31969Y40631D01*
X31531Y39974D01*
X31377Y39200D01*
X31531Y38426D01*
X31871Y37917D01*
Y31450D01*
X31987Y30865D01*
X32319Y30369D01*
X37692Y24996D01*
X37721Y24952D01*
X37767Y24868D01*
X37813Y24758D01*
X37857Y24622D01*
X37896Y24457D01*
X37926Y24279D01*
X37965Y23790D01*
X37968Y23568D01*
X37959Y23500D01*
X38074Y22622D01*
X38413Y21804D01*
X38952Y21102D01*
X39654Y20563D01*
X40472Y20224D01*
X41350Y20109D01*
X42228Y20224D01*
X43046Y20563D01*
X43748Y21102D01*
X44287Y21804D01*
X44626Y22622D01*
X44741Y23500D01*
X44626Y24378D01*
X44287Y25196D01*
X43748Y25898D01*
X43046Y26437D01*
X42228Y26776D01*
X41350Y26891D01*
X41291Y26883D01*
X40791Y26900D01*
X40584Y26922D01*
X40393Y26954D01*
X40228Y26993D01*
X40092Y27037D01*
X39982Y27083D01*
X39898Y27129D01*
X39854Y27158D01*
X34929Y32083D01*
Y37917D01*
X35269Y38426D01*
X35423Y39200D01*
X35269Y39974D01*
X34831Y40631D01*
X34174Y41069D01*
X33400Y41223D01*
D02*
G37*
G36*
X14700Y26891D02*
X13822Y26776D01*
X13004Y26437D01*
X12302Y25898D01*
X11763Y25196D01*
X11424Y24378D01*
X11309Y23500D01*
X11424Y22622D01*
X11763Y21804D01*
X12302Y21102D01*
X13004Y20563D01*
X13822Y20224D01*
X14700Y20109D01*
X15578Y20224D01*
X16396Y20563D01*
X17098Y21102D01*
X17637Y21804D01*
X17976Y22622D01*
X18091Y23500D01*
X17976Y24378D01*
X17637Y25196D01*
X17098Y25898D01*
X16396Y26437D01*
X15578Y26776D01*
X14700Y26891D01*
D02*
G37*
G36*
X71362Y16862D02*
X68500D01*
Y14000D01*
X71362D01*
Y16862D01*
D02*
G37*
G36*
X44712D02*
X41850D01*
Y14000D01*
X44712D01*
Y16862D01*
D02*
G37*
G36*
X18062D02*
X15200D01*
Y14000D01*
X18062D01*
Y16862D01*
D02*
G37*
G36*
X40850D02*
X37988D01*
Y14000D01*
X40850D01*
Y16862D01*
D02*
G37*
G36*
X67500D02*
X64638D01*
Y14000D01*
X67500D01*
Y16862D01*
D02*
G37*
G36*
X14200D02*
X11338D01*
Y14000D01*
X14200D01*
Y16862D01*
D02*
G37*
G36*
X71362Y13000D02*
X68500D01*
Y10138D01*
X71362D01*
Y13000D01*
D02*
G37*
G36*
X67500D02*
X64638D01*
Y10138D01*
X67500D01*
Y13000D01*
D02*
G37*
G36*
X44712D02*
X41850D01*
Y10138D01*
X44712D01*
Y13000D01*
D02*
G37*
G36*
X40850D02*
X37988D01*
Y10138D01*
X40850D01*
Y13000D01*
D02*
G37*
G36*
X18062D02*
X15200D01*
Y10138D01*
X18062D01*
Y13000D01*
D02*
G37*
G36*
X14200D02*
X11338D01*
Y10138D01*
X14200D01*
Y13000D01*
D02*
G37*
%LPD*%
G36*
X232291Y259233D02*
X232076Y259439D01*
X231854Y259623D01*
X231625Y259785D01*
X231390Y259926D01*
X231149Y260045D01*
X230901Y260142D01*
X230647Y260218D01*
X230386Y260272D01*
X230118Y260305D01*
X229844Y260316D01*
Y262284D01*
X230118Y262295D01*
X230386Y262328D01*
X230647Y262382D01*
X230901Y262457D01*
X231149Y262555D01*
X231390Y262674D01*
X231625Y262815D01*
X231854Y262977D01*
X232076Y263161D01*
X232291Y263367D01*
Y259233D01*
D02*
G37*
G36*
X226724Y263161D02*
X226946Y262977D01*
X227175Y262815D01*
X227410Y262674D01*
X227651Y262555D01*
X227899Y262457D01*
X228153Y262382D01*
X228414Y262328D01*
X228682Y262295D01*
X228956Y262284D01*
Y260316D01*
X228682Y260305D01*
X228414Y260272D01*
X228153Y260218D01*
X227899Y260142D01*
X227651Y260045D01*
X227410Y259926D01*
X227175Y259785D01*
X226946Y259623D01*
X226724Y259439D01*
X226509Y259233D01*
Y263367D01*
X226724Y263161D01*
D02*
G37*
G36*
X232291Y249233D02*
X232076Y249439D01*
X231854Y249623D01*
X231625Y249785D01*
X231390Y249926D01*
X231149Y250045D01*
X230901Y250143D01*
X230647Y250218D01*
X230386Y250272D01*
X230118Y250305D01*
X229844Y250316D01*
Y252284D01*
X230118Y252295D01*
X230386Y252328D01*
X230647Y252382D01*
X230901Y252457D01*
X231149Y252555D01*
X231390Y252674D01*
X231625Y252815D01*
X231854Y252977D01*
X232076Y253161D01*
X232291Y253367D01*
Y249233D01*
D02*
G37*
G36*
X226724Y253161D02*
X226946Y252977D01*
X227175Y252815D01*
X227410Y252674D01*
X227651Y252555D01*
X227899Y252457D01*
X228153Y252382D01*
X228414Y252328D01*
X228682Y252295D01*
X228956Y252284D01*
Y250316D01*
X228682Y250305D01*
X228414Y250272D01*
X228153Y250218D01*
X227899Y250143D01*
X227651Y250045D01*
X227410Y249926D01*
X227175Y249785D01*
X226946Y249623D01*
X226724Y249439D01*
X226509Y249233D01*
Y253367D01*
X226724Y253161D01*
D02*
G37*
G36*
X127932Y211871D02*
X127656Y212142D01*
X127128Y212600D01*
X126876Y212786D01*
X126633Y212943D01*
X126397Y213071D01*
X126170Y213171D01*
X125950Y213243D01*
X125739Y213286D01*
X125536Y213300D01*
Y214300D01*
X125739Y214314D01*
X125950Y214357D01*
X126170Y214429D01*
X126397Y214529D01*
X126633Y214657D01*
X126876Y214814D01*
X127128Y215000D01*
X127388Y215215D01*
X127932Y215729D01*
Y211871D01*
D02*
G37*
G36*
X100164Y152357D02*
X100025Y152196D01*
X99901Y152005D01*
X99792Y151786D01*
X99698Y151537D01*
X99620Y151258D01*
X99556Y150951D01*
X99507Y150615D01*
X99456Y149854D01*
X99453Y149430D01*
X96530Y152353D01*
X96954Y152356D01*
X97715Y152407D01*
X98051Y152456D01*
X98358Y152520D01*
X98637Y152598D01*
X98886Y152692D01*
X99105Y152801D01*
X99296Y152925D01*
X99457Y153064D01*
X100164Y152357D01*
D02*
G37*
G36*
X171650Y211643D02*
X171489Y211445D01*
X171347Y211240D01*
X171224Y211026D01*
X171121Y210804D01*
X171035Y210574D01*
X170969Y210336D01*
X170922Y210089D01*
X170894Y209835D01*
X170884Y209572D01*
X168916D01*
X168906Y209835D01*
X168878Y210089D01*
X168831Y210336D01*
X168765Y210574D01*
X168679Y210804D01*
X168576Y211026D01*
X168453Y211240D01*
X168311Y211445D01*
X168150Y211643D01*
X167971Y211832D01*
X171829D01*
X171650Y211643D01*
D02*
G37*
G36*
X170894Y191415D02*
X170922Y191161D01*
X170969Y190914D01*
X171035Y190676D01*
X171121Y190446D01*
X171224Y190224D01*
X171347Y190010D01*
X171489Y189805D01*
X171650Y189607D01*
X171829Y189418D01*
X167971D01*
X168150Y189607D01*
X168311Y189805D01*
X168453Y190010D01*
X168576Y190224D01*
X168679Y190446D01*
X168765Y190676D01*
X168831Y190914D01*
X168878Y191161D01*
X168906Y191415D01*
X168916Y191678D01*
X170884D01*
X170894Y191415D01*
D02*
G37*
G36*
X47411Y193877D02*
X47486Y193027D01*
X47611Y192277D01*
X47786Y191627D01*
X48011Y191077D01*
X48286Y190627D01*
X48611Y190277D01*
X48986Y190027D01*
X49411Y189877D01*
X49886Y189827D01*
X39886D01*
X40361Y189877D01*
X40786Y190027D01*
X41161Y190277D01*
X41486Y190627D01*
X41761Y191077D01*
X41986Y191627D01*
X42161Y192277D01*
X42286Y193027D01*
X42361Y193877D01*
X42386Y194827D01*
X47386D01*
X47411Y193877D01*
D02*
G37*
G36*
X171725Y185357D02*
X171570Y185153D01*
X171433Y184942D01*
X171314Y184724D01*
X171213Y184498D01*
X171131Y184266D01*
X171067Y184026D01*
X171021Y183779D01*
X170993Y183524D01*
X170984Y183263D01*
X169016Y183186D01*
X169006Y183450D01*
X168977Y183704D01*
X168928Y183950D01*
X168860Y184186D01*
X168773Y184413D01*
X168666Y184632D01*
X168539Y184841D01*
X168394Y185041D01*
X168228Y185231D01*
X168044Y185413D01*
X171899Y185553D01*
X171725Y185357D01*
D02*
G37*
G36*
X170994Y165065D02*
X171022Y164811D01*
X171069Y164564D01*
X171135Y164326D01*
X171221Y164096D01*
X171324Y163874D01*
X171447Y163661D01*
X171589Y163455D01*
X171750Y163257D01*
X171929Y163068D01*
X168071D01*
X168250Y163257D01*
X168411Y163455D01*
X168553Y163661D01*
X168676Y163874D01*
X168780Y164096D01*
X168865Y164326D01*
X168931Y164564D01*
X168978Y164811D01*
X169006Y165065D01*
X169016Y165328D01*
X170984D01*
X170994Y165065D01*
D02*
G37*
G36*
X128703Y158668D02*
X128419Y158807D01*
X128147Y158914D01*
X127887Y158988D01*
X127639Y159030D01*
X127404Y159040D01*
X127182Y159018D01*
X126971Y158964D01*
X126773Y158877D01*
X126587Y158758D01*
X126414Y158607D01*
X126085Y159692D01*
X126168Y159787D01*
X126265Y159918D01*
X126374Y160086D01*
X126781Y160807D01*
X127508Y162277D01*
X128703Y158668D01*
D02*
G37*
G36*
X100164Y132357D02*
X100025Y132196D01*
X99901Y132005D01*
X99792Y131786D01*
X99698Y131536D01*
X99620Y131258D01*
X99556Y130951D01*
X99507Y130614D01*
X99456Y129854D01*
X99453Y129429D01*
X96530Y132353D01*
X96954Y132356D01*
X97715Y132407D01*
X98051Y132456D01*
X98358Y132519D01*
X98637Y132598D01*
X98886Y132692D01*
X99105Y132801D01*
X99296Y132925D01*
X99457Y133064D01*
X100164Y132357D01*
D02*
G37*
G36*
X131558Y185206D02*
X131100Y184678D01*
X130914Y184426D01*
X130757Y184183D01*
X130629Y183947D01*
X130529Y183720D01*
X130457Y183500D01*
X130414Y183289D01*
X130400Y183086D01*
X129400D01*
X129386Y183289D01*
X129343Y183500D01*
X129271Y183720D01*
X129171Y183947D01*
X129043Y184183D01*
X128885Y184426D01*
X128700Y184678D01*
X128485Y184938D01*
X127971Y185482D01*
X131829D01*
X131558Y185206D01*
D02*
G37*
G36*
X100164Y142357D02*
X100025Y142196D01*
X99901Y142005D01*
X99792Y141786D01*
X99698Y141536D01*
X99620Y141258D01*
X99556Y140951D01*
X99507Y140614D01*
X99456Y139854D01*
X99453Y139429D01*
X96530Y142353D01*
X96954Y142356D01*
X97715Y142407D01*
X98051Y142456D01*
X98358Y142519D01*
X98637Y142598D01*
X98886Y142692D01*
X99105Y142801D01*
X99296Y142925D01*
X99457Y143064D01*
X100164Y142357D01*
D02*
G37*
G36*
X158097Y132511D02*
X158056Y132547D01*
X158008Y132579D01*
X157953Y132607D01*
X157890Y132632D01*
X157821Y132653D01*
X157743Y132670D01*
X157659Y132683D01*
X157567Y132692D01*
X157362Y132700D01*
Y133700D01*
X157468Y133702D01*
X157659Y133717D01*
X157743Y133730D01*
X157821Y133747D01*
X157890Y133768D01*
X157953Y133793D01*
X158008Y133821D01*
X158056Y133853D01*
X158097Y133889D01*
Y132511D01*
D02*
G37*
G36*
X98911Y100469D02*
X99485Y99968D01*
X99758Y99764D01*
X100020Y99592D01*
X100272Y99451D01*
X100515Y99341D01*
X100747Y99263D01*
X100969Y99216D01*
X101182Y99200D01*
Y98200D01*
X100969Y98184D01*
X100747Y98137D01*
X100515Y98059D01*
X100272Y97949D01*
X100020Y97808D01*
X99758Y97636D01*
X99485Y97432D01*
X98911Y96931D01*
X98609Y96633D01*
Y100767D01*
X98911Y100469D01*
D02*
G37*
G36*
X171750Y158943D02*
X171589Y158745D01*
X171447Y158539D01*
X171324Y158326D01*
X171221Y158104D01*
X171135Y157874D01*
X171069Y157636D01*
X171022Y157389D01*
X170994Y157135D01*
X170984Y156872D01*
X169016D01*
X169006Y157135D01*
X168978Y157389D01*
X168931Y157636D01*
X168865Y157874D01*
X168780Y158104D01*
X168676Y158326D01*
X168553Y158539D01*
X168411Y158745D01*
X168250Y158943D01*
X168071Y159132D01*
X171929D01*
X171750Y158943D01*
D02*
G37*
G36*
X156624Y112481D02*
X156684Y112314D01*
X156782Y112167D01*
X156921Y112039D01*
X157099Y111930D01*
X157317Y111842D01*
X157575Y111773D01*
X157872Y111724D01*
X158209Y111694D01*
X158585Y111684D01*
Y109716D01*
X158209Y109706D01*
X157872Y109676D01*
X157575Y109627D01*
X157317Y109558D01*
X157099Y109470D01*
X156921Y109361D01*
X156782Y109233D01*
X156684Y109086D01*
X156624Y108918D01*
X156604Y108731D01*
Y112669D01*
X156624Y112481D01*
D02*
G37*
G36*
X219255Y36640D02*
X219764Y36195D01*
X219859Y36130D01*
X219942Y36082D01*
X220013Y36052D01*
X220070Y36040D01*
X220115Y36046D01*
X218454Y34385D01*
X218460Y34430D01*
X218448Y34487D01*
X218418Y34558D01*
X218370Y34641D01*
X218304Y34736D01*
X218220Y34844D01*
X217998Y35099D01*
X217704Y35404D01*
X219096Y36796D01*
X219255Y36640D01*
D02*
G37*
G36*
X14575Y99974D02*
X15813Y98913D01*
X16346Y98536D01*
X16820Y98261D01*
X17236Y98088D01*
X17595Y98018D01*
X17896Y98049D01*
X18138Y98183D01*
X18323Y98419D01*
X15200Y92658D01*
X15317Y92961D01*
X15359Y93296D01*
X15325Y93662D01*
X15215Y94060D01*
X15029Y94490D01*
X14767Y94951D01*
X14430Y95444D01*
X14016Y95969D01*
X13526Y96525D01*
X12960Y97112D01*
X13869Y100658D01*
X14575Y99974D01*
D02*
G37*
G36*
X175690Y85416D02*
X175636Y85412D01*
X175579Y85401D01*
X175520Y85382D01*
X175459Y85355D01*
X175394Y85321D01*
X175328Y85278D01*
X175259Y85228D01*
X175187Y85169D01*
X175037Y85029D01*
X174329Y85737D01*
X174403Y85813D01*
X174528Y85959D01*
X174578Y86028D01*
X174620Y86094D01*
X174655Y86159D01*
X174682Y86220D01*
X174701Y86279D01*
X174712Y86336D01*
X174716Y86390D01*
X175690Y85416D01*
D02*
G37*
G36*
X170716Y37469D02*
X170763Y37247D01*
X170841Y37015D01*
X170951Y36772D01*
X171092Y36520D01*
X171264Y36258D01*
X171468Y35985D01*
X171969Y35411D01*
X172267Y35109D01*
X168133D01*
X168431Y35411D01*
X168932Y35985D01*
X169136Y36258D01*
X169308Y36520D01*
X169449Y36772D01*
X169559Y37015D01*
X169637Y37247D01*
X169684Y37469D01*
X169700Y37682D01*
X170700D01*
X170716Y37469D01*
D02*
G37*
G36*
X34053Y38456D02*
X34021Y38408D01*
X33993Y38353D01*
X33968Y38291D01*
X33947Y38221D01*
X33930Y38143D01*
X33917Y38059D01*
X33908Y37967D01*
X33900Y37762D01*
X32900D01*
X32898Y37868D01*
X32883Y38059D01*
X32870Y38143D01*
X32853Y38221D01*
X32832Y38291D01*
X32807Y38353D01*
X32779Y38408D01*
X32747Y38456D01*
X32711Y38497D01*
X34089D01*
X34053Y38456D01*
D02*
G37*
G36*
X39207Y26366D02*
X39365Y26258D01*
X39542Y26162D01*
X39738Y26080D01*
X39954Y26011D01*
X40190Y25954D01*
X40445Y25912D01*
X40719Y25882D01*
X41326Y25862D01*
X38988Y23524D01*
X38985Y23837D01*
X38938Y24405D01*
X38895Y24660D01*
X38839Y24896D01*
X38770Y25112D01*
X38688Y25308D01*
X38592Y25485D01*
X38484Y25643D01*
X38362Y25781D01*
X39069Y26488D01*
X39207Y26366D01*
D02*
G37*
%LPC*%
G36*
X121602Y33100D02*
X118100D01*
Y29381D01*
X118644Y29453D01*
X119617Y29856D01*
X120453Y30497D01*
X121094Y31333D01*
X121497Y32306D01*
X121602Y33100D01*
D02*
G37*
G36*
X117100D02*
X113598D01*
X113703Y32306D01*
X114106Y31333D01*
X114747Y30497D01*
X115583Y29856D01*
X116556Y29453D01*
X117100Y29381D01*
Y33100D01*
D02*
G37*
%LPD*%
D10*
X26709Y372709D02*
X129900D01*
X170200Y80900D02*
X175700Y86400D01*
X170200Y33000D02*
Y80900D01*
X152500Y79700D02*
X160200Y72000D01*
Y33000D02*
Y72000D01*
X149516Y33684D02*
Y85984D01*
Y33684D02*
X150200Y33000D01*
X147900Y87600D02*
X149516Y85984D01*
X119984Y90284D02*
X135016D01*
X108400Y78700D02*
X119984Y90284D01*
X96500Y78700D02*
X108400D01*
X55800Y61600D02*
X83900D01*
X91600Y69300D01*
Y83800D01*
X96500Y88700D01*
X101800Y98700D02*
X136300Y133200D01*
X96500Y98700D02*
X101800D01*
X128200Y161100D02*
X130000D01*
X96500Y129400D02*
X128200Y161100D01*
X129900Y172800D02*
Y187450D01*
X96500Y139400D02*
X129900Y172800D01*
X124800Y213800D02*
X129900D01*
X124700Y213900D02*
X124800Y213800D01*
X118900Y208100D02*
X124700Y213900D01*
X118900Y171800D02*
Y208100D01*
X96500Y149400D02*
X118900Y171800D01*
X136300Y133200D02*
X158800D01*
X33400Y31450D02*
X41350Y23500D01*
X33400Y31450D02*
Y39200D01*
X135016Y90284D02*
X139600Y85700D01*
Y73700D02*
Y85700D01*
Y73700D02*
X139700Y73600D01*
X152000Y79700D02*
X152500D01*
X124100Y82300D02*
X131700D01*
X97900Y56100D02*
X124100Y82300D01*
X97800Y56100D02*
X97900D01*
X125200Y87800D02*
X131700D01*
X97800Y60400D02*
X125200Y87800D01*
X48050Y294200D02*
Y300550D01*
Y294200D02*
Y300550D01*
X88369Y323300D02*
X89284Y322384D01*
X88634Y323034D02*
X89284Y322384D01*
X88369Y323300D02*
X88634Y323034D01*
X88634Y323034D02*
X89284Y322384D01*
X88634Y323034D02*
X89284Y322384D01*
X48050Y294200D02*
Y300550D01*
X88369Y323300D02*
X88634Y323034D01*
X67100Y226200D02*
X87900D01*
X64400Y223500D02*
X67100Y226200D01*
X87900D02*
X99500Y237800D01*
X64400Y221300D02*
Y223500D01*
X54000Y269900D02*
Y270200D01*
X53950Y269850D02*
X54000Y269900D01*
X52058Y269850D02*
X53950D01*
X49208Y272700D02*
X52058Y269850D01*
X48385Y272700D02*
X49208D01*
X48050Y300550D02*
X52300Y304800D01*
X74900D01*
X55473Y294300D02*
X73500D01*
X78000Y298800D01*
X52773Y291600D02*
X55473Y294300D01*
X51700Y291600D02*
X52773D01*
X60100Y360900D02*
Y365600D01*
X85100Y312800D02*
Y320900D01*
X78000Y305700D02*
X85100Y312800D01*
X78000Y298800D02*
Y305700D01*
X89284Y300084D02*
Y322384D01*
X88000Y298800D02*
X89284Y300084D01*
X169145Y287900D02*
X169600D01*
X139600Y318900D02*
X151400Y307100D01*
Y300400D02*
Y307100D01*
Y300400D02*
X154000Y297800D01*
X105300Y289400D02*
X141500D01*
X49700Y357900D02*
X57100D01*
X60100Y360900D01*
X88369Y323300D02*
X88900D01*
X104700Y288800D02*
X105300Y289400D01*
X154000Y274400D02*
Y297800D01*
Y274400D02*
X157700Y270700D01*
X154000Y270800D02*
X154100Y270700D01*
X163291Y356500D02*
X175395Y368605D01*
X154100Y356500D02*
X163291D01*
X132900Y318900D02*
X139600D01*
X105000Y358500D02*
X115400Y368900D01*
X97700Y358500D02*
X105000D01*
X169600Y287900D02*
X174500Y292800D01*
X22000Y341600D02*
Y368000D01*
Y296400D02*
Y341600D01*
X154100Y326100D02*
Y342900D01*
X22000Y368000D02*
X26709Y372709D01*
D19*
X144100Y36900D02*
Y107345D01*
X130200Y23000D02*
X144100Y36900D01*
Y107345D02*
X147455Y110700D01*
X181100Y111100D02*
X218400Y73800D01*
Y36100D02*
Y73800D01*
Y36100D02*
X221200Y33300D01*
X107590Y33310D02*
Y33600D01*
Y33310D02*
X117900Y23000D01*
X130200D01*
X204400Y251900D02*
Y261300D01*
Y251300D02*
Y251900D01*
X214400Y251300D02*
Y261300D01*
X224400D02*
X234400D01*
X214400D02*
X224400D01*
X199700Y256600D02*
X204400Y251900D01*
Y251300D02*
X214400D01*
X224400D02*
X234400D01*
X214400D02*
X224400D01*
X74400Y171300D02*
X80300Y165400D01*
Y77300D02*
Y165400D01*
X74400Y211300D02*
Y221300D01*
Y201300D02*
Y211300D01*
Y191300D02*
Y201300D01*
Y181300D02*
Y191300D01*
Y171300D02*
Y181300D01*
X161900Y111100D02*
X181100D01*
X64400Y71300D02*
X74400D01*
Y71400D01*
X80300Y77300D01*
X144400Y251300D02*
X169900Y225800D01*
Y213800D02*
Y225800D01*
X140000Y111100D02*
X147055D01*
X161500Y110700D02*
X161900Y111100D01*
X154345Y110700D02*
X161500D01*
X161900Y111100D02*
X170000Y119200D01*
X169900Y187450D02*
X170000Y187350D01*
Y161100D02*
Y187350D01*
X169900Y187450D02*
Y213800D01*
X170000Y119200D02*
Y161100D01*
X147055Y111100D02*
X147455Y110700D01*
D26*
D03*
X154345D02*
D03*
D27*
X29132Y94900D02*
D03*
X17400D02*
D03*
D65*
X29132Y87932D02*
Y94900D01*
X14000Y72800D02*
X29132Y87932D01*
Y94900D02*
X32100Y97868D01*
Y173000D01*
D66*
X73200Y308200D02*
X74600Y309600D01*
X63500Y308200D02*
X73200D01*
D67*
X11800Y100500D02*
X17400Y94900D01*
X11800Y100500D02*
Y119500D01*
X8800Y194147D02*
Y198800D01*
X23000Y200700D02*
X24807Y202507D01*
X10700Y200700D02*
X23000D01*
X8800Y198800D02*
X10700Y200700D01*
X24807Y202507D02*
Y210705D01*
D68*
X194400Y251300D02*
X199700Y256600D01*
X19900Y272000D02*
Y273815D01*
X76400Y270700D02*
X176300D01*
X104400Y251300D02*
X114400D01*
X203800Y312600D02*
X224300Y333100D01*
X203800Y261900D02*
Y312600D01*
Y261900D02*
X204400Y261300D01*
X184400Y251300D02*
X194400D01*
X64400D02*
X74400D01*
X40600D02*
X64400D01*
X19900Y272000D02*
X40600Y251300D01*
X174400D02*
X184400D01*
X164400D02*
X174400D01*
X154400D02*
X164400D01*
X144400D02*
X154400D01*
X134400D02*
X144400D01*
X124400D02*
X134400D01*
X114400D02*
X124400D01*
X94400D02*
X104400D01*
X84400D02*
X94400D01*
X74400D02*
X84400D01*
X24400Y293500D02*
X37600D01*
X205400Y352000D02*
X224300Y333100D01*
X205400Y352000D02*
Y376600D01*
X195300Y386700D02*
X205400Y376600D01*
X37600Y293500D02*
X53500Y277600D01*
X22000Y296400D02*
Y341600D01*
X19100Y293500D02*
X22000Y296400D01*
X8200Y355400D02*
X22000Y341600D01*
X19100Y293500D02*
X24400D01*
X53500Y277600D02*
X69500D01*
X76400Y270700D01*
X8200Y355400D02*
Y374009D01*
D69*
X44886Y186886D02*
Y203114D01*
X31500Y173500D02*
X44886Y186886D01*
X117600Y33600D02*
Y34790D01*
X110690Y41700D02*
X117600Y34790D01*
X104800Y41700D02*
X110690D01*
X91300Y55200D02*
X104800Y41700D01*
X31600Y55200D02*
X91300D01*
X14000Y72800D02*
X31600Y55200D01*
X64400Y251300D02*
Y261300D01*
X33400Y272300D02*
X43400Y262300D01*
X52800D01*
X20100Y256500D02*
X23246Y253354D01*
Y239754D02*
Y253354D01*
Y239754D02*
X38193Y224807D01*
Y210705D02*
Y224807D01*
X140800Y332900D02*
X175400Y298300D01*
X38900Y332900D02*
X140800D01*
X32500Y326500D02*
X38900Y332900D01*
X175400Y298300D02*
X188200D01*
D70*
X94400Y261300D02*
X104400D01*
X84400D02*
X94400D01*
X74400D02*
X84400D01*
X68700Y267000D02*
X74400Y261300D01*
X47433Y267000D02*
X68700D01*
X38333Y276100D02*
X47433Y267000D01*
D72*
X128600Y374009D02*
X129900Y372709D01*
X195300Y386700D02*
X209700Y401100D01*
X155400Y386700D02*
X195300D01*
X150400Y391700D02*
X155400Y386700D01*
X150400Y391700D02*
Y400200D01*
X149500Y401100D02*
X150400Y400200D01*
X135700Y387300D02*
X149500Y401100D01*
X98300Y387300D02*
X135700D01*
X90300Y395300D02*
X98300Y387300D01*
X90300Y395300D02*
Y401100D01*
X76600Y387400D02*
X90300Y401100D01*
X35000Y387400D02*
X76600D01*
X28400Y394000D02*
X35000Y387400D01*
X28400Y394000D02*
Y401100D01*
X212509Y415191D02*
X220000Y407700D01*
X189200Y415191D02*
X212509D01*
X220000Y401400D02*
Y407700D01*
X219700Y401100D02*
X220000Y401400D01*
X159500Y401100D02*
X159900Y401500D01*
Y406400D01*
X151109Y415191D02*
X159900Y406400D01*
X129800Y415191D02*
X151109D01*
X100300Y401100D02*
Y407500D01*
X92609Y415191D02*
X100300Y407500D01*
X69300Y415191D02*
X92609D01*
X129800Y374009D02*
X189200D01*
X128600D02*
X129800D01*
X69300D02*
X128600D01*
X8200D02*
X69300D01*
D73*
X42700Y200500D02*
X45100Y202900D01*
X97300Y33600D02*
X107590D01*
X84700Y46200D02*
X97300Y33600D01*
X15300Y46200D02*
X84700D01*
X4400Y57100D02*
X15300Y46200D01*
X44886Y203114D02*
Y210705D01*
X31500Y202700D02*
Y210705D01*
X4400Y170300D02*
X4900Y170800D01*
X4400Y57100D02*
Y170300D01*
X4122Y171578D02*
Y207122D01*
Y171578D02*
X4900Y170800D01*
X4122Y207122D02*
X7705Y210705D01*
X18114D01*
X31500Y202700D02*
X33700Y200500D01*
X42700D01*
X44886Y203114D02*
X45100Y202900D01*
X18114Y210705D02*
Y224786D01*
X11900Y231000D02*
X18114Y224786D01*
X11900Y231000D02*
Y286300D01*
X19100Y293500D01*
D74*
X38400Y401100D02*
Y408500D01*
X38500Y408600D01*
X31909Y415191D02*
X38500Y408600D01*
X8200Y415191D02*
X31909D01*
D75*
X201200Y33300D02*
D03*
X224400Y241300D02*
D03*
X104700Y298800D02*
D03*
X86500Y159400D02*
D03*
X150200Y33000D02*
D03*
X74400Y71300D02*
D03*
X86500Y108700D02*
D03*
D76*
X211200Y33300D02*
D03*
X221200D02*
D03*
X234400Y241300D02*
D03*
X224400Y231300D02*
D03*
X234400D02*
D03*
X224400Y221300D02*
D03*
X234400D02*
D03*
X224400Y211300D02*
D03*
X234400D02*
D03*
X224400Y201300D02*
D03*
X234400D02*
D03*
X224400Y191300D02*
D03*
X234400D02*
D03*
X224400Y181300D02*
D03*
X234400D02*
D03*
X224400Y171300D02*
D03*
X234400D02*
D03*
X224400Y161300D02*
D03*
X234400D02*
D03*
X224400Y151300D02*
D03*
X234400D02*
D03*
X224400Y141300D02*
D03*
X234400D02*
D03*
X224400Y131300D02*
D03*
X234400D02*
D03*
X224400Y121300D02*
D03*
X234400D02*
D03*
X224400Y111300D02*
D03*
X234400D02*
D03*
X224400Y101300D02*
D03*
X234400D02*
D03*
X224400Y91300D02*
D03*
X234400D02*
D03*
X224400Y81300D02*
D03*
X234400D02*
D03*
X224400Y71300D02*
D03*
X234400D02*
D03*
X104700Y288800D02*
D03*
X96500Y159400D02*
D03*
X86500Y149400D02*
D03*
X96500D02*
D03*
X86500Y139400D02*
D03*
X96500D02*
D03*
X86500Y129400D02*
D03*
X96500D02*
D03*
X160200Y33000D02*
D03*
X170200D02*
D03*
X64400Y261300D02*
D03*
X74400Y251300D02*
D03*
Y261300D02*
D03*
X84400Y251300D02*
D03*
Y261300D02*
D03*
X94400Y251300D02*
D03*
Y261300D02*
D03*
X104400Y251300D02*
D03*
Y261300D02*
D03*
X114400Y251300D02*
D03*
Y261300D02*
D03*
X124400Y251300D02*
D03*
Y261300D02*
D03*
X134400Y251300D02*
D03*
Y261300D02*
D03*
X144400Y251300D02*
D03*
Y261300D02*
D03*
X154400Y251300D02*
D03*
Y261300D02*
D03*
X164400Y251300D02*
D03*
Y261300D02*
D03*
X174400Y251300D02*
D03*
Y261300D02*
D03*
X184400Y251300D02*
D03*
Y261300D02*
D03*
X194400Y251300D02*
D03*
Y261300D02*
D03*
X204400Y251300D02*
D03*
Y261300D02*
D03*
X214400Y251300D02*
D03*
Y261300D02*
D03*
X224400Y251300D02*
D03*
Y261300D02*
D03*
X234400Y251300D02*
D03*
Y261300D02*
D03*
X64400Y241300D02*
D03*
X74400D02*
D03*
X64400Y231300D02*
D03*
X74400D02*
D03*
X64400Y221300D02*
D03*
X74400D02*
D03*
X64400Y211300D02*
D03*
X74400D02*
D03*
X64400Y201300D02*
D03*
X74400D02*
D03*
X64400Y191300D02*
D03*
X74400D02*
D03*
X64400Y181300D02*
D03*
X74400D02*
D03*
X64400Y171300D02*
D03*
X74400D02*
D03*
X64400Y161300D02*
D03*
X74400D02*
D03*
X64400Y151300D02*
D03*
X74400D02*
D03*
X64400Y141300D02*
D03*
X74400D02*
D03*
X64400Y131300D02*
D03*
X74400D02*
D03*
X64400Y121300D02*
D03*
X74400D02*
D03*
X64400Y111300D02*
D03*
X74400D02*
D03*
X64400Y101300D02*
D03*
X74400D02*
D03*
X64400Y91300D02*
D03*
X74400D02*
D03*
X64400Y81300D02*
D03*
X74400D02*
D03*
X64400Y71300D02*
D03*
X96500Y78700D02*
D03*
X86500D02*
D03*
X96500Y88700D02*
D03*
X86500D02*
D03*
X96500Y98700D02*
D03*
X86500D02*
D03*
X96500Y108700D02*
D03*
X88000Y298800D02*
D03*
Y288800D02*
D03*
X78000Y298800D02*
D03*
Y288800D02*
D03*
X68000Y298800D02*
D03*
Y288800D02*
D03*
X58000Y298800D02*
D03*
D77*
X189200Y374009D02*
D03*
X129800D02*
D03*
X8200D02*
D03*
X69300D02*
D03*
D78*
X189200Y415191D02*
D03*
X207115Y432200D02*
D03*
X226800D02*
D03*
X19100Y273815D02*
D03*
Y293500D02*
D03*
X169400Y432100D02*
D03*
X149715D02*
D03*
X109500Y432800D02*
D03*
X89815D02*
D03*
X48385Y433500D02*
D03*
X28700D02*
D03*
X129800Y415191D02*
D03*
X8200D02*
D03*
X224300Y352785D02*
D03*
Y333100D02*
D03*
X69300Y415191D02*
D03*
D79*
X229700Y401100D02*
D03*
X110300D02*
D03*
X48400D02*
D03*
X169500D02*
D03*
D80*
X219700D02*
D03*
X209700D02*
D03*
X90300D02*
D03*
X100300D02*
D03*
X28400D02*
D03*
X38400D02*
D03*
X149500D02*
D03*
X159500D02*
D03*
D81*
X68000Y33500D02*
D03*
Y23500D02*
D03*
X14700D02*
D03*
Y33500D02*
D03*
X41350Y23500D02*
D03*
Y33500D02*
D03*
D82*
X68000Y13500D02*
D03*
X14700D02*
D03*
X41350D02*
D03*
D83*
X32500Y316500D02*
D03*
Y336500D02*
D03*
Y326500D02*
D03*
X10500Y316500D02*
D03*
Y326500D02*
D03*
Y336500D02*
D03*
D84*
X200400Y203300D02*
D03*
Y127510D02*
D03*
Y165405D02*
D03*
D85*
Y193290D02*
D03*
Y117500D02*
D03*
Y155395D02*
D03*
D86*
X169900Y213800D02*
D03*
X129900D02*
D03*
X130000Y161100D02*
D03*
X170000D02*
D03*
X129900Y187450D02*
D03*
X169900D02*
D03*
D87*
X117600Y33600D02*
D03*
D88*
X107590D02*
D03*
D89*
X199400Y326100D02*
D03*
X9700Y439100D02*
D03*
D90*
X64400Y251300D02*
D03*
X58000Y288800D02*
D03*
D91*
X74600Y309600D02*
D03*
X140000Y111100D02*
D03*
X158800Y133200D02*
D03*
X33400Y39200D02*
D03*
X55800Y61600D02*
D03*
X139700Y73600D02*
D03*
X152000Y79700D02*
D03*
X147900Y87600D02*
D03*
X175700Y86400D02*
D03*
X131700Y82300D02*
D03*
Y87800D02*
D03*
X97800Y56100D02*
D03*
Y60400D02*
D03*
X161900Y111100D02*
D03*
X54000Y270200D02*
D03*
X38333Y276100D02*
D03*
X48385Y272700D02*
D03*
X99500Y237800D02*
D03*
X48000Y294200D02*
D03*
X51700Y291600D02*
D03*
X74900Y304800D02*
D03*
X63500Y308200D02*
D03*
X60100Y365600D02*
D03*
X85100Y320900D02*
D03*
X169145Y287900D02*
D03*
X141500Y289400D02*
D03*
X49700Y357900D02*
D03*
X88900Y323300D02*
D03*
X175395Y368605D02*
D03*
X154100Y356500D02*
D03*
X132900Y318900D02*
D03*
X115400Y368900D02*
D03*
X97700Y358500D02*
D03*
X154000Y297800D02*
D03*
X154100Y326100D02*
D03*
Y342900D02*
D03*
X174500Y292800D02*
D03*
D92*
X52800Y262300D02*
D03*
X8800Y194147D02*
D03*
X14000Y72800D02*
D03*
X11800Y119500D02*
D03*
X33400Y272300D02*
D03*
D93*
X20100Y256500D02*
D03*
X4900Y170800D02*
D03*
D94*
X223500Y298133D02*
D03*
Y307700D02*
D03*
X215100Y302800D02*
D03*
X234100Y297833D02*
D03*
Y307400D02*
D03*
Y288267D02*
D03*
X223500Y288567D02*
D03*
X215100Y283600D02*
D03*
X223500Y279000D02*
D03*
X234100Y278700D02*
D03*
X32100Y173000D02*
D03*
D95*
X188200Y298300D02*
D03*
X176300Y270700D02*
D03*
D96*
X18114Y210705D02*
D03*
X24807D02*
D03*
X31500D02*
D03*
X38193D02*
D03*
X44886D02*
D03*
D97*
X31500Y173500D02*
D03*
D98*
X188000Y298100D02*
X188200Y298300D01*
M02*
