G04*
G04 #@! TF.GenerationSoftware,Altium Limited,Altium Designer,18.1.9 (240)*
G04*
G04 Layer_Color=128*
%FSLAX25Y25*%
%MOIN*%
G70*
G01*
G75*
%ADD103C,0.00200*%
D103*
X199428Y33300D02*
X202972D01*
X201200Y31528D02*
Y35072D01*
X209428Y33300D02*
X212972D01*
X211200Y31528D02*
Y35072D01*
X219428Y33300D02*
X222972D01*
X221200Y31528D02*
Y35072D01*
X186838Y374009D02*
X191562D01*
X189200Y371647D02*
Y376372D01*
X186838Y415191D02*
X191562D01*
X189200Y412828D02*
Y417553D01*
X222628Y241300D02*
X226172D01*
X224400Y239528D02*
Y243072D01*
X232628Y241300D02*
X236172D01*
X234400Y239528D02*
Y243072D01*
X222628Y231300D02*
X226172D01*
X224400Y229528D02*
Y233072D01*
X232628Y231300D02*
X236172D01*
X234400Y229528D02*
Y233072D01*
X222628Y221300D02*
X226172D01*
X224400Y219528D02*
Y223072D01*
X232628Y221300D02*
X236172D01*
X234400Y219528D02*
Y223072D01*
X222628Y211300D02*
X226172D01*
X224400Y209528D02*
Y213072D01*
X232628Y211300D02*
X236172D01*
X234400Y209528D02*
Y213072D01*
X222628Y201300D02*
X226172D01*
X224400Y199528D02*
Y203072D01*
X232628Y201300D02*
X236172D01*
X234400Y199528D02*
Y203072D01*
X222628Y191300D02*
X226172D01*
X224400Y189528D02*
Y193072D01*
X232628Y191300D02*
X236172D01*
X234400Y189528D02*
Y193072D01*
X222628Y181300D02*
X226172D01*
X224400Y179528D02*
Y183072D01*
X232628Y181300D02*
X236172D01*
X234400Y179528D02*
Y183072D01*
X222628Y171300D02*
X226172D01*
X224400Y169528D02*
Y173072D01*
X232628Y171300D02*
X236172D01*
X234400Y169528D02*
Y173072D01*
X222628Y161300D02*
X226172D01*
X224400Y159528D02*
Y163072D01*
X232628Y161300D02*
X236172D01*
X234400Y159528D02*
Y163072D01*
X222628Y151300D02*
X226172D01*
X224400Y149528D02*
Y153072D01*
X232628Y151300D02*
X236172D01*
X234400Y149528D02*
Y153072D01*
X222628Y141300D02*
X226172D01*
X224400Y139528D02*
Y143072D01*
X232628Y141300D02*
X236172D01*
X234400Y139528D02*
Y143072D01*
X222628Y131300D02*
X226172D01*
X224400Y129528D02*
Y133072D01*
X232628Y131300D02*
X236172D01*
X234400Y129528D02*
Y133072D01*
X222628Y121300D02*
X226172D01*
X224400Y119528D02*
Y123072D01*
X232628Y121300D02*
X236172D01*
X234400Y119528D02*
Y123072D01*
X222628Y111300D02*
X226172D01*
X224400Y109528D02*
Y113072D01*
X232628Y111300D02*
X236172D01*
X234400Y109528D02*
Y113072D01*
X222628Y101300D02*
X226172D01*
X224400Y99528D02*
Y103072D01*
X232628Y101300D02*
X236172D01*
X234400Y99528D02*
Y103072D01*
X222628Y91300D02*
X226172D01*
X224400Y89528D02*
Y93072D01*
X232628Y91300D02*
X236172D01*
X234400Y89528D02*
Y93072D01*
X222628Y81300D02*
X226172D01*
X224400Y79528D02*
Y83072D01*
X232628Y81300D02*
X236172D01*
X234400Y79528D02*
Y83072D01*
X222628Y71300D02*
X226172D01*
X224400Y69528D02*
Y73072D01*
X232628Y71300D02*
X236172D01*
X234400Y69528D02*
Y73072D01*
X102928Y288800D02*
X106472D01*
X104700Y287028D02*
Y290572D01*
X102928Y298800D02*
X106472D01*
X104700Y297028D02*
Y300572D01*
X227731Y401100D02*
X231668D01*
X229700Y399131D02*
Y403068D01*
X217731Y401100D02*
X221669D01*
X219700Y399131D02*
Y403068D01*
X207732Y401100D02*
X211668D01*
X209700Y399131D02*
Y403068D01*
X66622Y33500D02*
X69378D01*
X68000Y32122D02*
Y34878D01*
X66622Y23500D02*
X69378D01*
X68000Y22122D02*
Y24878D01*
X66622Y13500D02*
X69378D01*
X68000Y12122D02*
Y14878D01*
X30500Y316500D02*
X34500D01*
X32500Y314500D02*
Y318500D01*
X30500Y336500D02*
X34500D01*
X32500Y334500D02*
Y338500D01*
X30500Y326500D02*
X34500D01*
X32500Y324500D02*
Y328500D01*
X8500Y316500D02*
X12500D01*
X10500Y314500D02*
Y318500D01*
X8500Y326500D02*
X12500D01*
X10500Y324500D02*
Y328500D01*
X8500Y336500D02*
X12500D01*
X10500Y334500D02*
Y338500D01*
X205147Y432200D02*
X209084D01*
X207115Y430232D02*
Y434168D01*
X224832Y432200D02*
X228768D01*
X226800Y430232D02*
Y434168D01*
X198432Y203300D02*
X202368D01*
X200400Y201331D02*
Y205269D01*
X198432Y193290D02*
X202368D01*
X200400Y191322D02*
Y195258D01*
X84728Y159400D02*
X88272D01*
X86500Y157628D02*
Y161172D01*
X94728Y159400D02*
X98272D01*
X96500Y157628D02*
Y161172D01*
X84728Y149400D02*
X88272D01*
X86500Y147628D02*
Y151172D01*
X94728Y149400D02*
X98272D01*
X96500Y147628D02*
Y151172D01*
X84728Y139400D02*
X88272D01*
X86500Y137628D02*
Y141172D01*
X94728Y139400D02*
X98272D01*
X96500Y137628D02*
Y141172D01*
X84728Y129400D02*
X88272D01*
X86500Y127628D02*
Y131172D01*
X94728Y129400D02*
X98272D01*
X96500Y127628D02*
Y131172D01*
X168227Y213800D02*
X171573D01*
X169900Y212127D02*
Y215473D01*
X128227Y213800D02*
X131573D01*
X129900Y212127D02*
Y215473D01*
X115631Y33600D02*
X119569D01*
X117600Y31631D02*
Y35568D01*
X105622Y33600D02*
X109558D01*
X107590Y31631D02*
Y35568D01*
X148428Y33000D02*
X151972D01*
X150200Y31228D02*
Y34772D01*
X158428Y33000D02*
X161972D01*
X160200Y31228D02*
Y34772D01*
X168428Y33000D02*
X171972D01*
X170200Y31228D02*
Y34772D01*
X128327Y161100D02*
X131673D01*
X130000Y159427D02*
Y162773D01*
X168327Y161100D02*
X171673D01*
X170000Y159427D02*
Y162773D01*
X128227Y187450D02*
X131573D01*
X129900Y185777D02*
Y189123D01*
X168227Y187450D02*
X171573D01*
X169900Y185777D02*
Y189123D01*
X198432Y117500D02*
X202368D01*
X200400Y115532D02*
Y119468D01*
X198432Y127510D02*
X202368D01*
X200400Y125542D02*
Y129479D01*
X198432Y155395D02*
X202368D01*
X200400Y153427D02*
Y157363D01*
X198432Y165405D02*
X202368D01*
X200400Y163436D02*
Y167374D01*
X194085Y326100D02*
X204715D01*
X199400Y320785D02*
Y331415D01*
X4385Y439100D02*
X15015D01*
X9700Y433785D02*
Y444415D01*
X17131Y273815D02*
X21068D01*
X19100Y271847D02*
Y275783D01*
X17131Y293500D02*
X21068D01*
X19100Y291531D02*
Y295468D01*
X13322Y13500D02*
X16078D01*
X14700Y12122D02*
Y14878D01*
X13322Y23500D02*
X16078D01*
X14700Y22122D02*
Y24878D01*
X13322Y33500D02*
X16078D01*
X14700Y32122D02*
Y34878D01*
X39972Y13500D02*
X42728D01*
X41350Y12122D02*
Y14878D01*
X39972Y23500D02*
X42728D01*
X41350Y22122D02*
Y24878D01*
X39972Y33500D02*
X42728D01*
X41350Y32122D02*
Y34878D01*
X167431Y432100D02*
X171369D01*
X169400Y430131D02*
Y434068D01*
X147747Y432100D02*
X151683D01*
X149715Y430131D02*
Y434068D01*
X107531Y432800D02*
X111469D01*
X109500Y430831D02*
Y434768D01*
X87846Y432800D02*
X91783D01*
X89815Y430831D02*
Y434768D01*
X46417Y433500D02*
X50353D01*
X48385Y431531D02*
Y435468D01*
X26732Y433500D02*
X30669D01*
X28700Y431531D02*
Y435468D01*
X62628Y251300D02*
X66172D01*
X64400Y249528D02*
Y253072D01*
X62628Y261300D02*
X66172D01*
X64400Y259528D02*
Y263072D01*
X72628Y251300D02*
X76172D01*
X74400Y249528D02*
Y253072D01*
X72628Y261300D02*
X76172D01*
X74400Y259528D02*
Y263072D01*
X82628Y251300D02*
X86172D01*
X84400Y249528D02*
Y253072D01*
X82628Y261300D02*
X86172D01*
X84400Y259528D02*
Y263072D01*
X92628Y251300D02*
X96172D01*
X94400Y249528D02*
Y253072D01*
X92628Y261300D02*
X96172D01*
X94400Y259528D02*
Y263072D01*
X102628Y251300D02*
X106172D01*
X104400Y249528D02*
Y253072D01*
X102628Y261300D02*
X106172D01*
X104400Y259528D02*
Y263072D01*
X112628Y251300D02*
X116172D01*
X114400Y249528D02*
Y253072D01*
X112628Y261300D02*
X116172D01*
X114400Y259528D02*
Y263072D01*
X122628Y251300D02*
X126172D01*
X124400Y249528D02*
Y253072D01*
X122628Y261300D02*
X126172D01*
X124400Y259528D02*
Y263072D01*
X132628Y251300D02*
X136172D01*
X134400Y249528D02*
Y253072D01*
X132628Y261300D02*
X136172D01*
X134400Y259528D02*
Y263072D01*
X142628Y251300D02*
X146172D01*
X144400Y249528D02*
Y253072D01*
X142628Y261300D02*
X146172D01*
X144400Y259528D02*
Y263072D01*
X152628Y251300D02*
X156172D01*
X154400Y249528D02*
Y253072D01*
X152628Y261300D02*
X156172D01*
X154400Y259528D02*
Y263072D01*
X162628Y251300D02*
X166172D01*
X164400Y249528D02*
Y253072D01*
X162628Y261300D02*
X166172D01*
X164400Y259528D02*
Y263072D01*
X172628Y251300D02*
X176172D01*
X174400Y249528D02*
Y253072D01*
X172628Y261300D02*
X176172D01*
X174400Y259528D02*
Y263072D01*
X182628Y251300D02*
X186172D01*
X184400Y249528D02*
Y253072D01*
X182628Y261300D02*
X186172D01*
X184400Y259528D02*
Y263072D01*
X192628Y251300D02*
X196172D01*
X194400Y249528D02*
Y253072D01*
X192628Y261300D02*
X196172D01*
X194400Y259528D02*
Y263072D01*
X202628Y251300D02*
X206172D01*
X204400Y249528D02*
Y253072D01*
X202628Y261300D02*
X206172D01*
X204400Y259528D02*
Y263072D01*
X212628Y251300D02*
X216172D01*
X214400Y249528D02*
Y253072D01*
X212628Y261300D02*
X216172D01*
X214400Y259528D02*
Y263072D01*
X222628Y251300D02*
X226172D01*
X224400Y249528D02*
Y253072D01*
X222628Y261300D02*
X226172D01*
X224400Y259528D02*
Y263072D01*
X232628Y251300D02*
X236172D01*
X234400Y249528D02*
Y253072D01*
X232628Y261300D02*
X236172D01*
X234400Y259528D02*
Y263072D01*
X127438Y415191D02*
X132162D01*
X129800Y412828D02*
Y417553D01*
X127438Y374009D02*
X132162D01*
X129800Y371647D02*
Y376372D01*
X5838Y415191D02*
X10562D01*
X8200Y412828D02*
Y417553D01*
X5838Y374009D02*
X10562D01*
X8200Y371647D02*
Y376372D01*
X222332Y352785D02*
X226269D01*
X224300Y350816D02*
Y354753D01*
X222332Y333100D02*
X226269D01*
X224300Y331132D02*
Y335068D01*
X62628Y241300D02*
X66172D01*
X64400Y239528D02*
Y243072D01*
X72628Y241300D02*
X76172D01*
X74400Y239528D02*
Y243072D01*
X62628Y231300D02*
X66172D01*
X64400Y229528D02*
Y233072D01*
X72628Y231300D02*
X76172D01*
X74400Y229528D02*
Y233072D01*
X62628Y221300D02*
X66172D01*
X64400Y219528D02*
Y223072D01*
X72628Y221300D02*
X76172D01*
X74400Y219528D02*
Y223072D01*
X62628Y211300D02*
X66172D01*
X64400Y209528D02*
Y213072D01*
X72628Y211300D02*
X76172D01*
X74400Y209528D02*
Y213072D01*
X62628Y201300D02*
X66172D01*
X64400Y199528D02*
Y203072D01*
X72628Y201300D02*
X76172D01*
X74400Y199528D02*
Y203072D01*
X62628Y191300D02*
X66172D01*
X64400Y189528D02*
Y193072D01*
X72628Y191300D02*
X76172D01*
X74400Y189528D02*
Y193072D01*
X62628Y181300D02*
X66172D01*
X64400Y179528D02*
Y183072D01*
X72628Y181300D02*
X76172D01*
X74400Y179528D02*
Y183072D01*
X62628Y171300D02*
X66172D01*
X64400Y169528D02*
Y173072D01*
X72628Y171300D02*
X76172D01*
X74400Y169528D02*
Y173072D01*
X62628Y161300D02*
X66172D01*
X64400Y159528D02*
Y163072D01*
X72628Y161300D02*
X76172D01*
X74400Y159528D02*
Y163072D01*
X62628Y151300D02*
X66172D01*
X64400Y149528D02*
Y153072D01*
X72628Y151300D02*
X76172D01*
X74400Y149528D02*
Y153072D01*
X62628Y141300D02*
X66172D01*
X64400Y139528D02*
Y143072D01*
X72628Y141300D02*
X76172D01*
X74400Y139528D02*
Y143072D01*
X62628Y131300D02*
X66172D01*
X64400Y129528D02*
Y133072D01*
X72628Y131300D02*
X76172D01*
X74400Y129528D02*
Y133072D01*
X62628Y121300D02*
X66172D01*
X64400Y119528D02*
Y123072D01*
X72628Y121300D02*
X76172D01*
X74400Y119528D02*
Y123072D01*
X62628Y111300D02*
X66172D01*
X64400Y109528D02*
Y113072D01*
X72628Y111300D02*
X76172D01*
X74400Y109528D02*
Y113072D01*
X62628Y101300D02*
X66172D01*
X64400Y99528D02*
Y103072D01*
X72628Y101300D02*
X76172D01*
X74400Y99528D02*
Y103072D01*
X62628Y91300D02*
X66172D01*
X64400Y89528D02*
Y93072D01*
X72628Y91300D02*
X76172D01*
X74400Y89528D02*
Y93072D01*
X62628Y81300D02*
X66172D01*
X64400Y79528D02*
Y83072D01*
X72628Y81300D02*
X76172D01*
X74400Y79528D02*
Y83072D01*
X62628Y71300D02*
X66172D01*
X64400Y69528D02*
Y73072D01*
X72628Y71300D02*
X76172D01*
X74400Y69528D02*
Y73072D01*
X66938Y415191D02*
X71662D01*
X69300Y412828D02*
Y417553D01*
X66938Y374009D02*
X71662D01*
X69300Y371647D02*
Y376372D01*
X88332Y401100D02*
X92269D01*
X90300Y399131D02*
Y403068D01*
X98331Y401100D02*
X102269D01*
X100300Y399131D02*
Y403068D01*
X108332Y401100D02*
X112268D01*
X110300Y399131D02*
Y403068D01*
X26432Y401100D02*
X30369D01*
X28400Y399131D02*
Y403068D01*
X36432Y401100D02*
X40369D01*
X38400Y399131D02*
Y403068D01*
X46431Y401100D02*
X50368D01*
X48400Y399131D02*
Y403068D01*
X147531Y401100D02*
X151469D01*
X149500Y399131D02*
Y403068D01*
X157531Y401100D02*
X161469D01*
X159500Y399131D02*
Y403068D01*
X167532Y401100D02*
X171468D01*
X169500Y399131D02*
Y403068D01*
X94728Y78700D02*
X98272D01*
X96500Y76928D02*
Y80472D01*
X84728Y78700D02*
X88272D01*
X86500Y76928D02*
Y80472D01*
X94728Y88700D02*
X98272D01*
X96500Y86928D02*
Y90472D01*
X84728Y88700D02*
X88272D01*
X86500Y86928D02*
Y90472D01*
X94728Y98700D02*
X98272D01*
X96500Y96928D02*
Y100472D01*
X84728Y98700D02*
X88272D01*
X86500Y96928D02*
Y100472D01*
X94728Y108700D02*
X98272D01*
X96500Y106928D02*
Y110472D01*
X84728Y108700D02*
X88272D01*
X86500Y106928D02*
Y110472D01*
X86228Y298800D02*
X89772D01*
X88000Y297028D02*
Y300572D01*
X86228Y288800D02*
X89772D01*
X88000Y287028D02*
Y290572D01*
X76228Y298800D02*
X79772D01*
X78000Y297028D02*
Y300572D01*
X76228Y288800D02*
X79772D01*
X78000Y287028D02*
Y290572D01*
X66228Y298800D02*
X69772D01*
X68000Y297028D02*
Y300572D01*
X66228Y288800D02*
X69772D01*
X68000Y287028D02*
Y290572D01*
X56228Y298800D02*
X59772D01*
X58000Y297028D02*
Y300572D01*
X56228Y288800D02*
X59772D01*
X58000Y287028D02*
Y290572D01*
X74010Y309600D02*
X75191D01*
X74600Y309010D02*
Y310191D01*
X139409Y111100D02*
X140591D01*
X140000Y110509D02*
Y111691D01*
X158209Y133200D02*
X159391D01*
X158800Y132609D02*
Y133791D01*
X32809Y39200D02*
X33991D01*
X33400Y38609D02*
Y39791D01*
X55209Y61600D02*
X56391D01*
X55800Y61010D02*
Y62191D01*
X139109Y73600D02*
X140291D01*
X139700Y73010D02*
Y74190D01*
X151409Y79700D02*
X152591D01*
X152000Y79110D02*
Y80291D01*
X147309Y87600D02*
X148491D01*
X147900Y87010D02*
Y88191D01*
X175109Y86400D02*
X176291D01*
X175700Y85809D02*
Y86990D01*
X131109Y82300D02*
X132291D01*
X131700Y81709D02*
Y82890D01*
X131109Y87800D02*
X132291D01*
X131700Y87209D02*
Y88390D01*
X97210Y56100D02*
X98391D01*
X97800Y55510D02*
Y56691D01*
X97210Y60400D02*
X98391D01*
X97800Y59809D02*
Y60991D01*
X161309Y111100D02*
X162491D01*
X161900Y110509D02*
Y111691D01*
X53409Y270200D02*
X54590D01*
X54000Y269609D02*
Y270791D01*
X37743Y276100D02*
X38924D01*
X38333Y275510D02*
Y276691D01*
X47794Y272700D02*
X48976D01*
X48385Y272110D02*
Y273290D01*
X98909Y237800D02*
X100091D01*
X99500Y237210D02*
Y238390D01*
X51619Y262300D02*
X53981D01*
X52800Y261119D02*
Y263481D01*
X47409Y294200D02*
X48591D01*
X48000Y293609D02*
Y294791D01*
X51109Y291600D02*
X52290D01*
X51700Y291009D02*
Y292191D01*
X74309Y304800D02*
X75490D01*
X74900Y304209D02*
Y305391D01*
X18722Y256500D02*
X21478D01*
X20100Y255122D02*
Y257878D01*
X62910Y308200D02*
X64091D01*
X63500Y307610D02*
Y308790D01*
X7816Y194147D02*
X9784D01*
X8800Y193163D02*
Y195131D01*
X222000Y298133D02*
X225000D01*
X223500Y296633D02*
Y299633D01*
X222000Y307700D02*
X225000D01*
X223500Y306200D02*
Y309200D01*
X213600Y302800D02*
X216600D01*
X215100Y301300D02*
Y304300D01*
X232600Y297833D02*
X235600D01*
X234100Y296333D02*
Y299333D01*
X232600Y307400D02*
X235600D01*
X234100Y305900D02*
Y308900D01*
X232600Y288267D02*
X235600D01*
X234100Y286767D02*
Y289767D01*
X222000Y288567D02*
X225000D01*
X223500Y287067D02*
Y290067D01*
X59509Y365600D02*
X60690D01*
X60100Y365009D02*
Y366191D01*
X3916Y170800D02*
X5884D01*
X4900Y169816D02*
Y171784D01*
X12819Y72800D02*
X15181D01*
X14000Y71619D02*
Y73981D01*
X10619Y119500D02*
X12981D01*
X11800Y118319D02*
Y120681D01*
X32317Y272300D02*
X34483D01*
X33400Y271217D02*
Y273383D01*
X84509Y320900D02*
X85690D01*
X85100Y320309D02*
Y321491D01*
X168554Y287900D02*
X169736D01*
X169145Y287310D02*
Y288491D01*
X140909Y289400D02*
X142091D01*
X141500Y288809D02*
Y289990D01*
X49109Y357900D02*
X50291D01*
X49700Y357310D02*
Y358490D01*
X88310Y323300D02*
X89490D01*
X88900Y322709D02*
Y323890D01*
X213600Y283600D02*
X216600D01*
X215100Y282100D02*
Y285100D01*
X222000Y279000D02*
X225000D01*
X223500Y277500D02*
Y280500D01*
X232600Y278700D02*
X235600D01*
X234100Y277200D02*
Y280200D01*
X174805Y368605D02*
X175986D01*
X175395Y368014D02*
Y369195D01*
X153509Y356500D02*
X154691D01*
X154100Y355909D02*
Y357090D01*
X132309Y318900D02*
X133491D01*
X132900Y318309D02*
Y319491D01*
X114809Y368900D02*
X115991D01*
X115400Y368309D02*
Y369491D01*
X97110Y358500D02*
X98290D01*
X97700Y357909D02*
Y359090D01*
X153409Y297800D02*
X154591D01*
X154000Y297210D02*
Y298391D01*
X153509Y326100D02*
X154691D01*
X154100Y325510D02*
Y326691D01*
X153509Y342900D02*
X154691D01*
X154100Y342309D02*
Y343491D01*
X173909Y292800D02*
X175091D01*
X174500Y292210D02*
Y293390D01*
X30722Y173000D02*
X33478D01*
X32100Y171622D02*
Y174378D01*
X187216Y298300D02*
X189184D01*
X188200Y297316D02*
Y299284D01*
X175316Y270700D02*
X177284D01*
X176300Y269716D02*
Y271684D01*
M02*
