G04*
G04 #@! TF.GenerationSoftware,Altium Limited,Altium Designer,18.1.9 (240)*
G04*
G04 Layer_Color=32896*
%FSLAX25Y25*%
%MOIN*%
G70*
G01*
G75*
%ADD10C,0.01000*%
%ADD12C,0.00984*%
%ADD15C,0.00787*%
%ADD17C,0.00500*%
D10*
X143884Y106519D02*
Y114881D01*
X157916Y106519D02*
Y114881D01*
X143884Y106519D02*
X148538D01*
X153262D02*
X157916D01*
X153262Y114881D02*
X157916D01*
X143884D02*
X148538D01*
D12*
X14374Y210705D02*
G03*
X14374Y210705I-492J0D01*
G01*
D15*
X11028Y191413D02*
Y200272D01*
X51972D01*
Y191413D02*
Y200272D01*
D17*
X52900Y224199D02*
Y221283D01*
X52317Y220700D01*
X51151D01*
X50567Y221283D01*
Y224199D01*
X47069D02*
X49401D01*
Y222449D01*
X48235Y223033D01*
X47652D01*
X47069Y222449D01*
Y221283D01*
X47652Y220700D01*
X48818D01*
X49401Y221283D01*
X33200Y106599D02*
Y103100D01*
X31451D01*
X30867Y103683D01*
Y106016D01*
X31451Y106599D01*
X33200D01*
X29701Y103683D02*
X29118Y103100D01*
X27952D01*
X27369Y103683D01*
Y106016D01*
X27952Y106599D01*
X29118D01*
X29701Y106016D01*
Y105433D01*
X29118Y104849D01*
X27369D01*
X147667Y120016D02*
X148251Y120599D01*
X149417D01*
X150000Y120016D01*
Y117683D01*
X149417Y117100D01*
X148251D01*
X147667Y117683D01*
X146501Y117100D02*
X145335D01*
X145918D01*
Y120599D01*
X146501Y120016D01*
M02*
