G04*
G04 #@! TF.GenerationSoftware,Altium Limited,Altium Designer,18.1.9 (240)*
G04*
G04 Layer_Color=16711935*
%FSLAX25Y25*%
%MOIN*%
G70*
G01*
G75*
%ADD36R,0.05367X0.06587*%
%ADD37R,0.05249X0.07887*%
%ADD45R,0.06706X0.06706*%
%ADD46C,0.06706*%
%ADD47R,0.08674X0.08674*%
%ADD48C,0.08674*%
%ADD49R,0.07099X0.07099*%
%ADD50C,0.07099*%
%ADD51C,0.05524*%
%ADD52R,0.05524X0.05524*%
%ADD53C,0.06800*%
%ADD54O,0.07300X0.06800*%
%ADD55R,0.07300X0.06800*%
%ADD56C,0.06312*%
%ADD57O,0.06800X0.07300*%
%ADD58R,0.06800X0.07300*%
%ADD59C,0.12611*%
%ADD60R,0.06706X0.06706*%
%ADD61C,0.02769*%
%ADD62C,0.03950*%
%ADD63C,0.04737*%
%ADD64C,0.05800*%
%ADD72C,0.06000*%
%ADD99R,0.04934X0.13398*%
%ADD100R,0.41942X0.33477*%
D36*
X147455Y110700D02*
D03*
X154345D02*
D03*
D37*
X29132Y94900D02*
D03*
X17400D02*
D03*
D45*
X201200Y33300D02*
D03*
X224400Y241300D02*
D03*
X104700Y298800D02*
D03*
X86500Y159400D02*
D03*
X150200Y33000D02*
D03*
X74400Y71300D02*
D03*
X86500Y108700D02*
D03*
D46*
X211200Y33300D02*
D03*
X221200D02*
D03*
X234400Y241300D02*
D03*
X224400Y231300D02*
D03*
X234400D02*
D03*
X224400Y221300D02*
D03*
X234400D02*
D03*
X224400Y211300D02*
D03*
X234400D02*
D03*
X224400Y201300D02*
D03*
X234400D02*
D03*
X224400Y191300D02*
D03*
X234400D02*
D03*
X224400Y181300D02*
D03*
X234400D02*
D03*
X224400Y171300D02*
D03*
X234400D02*
D03*
X224400Y161300D02*
D03*
X234400D02*
D03*
X224400Y151300D02*
D03*
X234400D02*
D03*
X224400Y141300D02*
D03*
X234400D02*
D03*
X224400Y131300D02*
D03*
X234400D02*
D03*
X224400Y121300D02*
D03*
X234400D02*
D03*
X224400Y111300D02*
D03*
X234400D02*
D03*
X224400Y101300D02*
D03*
X234400D02*
D03*
X224400Y91300D02*
D03*
X234400D02*
D03*
X224400Y81300D02*
D03*
X234400D02*
D03*
X224400Y71300D02*
D03*
X234400D02*
D03*
X104700Y288800D02*
D03*
X96500Y159400D02*
D03*
X86500Y149400D02*
D03*
X96500D02*
D03*
X86500Y139400D02*
D03*
X96500D02*
D03*
X86500Y129400D02*
D03*
X96500D02*
D03*
X160200Y33000D02*
D03*
X170200D02*
D03*
X64400Y261300D02*
D03*
X74400Y251300D02*
D03*
Y261300D02*
D03*
X84400Y251300D02*
D03*
Y261300D02*
D03*
X94400Y251300D02*
D03*
Y261300D02*
D03*
X104400Y251300D02*
D03*
Y261300D02*
D03*
X114400Y251300D02*
D03*
Y261300D02*
D03*
X124400Y251300D02*
D03*
Y261300D02*
D03*
X134400Y251300D02*
D03*
Y261300D02*
D03*
X144400Y251300D02*
D03*
Y261300D02*
D03*
X154400Y251300D02*
D03*
Y261300D02*
D03*
X164400Y251300D02*
D03*
Y261300D02*
D03*
X174400Y251300D02*
D03*
Y261300D02*
D03*
X184400Y251300D02*
D03*
Y261300D02*
D03*
X194400Y251300D02*
D03*
Y261300D02*
D03*
X204400Y251300D02*
D03*
Y261300D02*
D03*
X214400Y251300D02*
D03*
Y261300D02*
D03*
X224400Y251300D02*
D03*
Y261300D02*
D03*
X234400Y251300D02*
D03*
Y261300D02*
D03*
X64400Y241300D02*
D03*
X74400D02*
D03*
X64400Y231300D02*
D03*
X74400D02*
D03*
X64400Y221300D02*
D03*
X74400D02*
D03*
X64400Y211300D02*
D03*
X74400D02*
D03*
X64400Y201300D02*
D03*
X74400D02*
D03*
X64400Y191300D02*
D03*
X74400D02*
D03*
X64400Y181300D02*
D03*
X74400D02*
D03*
X64400Y171300D02*
D03*
X74400D02*
D03*
X64400Y161300D02*
D03*
X74400D02*
D03*
X64400Y151300D02*
D03*
X74400D02*
D03*
X64400Y141300D02*
D03*
X74400D02*
D03*
X64400Y131300D02*
D03*
X74400D02*
D03*
X64400Y121300D02*
D03*
X74400D02*
D03*
X64400Y111300D02*
D03*
X74400D02*
D03*
X64400Y101300D02*
D03*
X74400D02*
D03*
X64400Y91300D02*
D03*
X74400D02*
D03*
X64400Y81300D02*
D03*
X74400D02*
D03*
X64400Y71300D02*
D03*
X96500Y78700D02*
D03*
X86500D02*
D03*
X96500Y88700D02*
D03*
X86500D02*
D03*
X96500Y98700D02*
D03*
X86500D02*
D03*
X96500Y108700D02*
D03*
X88000Y298800D02*
D03*
Y288800D02*
D03*
X78000Y298800D02*
D03*
Y288800D02*
D03*
X68000Y298800D02*
D03*
Y288800D02*
D03*
X58000Y298800D02*
D03*
D47*
X189200Y374009D02*
D03*
X129800D02*
D03*
X8200D02*
D03*
X69300D02*
D03*
D48*
X189200Y415191D02*
D03*
X207115Y432200D02*
D03*
X226800D02*
D03*
X19100Y273815D02*
D03*
Y293500D02*
D03*
X169400Y432100D02*
D03*
X149715D02*
D03*
X109500Y432800D02*
D03*
X89815D02*
D03*
X48385Y433500D02*
D03*
X28700D02*
D03*
X129800Y415191D02*
D03*
X8200D02*
D03*
X224300Y352785D02*
D03*
Y333100D02*
D03*
X69300Y415191D02*
D03*
D49*
X229700Y401100D02*
D03*
X110300D02*
D03*
X48400D02*
D03*
X169500D02*
D03*
D50*
X219700D02*
D03*
X209700D02*
D03*
X90300D02*
D03*
X100300D02*
D03*
X28400D02*
D03*
X38400D02*
D03*
X149500D02*
D03*
X159500D02*
D03*
D51*
X68000Y33500D02*
D03*
Y23500D02*
D03*
X14700D02*
D03*
Y33500D02*
D03*
X41350Y23500D02*
D03*
Y33500D02*
D03*
D52*
X68000Y13500D02*
D03*
X14700D02*
D03*
X41350D02*
D03*
D53*
X32500Y316500D02*
D03*
Y336500D02*
D03*
Y326500D02*
D03*
X10500Y316500D02*
D03*
Y326500D02*
D03*
Y336500D02*
D03*
D54*
X200400Y203300D02*
D03*
Y127510D02*
D03*
Y165405D02*
D03*
D55*
Y193290D02*
D03*
Y117500D02*
D03*
Y155395D02*
D03*
D56*
X169900Y213800D02*
D03*
X129900D02*
D03*
X130000Y161100D02*
D03*
X170000D02*
D03*
X129900Y187450D02*
D03*
X169900D02*
D03*
D57*
X117600Y33600D02*
D03*
D58*
X107590D02*
D03*
D59*
X199400Y326100D02*
D03*
X9700Y439100D02*
D03*
D60*
X64400Y251300D02*
D03*
X58000Y288800D02*
D03*
D61*
X74600Y309600D02*
D03*
X140000Y111100D02*
D03*
X158800Y133200D02*
D03*
X33400Y39200D02*
D03*
X55800Y61600D02*
D03*
X139700Y73600D02*
D03*
X152000Y79700D02*
D03*
X147900Y87600D02*
D03*
X175700Y86400D02*
D03*
X131700Y82300D02*
D03*
Y87800D02*
D03*
X97800Y56100D02*
D03*
Y60400D02*
D03*
X161900Y111100D02*
D03*
X54000Y270200D02*
D03*
X38333Y276100D02*
D03*
X48385Y272700D02*
D03*
X99500Y237800D02*
D03*
X48000Y294200D02*
D03*
X51700Y291600D02*
D03*
X74900Y304800D02*
D03*
X63500Y308200D02*
D03*
D62*
X52800Y262300D02*
D03*
X8800Y194147D02*
D03*
X14000Y72800D02*
D03*
X11800Y119500D02*
D03*
X33400Y272300D02*
D03*
D63*
X20100Y256500D02*
D03*
X4900Y170800D02*
D03*
D64*
X223500Y298133D02*
D03*
Y307700D02*
D03*
X215100Y302800D02*
D03*
X234100Y297833D02*
D03*
Y307400D02*
D03*
Y288267D02*
D03*
X223500Y288567D02*
D03*
X215100Y283600D02*
D03*
X223500Y279000D02*
D03*
X234100Y278700D02*
D03*
D72*
X189200Y415191D02*
X212509D01*
D99*
X18114Y210705D02*
D03*
X24807D02*
D03*
X31500D02*
D03*
X38193D02*
D03*
X44886D02*
D03*
D100*
X31500Y173500D02*
D03*
M02*
